<?xml version="1.0" encoding="utf-8" standalone="no"?>
<!DOCTYPE svg PUBLIC "-//W3C//DTD SVG 1.1//EN"
  "http://www.w3.org/Graphics/SVG/1.1/DTD/svg11.dtd">
<!-- Created with matplotlib (http://matplotlib.org/) -->
<svg height="504pt" version="1.1" viewBox="0 0 460.8 504" width="460.8pt" xmlns="http://www.w3.org/2000/svg" xmlns:xlink="http://www.w3.org/1999/xlink">
 <defs>
  <style type="text/css">
*{stroke-linecap:butt;stroke-linejoin:round;}
  </style>
 </defs>
 <g id="figure_1">
  <g id="patch_1">
   <path d="M 0 504 
L 460.8 504 
L 460.8 0 
L 0 0 
z
" style="fill:#ffffff;"/>
  </g>
  <g id="axes_1">
   <g id="patch_2">
    <path d="M 57.6 236.88 
L 414.72 236.88 
L 414.72 60.48 
L 57.6 60.48 
z
" style="fill:#ffffff;"/>
   </g>
   <g id="matplotlib.axis_1">
    <g id="xtick_1">
     <g id="line2d_1">
      <defs>
       <path d="M 0 0 
L 0 3.5 
" id="m52f2788442" style="stroke:#000000;stroke-width:0.8;"/>
      </defs>
      <g>
       <use style="stroke:#000000;stroke-width:0.8;" x="73.832727" xlink:href="#m52f2788442" y="236.88"/>
      </g>
     </g>
     <g id="text_1">
      <!-- 0 -->
      <defs>
       <path d="M 31.78125 66.40625 
Q 24.171875 66.40625 20.328125 58.90625 
Q 16.5 51.421875 16.5 36.375 
Q 16.5 21.390625 20.328125 13.890625 
Q 24.171875 6.390625 31.78125 6.390625 
Q 39.453125 6.390625 43.28125 13.890625 
Q 47.125 21.390625 47.125 36.375 
Q 47.125 51.421875 43.28125 58.90625 
Q 39.453125 66.40625 31.78125 66.40625 
z
M 31.78125 74.21875 
Q 44.046875 74.21875 50.515625 64.515625 
Q 56.984375 54.828125 56.984375 36.375 
Q 56.984375 17.96875 50.515625 8.265625 
Q 44.046875 -1.421875 31.78125 -1.421875 
Q 19.53125 -1.421875 13.0625 8.265625 
Q 6.59375 17.96875 6.59375 36.375 
Q 6.59375 54.828125 13.0625 64.515625 
Q 19.53125 74.21875 31.78125 74.21875 
z
" id="DejaVuSans-30"/>
      </defs>
      <g transform="translate(70.651477 251.478437)scale(0.1 -0.1)">
       <use xlink:href="#DejaVuSans-30"/>
      </g>
     </g>
    </g>
    <g id="xtick_2">
     <g id="line2d_2">
      <g>
       <use style="stroke:#000000;stroke-width:0.8;" x="135.204097" xlink:href="#m52f2788442" y="236.88"/>
      </g>
     </g>
     <g id="text_2">
      <!-- 100 -->
      <defs>
       <path d="M 12.40625 8.296875 
L 28.515625 8.296875 
L 28.515625 63.921875 
L 10.984375 60.40625 
L 10.984375 69.390625 
L 28.421875 72.90625 
L 38.28125 72.90625 
L 38.28125 8.296875 
L 54.390625 8.296875 
L 54.390625 0 
L 12.40625 0 
z
" id="DejaVuSans-31"/>
      </defs>
      <g transform="translate(125.660347 251.478437)scale(0.1 -0.1)">
       <use xlink:href="#DejaVuSans-31"/>
       <use x="63.623047" xlink:href="#DejaVuSans-30"/>
       <use x="127.246094" xlink:href="#DejaVuSans-30"/>
      </g>
     </g>
    </g>
    <g id="xtick_3">
     <g id="line2d_3">
      <g>
       <use style="stroke:#000000;stroke-width:0.8;" x="196.575467" xlink:href="#m52f2788442" y="236.88"/>
      </g>
     </g>
     <g id="text_3">
      <!-- 200 -->
      <defs>
       <path d="M 19.1875 8.296875 
L 53.609375 8.296875 
L 53.609375 0 
L 7.328125 0 
L 7.328125 8.296875 
Q 12.9375 14.109375 22.625 23.890625 
Q 32.328125 33.6875 34.8125 36.53125 
Q 39.546875 41.84375 41.421875 45.53125 
Q 43.3125 49.21875 43.3125 52.78125 
Q 43.3125 58.59375 39.234375 62.25 
Q 35.15625 65.921875 28.609375 65.921875 
Q 23.96875 65.921875 18.8125 64.3125 
Q 13.671875 62.703125 7.8125 59.421875 
L 7.8125 69.390625 
Q 13.765625 71.78125 18.9375 73 
Q 24.125 74.21875 28.421875 74.21875 
Q 39.75 74.21875 46.484375 68.546875 
Q 53.21875 62.890625 53.21875 53.421875 
Q 53.21875 48.921875 51.53125 44.890625 
Q 49.859375 40.875 45.40625 35.40625 
Q 44.1875 33.984375 37.640625 27.21875 
Q 31.109375 20.453125 19.1875 8.296875 
z
" id="DejaVuSans-32"/>
      </defs>
      <g transform="translate(187.031717 251.478437)scale(0.1 -0.1)">
       <use xlink:href="#DejaVuSans-32"/>
       <use x="63.623047" xlink:href="#DejaVuSans-30"/>
       <use x="127.246094" xlink:href="#DejaVuSans-30"/>
      </g>
     </g>
    </g>
    <g id="xtick_4">
     <g id="line2d_4">
      <g>
       <use style="stroke:#000000;stroke-width:0.8;" x="257.946836" xlink:href="#m52f2788442" y="236.88"/>
      </g>
     </g>
     <g id="text_4">
      <!-- 300 -->
      <defs>
       <path d="M 40.578125 39.3125 
Q 47.65625 37.796875 51.625 33 
Q 55.609375 28.21875 55.609375 21.1875 
Q 55.609375 10.40625 48.1875 4.484375 
Q 40.765625 -1.421875 27.09375 -1.421875 
Q 22.515625 -1.421875 17.65625 -0.515625 
Q 12.796875 0.390625 7.625 2.203125 
L 7.625 11.71875 
Q 11.71875 9.328125 16.59375 8.109375 
Q 21.484375 6.890625 26.8125 6.890625 
Q 36.078125 6.890625 40.9375 10.546875 
Q 45.796875 14.203125 45.796875 21.1875 
Q 45.796875 27.640625 41.28125 31.265625 
Q 36.765625 34.90625 28.71875 34.90625 
L 20.21875 34.90625 
L 20.21875 43.015625 
L 29.109375 43.015625 
Q 36.375 43.015625 40.234375 45.921875 
Q 44.09375 48.828125 44.09375 54.296875 
Q 44.09375 59.90625 40.109375 62.90625 
Q 36.140625 65.921875 28.71875 65.921875 
Q 24.65625 65.921875 20.015625 65.03125 
Q 15.375 64.15625 9.8125 62.3125 
L 9.8125 71.09375 
Q 15.4375 72.65625 20.34375 73.4375 
Q 25.25 74.21875 29.59375 74.21875 
Q 40.828125 74.21875 47.359375 69.109375 
Q 53.90625 64.015625 53.90625 55.328125 
Q 53.90625 49.265625 50.4375 45.09375 
Q 46.96875 40.921875 40.578125 39.3125 
z
" id="DejaVuSans-33"/>
      </defs>
      <g transform="translate(248.403086 251.478437)scale(0.1 -0.1)">
       <use xlink:href="#DejaVuSans-33"/>
       <use x="63.623047" xlink:href="#DejaVuSans-30"/>
       <use x="127.246094" xlink:href="#DejaVuSans-30"/>
      </g>
     </g>
    </g>
    <g id="xtick_5">
     <g id="line2d_5">
      <g>
       <use style="stroke:#000000;stroke-width:0.8;" x="319.318206" xlink:href="#m52f2788442" y="236.88"/>
      </g>
     </g>
     <g id="text_5">
      <!-- 400 -->
      <defs>
       <path d="M 37.796875 64.3125 
L 12.890625 25.390625 
L 37.796875 25.390625 
z
M 35.203125 72.90625 
L 47.609375 72.90625 
L 47.609375 25.390625 
L 58.015625 25.390625 
L 58.015625 17.1875 
L 47.609375 17.1875 
L 47.609375 0 
L 37.796875 0 
L 37.796875 17.1875 
L 4.890625 17.1875 
L 4.890625 26.703125 
z
" id="DejaVuSans-34"/>
      </defs>
      <g transform="translate(309.774456 251.478437)scale(0.1 -0.1)">
       <use xlink:href="#DejaVuSans-34"/>
       <use x="63.623047" xlink:href="#DejaVuSans-30"/>
       <use x="127.246094" xlink:href="#DejaVuSans-30"/>
      </g>
     </g>
    </g>
    <g id="xtick_6">
     <g id="line2d_6">
      <g>
       <use style="stroke:#000000;stroke-width:0.8;" x="380.689576" xlink:href="#m52f2788442" y="236.88"/>
      </g>
     </g>
     <g id="text_6">
      <!-- 500 -->
      <defs>
       <path d="M 10.796875 72.90625 
L 49.515625 72.90625 
L 49.515625 64.59375 
L 19.828125 64.59375 
L 19.828125 46.734375 
Q 21.96875 47.46875 24.109375 47.828125 
Q 26.265625 48.1875 28.421875 48.1875 
Q 40.625 48.1875 47.75 41.5 
Q 54.890625 34.8125 54.890625 23.390625 
Q 54.890625 11.625 47.5625 5.09375 
Q 40.234375 -1.421875 26.90625 -1.421875 
Q 22.3125 -1.421875 17.546875 -0.640625 
Q 12.796875 0.140625 7.71875 1.703125 
L 7.71875 11.625 
Q 12.109375 9.234375 16.796875 8.0625 
Q 21.484375 6.890625 26.703125 6.890625 
Q 35.15625 6.890625 40.078125 11.328125 
Q 45.015625 15.765625 45.015625 23.390625 
Q 45.015625 31 40.078125 35.4375 
Q 35.15625 39.890625 26.703125 39.890625 
Q 22.75 39.890625 18.8125 39.015625 
Q 14.890625 38.140625 10.796875 36.28125 
z
" id="DejaVuSans-35"/>
      </defs>
      <g transform="translate(371.145826 251.478437)scale(0.1 -0.1)">
       <use xlink:href="#DejaVuSans-35"/>
       <use x="63.623047" xlink:href="#DejaVuSans-30"/>
       <use x="127.246094" xlink:href="#DejaVuSans-30"/>
      </g>
     </g>
    </g>
   </g>
   <g id="matplotlib.axis_2">
    <g id="ytick_1">
     <g id="line2d_7">
      <defs>
       <path d="M 0 0 
L -3.5 0 
" id="m274dbe38db" style="stroke:#000000;stroke-width:0.8;"/>
      </defs>
      <g>
       <use style="stroke:#000000;stroke-width:0.8;" x="57.6" xlink:href="#m274dbe38db" y="233.339338"/>
      </g>
     </g>
     <g id="text_7">
      <!-- 29 -->
      <defs>
       <path d="M 10.984375 1.515625 
L 10.984375 10.5 
Q 14.703125 8.734375 18.5 7.8125 
Q 22.3125 6.890625 25.984375 6.890625 
Q 35.75 6.890625 40.890625 13.453125 
Q 46.046875 20.015625 46.78125 33.40625 
Q 43.953125 29.203125 39.59375 26.953125 
Q 35.25 24.703125 29.984375 24.703125 
Q 19.046875 24.703125 12.671875 31.3125 
Q 6.296875 37.9375 6.296875 49.421875 
Q 6.296875 60.640625 12.9375 67.421875 
Q 19.578125 74.21875 30.609375 74.21875 
Q 43.265625 74.21875 49.921875 64.515625 
Q 56.59375 54.828125 56.59375 36.375 
Q 56.59375 19.140625 48.40625 8.859375 
Q 40.234375 -1.421875 26.421875 -1.421875 
Q 22.703125 -1.421875 18.890625 -0.6875 
Q 15.09375 0.046875 10.984375 1.515625 
z
M 30.609375 32.421875 
Q 37.25 32.421875 41.125 36.953125 
Q 45.015625 41.5 45.015625 49.421875 
Q 45.015625 57.28125 41.125 61.84375 
Q 37.25 66.40625 30.609375 66.40625 
Q 23.96875 66.40625 20.09375 61.84375 
Q 16.21875 57.28125 16.21875 49.421875 
Q 16.21875 41.5 20.09375 36.953125 
Q 23.96875 32.421875 30.609375 32.421875 
z
" id="DejaVuSans-39"/>
      </defs>
      <g transform="translate(37.875 237.138557)scale(0.1 -0.1)">
       <use xlink:href="#DejaVuSans-32"/>
       <use x="63.623047" xlink:href="#DejaVuSans-39"/>
      </g>
     </g>
    </g>
    <g id="ytick_2">
     <g id="line2d_8">
      <g>
       <use style="stroke:#000000;stroke-width:0.8;" x="57.6" xlink:href="#m274dbe38db" y="211.221799"/>
      </g>
     </g>
     <g id="text_8">
      <!-- 30 -->
      <g transform="translate(37.875 215.021017)scale(0.1 -0.1)">
       <use xlink:href="#DejaVuSans-33"/>
       <use x="63.623047" xlink:href="#DejaVuSans-30"/>
      </g>
     </g>
    </g>
    <g id="ytick_3">
     <g id="line2d_9">
      <g>
       <use style="stroke:#000000;stroke-width:0.8;" x="57.6" xlink:href="#m274dbe38db" y="189.10426"/>
      </g>
     </g>
     <g id="text_9">
      <!-- 31 -->
      <g transform="translate(37.875 192.903478)scale(0.1 -0.1)">
       <use xlink:href="#DejaVuSans-33"/>
       <use x="63.623047" xlink:href="#DejaVuSans-31"/>
      </g>
     </g>
    </g>
    <g id="ytick_4">
     <g id="line2d_10">
      <g>
       <use style="stroke:#000000;stroke-width:0.8;" x="57.6" xlink:href="#m274dbe38db" y="166.98672"/>
      </g>
     </g>
     <g id="text_10">
      <!-- 32 -->
      <g transform="translate(37.875 170.785939)scale(0.1 -0.1)">
       <use xlink:href="#DejaVuSans-33"/>
       <use x="63.623047" xlink:href="#DejaVuSans-32"/>
      </g>
     </g>
    </g>
    <g id="ytick_5">
     <g id="line2d_11">
      <g>
       <use style="stroke:#000000;stroke-width:0.8;" x="57.6" xlink:href="#m274dbe38db" y="144.869181"/>
      </g>
     </g>
     <g id="text_11">
      <!-- 33 -->
      <g transform="translate(37.875 148.6684)scale(0.1 -0.1)">
       <use xlink:href="#DejaVuSans-33"/>
       <use x="63.623047" xlink:href="#DejaVuSans-33"/>
      </g>
     </g>
    </g>
    <g id="ytick_6">
     <g id="line2d_12">
      <g>
       <use style="stroke:#000000;stroke-width:0.8;" x="57.6" xlink:href="#m274dbe38db" y="122.751642"/>
      </g>
     </g>
     <g id="text_12">
      <!-- 34 -->
      <g transform="translate(37.875 126.550861)scale(0.1 -0.1)">
       <use xlink:href="#DejaVuSans-33"/>
       <use x="63.623047" xlink:href="#DejaVuSans-34"/>
      </g>
     </g>
    </g>
    <g id="ytick_7">
     <g id="line2d_13">
      <g>
       <use style="stroke:#000000;stroke-width:0.8;" x="57.6" xlink:href="#m274dbe38db" y="100.634103"/>
      </g>
     </g>
     <g id="text_13">
      <!-- 35 -->
      <g transform="translate(37.875 104.433322)scale(0.1 -0.1)">
       <use xlink:href="#DejaVuSans-33"/>
       <use x="63.623047" xlink:href="#DejaVuSans-35"/>
      </g>
     </g>
    </g>
    <g id="ytick_8">
     <g id="line2d_14">
      <g>
       <use style="stroke:#000000;stroke-width:0.8;" x="57.6" xlink:href="#m274dbe38db" y="78.516564"/>
      </g>
     </g>
     <g id="text_14">
      <!-- 36 -->
      <defs>
       <path d="M 33.015625 40.375 
Q 26.375 40.375 22.484375 35.828125 
Q 18.609375 31.296875 18.609375 23.390625 
Q 18.609375 15.53125 22.484375 10.953125 
Q 26.375 6.390625 33.015625 6.390625 
Q 39.65625 6.390625 43.53125 10.953125 
Q 47.40625 15.53125 47.40625 23.390625 
Q 47.40625 31.296875 43.53125 35.828125 
Q 39.65625 40.375 33.015625 40.375 
z
M 52.59375 71.296875 
L 52.59375 62.3125 
Q 48.875 64.0625 45.09375 64.984375 
Q 41.3125 65.921875 37.59375 65.921875 
Q 27.828125 65.921875 22.671875 59.328125 
Q 17.53125 52.734375 16.796875 39.40625 
Q 19.671875 43.65625 24.015625 45.921875 
Q 28.375 48.1875 33.59375 48.1875 
Q 44.578125 48.1875 50.953125 41.515625 
Q 57.328125 34.859375 57.328125 23.390625 
Q 57.328125 12.15625 50.6875 5.359375 
Q 44.046875 -1.421875 33.015625 -1.421875 
Q 20.359375 -1.421875 13.671875 8.265625 
Q 6.984375 17.96875 6.984375 36.375 
Q 6.984375 53.65625 15.1875 63.9375 
Q 23.390625 74.21875 37.203125 74.21875 
Q 40.921875 74.21875 44.703125 73.484375 
Q 48.484375 72.75 52.59375 71.296875 
z
" id="DejaVuSans-36"/>
      </defs>
      <g transform="translate(37.875 82.315783)scale(0.1 -0.1)">
       <use xlink:href="#DejaVuSans-33"/>
       <use x="63.623047" xlink:href="#DejaVuSans-36"/>
      </g>
     </g>
    </g>
    <g id="text_15">
     <!-- Temperatura [Celsius] -->
     <defs>
      <path d="M -0.296875 72.90625 
L 61.375 72.90625 
L 61.375 64.59375 
L 35.5 64.59375 
L 35.5 0 
L 25.59375 0 
L 25.59375 64.59375 
L -0.296875 64.59375 
z
" id="DejaVuSans-54"/>
      <path d="M 56.203125 29.59375 
L 56.203125 25.203125 
L 14.890625 25.203125 
Q 15.484375 15.921875 20.484375 11.0625 
Q 25.484375 6.203125 34.421875 6.203125 
Q 39.59375 6.203125 44.453125 7.46875 
Q 49.3125 8.734375 54.109375 11.28125 
L 54.109375 2.78125 
Q 49.265625 0.734375 44.1875 -0.34375 
Q 39.109375 -1.421875 33.890625 -1.421875 
Q 20.796875 -1.421875 13.15625 6.1875 
Q 5.515625 13.8125 5.515625 26.8125 
Q 5.515625 40.234375 12.765625 48.109375 
Q 20.015625 56 32.328125 56 
Q 43.359375 56 49.78125 48.890625 
Q 56.203125 41.796875 56.203125 29.59375 
z
M 47.21875 32.234375 
Q 47.125 39.59375 43.09375 43.984375 
Q 39.0625 48.390625 32.421875 48.390625 
Q 24.90625 48.390625 20.390625 44.140625 
Q 15.875 39.890625 15.1875 32.171875 
z
" id="DejaVuSans-65"/>
      <path d="M 52 44.1875 
Q 55.375 50.25 60.0625 53.125 
Q 64.75 56 71.09375 56 
Q 79.640625 56 84.28125 50.015625 
Q 88.921875 44.046875 88.921875 33.015625 
L 88.921875 0 
L 79.890625 0 
L 79.890625 32.71875 
Q 79.890625 40.578125 77.09375 44.375 
Q 74.3125 48.1875 68.609375 48.1875 
Q 61.625 48.1875 57.5625 43.546875 
Q 53.515625 38.921875 53.515625 30.90625 
L 53.515625 0 
L 44.484375 0 
L 44.484375 32.71875 
Q 44.484375 40.625 41.703125 44.40625 
Q 38.921875 48.1875 33.109375 48.1875 
Q 26.21875 48.1875 22.15625 43.53125 
Q 18.109375 38.875 18.109375 30.90625 
L 18.109375 0 
L 9.078125 0 
L 9.078125 54.6875 
L 18.109375 54.6875 
L 18.109375 46.1875 
Q 21.1875 51.21875 25.484375 53.609375 
Q 29.78125 56 35.6875 56 
Q 41.65625 56 45.828125 52.96875 
Q 50 49.953125 52 44.1875 
z
" id="DejaVuSans-6d"/>
      <path d="M 18.109375 8.203125 
L 18.109375 -20.796875 
L 9.078125 -20.796875 
L 9.078125 54.6875 
L 18.109375 54.6875 
L 18.109375 46.390625 
Q 20.953125 51.265625 25.265625 53.625 
Q 29.59375 56 35.59375 56 
Q 45.5625 56 51.78125 48.09375 
Q 58.015625 40.1875 58.015625 27.296875 
Q 58.015625 14.40625 51.78125 6.484375 
Q 45.5625 -1.421875 35.59375 -1.421875 
Q 29.59375 -1.421875 25.265625 0.953125 
Q 20.953125 3.328125 18.109375 8.203125 
z
M 48.6875 27.296875 
Q 48.6875 37.203125 44.609375 42.84375 
Q 40.53125 48.484375 33.40625 48.484375 
Q 26.265625 48.484375 22.1875 42.84375 
Q 18.109375 37.203125 18.109375 27.296875 
Q 18.109375 17.390625 22.1875 11.75 
Q 26.265625 6.109375 33.40625 6.109375 
Q 40.53125 6.109375 44.609375 11.75 
Q 48.6875 17.390625 48.6875 27.296875 
z
" id="DejaVuSans-70"/>
      <path d="M 41.109375 46.296875 
Q 39.59375 47.171875 37.8125 47.578125 
Q 36.03125 48 33.890625 48 
Q 26.265625 48 22.1875 43.046875 
Q 18.109375 38.09375 18.109375 28.8125 
L 18.109375 0 
L 9.078125 0 
L 9.078125 54.6875 
L 18.109375 54.6875 
L 18.109375 46.1875 
Q 20.953125 51.171875 25.484375 53.578125 
Q 30.03125 56 36.53125 56 
Q 37.453125 56 38.578125 55.875 
Q 39.703125 55.765625 41.0625 55.515625 
z
" id="DejaVuSans-72"/>
      <path d="M 34.28125 27.484375 
Q 23.390625 27.484375 19.1875 25 
Q 14.984375 22.515625 14.984375 16.5 
Q 14.984375 11.71875 18.140625 8.90625 
Q 21.296875 6.109375 26.703125 6.109375 
Q 34.1875 6.109375 38.703125 11.40625 
Q 43.21875 16.703125 43.21875 25.484375 
L 43.21875 27.484375 
z
M 52.203125 31.203125 
L 52.203125 0 
L 43.21875 0 
L 43.21875 8.296875 
Q 40.140625 3.328125 35.546875 0.953125 
Q 30.953125 -1.421875 24.3125 -1.421875 
Q 15.921875 -1.421875 10.953125 3.296875 
Q 6 8.015625 6 15.921875 
Q 6 25.140625 12.171875 29.828125 
Q 18.359375 34.515625 30.609375 34.515625 
L 43.21875 34.515625 
L 43.21875 35.40625 
Q 43.21875 41.609375 39.140625 45 
Q 35.0625 48.390625 27.6875 48.390625 
Q 23 48.390625 18.546875 47.265625 
Q 14.109375 46.140625 10.015625 43.890625 
L 10.015625 52.203125 
Q 14.9375 54.109375 19.578125 55.046875 
Q 24.21875 56 28.609375 56 
Q 40.484375 56 46.34375 49.84375 
Q 52.203125 43.703125 52.203125 31.203125 
z
" id="DejaVuSans-61"/>
      <path d="M 18.3125 70.21875 
L 18.3125 54.6875 
L 36.8125 54.6875 
L 36.8125 47.703125 
L 18.3125 47.703125 
L 18.3125 18.015625 
Q 18.3125 11.328125 20.140625 9.421875 
Q 21.96875 7.515625 27.59375 7.515625 
L 36.8125 7.515625 
L 36.8125 0 
L 27.59375 0 
Q 17.1875 0 13.234375 3.875 
Q 9.28125 7.765625 9.28125 18.015625 
L 9.28125 47.703125 
L 2.6875 47.703125 
L 2.6875 54.6875 
L 9.28125 54.6875 
L 9.28125 70.21875 
z
" id="DejaVuSans-74"/>
      <path d="M 8.5 21.578125 
L 8.5 54.6875 
L 17.484375 54.6875 
L 17.484375 21.921875 
Q 17.484375 14.15625 20.5 10.265625 
Q 23.53125 6.390625 29.59375 6.390625 
Q 36.859375 6.390625 41.078125 11.03125 
Q 45.3125 15.671875 45.3125 23.6875 
L 45.3125 54.6875 
L 54.296875 54.6875 
L 54.296875 0 
L 45.3125 0 
L 45.3125 8.40625 
Q 42.046875 3.421875 37.71875 1 
Q 33.40625 -1.421875 27.6875 -1.421875 
Q 18.265625 -1.421875 13.375 4.4375 
Q 8.5 10.296875 8.5 21.578125 
z
M 31.109375 56 
z
" id="DejaVuSans-75"/>
      <path id="DejaVuSans-20"/>
      <path d="M 8.59375 75.984375 
L 29.296875 75.984375 
L 29.296875 69 
L 17.578125 69 
L 17.578125 -6.203125 
L 29.296875 -6.203125 
L 29.296875 -13.1875 
L 8.59375 -13.1875 
z
" id="DejaVuSans-5b"/>
      <path d="M 64.40625 67.28125 
L 64.40625 56.890625 
Q 59.421875 61.53125 53.78125 63.8125 
Q 48.140625 66.109375 41.796875 66.109375 
Q 29.296875 66.109375 22.65625 58.46875 
Q 16.015625 50.828125 16.015625 36.375 
Q 16.015625 21.96875 22.65625 14.328125 
Q 29.296875 6.6875 41.796875 6.6875 
Q 48.140625 6.6875 53.78125 8.984375 
Q 59.421875 11.28125 64.40625 15.921875 
L 64.40625 5.609375 
Q 59.234375 2.09375 53.4375 0.328125 
Q 47.65625 -1.421875 41.21875 -1.421875 
Q 24.65625 -1.421875 15.125 8.703125 
Q 5.609375 18.84375 5.609375 36.375 
Q 5.609375 53.953125 15.125 64.078125 
Q 24.65625 74.21875 41.21875 74.21875 
Q 47.75 74.21875 53.53125 72.484375 
Q 59.328125 70.75 64.40625 67.28125 
z
" id="DejaVuSans-43"/>
      <path d="M 9.421875 75.984375 
L 18.40625 75.984375 
L 18.40625 0 
L 9.421875 0 
z
" id="DejaVuSans-6c"/>
      <path d="M 44.28125 53.078125 
L 44.28125 44.578125 
Q 40.484375 46.53125 36.375 47.5 
Q 32.28125 48.484375 27.875 48.484375 
Q 21.1875 48.484375 17.84375 46.4375 
Q 14.5 44.390625 14.5 40.28125 
Q 14.5 37.15625 16.890625 35.375 
Q 19.28125 33.59375 26.515625 31.984375 
L 29.59375 31.296875 
Q 39.15625 29.25 43.1875 25.515625 
Q 47.21875 21.78125 47.21875 15.09375 
Q 47.21875 7.46875 41.1875 3.015625 
Q 35.15625 -1.421875 24.609375 -1.421875 
Q 20.21875 -1.421875 15.453125 -0.5625 
Q 10.6875 0.296875 5.421875 2 
L 5.421875 11.28125 
Q 10.40625 8.6875 15.234375 7.390625 
Q 20.0625 6.109375 24.8125 6.109375 
Q 31.15625 6.109375 34.5625 8.28125 
Q 37.984375 10.453125 37.984375 14.40625 
Q 37.984375 18.0625 35.515625 20.015625 
Q 33.0625 21.96875 24.703125 23.78125 
L 21.578125 24.515625 
Q 13.234375 26.265625 9.515625 29.90625 
Q 5.8125 33.546875 5.8125 39.890625 
Q 5.8125 47.609375 11.28125 51.796875 
Q 16.75 56 26.8125 56 
Q 31.78125 56 36.171875 55.265625 
Q 40.578125 54.546875 44.28125 53.078125 
z
" id="DejaVuSans-73"/>
      <path d="M 9.421875 54.6875 
L 18.40625 54.6875 
L 18.40625 0 
L 9.421875 0 
z
M 9.421875 75.984375 
L 18.40625 75.984375 
L 18.40625 64.59375 
L 9.421875 64.59375 
z
" id="DejaVuSans-69"/>
      <path d="M 30.421875 75.984375 
L 30.421875 -13.1875 
L 9.71875 -13.1875 
L 9.71875 -6.203125 
L 21.390625 -6.203125 
L 21.390625 69 
L 9.71875 69 
L 9.71875 75.984375 
z
" id="DejaVuSans-5d"/>
     </defs>
     <g transform="translate(31.795312 204.501094)rotate(-90)scale(0.1 -0.1)">
      <use xlink:href="#DejaVuSans-54"/>
      <use x="60.818359" xlink:href="#DejaVuSans-65"/>
      <use x="122.341797" xlink:href="#DejaVuSans-6d"/>
      <use x="219.753906" xlink:href="#DejaVuSans-70"/>
      <use x="283.230469" xlink:href="#DejaVuSans-65"/>
      <use x="344.753906" xlink:href="#DejaVuSans-72"/>
      <use x="385.867188" xlink:href="#DejaVuSans-61"/>
      <use x="447.146484" xlink:href="#DejaVuSans-74"/>
      <use x="486.355469" xlink:href="#DejaVuSans-75"/>
      <use x="549.734375" xlink:href="#DejaVuSans-72"/>
      <use x="590.847656" xlink:href="#DejaVuSans-61"/>
      <use x="652.126953" xlink:href="#DejaVuSans-20"/>
      <use x="683.914062" xlink:href="#DejaVuSans-5b"/>
      <use x="722.927734" xlink:href="#DejaVuSans-43"/>
      <use x="792.751953" xlink:href="#DejaVuSans-65"/>
      <use x="854.275391" xlink:href="#DejaVuSans-6c"/>
      <use x="882.058594" xlink:href="#DejaVuSans-73"/>
      <use x="934.158203" xlink:href="#DejaVuSans-69"/>
      <use x="961.941406" xlink:href="#DejaVuSans-75"/>
      <use x="1025.320312" xlink:href="#DejaVuSans-73"/>
      <use x="1077.419922" xlink:href="#DejaVuSans-5d"/>
     </g>
    </g>
   </g>
   <g id="line2d_15">
    <path clip-path="url(#pa8088da4d9)" d="M 73.832727 227.849078 
L 74.446441 228.323436 
L 74.753298 227.840347 
L 75.060155 227.865084 
L 75.367012 228.861818 
L 75.673868 227.272864 
L 75.980725 227.390726 
L 76.287582 226.837793 
L 76.594439 227.475121 
L 76.901296 227.232121 
L 77.208153 226.129166 
L 77.515009 225.878891 
L 77.821866 226.497303 
L 78.128723 224.960731 
L 78.43558 224.416529 
L 78.742437 223.59586 
L 79.049294 223.667159 
L 79.356151 223.374687 
L 79.663007 223.652608 
L 79.969864 222.028732 
L 80.276721 221.82793 
L 80.583578 220.588196 
L 80.890435 220.646399 
L 81.197292 219.927587 
L 81.504148 218.156746 
L 81.811005 217.337533 
L 82.117862 217.934118 
L 82.424719 215.86353 
L 82.731576 216.318972 
L 83.038433 214.791131 
L 83.34529 214.428814 
L 84.26586 212.329125 
L 84.572717 212.25637 
L 84.879574 211.025367 
L 85.186431 210.292003 
L 85.493288 209.06682 
L 85.800144 208.486241 
L 86.107001 207.319262 
L 86.413858 207.811081 
L 86.720715 206.101354 
L 87.027572 205.877271 
L 87.334429 204.445466 
L 87.641285 204.388717 
L 88.254999 203.333779 
L 88.561856 200.774282 
L 88.868713 201.15697 
L 89.17557 200.020547 
L 89.482427 199.662596 
L 89.789283 196.714591 
L 90.09614 198.440323 
L 90.402997 195.987047 
L 90.709854 196.023424 
L 91.016711 194.409733 
L 91.323568 195.556342 
L 91.630424 193.113251 
L 91.937281 193.485753 
L 92.244138 192.157259 
L 92.550995 192.203822 
L 92.857852 190.73564 
L 93.164709 190.620688 
L 93.778422 188.797465 
L 94.085279 186.780715 
L 94.392136 187.661042 
L 94.698993 186.156482 
L 95.00585 186.171033 
L 95.312707 184.830899 
L 95.619563 185.002599 
L 95.92642 183.445656 
L 96.233277 183.08334 
L 96.540134 182.006576 
L 96.846991 181.863977 
L 97.460705 179.669706 
L 97.767561 179.166247 
L 98.074418 178.354308 
L 98.381275 178.790834 
L 98.688132 177.878495 
L 98.994989 176.544181 
L 99.301846 176.606749 
L 99.608703 175.794811 
L 99.915559 176.03781 
L 100.529273 173.501595 
L 100.83613 173.421565 
L 101.142987 171.573605 
L 101.449844 172.426286 
L 101.7567 170.699098 
L 102.063557 171.058504 
L 102.370414 169.254197 
L 102.677271 169.340047 
L 102.984128 167.566296 
L 103.290985 167.838398 
L 103.597842 166.377491 
L 103.904698 167.492087 
L 104.211555 164.707051 
L 104.518412 164.832189 
L 104.825269 163.458587 
L 105.132126 164.301082 
L 105.438983 161.270137 
L 105.745839 162.713583 
L 106.66641 159.3145 
L 107.280124 159.112243 
L 107.586981 157.479636 
L 107.893837 157.265739 
L 109.428122 153.187131 
L 109.734979 153.214778 
L 110.041835 151.675296 
L 110.348692 151.569075 
L 111.269263 148.655991 
L 111.57612 148.571596 
L 111.882976 147.691269 
L 112.189833 147.615604 
L 112.49669 146.217266 
L 112.803547 146.271104 
L 113.110404 144.644318 
L 113.417261 144.756359 
L 114.030974 142.129928 
L 114.337831 142.690136 
L 114.644688 142.359832 
L 114.951545 140.663201 
L 115.258402 140.351812 
L 115.565259 139.243036 
L 115.872115 139.036414 
L 116.178972 137.349969 
L 116.485829 138.03968 
L 116.792686 136.95855 
L 117.099543 136.999293 
L 117.4064 135.404518 
L 118.32697 134.128407 
L 118.633827 132.99635 
L 118.940684 133.92324 
L 119.247541 131.563089 
L 119.554398 132.145124 
L 119.861255 130.460134 
L 120.168111 131.024707 
L 120.474968 129.914476 
L 120.781825 129.600178 
L 121.702396 127.142536 
L 122.009252 127.360799 
L 122.316109 126.137071 
L 122.622966 126.330598 
L 123.23668 124.50883 
L 123.543537 123.948621 
L 123.850394 124.083944 
L 124.15725 122.110847 
L 124.464107 122.452792 
L 124.770964 120.882754 
L 125.077821 121.344016 
L 125.384678 120.808544 
L 125.691535 121.613207 
L 126.305248 119.771068 
L 126.612105 118.526969 
L 126.918962 118.401831 
L 127.225819 116.629536 
L 127.839533 116.374896 
L 128.146389 115.464011 
L 128.453246 115.928184 
L 129.680674 112.479629 
L 129.987531 113.124232 
L 130.601244 111.74772 
L 130.908101 111.370853 
L 131.214958 110.462879 
L 131.521815 110.714609 
L 131.828672 109.162031 
L 132.135528 109.607288 
L 132.442385 108.270063 
L 132.749242 108.332632 
L 133.056099 107.37373 
L 133.362956 107.337353 
L 133.669813 105.873536 
L 133.97667 106.464301 
L 134.283526 105.34825 
L 134.590383 104.729838 
L 134.89724 103.603601 
L 135.204097 104.232198 
L 135.510954 103.609421 
L 135.817811 103.444996 
L 136.124667 102.160155 
L 136.431524 103.315494 
L 136.738381 101.40933 
L 137.045238 102.886243 
L 137.352095 101.501001 
L 137.658952 101.338031 
L 137.965809 100.875313 
L 138.272665 101.509731 
L 138.579522 100.56829 
L 138.886379 101.285648 
L 139.193236 100.703613 
L 139.500093 101.717809 
L 139.80695 100.205974 
L 140.113806 101.646509 
L 140.420663 100.566835 
L 140.72752 100.424237 
L 141.034377 100.981535 
L 141.341234 102.085945 
L 141.648091 100.609033 
L 141.954948 101.388959 
L 142.875518 102.024832 
L 143.182375 101.141594 
L 143.489232 101.927341 
L 143.796089 102.010281 
L 144.102946 101.694527 
L 144.409802 102.391514 
L 144.716659 102.630148 
L 145.023516 102.57922 
L 145.330373 102.771291 
L 145.944087 102.944447 
L 146.5578 103.474098 
L 146.864657 103.587595 
L 147.171514 104.053223 
L 147.478371 103.779666 
L 147.785228 103.981923 
L 148.092085 102.985189 
L 148.398941 104.517395 
L 148.705798 103.587595 
L 149.012655 104.17545 
L 149.319512 104.240929 
L 149.626369 103.618152 
L 149.933226 104.25839 
L 150.240082 104.641077 
L 150.546939 103.626882 
L 150.853796 104.529036 
L 151.160653 103.603601 
L 151.46751 105.071783 
L 152.081224 104.367521 
L 152.38808 104.661449 
L 152.694937 104.409719 
L 153.001794 103.970283 
L 153.308651 104.157989 
L 153.615508 103.92663 
L 153.922365 104.674544 
L 154.229222 104.025576 
L 154.536078 104.550862 
L 154.842935 103.960097 
L 155.149792 103.906259 
L 155.456649 104.268575 
L 155.763506 103.731648 
L 156.070363 103.891708 
L 156.377219 104.772035 
L 156.990933 103.839325 
L 157.29779 104.232198 
L 157.604647 104.408264 
L 157.911504 103.557038 
L 158.218361 104.620706 
L 158.832074 102.934261 
L 159.138931 103.167075 
L 159.752645 104.27003 
L 160.059502 103.408619 
L 160.673215 104.389348 
L 160.980072 103.456637 
L 161.286929 103.971738 
L 161.593786 103.603601 
L 161.900643 104.623616 
L 162.2075 103.431901 
L 162.514356 105.262399 
L 162.821213 104.524671 
L 163.12807 105.240573 
L 163.434927 104.027031 
L 163.741784 105.391902 
L 164.048641 104.77349 
L 164.355498 105.812422 
L 164.662354 104.808412 
L 164.969211 105.669824 
L 165.276068 106.176194 
L 165.582925 104.60179 
L 165.889782 104.638167 
L 166.196639 106.248948 
L 166.503495 104.726928 
L 166.810352 104.981568 
L 167.117209 104.825873 
L 167.730923 104.08669 
L 168.03778 106.61854 
L 168.344637 104.984478 
L 168.651493 105.68583 
L 169.265207 104.645443 
L 169.572064 104.862251 
L 169.878921 104.050312 
L 170.185778 104.18418 
L 170.492634 104.563958 
L 170.799491 104.240929 
L 171.106348 104.102695 
L 171.413205 103.024476 
L 171.720062 103.826229 
L 172.026919 104.259845 
L 172.333776 103.622517 
L 172.640632 104.431545 
L 172.947489 103.76657 
L 173.254346 104.460647 
L 173.561203 103.673445 
L 173.86806 103.392613 
L 174.174917 103.34023 
L 174.481774 103.682175 
L 174.78863 103.765115 
L 175.095487 103.635613 
L 175.402344 103.053578 
L 175.709201 103.67781 
L 176.016058 103.625427 
L 176.322915 102.813489 
L 176.629771 103.34023 
L 176.936628 102.9168 
L 177.243485 103.244194 
L 177.550342 107.494502 
L 177.857199 103.183081 
L 178.164056 104.520305 
L 178.470913 104.002294 
L 178.777769 104.364611 
L 179.084626 69.410521 
L 179.391483 102.480274 
L 179.69834 104.796772 
L 180.005197 104.740023 
L 180.312054 104.310773 
L 180.61891 105.10525 
L 181.232624 104.561048 
L 181.539481 105.512674 
L 181.846338 105.000484 
L 182.153195 105.438465 
L 182.460052 105.292956 
L 182.766908 104.892807 
L 183.380622 105.340974 
L 183.687479 105.375896 
L 183.994336 105.912823 
L 184.301193 104.834604 
L 184.608049 105.339519 
L 184.914906 105.387537 
L 185.221763 105.294411 
L 185.52862 104.969927 
L 185.835477 105.572333 
L 186.142334 105.634902 
L 186.449191 105.543231 
L 186.756047 105.586884 
L 187.062904 105.260944 
L 187.369761 105.335154 
L 187.676618 105.572333 
L 187.983475 104.795317 
L 188.290332 106.017589 
L 188.597189 104.671634 
L 188.904045 105.479207 
L 189.210902 104.873891 
L 189.517759 105.262399 
L 189.824616 104.124522 
L 190.131473 105.180915 
L 190.43833 104.26421 
L 190.745186 105.11107 
L 191.052043 105.095065 
L 191.3589 104.689095 
L 191.665757 104.044492 
L 191.972614 104.958286 
L 192.586328 104.272941 
L 192.893184 104.197276 
L 193.200041 104.629437 
L 193.506898 104.456282 
L 193.813755 105.137262 
L 194.120612 104.728383 
L 194.427469 105.784776 
L 194.734325 104.43882 
L 195.041182 104.85061 
L 195.348039 104.280216 
L 195.654896 105.02522 
L 196.26861 105.429734 
L 196.575467 105.118346 
L 196.882323 105.079059 
L 197.18918 104.149258 
L 197.496037 104.124522 
L 197.802894 104.977202 
L 198.109751 104.441731 
L 198.416608 105.090699 
L 198.723465 104.530491 
L 199.337178 104.613431 
L 199.950892 104.748754 
L 200.257749 104.278761 
L 200.564606 104.728383 
L 200.871462 104.025576 
L 201.178319 104.367521 
L 201.485176 104.051767 
L 202.405747 104.716742 
L 202.712604 104.705101 
L 203.01946 104.913179 
L 203.326317 104.737113 
L 203.633174 104.051767 
L 203.940031 104.76185 
L 204.246888 104.083779 
L 204.553745 105.148903 
L 204.860601 104.662904 
L 205.167458 105.324968 
L 205.474315 104.504299 
L 205.781172 104.987388 
L 206.088029 104.772035 
L 206.394886 105.549052 
L 207.008599 104.786586 
L 207.315456 104.754574 
L 207.622313 105.246394 
L 207.92917 105.001939 
L 208.236027 105.11107 
L 208.542884 104.837514 
L 208.849741 105.776045 
L 209.156597 104.988843 
L 209.463454 105.250759 
L 209.770311 104.565413 
L 210.077168 105.012125 
L 210.384025 104.649808 
L 210.690882 104.77058 
L 210.997738 104.069228 
L 211.304595 104.872436 
L 211.611452 104.8477 
L 211.918309 104.962652 
L 212.225166 104.93064 
L 212.532023 105.092154 
L 212.83888 105.426824 
L 213.145736 104.779311 
L 213.452593 105.653818 
L 213.75945 105.454471 
L 214.066307 117.821252 
L 214.373164 106.021955 
L 214.680021 105.080514 
L 214.986877 105.374441 
L 215.293734 104.751664 
L 215.600591 105.073238 
L 215.907448 104.974292 
L 216.214305 105.009214 
L 216.521162 104.6047 
L 216.828019 105.308962 
L 217.134875 105.421004 
L 217.748589 104.738568 
L 218.055446 105.057232 
L 218.362303 105.554872 
L 218.66916 104.885532 
L 218.976016 106.166008 
L 219.282873 104.587239 
L 219.58973 105.375896 
L 219.896587 104.057588 
L 220.203444 104.935005 
L 220.510301 104.639622 
L 220.817158 104.59888 
L 221.124014 104.405353 
L 221.430871 105.559237 
L 221.737728 104.824418 
L 222.044585 105.11107 
L 222.351442 104.395168 
L 222.658299 104.987388 
L 222.965156 104.772035 
L 223.272012 105.655273 
L 223.578869 104.005205 
L 223.885726 105.029586 
L 224.192583 104.558138 
L 224.49944 105.535956 
L 224.806297 104.591605 
L 225.113153 105.511219 
L 225.42001 104.776401 
L 225.726867 105.10234 
L 226.033724 104.031396 
L 226.340581 104.888442 
L 226.647438 104.475198 
L 226.954295 104.885532 
L 227.261151 105.055777 
L 227.568008 104.937915 
L 227.874865 105.134352 
L 228.181722 104.2613 
L 228.488579 104.313683 
L 228.795436 104.908813 
L 229.102292 103.753475 
L 229.409149 103.977558 
L 229.716006 105.119801 
L 230.022863 104.517395 
L 230.32972 104.204552 
L 230.636577 105.100885 
L 231.25029 104.059043 
L 231.557147 103.625427 
L 231.864004 104.373342 
L 232.170861 103.984833 
L 232.784575 104.694916 
L 233.091432 103.143793 
L 233.398288 104.489748 
L 233.705145 103.607966 
L 234.012002 103.794217 
L 234.318859 103.487194 
L 234.625716 105.065963 
L 234.932573 103.42317 
L 235.239429 105.087789 
L 235.546286 103.862606 
L 235.853143 105.253669 
L 236.16 104.639622 
L 236.466857 104.786586 
L 236.773714 104.460647 
L 237.080571 105.253669 
L 237.387427 104.779311 
L 237.694284 105.59998 
L 238.001141 105.077603 
L 238.307998 105.511219 
L 238.614855 104.670179 
L 238.921712 105.971027 
L 239.228568 104.924819 
L 239.535425 105.864805 
L 239.842282 105.487938 
L 240.455996 105.792051 
L 240.762853 105.551962 
L 241.06971 106.061242 
L 241.376566 105.448651 
L 241.683423 100.358758 
L 241.99028 105.387537 
L 242.297137 105.796416 
L 242.603994 105.487938 
L 242.910851 106.171829 
L 243.217708 105.840069 
L 243.524564 106.077248 
L 243.831421 105.570878 
L 244.138278 106.494858 
L 244.445135 105.828428 
L 244.751992 106.144182 
L 245.058849 105.636357 
L 245.365705 105.828428 
L 245.672562 105.34825 
L 245.979419 106.359535 
L 246.286276 105.643632 
L 246.593133 105.546141 
L 246.89999 104.716742 
L 247.206847 104.913179 
L 247.513703 104.849155 
L 248.127417 105.048502 
L 248.434274 105.004849 
L 248.741131 104.453371 
L 249.047988 103.431901 
L 249.354844 104.114336 
L 249.661701 104.005205 
L 249.968558 104.031396 
L 250.275415 103.925175 
L 250.582272 103.987744 
L 250.889129 103.199087 
L 251.195986 103.733103 
L 251.502842 102.553028 
L 251.809699 103.84951 
L 252.116556 102.646154 
L 252.423413 102.941536 
L 252.73027 103.001195 
L 253.037127 103.516296 
L 253.343984 102.862962 
L 253.65084 103.261655 
L 253.957697 102.358047 
L 254.264554 103.266021 
L 254.571411 103.364967 
L 254.878268 102.973548 
L 255.185125 103.108871 
L 255.491981 102.474454 
L 255.798838 102.646154 
L 256.105695 103.146704 
L 256.412552 103.119057 
L 256.719409 102.702902 
L 257.026266 103.271841 
L 257.333123 102.480274 
L 257.639979 103.156889 
L 257.946836 102.643244 
L 258.253693 102.518106 
L 258.56055 102.699992 
L 258.867407 103.463912 
L 259.174264 102.701447 
L 259.48112 103.34605 
L 259.787977 102.841135 
L 260.094834 103.667625 
L 260.401691 103.270386 
L 260.708548 104.248204 
L 261.015405 102.58213 
L 261.322262 103.990654 
L 261.629118 102.650519 
L 261.935975 103.379517 
L 262.242832 103.3315 
L 262.549689 103.510475 
L 262.856546 102.886243 
L 263.163403 102.647609 
L 263.470259 104.117246 
L 264.083973 103.261655 
L 264.39083 103.421715 
L 264.697687 103.811678 
L 265.004544 103.025931 
L 265.311401 103.626882 
L 265.618257 102.634513 
L 265.925114 103.433356 
L 266.231971 102.355136 
L 266.538828 103.702547 
L 266.845685 103.223823 
L 267.152542 101.841491 
L 267.459399 102.794573 
L 267.766255 102.657794 
L 268.073112 103.312583 
L 268.379969 102.991009 
L 268.686826 103.408619 
L 268.993683 103.261655 
L 269.30054 103.41735 
L 269.607396 103.804403 
L 270.22111 103.190356 
L 270.527967 103.574499 
L 270.834824 103.770936 
L 271.141681 103.501745 
L 271.755394 104.310773 
L 272.675965 103.910624 
L 272.982822 104.792407 
L 273.289679 104.201641 
L 273.903392 104.891352 
L 274.210249 105.311872 
L 274.517106 104.488293 
L 274.823963 105.52868 
L 275.13082 105.128532 
L 275.744533 105.557782 
L 276.05139 106.02923 
L 276.358247 106.045236 
L 276.665104 105.631991 
L 276.971961 106.534145 
L 277.278818 105.736758 
L 277.892531 106.36681 
L 278.199388 107.20785 
L 278.506245 105.087789 
L 278.813102 106.558882 
L 279.119959 121.915865 
L 279.426816 106.886276 
L 279.733672 106.163098 
L 280.040529 106.215481 
L 280.347386 105.674189 
L 280.654243 105.633447 
L 280.9611 104.722562 
L 281.267957 105.661093 
L 281.574814 105.137262 
L 281.88167 105.416639 
L 282.188527 104.523215 
L 282.495384 105.068873 
L 283.109098 104.863706 
L 283.415955 104.537766 
L 283.722811 104.77349 
L 284.336525 103.759295 
L 284.643382 105.007759 
L 284.950239 103.312583 
L 285.257096 104.029941 
L 285.870809 104.182725 
L 286.177666 103.679265 
L 286.484523 104.220557 
L 286.79138 103.683631 
L 287.098237 104.147803 
L 287.405094 103.424625 
L 287.711951 103.856786 
L 288.018807 103.151069 
L 288.325664 104.096875 
L 288.632521 103.523571 
L 288.939378 104.463557 
L 289.553092 104.197276 
L 289.859948 104.453371 
L 290.166805 104.405353 
L 290.473662 104.17254 
L 291.087376 104.059043 
L 291.394233 104.579964 
L 291.70109 104.703646 
L 292.007946 104.054678 
L 292.62166 104.873891 
L 292.928517 104.959741 
L 293.235374 104.415539 
L 293.542231 105.471932 
L 293.849087 68.498182 
L 294.155944 104.128887 
L 294.462801 104.673089 
L 294.769658 104.638167 
L 295.076515 105.092154 
L 295.383372 105.076148 
L 295.690229 104.710922 
L 295.997085 105.070328 
L 296.303942 105.060142 
L 296.917656 105.266765 
L 297.224513 105.038316 
L 297.53137 105.35698 
L 297.838226 104.329689 
L 298.145083 104.686185 
L 298.45194 104.373342 
L 298.758797 105.589794 
L 299.065654 105.319148 
L 299.372511 104.469377 
L 299.986224 104.450461 
L 300.293081 104.881167 
L 300.599938 104.26421 
L 300.906795 104.611976 
L 301.213652 102.881878 
L 301.520509 104.173995 
L 301.827366 103.891708 
L 302.134222 104.316593 
L 302.441079 103.389703 
L 302.747936 103.494469 
L 303.054793 102.720363 
L 303.36165 103.210727 
L 303.668507 103.108871 
L 303.975363 102.715998 
L 304.28222 103.896073 
L 304.589077 102.892063 
L 304.895934 103.664714 
L 305.509648 102.736369 
L 305.816505 102.681076 
L 306.123361 103.709822 
L 306.430218 102.743645 
L 306.737075 103.210727 
L 307.043932 102.569034 
L 307.350789 103.00847 
L 307.657646 103.178715 
L 307.964502 103.149614 
L 308.271359 103.274751 
L 308.578216 103.152524 
L 308.885073 103.897528 
L 309.19193 103.468278 
L 309.498787 104.371886 
L 309.805644 103.587595 
L 310.1125 104.149258 
L 310.419357 103.874247 
L 310.726214 104.120157 
L 311.033071 103.92081 
L 311.339928 104.363156 
L 311.646785 98.624295 
L 311.953642 104.639622 
L 312.260498 104.907358 
L 312.567355 104.005205 
L 312.874212 104.537766 
L 313.181069 104.486838 
L 313.487926 104.932095 
L 314.101639 104.946646 
L 314.408496 103.971738 
L 314.715353 104.878257 
L 315.02221 103.948456 
L 315.329067 105.001939 
L 315.635924 104.499934 
L 315.942781 105.466112 
L 316.249637 135.01601 
L 316.556494 105.581063 
L 316.863351 104.77349 
L 317.170208 104.638167 
L 317.477065 105.012125 
L 317.783922 105.793506 
L 318.090778 105.659638 
L 318.397635 106.110715 
L 318.704492 106.074338 
L 319.011349 105.316238 
L 319.318206 105.404998 
L 319.625063 105.132897 
L 319.93192 105.744033 
L 320.238776 105.116891 
L 320.545633 105.205651 
L 320.85249 105.835704 
L 321.159347 105.311872 
L 321.466204 105.498123 
L 321.773061 105.192555 
L 322.079918 105.27404 
L 322.386774 105.097975 
L 322.693631 105.423914 
L 323.000488 104.951011 
L 323.307345 106.208206 
L 323.614202 105.343884 
L 323.921059 104.92773 
L 324.227915 105.27404 
L 324.534772 104.777856 
L 324.841629 105.128532 
L 325.148486 105.27404 
L 325.7622 104.635257 
L 326.069057 106.331888 
L 326.375913 105.087789 
L 326.68277 104.958286 
L 326.989627 104.412629 
L 327.296484 104.702191 
L 327.603341 104.668724 
L 327.910198 104.313683 
L 328.217054 104.846245 
L 328.523911 104.173995 
L 328.830768 104.51885 
L 329.137625 103.613786 
L 329.444482 104.093965 
L 329.751339 103.708367 
L 330.058196 104.514485 
L 330.365052 104.0183 
L 331.285623 103.475553 
L 331.59248 102.784387 
L 331.899337 103.229644 
L 332.206194 105.876446 
L 332.51305 102.969183 
L 332.819907 103.648708 
L 333.126764 102.449717 
L 333.740478 103.218003 
L 334.047335 103.373697 
L 334.354191 102.67089 
L 334.661048 104.185635 
L 334.967905 101.864772 
L 335.274762 102.685441 
L 335.581619 102.550118 
L 335.888476 101.828395 
L 336.195333 102.583585 
L 336.502189 101.792018 
L 336.809046 102.759651 
L 337.115903 102.308574 
L 337.42276 102.483184 
L 337.729617 102.343496 
L 338.036474 102.787297 
L 338.34333 102.360957 
L 338.650187 103.056488 
L 338.957044 102.045203 
L 339.263901 102.601046 
L 339.570758 101.537378 
L 339.877615 102.259101 
L 340.184472 102.340586 
L 340.491328 103.049213 
L 340.798185 103.069584 
L 341.105042 102.497735 
L 341.411899 103.427535 
L 341.718756 103.129243 
L 342.025613 103.103051 
L 342.332469 102.601046 
L 342.639326 104.421359 
L 342.946183 103.571589 
L 343.25304 103.600691 
L 343.559897 103.270386 
L 343.866754 103.973193 
L 344.173611 103.573044 
L 344.480467 103.856786 
L 344.787324 103.527936 
L 345.094181 103.491559 
L 345.401038 104.473743 
L 345.707895 103.859696 
L 346.014752 104.242384 
L 346.321609 103.770936 
L 346.628465 103.685086 
L 346.935322 103.941181 
L 347.242179 103.778211 
L 347.549036 103.76075 
L 347.855893 104.355881 
L 348.16275 85.18948 
L 348.469606 102.739279 
L 348.776463 103.51484 
L 349.08332 103.338775 
L 349.390177 104.226378 
L 349.697034 104.307863 
L 350.003891 104.769125 
L 350.310748 104.370431 
L 350.617604 104.597425 
L 350.924461 103.653074 
L 351.231318 105.028131 
L 351.538175 105.10234 
L 352.458745 104.76767 
L 352.765602 106.398822 
L 353.072459 104.799682 
L 353.379316 105.307507 
L 353.686173 105.196921 
L 353.99303 105.623261 
L 354.606743 105.199831 
L 355.220457 106.254769 
L 355.527314 106.077248 
L 355.834171 105.477752 
L 356.141028 105.880811 
L 356.447885 105.956476 
L 356.754741 106.190745 
L 357.061598 105.60289 
L 357.368455 106.474487 
L 357.675312 105.809512 
L 357.982169 106.407553 
L 358.289026 106.126721 
L 358.595882 107.493047 
L 358.902739 106.3639 
L 359.209596 106.668013 
L 359.516453 106.800426 
L 359.82331 106.720396 
L 360.130167 106.323158 
L 360.437024 106.606899 
L 361.050737 106.128176 
L 361.357594 106.493403 
L 361.664451 105.730937 
L 361.971308 106.36099 
L 362.278165 105.279861 
L 362.585021 105.669824 
L 362.891878 106.344984 
L 363.505592 104.898628 
L 363.812449 105.057232 
L 364.426163 104.68764 
L 364.733019 105.527225 
L 365.039876 105.173639 
L 365.346733 106.107805 
L 365.960447 103.212182 
L 366.267304 104.652718 
L 366.574161 104.558138 
L 366.881017 103.718553 
L 367.187874 104.188546 
L 367.494731 104.179815 
L 368.108445 102.958997 
L 368.415302 103.271841 
L 369.029015 102.980824 
L 369.335872 103.041937 
L 369.642729 102.758195 
L 369.949586 102.788752 
L 370.256443 102.470088 
L 370.5633 102.83386 
L 370.870156 102.296933 
L 371.177013 102.41334 
L 371.790727 103.132153 
L 372.097584 103.203452 
L 372.404441 102.743645 
L 372.711297 103.105961 
L 373.018154 102.021922 
L 373.631868 103.692361 
L 373.938725 102.765471 
L 374.245582 103.062309 
L 374.552439 102.844046 
L 375.166152 103.015746 
L 375.473009 102.892063 
L 375.779866 103.903349 
L 376.086723 102.749465 
L 376.39358 103.539577 
L 376.700437 103.330044 
L 377.007293 103.369332 
L 377.31415 103.845145 
L 377.621007 103.300943 
L 377.927864 103.871337 
L 378.234721 103.888798 
L 378.541578 104.240929 
L 378.848434 104.114336 
L 379.155291 104.296222 
L 379.462148 103.954277 
L 379.769005 104.981568 
L 380.075862 104.220557 
L 380.382719 105.064508 
L 380.996432 104.962652 
L 381.303289 104.469377 
L 381.610146 104.370431 
L 381.917003 105.240573 
L 382.22386 105.569423 
L 382.530717 104.713832 
L 382.837573 105.093609 
L 383.14443 105.890997 
L 383.451287 106.027775 
L 383.758144 105.506854 
L 384.065001 106.113625 
L 384.678715 105.156178 
L 384.985571 106.000128 
L 385.599285 105.565057 
L 385.906142 104.788041 
L 386.212999 106.177649 
L 386.519856 105.388992 
L 386.826712 105.607255 
L 387.133569 105.540321 
L 387.440426 105.186735 
L 388.05414 105.864805 
L 388.667854 104.543587 
L 388.97471 105.474842 
L 389.281567 105.004849 
L 389.588424 105.604345 
L 389.895281 105.717842 
L 390.202138 105.543231 
L 390.508995 105.228932 
L 390.815852 105.375896 
L 391.122708 104.93064 
L 391.429565 105.148903 
L 391.736422 105.026675 
L 392.043279 105.893907 
L 392.350136 104.645443 
L 392.656993 105.835704 
L 392.963849 104.505754 
L 393.270706 104.689095 
L 393.577563 104.59306 
L 393.88442 106.03214 
L 394.191277 103.785487 
L 394.498134 104.846245 
L 394.804991 104.929185 
L 395.111847 104.68764 
L 395.725561 105.463201 
L 396.032418 130.98251 
L 396.339275 105.908458 
L 396.646132 104.625072 
L 396.952988 105.378806 
L 397.566702 104.875346 
L 397.873559 105.156178 
L 398.180416 103.999384 
L 398.487273 104.216192 
L 398.487273 104.216192 
" style="fill:none;stroke:#1f77b4;stroke-linecap:square;stroke-width:1.5;"/>
   </g>
   <g id="patch_3">
    <path d="M 57.6 236.88 
L 57.6 60.48 
" style="fill:none;stroke:#000000;stroke-linecap:square;stroke-linejoin:miter;stroke-width:0.8;"/>
   </g>
   <g id="patch_4">
    <path d="M 414.72 236.88 
L 414.72 60.48 
" style="fill:none;stroke:#000000;stroke-linecap:square;stroke-linejoin:miter;stroke-width:0.8;"/>
   </g>
   <g id="patch_5">
    <path d="M 57.6 236.88 
L 414.72 236.88 
" style="fill:none;stroke:#000000;stroke-linecap:square;stroke-linejoin:miter;stroke-width:0.8;"/>
   </g>
   <g id="patch_6">
    <path d="M 57.6 60.48 
L 414.72 60.48 
" style="fill:none;stroke:#000000;stroke-linecap:square;stroke-linejoin:miter;stroke-width:0.8;"/>
   </g>
  </g>
  <g id="axes_2">
   <g id="patch_7">
    <path d="M 57.6 448.56 
L 414.72 448.56 
L 414.72 272.16 
L 57.6 272.16 
z
" style="fill:#ffffff;"/>
   </g>
   <g id="matplotlib.axis_3">
    <g id="xtick_7">
     <g id="line2d_16">
      <g>
       <use style="stroke:#000000;stroke-width:0.8;" x="73.832727" xlink:href="#m52f2788442" y="448.56"/>
      </g>
     </g>
     <g id="text_16">
      <!-- 0 -->
      <g transform="translate(70.651477 463.158437)scale(0.1 -0.1)">
       <use xlink:href="#DejaVuSans-30"/>
      </g>
     </g>
    </g>
    <g id="xtick_8">
     <g id="line2d_17">
      <g>
       <use style="stroke:#000000;stroke-width:0.8;" x="135.204097" xlink:href="#m52f2788442" y="448.56"/>
      </g>
     </g>
     <g id="text_17">
      <!-- 100 -->
      <g transform="translate(125.660347 463.158437)scale(0.1 -0.1)">
       <use xlink:href="#DejaVuSans-31"/>
       <use x="63.623047" xlink:href="#DejaVuSans-30"/>
       <use x="127.246094" xlink:href="#DejaVuSans-30"/>
      </g>
     </g>
    </g>
    <g id="xtick_9">
     <g id="line2d_18">
      <g>
       <use style="stroke:#000000;stroke-width:0.8;" x="196.575467" xlink:href="#m52f2788442" y="448.56"/>
      </g>
     </g>
     <g id="text_18">
      <!-- 200 -->
      <g transform="translate(187.031717 463.158437)scale(0.1 -0.1)">
       <use xlink:href="#DejaVuSans-32"/>
       <use x="63.623047" xlink:href="#DejaVuSans-30"/>
       <use x="127.246094" xlink:href="#DejaVuSans-30"/>
      </g>
     </g>
    </g>
    <g id="xtick_10">
     <g id="line2d_19">
      <g>
       <use style="stroke:#000000;stroke-width:0.8;" x="257.946836" xlink:href="#m52f2788442" y="448.56"/>
      </g>
     </g>
     <g id="text_19">
      <!-- 300 -->
      <g transform="translate(248.403086 463.158437)scale(0.1 -0.1)">
       <use xlink:href="#DejaVuSans-33"/>
       <use x="63.623047" xlink:href="#DejaVuSans-30"/>
       <use x="127.246094" xlink:href="#DejaVuSans-30"/>
      </g>
     </g>
    </g>
    <g id="xtick_11">
     <g id="line2d_20">
      <g>
       <use style="stroke:#000000;stroke-width:0.8;" x="319.318206" xlink:href="#m52f2788442" y="448.56"/>
      </g>
     </g>
     <g id="text_20">
      <!-- 400 -->
      <g transform="translate(309.774456 463.158437)scale(0.1 -0.1)">
       <use xlink:href="#DejaVuSans-34"/>
       <use x="63.623047" xlink:href="#DejaVuSans-30"/>
       <use x="127.246094" xlink:href="#DejaVuSans-30"/>
      </g>
     </g>
    </g>
    <g id="xtick_12">
     <g id="line2d_21">
      <g>
       <use style="stroke:#000000;stroke-width:0.8;" x="380.689576" xlink:href="#m52f2788442" y="448.56"/>
      </g>
     </g>
     <g id="text_21">
      <!-- 500 -->
      <g transform="translate(371.145826 463.158437)scale(0.1 -0.1)">
       <use xlink:href="#DejaVuSans-35"/>
       <use x="63.623047" xlink:href="#DejaVuSans-30"/>
       <use x="127.246094" xlink:href="#DejaVuSans-30"/>
      </g>
     </g>
    </g>
    <g id="text_22">
     <!-- Tiempo [s] -->
     <defs>
      <path d="M 30.609375 48.390625 
Q 23.390625 48.390625 19.1875 42.75 
Q 14.984375 37.109375 14.984375 27.296875 
Q 14.984375 17.484375 19.15625 11.84375 
Q 23.34375 6.203125 30.609375 6.203125 
Q 37.796875 6.203125 41.984375 11.859375 
Q 46.1875 17.53125 46.1875 27.296875 
Q 46.1875 37.015625 41.984375 42.703125 
Q 37.796875 48.390625 30.609375 48.390625 
z
M 30.609375 56 
Q 42.328125 56 49.015625 48.375 
Q 55.71875 40.765625 55.71875 27.296875 
Q 55.71875 13.875 49.015625 6.21875 
Q 42.328125 -1.421875 30.609375 -1.421875 
Q 18.84375 -1.421875 12.171875 6.21875 
Q 5.515625 13.875 5.515625 27.296875 
Q 5.515625 40.765625 12.171875 48.375 
Q 18.84375 56 30.609375 56 
z
" id="DejaVuSans-6f"/>
     </defs>
     <g transform="translate(209.443594 476.836563)scale(0.1 -0.1)">
      <use xlink:href="#DejaVuSans-54"/>
      <use x="61.037109" xlink:href="#DejaVuSans-69"/>
      <use x="88.820312" xlink:href="#DejaVuSans-65"/>
      <use x="150.34375" xlink:href="#DejaVuSans-6d"/>
      <use x="247.755859" xlink:href="#DejaVuSans-70"/>
      <use x="311.232422" xlink:href="#DejaVuSans-6f"/>
      <use x="372.414062" xlink:href="#DejaVuSans-20"/>
      <use x="404.201172" xlink:href="#DejaVuSans-5b"/>
      <use x="443.214844" xlink:href="#DejaVuSans-73"/>
      <use x="495.314453" xlink:href="#DejaVuSans-5d"/>
     </g>
    </g>
   </g>
   <g id="matplotlib.axis_4">
    <g id="ytick_9">
     <g id="line2d_22">
      <g>
       <use style="stroke:#000000;stroke-width:0.8;" x="57.6" xlink:href="#m274dbe38db" y="440.542219"/>
      </g>
     </g>
     <g id="text_23">
      <!-- 0.0 -->
      <defs>
       <path d="M 10.6875 12.40625 
L 21 12.40625 
L 21 0 
L 10.6875 0 
z
" id="DejaVuSans-2e"/>
      </defs>
      <g transform="translate(34.696875 444.341438)scale(0.1 -0.1)">
       <use xlink:href="#DejaVuSans-30"/>
       <use x="63.623047" xlink:href="#DejaVuSans-2e"/>
       <use x="95.410156" xlink:href="#DejaVuSans-30"/>
      </g>
     </g>
    </g>
    <g id="ytick_10">
     <g id="line2d_23">
      <g>
       <use style="stroke:#000000;stroke-width:0.8;" x="57.6" xlink:href="#m274dbe38db" y="408.437307"/>
      </g>
     </g>
     <g id="text_24">
      <!-- 0.2 -->
      <g transform="translate(34.696875 412.236526)scale(0.1 -0.1)">
       <use xlink:href="#DejaVuSans-30"/>
       <use x="63.623047" xlink:href="#DejaVuSans-2e"/>
       <use x="95.410156" xlink:href="#DejaVuSans-32"/>
      </g>
     </g>
    </g>
    <g id="ytick_11">
     <g id="line2d_24">
      <g>
       <use style="stroke:#000000;stroke-width:0.8;" x="57.6" xlink:href="#m274dbe38db" y="376.332395"/>
      </g>
     </g>
     <g id="text_25">
      <!-- 0.4 -->
      <g transform="translate(34.696875 380.131613)scale(0.1 -0.1)">
       <use xlink:href="#DejaVuSans-30"/>
       <use x="63.623047" xlink:href="#DejaVuSans-2e"/>
       <use x="95.410156" xlink:href="#DejaVuSans-34"/>
      </g>
     </g>
    </g>
    <g id="ytick_12">
     <g id="line2d_25">
      <g>
       <use style="stroke:#000000;stroke-width:0.8;" x="57.6" xlink:href="#m274dbe38db" y="344.227482"/>
      </g>
     </g>
     <g id="text_26">
      <!-- 0.6 -->
      <g transform="translate(34.696875 348.026701)scale(0.1 -0.1)">
       <use xlink:href="#DejaVuSans-30"/>
       <use x="63.623047" xlink:href="#DejaVuSans-2e"/>
       <use x="95.410156" xlink:href="#DejaVuSans-36"/>
      </g>
     </g>
    </g>
    <g id="ytick_13">
     <g id="line2d_26">
      <g>
       <use style="stroke:#000000;stroke-width:0.8;" x="57.6" xlink:href="#m274dbe38db" y="312.12257"/>
      </g>
     </g>
     <g id="text_27">
      <!-- 0.8 -->
      <defs>
       <path d="M 31.78125 34.625 
Q 24.75 34.625 20.71875 30.859375 
Q 16.703125 27.09375 16.703125 20.515625 
Q 16.703125 13.921875 20.71875 10.15625 
Q 24.75 6.390625 31.78125 6.390625 
Q 38.8125 6.390625 42.859375 10.171875 
Q 46.921875 13.96875 46.921875 20.515625 
Q 46.921875 27.09375 42.890625 30.859375 
Q 38.875 34.625 31.78125 34.625 
z
M 21.921875 38.8125 
Q 15.578125 40.375 12.03125 44.71875 
Q 8.5 49.078125 8.5 55.328125 
Q 8.5 64.0625 14.71875 69.140625 
Q 20.953125 74.21875 31.78125 74.21875 
Q 42.671875 74.21875 48.875 69.140625 
Q 55.078125 64.0625 55.078125 55.328125 
Q 55.078125 49.078125 51.53125 44.71875 
Q 48 40.375 41.703125 38.8125 
Q 48.828125 37.15625 52.796875 32.3125 
Q 56.78125 27.484375 56.78125 20.515625 
Q 56.78125 9.90625 50.3125 4.234375 
Q 43.84375 -1.421875 31.78125 -1.421875 
Q 19.734375 -1.421875 13.25 4.234375 
Q 6.78125 9.90625 6.78125 20.515625 
Q 6.78125 27.484375 10.78125 32.3125 
Q 14.796875 37.15625 21.921875 38.8125 
z
M 18.3125 54.390625 
Q 18.3125 48.734375 21.84375 45.5625 
Q 25.390625 42.390625 31.78125 42.390625 
Q 38.140625 42.390625 41.71875 45.5625 
Q 45.3125 48.734375 45.3125 54.390625 
Q 45.3125 60.0625 41.71875 63.234375 
Q 38.140625 66.40625 31.78125 66.40625 
Q 25.390625 66.40625 21.84375 63.234375 
Q 18.3125 60.0625 18.3125 54.390625 
z
" id="DejaVuSans-38"/>
      </defs>
      <g transform="translate(34.696875 315.921788)scale(0.1 -0.1)">
       <use xlink:href="#DejaVuSans-30"/>
       <use x="63.623047" xlink:href="#DejaVuSans-2e"/>
       <use x="95.410156" xlink:href="#DejaVuSans-38"/>
      </g>
     </g>
    </g>
    <g id="ytick_14">
     <g id="line2d_27">
      <g>
       <use style="stroke:#000000;stroke-width:0.8;" x="57.6" xlink:href="#m274dbe38db" y="280.017657"/>
      </g>
     </g>
     <g id="text_28">
      <!-- 1.0 -->
      <g transform="translate(34.696875 283.816876)scale(0.1 -0.1)">
       <use xlink:href="#DejaVuSans-31"/>
       <use x="63.623047" xlink:href="#DejaVuSans-2e"/>
       <use x="95.410156" xlink:href="#DejaVuSans-30"/>
      </g>
     </g>
    </g>
    <g id="text_29">
     <!-- Duty cycle -->
     <defs>
      <path d="M 19.671875 64.796875 
L 19.671875 8.109375 
L 31.59375 8.109375 
Q 46.6875 8.109375 53.6875 14.9375 
Q 60.6875 21.78125 60.6875 36.53125 
Q 60.6875 51.171875 53.6875 57.984375 
Q 46.6875 64.796875 31.59375 64.796875 
z
M 9.8125 72.90625 
L 30.078125 72.90625 
Q 51.265625 72.90625 61.171875 64.09375 
Q 71.09375 55.28125 71.09375 36.53125 
Q 71.09375 17.671875 61.125 8.828125 
Q 51.171875 0 30.078125 0 
L 9.8125 0 
z
" id="DejaVuSans-44"/>
      <path d="M 32.171875 -5.078125 
Q 28.375 -14.84375 24.75 -17.8125 
Q 21.140625 -20.796875 15.09375 -20.796875 
L 7.90625 -20.796875 
L 7.90625 -13.28125 
L 13.1875 -13.28125 
Q 16.890625 -13.28125 18.9375 -11.515625 
Q 21 -9.765625 23.484375 -3.21875 
L 25.09375 0.875 
L 2.984375 54.6875 
L 12.5 54.6875 
L 29.59375 11.921875 
L 46.6875 54.6875 
L 56.203125 54.6875 
z
" id="DejaVuSans-79"/>
      <path d="M 48.78125 52.59375 
L 48.78125 44.1875 
Q 44.96875 46.296875 41.140625 47.34375 
Q 37.3125 48.390625 33.40625 48.390625 
Q 24.65625 48.390625 19.8125 42.84375 
Q 14.984375 37.3125 14.984375 27.296875 
Q 14.984375 17.28125 19.8125 11.734375 
Q 24.65625 6.203125 33.40625 6.203125 
Q 37.3125 6.203125 41.140625 7.25 
Q 44.96875 8.296875 48.78125 10.40625 
L 48.78125 2.09375 
Q 45.015625 0.34375 40.984375 -0.53125 
Q 36.96875 -1.421875 32.421875 -1.421875 
Q 20.0625 -1.421875 12.78125 6.34375 
Q 5.515625 14.109375 5.515625 27.296875 
Q 5.515625 40.671875 12.859375 48.328125 
Q 20.21875 56 33.015625 56 
Q 37.15625 56 41.109375 55.140625 
Q 45.0625 54.296875 48.78125 52.59375 
z
" id="DejaVuSans-63"/>
     </defs>
     <g transform="translate(28.617187 386.810781)rotate(-90)scale(0.1 -0.1)">
      <use xlink:href="#DejaVuSans-44"/>
      <use x="77.001953" xlink:href="#DejaVuSans-75"/>
      <use x="140.380859" xlink:href="#DejaVuSans-74"/>
      <use x="179.589844" xlink:href="#DejaVuSans-79"/>
      <use x="238.769531" xlink:href="#DejaVuSans-20"/>
      <use x="270.556641" xlink:href="#DejaVuSans-63"/>
      <use x="325.537109" xlink:href="#DejaVuSans-79"/>
      <use x="384.716797" xlink:href="#DejaVuSans-63"/>
      <use x="439.697266" xlink:href="#DejaVuSans-6c"/>
      <use x="467.480469" xlink:href="#DejaVuSans-65"/>
     </g>
    </g>
   </g>
   <g id="line2d_28">
    <path clip-path="url(#p13c375cf3f)" d="M 73.832727 280.178182 
L 130.601244 280.178182 
L 130.908101 284.691964 
L 131.214958 297.871743 
L 131.521815 294.217734 
L 131.828672 316.75431 
L 132.135528 310.291149 
L 132.442385 329.701753 
L 132.749242 328.793531 
L 133.056099 342.712559 
L 133.362956 343.240595 
L 133.669813 364.488764 
L 133.97667 355.913459 
L 134.283526 372.113604 
L 134.590383 381.090216 
L 134.89724 397.43821 
L 135.204097 388.313748 
L 135.510954 397.353724 
L 135.817811 399.740447 
L 136.124667 418.390678 
L 136.431524 401.620255 
L 136.738381 429.289341 
L 137.045238 407.85108 
L 137.352095 427.958691 
L 137.658952 430.324292 
L 137.965809 437.04091 
L 138.272665 427.831962 
L 138.579522 440.541818 
L 138.886379 431.084664 
L 139.193236 439.53324 
L 139.500093 424.811596 
L 139.80695 440.541818 
L 140.113806 425.846547 
L 140.420663 440.541818 
L 140.72752 440.541818 
L 141.034377 435.499045 
L 141.341234 419.467872 
L 141.648091 440.541818 
L 141.954948 429.585041 
L 142.261804 426.62804 
L 142.568661 424.748232 
L 142.875518 420.354972 
L 143.182375 433.175686 
L 143.489232 421.770109 
L 143.796089 420.566187 
L 144.102946 425.149539 
L 144.409802 415.032369 
L 144.716659 411.568453 
L 145.023516 412.307704 
L 145.330373 409.519674 
L 145.63723 409.012759 
L 145.944087 407.006222 
L 146.250943 401.97932 
L 146.5578 399.318018 
L 146.864657 397.670546 
L 147.171514 390.911685 
L 147.478371 394.882516 
L 147.785228 391.946636 
L 148.092085 406.414822 
L 148.398941 384.173946 
L 148.705798 397.670546 
L 149.012655 389.137484 
L 149.319512 388.187019 
L 149.626369 397.226996 
L 149.933226 387.933562 
L 150.240082 382.378623 
L 150.546939 397.100267 
L 150.853796 384.004974 
L 151.160653 397.43821 
L 151.46751 376.126677 
L 151.774367 382.547595 
L 152.081224 386.349454 
L 152.38808 382.082923 
L 152.694937 385.736932 
L 153.001794 392.115607 
L 153.308651 389.390941 
L 153.615508 392.74925 
L 153.922365 381.89283 
L 154.229222 391.312992 
L 154.536078 383.688153 
L 154.842935 392.263457 
L 155.149792 393.044951 
L 155.456649 387.785712 
L 155.763506 395.579523 
L 156.070363 393.256165 
L 156.377219 380.477694 
L 156.990933 394.016537 
L 157.29779 388.313748 
L 157.604647 385.758054 
L 157.911504 398.114096 
L 158.218361 382.674324 
L 158.832074 407.154072 
L 159.138931 403.774642 
L 159.752645 387.764591 
L 160.059502 400.268483 
L 160.673215 386.032633 
L 160.980072 399.571475 
L 161.286929 392.094486 
L 161.593786 397.43821 
L 161.900643 382.632081 
L 162.2075 399.93054 
L 162.514356 373.359769 
L 162.821213 384.068339 
L 163.12807 373.67659 
L 163.434927 391.291871 
L 163.741784 371.479961 
L 164.048641 380.456572 
L 164.355498 365.375864 
L 164.662354 379.949658 
L 164.969211 367.445766 
L 165.276068 360.095504 
L 165.582925 382.948902 
L 165.889782 382.420866 
L 166.196639 359.039432 
L 166.503495 381.132459 
L 166.810352 377.436207 
L 167.117209 379.696201 
L 167.424066 384.216189 
L 167.730923 390.425892 
L 168.03778 353.674587 
L 168.344637 377.393964 
L 168.651493 367.21343 
L 168.95835 376.485742 
L 169.265207 382.315259 
L 169.572064 379.168165 
L 169.878921 390.953928 
L 170.185778 389.010756 
L 170.492634 383.49806 
L 170.799491 388.187019 
L 171.106348 390.193556 
L 171.413205 405.844543 
L 171.720062 394.20663 
L 172.026919 387.912441 
L 172.333776 397.163631 
L 172.640632 385.420111 
L 172.947489 395.072609 
L 173.254346 384.997682 
L 173.561203 396.424381 
L 173.86806 400.500819 
L 174.174917 401.261191 
L 174.481774 396.297652 
L 174.78863 395.09373 
L 175.095487 396.973538 
L 175.402344 405.422114 
L 175.709201 396.361017 
L 176.016058 397.121388 
L 176.322915 408.907152 
L 176.629771 401.261191 
L 176.936628 407.40753 
L 177.243485 402.655206 
L 177.550342 340.95948 
L 177.857199 403.542306 
L 178.164056 384.131703 
L 178.470913 391.650936 
L 178.777769 386.391697 
L 179.084626 440.541818 
L 179.69834 380.118629 
L 180.005197 380.942366 
L 180.312054 387.17319 
L 180.61891 375.640884 
L 181.232624 383.540303 
L 181.539481 369.726881 
L 181.846338 377.161628 
L 182.153195 370.804074 
L 182.460052 372.916218 
L 182.766908 378.724614 
L 183.380622 372.219211 
L 183.687479 371.712296 
L 183.994336 363.918485 
L 184.301193 379.569472 
L 184.608049 372.240332 
L 184.914906 371.543325 
L 185.221763 372.895097 
L 185.52862 377.605178 
L 185.835477 368.860902 
L 186.142334 367.95268 
L 186.449191 369.283331 
L 186.756047 368.649688 
L 187.062904 373.38089 
L 187.369761 372.303697 
L 187.676618 368.860902 
L 187.983475 380.139751 
L 188.290332 362.397741 
L 188.597189 381.935073 
L 188.904045 370.212674 
L 189.210902 378.999193 
L 189.517759 373.359769 
L 189.824616 389.876735 
L 190.131473 374.542569 
L 190.43833 387.849076 
L 190.745186 375.556398 
L 191.052043 375.788734 
L 191.3589 381.681616 
L 191.665757 391.038414 
L 191.972614 377.77415 
L 192.586328 387.722348 
L 192.893184 388.820663 
L 193.200041 382.547595 
L 193.506898 385.061046 
L 193.813755 375.176212 
L 194.120612 381.111337 
L 194.427469 365.777172 
L 194.734325 385.314504 
L 195.041182 379.337136 
L 195.348039 387.616741 
L 195.654896 376.802563 
L 196.26861 370.930803 
L 196.575467 375.450791 
L 196.882323 376.02107 
L 197.18918 389.51767 
L 197.496037 389.876735 
L 197.802894 377.499571 
L 198.109751 385.272261 
L 198.416608 375.852099 
L 198.723465 383.983853 
L 199.030321 382.610959 
L 199.337178 382.779931 
L 199.644035 382.526474 
L 199.950892 380.815637 
L 200.257749 387.637862 
L 200.564606 381.111337 
L 200.871462 391.312992 
L 201.178319 386.349454 
L 201.485176 390.932807 
L 202.405747 381.280309 
L 202.712604 381.44928 
L 203.01946 378.428914 
L 203.326317 380.984608 
L 203.633174 390.932807 
L 203.940031 380.625544 
L 204.246888 390.468135 
L 204.553745 375.007241 
L 204.860601 382.061802 
L 205.167458 372.451547 
L 205.474315 384.364039 
L 205.781172 377.351721 
L 206.088029 380.477694 
L 206.394886 369.198845 
L 207.008599 380.266479 
L 207.315456 380.731151 
L 207.622313 373.592104 
L 207.92917 377.140506 
L 208.236027 375.556398 
L 208.542884 379.527229 
L 208.849741 365.9039 
L 209.156597 377.330599 
L 209.463454 373.52874 
L 209.770311 383.476938 
L 210.077168 376.992656 
L 210.384025 382.251895 
L 210.690882 380.498815 
L 210.997738 390.679349 
L 211.304595 379.020315 
L 211.611452 379.379379 
L 211.918309 377.710785 
L 212.225166 378.175457 
L 212.532023 375.830977 
L 212.83888 370.973046 
L 213.145736 380.372087 
L 213.452593 367.678101 
L 213.75945 370.571739 
L 214.066307 280.178182 
L 214.373164 362.334377 
L 214.680021 375.999949 
L 214.986877 371.733418 
L 215.293734 380.773394 
L 215.600591 376.105556 
L 215.907448 377.541814 
L 216.214305 377.034899 
L 216.521162 382.906659 
L 216.828019 372.683883 
L 217.134875 371.057532 
L 217.748589 380.963487 
L 218.055446 376.337892 
L 218.362303 369.114359 
L 218.66916 378.830222 
L 218.976016 360.243355 
L 219.282873 383.160117 
L 219.58973 371.712296 
L 219.896587 390.848321 
L 220.203444 378.112093 
L 220.510301 382.399745 
L 220.817158 382.991145 
L 221.124014 385.800297 
L 221.430871 369.050995 
L 221.737728 379.717322 
L 222.044585 375.556398 
L 222.351442 385.948147 
L 222.658299 377.351721 
L 222.965156 380.477694 
L 223.272012 367.65698 
L 223.578869 391.608693 
L 223.885726 376.739199 
L 224.192583 383.582546 
L 224.49944 369.388938 
L 224.806297 383.096752 
L 225.113153 369.748002 
L 225.42001 380.41433 
L 225.726867 375.683127 
L 226.033724 391.228507 
L 226.340581 378.787979 
L 226.647438 384.786468 
L 226.954295 378.830222 
L 227.261151 376.359013 
L 227.568008 378.06985 
L 227.874865 375.218455 
L 228.181722 387.891319 
L 228.488579 387.130947 
L 228.795436 378.492279 
L 229.102292 395.262702 
L 229.409149 392.01 
L 229.716006 375.42967 
L 230.022863 384.173946 
L 230.32972 388.715055 
L 230.636577 375.704248 
L 231.25029 390.827199 
L 231.557147 397.121388 
L 231.864004 386.264968 
L 232.170861 391.904393 
L 232.477718 387.574498 
L 232.784575 381.59713 
L 233.091432 404.112585 
L 233.398288 384.575253 
L 233.705145 397.374846 
L 234.012002 394.671301 
L 234.318859 399.127925 
L 234.625716 376.211163 
L 234.932573 400.057269 
L 235.239429 375.894341 
L 235.546286 393.678594 
L 235.853143 373.486497 
L 236.16 382.399745 
L 236.466857 380.266479 
L 236.773714 384.997682 
L 237.080571 373.486497 
L 237.387427 380.372087 
L 237.694284 368.459595 
L 238.001141 376.042191 
L 238.307998 369.748002 
L 238.614855 381.956195 
L 238.921712 363.073627 
L 239.228568 378.259943 
L 239.535425 364.615493 
L 239.842282 370.085945 
L 240.455996 365.671565 
L 240.762853 369.156602 
L 241.06971 361.764098 
L 241.376566 370.656224 
L 241.683423 440.541818 
L 241.99028 371.543325 
L 242.297137 365.6082 
L 242.603994 370.085945 
L 242.910851 360.158869 
L 243.217708 364.974557 
L 243.524564 361.531762 
L 243.831421 368.882023 
L 244.138278 355.469909 
L 244.445135 365.143529 
L 244.751992 360.560176 
L 245.058849 367.931559 
L 245.365705 365.143529 
L 245.672562 372.113604 
L 245.979419 357.434203 
L 246.286276 367.825951 
L 246.593133 369.241088 
L 246.89999 381.280309 
L 247.206847 378.428914 
L 247.513703 379.358258 
L 247.82056 377.478449 
L 248.127417 376.46462 
L 248.434274 377.098263 
L 248.741131 385.103289 
L 249.047988 399.93054 
L 249.354844 390.024585 
L 249.661701 391.608693 
L 249.968558 391.228507 
L 250.275415 392.770372 
L 250.582272 391.86215 
L 250.889129 403.30997 
L 251.195986 395.558402 
L 251.502842 412.68789 
L 251.809699 393.868687 
L 252.116556 411.336117 
L 252.423413 407.048465 
L 252.73027 406.182486 
L 253.037127 398.705496 
L 253.343984 408.189023 
L 253.65084 402.401748 
L 253.957697 415.518162 
L 254.264554 402.338384 
L 254.571411 400.902126 
L 254.878268 406.583793 
L 255.185125 404.6195 
L 255.491981 413.828447 
L 255.798838 411.336117 
L 256.105695 404.070342 
L 256.412552 404.471649 
L 256.719409 410.512381 
L 257.026266 402.253898 
L 257.333123 413.743962 
L 257.639979 403.922492 
L 257.946836 411.37836 
L 258.253693 413.194804 
L 258.56055 410.554624 
L 258.867407 399.465868 
L 259.174264 410.533503 
L 259.48112 401.176705 
L 259.787977 408.505844 
L 260.094834 396.508867 
L 260.401691 402.27502 
L 260.708548 388.081412 
L 261.015405 412.265461 
L 261.322262 391.819907 
L 261.629118 411.272753 
L 261.935975 400.690912 
L 262.242832 401.387919 
L 262.549689 398.789982 
L 262.856546 407.85108 
L 263.163403 411.314996 
L 263.470259 389.982342 
L 264.083973 402.401748 
L 264.39083 400.07839 
L 264.697687 394.417844 
L 265.004544 405.823422 
L 265.311401 397.100267 
L 265.618257 411.505089 
L 265.925114 399.909418 
L 266.231971 415.560405 
L 266.538828 396.001952 
L 266.845685 402.950906 
L 267.152542 423.016274 
L 267.459399 409.181731 
L 267.766255 411.167146 
L 268.073112 401.662498 
L 268.379969 406.330336 
L 268.686826 400.268483 
L 268.993683 402.401748 
L 269.30054 400.141754 
L 269.607396 394.523451 
L 270.22111 403.436699 
L 270.527967 397.860639 
L 270.834824 395.009244 
L 271.141681 398.916711 
L 271.755394 387.17319 
L 272.062251 389.031877 
L 272.369108 389.897856 
L 272.675965 392.981586 
L 272.982822 380.181994 
L 273.289679 388.757298 
L 273.903392 378.745736 
L 274.210249 372.64164 
L 274.517106 384.596375 
L 274.823963 369.494545 
L 275.13082 375.302941 
L 275.437677 373.042947 
L 275.744533 369.072116 
L 276.05139 362.22877 
L 276.358247 361.996434 
L 276.665104 367.994923 
L 276.971961 354.89963 
L 277.278818 366.474179 
L 277.892531 357.328596 
L 278.199388 345.120404 
L 278.506245 375.894341 
L 278.813102 354.540566 
L 279.119959 280.178182 
L 279.426816 349.788242 
L 279.733672 360.285597 
L 280.040529 359.525226 
L 280.347386 367.382401 
L 280.654243 367.973801 
L 280.9611 381.195823 
L 281.267957 367.572494 
L 281.574814 375.176212 
L 281.88167 371.120896 
L 282.188527 384.08946 
L 282.495384 376.16892 
L 282.802241 377.393964 
L 283.109098 379.147043 
L 283.415955 383.878246 
L 283.722811 380.456572 
L 284.336525 395.178216 
L 284.643382 377.056021 
L 284.950239 401.662498 
L 285.257096 391.249628 
L 285.563953 389.581034 
L 285.870809 389.031877 
L 286.177666 396.339895 
L 286.484523 388.48272 
L 286.79138 396.276531 
L 287.098237 389.538792 
L 287.405094 400.036147 
L 287.711951 393.763079 
L 288.018807 404.006978 
L 288.325664 390.278042 
L 288.632521 398.599889 
L 288.939378 384.955439 
L 289.246235 387.743469 
L 289.553092 388.820663 
L 289.859948 385.103289 
L 290.166805 385.800297 
L 290.473662 389.179727 
L 290.780519 389.771127 
L 291.087376 390.827199 
L 291.394233 383.265724 
L 291.70109 381.470402 
L 292.007946 390.890564 
L 292.62166 378.999193 
L 292.928517 377.753028 
L 293.235374 385.652447 
L 293.542231 370.318281 
L 293.849087 440.541818 
L 294.155944 389.81337 
L 294.462801 381.913952 
L 294.769658 382.420866 
L 295.076515 375.830977 
L 295.383372 376.063313 
L 295.690229 381.364794 
L 295.997085 376.147799 
L 296.303942 376.295649 
L 296.610799 374.014533 
L 296.917656 373.296404 
L 297.224513 376.61247 
L 297.53137 371.986875 
L 297.838226 386.898612 
L 298.145083 381.723859 
L 298.45194 386.264968 
L 298.758797 368.607445 
L 299.065654 372.536032 
L 299.372511 384.870953 
L 299.679368 384.849832 
L 299.986224 385.145532 
L 300.293081 378.893586 
L 300.599938 387.849076 
L 300.906795 382.801052 
L 301.213652 407.914444 
L 301.520509 389.158606 
L 301.827366 393.256165 
L 302.134222 387.088705 
L 302.441079 400.543062 
L 302.747936 399.022318 
L 303.054793 410.258924 
L 303.36165 403.140999 
L 303.668507 404.6195 
L 303.975363 410.322288 
L 304.28222 393.192801 
L 304.589077 407.766594 
L 304.895934 396.55111 
L 305.509648 410.026588 
L 305.816505 410.829203 
L 306.123361 395.896345 
L 306.430218 409.920981 
L 306.737075 403.140999 
L 307.043932 412.455554 
L 307.350789 406.076879 
L 307.657646 403.60567 
L 307.964502 404.028099 
L 308.271359 402.211655 
L 308.578216 403.985856 
L 308.885073 393.171679 
L 309.19193 399.402504 
L 309.498787 386.28609 
L 309.805644 397.670546 
L 310.1125 389.51767 
L 310.419357 393.509622 
L 310.726214 389.940099 
L 311.033071 392.833736 
L 311.339928 386.412818 
L 311.646785 440.541818 
L 311.953642 382.399745 
L 312.260498 378.5134 
L 312.567355 391.608693 
L 312.874212 383.878246 
L 313.181069 384.617496 
L 313.487926 378.154335 
L 313.794783 378.640129 
L 314.101639 377.943121 
L 314.408496 392.094486 
L 314.715353 378.935829 
L 315.02221 392.432429 
L 315.329067 377.140506 
L 315.635924 384.427403 
L 315.942781 370.402767 
L 316.249637 280.178182 
L 316.556494 368.734173 
L 316.863351 380.456572 
L 317.170208 382.420866 
L 317.477065 376.992656 
L 317.783922 365.650443 
L 318.090778 367.593616 
L 318.397635 361.045969 
L 318.704492 361.574005 
L 319.011349 372.578275 
L 319.318206 371.289868 
L 319.625063 375.239577 
L 319.93192 366.368572 
L 320.238776 375.471913 
L 320.545633 374.183505 
L 320.85249 365.037921 
L 321.159347 372.64164 
L 321.466204 369.938095 
L 321.773061 374.373598 
L 322.079918 373.190797 
L 322.386774 375.746491 
L 322.693631 371.015289 
L 323.000488 377.879757 
L 323.307345 359.630833 
L 323.614202 372.176968 
L 323.921059 378.2177 
L 324.227915 373.190797 
L 324.534772 380.393208 
L 324.841629 375.302941 
L 325.148486 373.190797 
L 325.7622 382.463109 
L 326.069057 357.83551 
L 326.375913 375.894341 
L 326.68277 377.77415 
L 326.989627 385.694689 
L 327.296484 381.491523 
L 327.603341 381.977316 
L 327.910198 387.130947 
L 328.217054 379.4005 
L 328.523911 389.158606 
L 328.830768 384.152824 
L 329.137625 397.29036 
L 329.444482 390.320285 
L 329.751339 395.917466 
L 330.058196 384.216189 
L 330.365052 391.4186 
L 331.285623 399.296897 
L 331.59248 409.329581 
L 331.899337 402.86642 
L 332.206194 364.446521 
L 332.51305 406.647158 
L 332.819907 396.783445 
L 333.126764 414.187512 
L 333.740478 403.035392 
L 334.047335 400.775398 
L 334.354191 410.977053 
L 334.661048 388.989634 
L 334.967905 422.678331 
L 335.274762 410.765839 
L 335.581619 412.730132 
L 335.888476 423.206367 
L 336.195333 412.244339 
L 336.502189 423.734403 
L 336.809046 409.688645 
L 337.115903 416.236291 
L 337.42276 413.701719 
L 337.729617 415.729377 
L 338.036474 409.287338 
L 338.34333 415.47592 
L 338.650187 405.379871 
L 338.957044 420.059272 
L 339.263901 411.990882 
L 339.570758 427.430655 
L 339.877615 416.95442 
L 340.184472 415.77162 
L 340.491328 405.485479 
L 340.798185 405.189778 
L 341.105042 413.490504 
L 341.411899 399.993904 
L 341.718756 404.323799 
L 342.025613 404.703985 
L 342.332469 411.990882 
L 342.639326 385.567961 
L 342.946183 397.902882 
L 343.25304 397.480453 
L 343.559897 402.27502 
L 343.866754 392.073364 
L 344.173611 397.88176 
L 344.480467 393.763079 
L 344.787324 398.536525 
L 345.094181 399.064561 
L 345.401038 384.807589 
L 345.707895 393.720837 
L 346.014752 388.165898 
L 346.321609 395.009244 
L 346.628465 396.255409 
L 346.935322 392.538036 
L 347.242179 394.903637 
L 347.549036 395.157095 
L 347.855893 386.518426 
L 348.16275 440.541818 
L 348.469606 409.984345 
L 348.776463 398.726618 
L 349.08332 401.282312 
L 349.390177 388.398234 
L 349.697034 387.215433 
L 350.003891 380.519937 
L 350.310748 386.307211 
L 350.617604 383.012267 
L 350.924461 396.720081 
L 351.231318 376.76032 
L 351.538175 375.683127 
L 351.845032 376.823685 
L 352.151889 377.330599 
L 352.458745 380.541058 
L 352.765602 356.863924 
L 353.072459 380.076387 
L 353.379316 372.705004 
L 353.686173 374.310233 
L 353.99303 368.121652 
L 354.606743 374.267991 
L 355.220457 358.954947 
L 355.527314 361.531762 
L 355.834171 370.233796 
L 356.141028 364.383157 
L 356.447885 363.284842 
L 356.754741 359.88429 
L 357.061598 368.417352 
L 357.368455 355.765609 
L 357.675312 365.418107 
L 357.982169 356.737196 
L 358.289026 360.813633 
L 358.595882 340.980601 
L 358.902739 357.370839 
L 359.209596 352.956458 
L 359.516453 351.034407 
L 359.82331 352.196086 
L 360.130167 357.962239 
L 360.437024 353.843558 
L 361.050737 360.792512 
L 361.357594 355.491031 
L 361.664451 366.558665 
L 361.971308 357.413082 
L 362.278165 373.106311 
L 362.585021 367.445766 
L 362.891878 357.645417 
L 363.505592 378.640129 
L 363.812449 376.337892 
L 364.426163 381.702737 
L 364.733019 369.515667 
L 365.039876 374.648176 
L 365.346733 361.088212 
L 365.960447 403.119877 
L 366.267304 382.209652 
L 366.574161 383.582546 
L 366.881017 395.769616 
L 367.187874 388.947391 
L 367.494731 389.07412 
L 368.108445 406.795008 
L 368.415302 402.253898 
L 368.722158 405.041928 
L 369.029015 406.478186 
L 369.335872 405.591086 
L 369.642729 409.709767 
L 369.949586 409.266216 
L 370.256443 413.891812 
L 370.5633 408.611452 
L 370.870156 416.405263 
L 371.177013 414.715548 
L 371.790727 404.281557 
L 372.097584 403.246606 
L 372.404441 409.920981 
L 372.711297 404.661742 
L 373.018154 420.397215 
L 373.631868 396.149802 
L 373.938725 409.604159 
L 374.245582 405.295386 
L 374.552439 408.463602 
L 375.166152 405.971272 
L 375.473009 407.766594 
L 375.779866 393.087193 
L 376.086723 409.836495 
L 376.39358 398.367553 
L 376.700437 401.409041 
L 377.007293 400.838762 
L 377.31415 393.932051 
L 377.621007 401.83147 
L 377.927864 393.551865 
L 378.234721 393.298408 
L 378.541578 388.187019 
L 378.848434 390.024585 
L 379.155291 387.384405 
L 379.462148 392.347943 
L 379.769005 377.436207 
L 380.075862 388.48272 
L 380.382719 376.232284 
L 380.689576 377.77415 
L 380.996432 377.710785 
L 381.303289 384.870953 
L 381.610146 386.307211 
L 381.917003 373.67659 
L 382.22386 368.903145 
L 382.530717 381.322551 
L 382.837573 375.809856 
L 383.14443 364.235307 
L 383.451287 362.249891 
L 383.758144 369.811367 
L 384.065001 361.003726 
L 384.371858 369.579031 
L 384.678715 374.901634 
L 384.985571 362.651199 
L 385.599285 368.966509 
L 385.906142 380.245358 
L 386.212999 360.074383 
L 386.519856 371.522203 
L 386.826712 368.353987 
L 387.133569 369.325574 
L 387.440426 374.458084 
L 388.05414 364.615493 
L 388.667854 383.79376 
L 388.97471 370.276038 
L 389.281567 377.098263 
L 389.588424 368.39623 
L 389.895281 366.748758 
L 390.202138 369.283331 
L 390.508995 373.845562 
L 390.815852 371.712296 
L 391.122708 378.175457 
L 391.429565 375.007241 
L 391.736422 376.781442 
L 392.043279 364.193064 
L 392.350136 382.315259 
L 392.656993 365.037921 
L 392.963849 384.342917 
L 393.270706 381.681616 
L 393.577563 383.075631 
L 393.88442 362.186527 
L 394.191277 394.79803 
L 394.498134 379.4005 
L 394.804991 378.196578 
L 395.111847 381.702737 
L 395.418704 374.563691 
L 395.725561 370.44501 
L 396.032418 280.178182 
L 396.339275 363.981849 
L 396.646132 382.610959 
L 396.952988 371.670053 
L 397.566702 378.978072 
L 397.873559 374.901634 
L 398.180416 391.693178 
L 398.487273 388.546084 
L 398.487273 388.546084 
" style="fill:none;stroke:#1f77b4;stroke-linecap:square;stroke-width:1.5;"/>
   </g>
   <g id="patch_8">
    <path d="M 57.6 448.56 
L 57.6 272.16 
" style="fill:none;stroke:#000000;stroke-linecap:square;stroke-linejoin:miter;stroke-width:0.8;"/>
   </g>
   <g id="patch_9">
    <path d="M 414.72 448.56 
L 414.72 272.16 
" style="fill:none;stroke:#000000;stroke-linecap:square;stroke-linejoin:miter;stroke-width:0.8;"/>
   </g>
   <g id="patch_10">
    <path d="M 57.6 448.56 
L 414.72 448.56 
" style="fill:none;stroke:#000000;stroke-linecap:square;stroke-linejoin:miter;stroke-width:0.8;"/>
   </g>
   <g id="patch_11">
    <path d="M 57.6 272.16 
L 414.72 272.16 
" style="fill:none;stroke:#000000;stroke-linecap:square;stroke-linejoin:miter;stroke-width:0.8;"/>
   </g>
  </g>
 </g>
 <defs>
  <clipPath id="pa8088da4d9">
   <rect height="176.4" width="357.12" x="57.6" y="60.48"/>
  </clipPath>
  <clipPath id="p13c375cf3f">
   <rect height="176.4" width="357.12" x="57.6" y="272.16"/>
  </clipPath>
 </defs>
</svg>
