<?xml version="1.0" encoding="utf-8" standalone="no"?>
<!DOCTYPE svg PUBLIC "-//W3C//DTD SVG 1.1//EN"
  "http://www.w3.org/Graphics/SVG/1.1/DTD/svg11.dtd">
<!-- Created with matplotlib (http://matplotlib.org/) -->
<svg height="493.2pt" version="1.1" viewBox="0 0 460.8 493.2" width="460.8pt" xmlns="http://www.w3.org/2000/svg" xmlns:xlink="http://www.w3.org/1999/xlink">
 <defs>
  <style type="text/css">
*{stroke-linecap:butt;stroke-linejoin:round;}
  </style>
 </defs>
 <g id="figure_1">
  <g id="patch_1">
   <path d="M 0 493.2 
L 460.8 493.2 
L 460.8 0 
L 0 0 
z
" style="fill:#ffffff;"/>
  </g>
  <g id="axes_1">
   <g id="patch_2">
    <path d="M 57.6 231.804 
L 414.72 231.804 
L 414.72 59.184 
L 57.6 59.184 
z
" style="fill:#ffffff;"/>
   </g>
   <g id="matplotlib.axis_1">
    <g id="xtick_1">
     <g id="line2d_1">
      <defs>
       <path d="M 0 0 
L 0 3.5 
" id="m2570bce3d7" style="stroke:#000000;stroke-width:0.8;"/>
      </defs>
      <g>
       <use style="stroke:#000000;stroke-width:0.8;" x="73.832727" xlink:href="#m2570bce3d7" y="231.804"/>
      </g>
     </g>
     <g id="text_1">
      <!-- 0 -->
      <defs>
       <path d="M 31.78125 66.40625 
Q 24.171875 66.40625 20.328125 58.90625 
Q 16.5 51.421875 16.5 36.375 
Q 16.5 21.390625 20.328125 13.890625 
Q 24.171875 6.390625 31.78125 6.390625 
Q 39.453125 6.390625 43.28125 13.890625 
Q 47.125 21.390625 47.125 36.375 
Q 47.125 51.421875 43.28125 58.90625 
Q 39.453125 66.40625 31.78125 66.40625 
z
M 31.78125 74.21875 
Q 44.046875 74.21875 50.515625 64.515625 
Q 56.984375 54.828125 56.984375 36.375 
Q 56.984375 17.96875 50.515625 8.265625 
Q 44.046875 -1.421875 31.78125 -1.421875 
Q 19.53125 -1.421875 13.0625 8.265625 
Q 6.59375 17.96875 6.59375 36.375 
Q 6.59375 54.828125 13.0625 64.515625 
Q 19.53125 74.21875 31.78125 74.21875 
z
" id="DejaVuSans-30"/>
      </defs>
      <g transform="translate(70.651477 246.402437)scale(0.1 -0.1)">
       <use xlink:href="#DejaVuSans-30"/>
      </g>
     </g>
    </g>
    <g id="xtick_2">
     <g id="line2d_2">
      <g>
       <use style="stroke:#000000;stroke-width:0.8;" x="117.410519" xlink:href="#m2570bce3d7" y="231.804"/>
      </g>
     </g>
     <g id="text_2">
      <!-- 50 -->
      <defs>
       <path d="M 10.796875 72.90625 
L 49.515625 72.90625 
L 49.515625 64.59375 
L 19.828125 64.59375 
L 19.828125 46.734375 
Q 21.96875 47.46875 24.109375 47.828125 
Q 26.265625 48.1875 28.421875 48.1875 
Q 40.625 48.1875 47.75 41.5 
Q 54.890625 34.8125 54.890625 23.390625 
Q 54.890625 11.625 47.5625 5.09375 
Q 40.234375 -1.421875 26.90625 -1.421875 
Q 22.3125 -1.421875 17.546875 -0.640625 
Q 12.796875 0.140625 7.71875 1.703125 
L 7.71875 11.625 
Q 12.109375 9.234375 16.796875 8.0625 
Q 21.484375 6.890625 26.703125 6.890625 
Q 35.15625 6.890625 40.078125 11.328125 
Q 45.015625 15.765625 45.015625 23.390625 
Q 45.015625 31 40.078125 35.4375 
Q 35.15625 39.890625 26.703125 39.890625 
Q 22.75 39.890625 18.8125 39.015625 
Q 14.890625 38.140625 10.796875 36.28125 
z
" id="DejaVuSans-35"/>
      </defs>
      <g transform="translate(111.048019 246.402437)scale(0.1 -0.1)">
       <use xlink:href="#DejaVuSans-35"/>
       <use x="63.623047" xlink:href="#DejaVuSans-30"/>
      </g>
     </g>
    </g>
    <g id="xtick_3">
     <g id="line2d_3">
      <g>
       <use style="stroke:#000000;stroke-width:0.8;" x="160.98831" xlink:href="#m2570bce3d7" y="231.804"/>
      </g>
     </g>
     <g id="text_3">
      <!-- 100 -->
      <defs>
       <path d="M 12.40625 8.296875 
L 28.515625 8.296875 
L 28.515625 63.921875 
L 10.984375 60.40625 
L 10.984375 69.390625 
L 28.421875 72.90625 
L 38.28125 72.90625 
L 38.28125 8.296875 
L 54.390625 8.296875 
L 54.390625 0 
L 12.40625 0 
z
" id="DejaVuSans-31"/>
      </defs>
      <g transform="translate(151.44456 246.402437)scale(0.1 -0.1)">
       <use xlink:href="#DejaVuSans-31"/>
       <use x="63.623047" xlink:href="#DejaVuSans-30"/>
       <use x="127.246094" xlink:href="#DejaVuSans-30"/>
      </g>
     </g>
    </g>
    <g id="xtick_4">
     <g id="line2d_4">
      <g>
       <use style="stroke:#000000;stroke-width:0.8;" x="204.566101" xlink:href="#m2570bce3d7" y="231.804"/>
      </g>
     </g>
     <g id="text_4">
      <!-- 150 -->
      <g transform="translate(195.022351 246.402437)scale(0.1 -0.1)">
       <use xlink:href="#DejaVuSans-31"/>
       <use x="63.623047" xlink:href="#DejaVuSans-35"/>
       <use x="127.246094" xlink:href="#DejaVuSans-30"/>
      </g>
     </g>
    </g>
    <g id="xtick_5">
     <g id="line2d_5">
      <g>
       <use style="stroke:#000000;stroke-width:0.8;" x="248.143893" xlink:href="#m2570bce3d7" y="231.804"/>
      </g>
     </g>
     <g id="text_5">
      <!-- 200 -->
      <defs>
       <path d="M 19.1875 8.296875 
L 53.609375 8.296875 
L 53.609375 0 
L 7.328125 0 
L 7.328125 8.296875 
Q 12.9375 14.109375 22.625 23.890625 
Q 32.328125 33.6875 34.8125 36.53125 
Q 39.546875 41.84375 41.421875 45.53125 
Q 43.3125 49.21875 43.3125 52.78125 
Q 43.3125 58.59375 39.234375 62.25 
Q 35.15625 65.921875 28.609375 65.921875 
Q 23.96875 65.921875 18.8125 64.3125 
Q 13.671875 62.703125 7.8125 59.421875 
L 7.8125 69.390625 
Q 13.765625 71.78125 18.9375 73 
Q 24.125 74.21875 28.421875 74.21875 
Q 39.75 74.21875 46.484375 68.546875 
Q 53.21875 62.890625 53.21875 53.421875 
Q 53.21875 48.921875 51.53125 44.890625 
Q 49.859375 40.875 45.40625 35.40625 
Q 44.1875 33.984375 37.640625 27.21875 
Q 31.109375 20.453125 19.1875 8.296875 
z
" id="DejaVuSans-32"/>
      </defs>
      <g transform="translate(238.600143 246.402437)scale(0.1 -0.1)">
       <use xlink:href="#DejaVuSans-32"/>
       <use x="63.623047" xlink:href="#DejaVuSans-30"/>
       <use x="127.246094" xlink:href="#DejaVuSans-30"/>
      </g>
     </g>
    </g>
    <g id="xtick_6">
     <g id="line2d_6">
      <g>
       <use style="stroke:#000000;stroke-width:0.8;" x="291.721684" xlink:href="#m2570bce3d7" y="231.804"/>
      </g>
     </g>
     <g id="text_6">
      <!-- 250 -->
      <g transform="translate(282.177934 246.402437)scale(0.1 -0.1)">
       <use xlink:href="#DejaVuSans-32"/>
       <use x="63.623047" xlink:href="#DejaVuSans-35"/>
       <use x="127.246094" xlink:href="#DejaVuSans-30"/>
      </g>
     </g>
    </g>
    <g id="xtick_7">
     <g id="line2d_7">
      <g>
       <use style="stroke:#000000;stroke-width:0.8;" x="335.299475" xlink:href="#m2570bce3d7" y="231.804"/>
      </g>
     </g>
     <g id="text_7">
      <!-- 300 -->
      <defs>
       <path d="M 40.578125 39.3125 
Q 47.65625 37.796875 51.625 33 
Q 55.609375 28.21875 55.609375 21.1875 
Q 55.609375 10.40625 48.1875 4.484375 
Q 40.765625 -1.421875 27.09375 -1.421875 
Q 22.515625 -1.421875 17.65625 -0.515625 
Q 12.796875 0.390625 7.625 2.203125 
L 7.625 11.71875 
Q 11.71875 9.328125 16.59375 8.109375 
Q 21.484375 6.890625 26.8125 6.890625 
Q 36.078125 6.890625 40.9375 10.546875 
Q 45.796875 14.203125 45.796875 21.1875 
Q 45.796875 27.640625 41.28125 31.265625 
Q 36.765625 34.90625 28.71875 34.90625 
L 20.21875 34.90625 
L 20.21875 43.015625 
L 29.109375 43.015625 
Q 36.375 43.015625 40.234375 45.921875 
Q 44.09375 48.828125 44.09375 54.296875 
Q 44.09375 59.90625 40.109375 62.90625 
Q 36.140625 65.921875 28.71875 65.921875 
Q 24.65625 65.921875 20.015625 65.03125 
Q 15.375 64.15625 9.8125 62.3125 
L 9.8125 71.09375 
Q 15.4375 72.65625 20.34375 73.4375 
Q 25.25 74.21875 29.59375 74.21875 
Q 40.828125 74.21875 47.359375 69.109375 
Q 53.90625 64.015625 53.90625 55.328125 
Q 53.90625 49.265625 50.4375 45.09375 
Q 46.96875 40.921875 40.578125 39.3125 
z
" id="DejaVuSans-33"/>
      </defs>
      <g transform="translate(325.755725 246.402437)scale(0.1 -0.1)">
       <use xlink:href="#DejaVuSans-33"/>
       <use x="63.623047" xlink:href="#DejaVuSans-30"/>
       <use x="127.246094" xlink:href="#DejaVuSans-30"/>
      </g>
     </g>
    </g>
    <g id="xtick_8">
     <g id="line2d_8">
      <g>
       <use style="stroke:#000000;stroke-width:0.8;" x="378.877267" xlink:href="#m2570bce3d7" y="231.804"/>
      </g>
     </g>
     <g id="text_8">
      <!-- 350 -->
      <g transform="translate(369.333517 246.402437)scale(0.1 -0.1)">
       <use xlink:href="#DejaVuSans-33"/>
       <use x="63.623047" xlink:href="#DejaVuSans-35"/>
       <use x="127.246094" xlink:href="#DejaVuSans-30"/>
      </g>
     </g>
    </g>
   </g>
   <g id="matplotlib.axis_2">
    <g id="ytick_1">
     <g id="line2d_9">
      <defs>
       <path d="M 0 0 
L -3.5 0 
" id="m4c4a1468fa" style="stroke:#000000;stroke-width:0.8;"/>
      </defs>
      <g>
       <use style="stroke:#000000;stroke-width:0.8;" x="57.6" xlink:href="#m4c4a1468fa" y="219.343536"/>
      </g>
     </g>
     <g id="text_9">
      <!-- 30 -->
      <g transform="translate(37.875 223.142755)scale(0.1 -0.1)">
       <use xlink:href="#DejaVuSans-33"/>
       <use x="63.623047" xlink:href="#DejaVuSans-30"/>
      </g>
     </g>
    </g>
    <g id="ytick_2">
     <g id="line2d_10">
      <g>
       <use style="stroke:#000000;stroke-width:0.8;" x="57.6" xlink:href="#m4c4a1468fa" y="181.928241"/>
      </g>
     </g>
     <g id="text_10">
      <!-- 32 -->
      <g transform="translate(37.875 185.727459)scale(0.1 -0.1)">
       <use xlink:href="#DejaVuSans-33"/>
       <use x="63.623047" xlink:href="#DejaVuSans-32"/>
      </g>
     </g>
    </g>
    <g id="ytick_3">
     <g id="line2d_11">
      <g>
       <use style="stroke:#000000;stroke-width:0.8;" x="57.6" xlink:href="#m4c4a1468fa" y="144.512945"/>
      </g>
     </g>
     <g id="text_11">
      <!-- 34 -->
      <defs>
       <path d="M 37.796875 64.3125 
L 12.890625 25.390625 
L 37.796875 25.390625 
z
M 35.203125 72.90625 
L 47.609375 72.90625 
L 47.609375 25.390625 
L 58.015625 25.390625 
L 58.015625 17.1875 
L 47.609375 17.1875 
L 47.609375 0 
L 37.796875 0 
L 37.796875 17.1875 
L 4.890625 17.1875 
L 4.890625 26.703125 
z
" id="DejaVuSans-34"/>
      </defs>
      <g transform="translate(37.875 148.312164)scale(0.1 -0.1)">
       <use xlink:href="#DejaVuSans-33"/>
       <use x="63.623047" xlink:href="#DejaVuSans-34"/>
      </g>
     </g>
    </g>
    <g id="ytick_4">
     <g id="line2d_12">
      <g>
       <use style="stroke:#000000;stroke-width:0.8;" x="57.6" xlink:href="#m4c4a1468fa" y="107.09765"/>
      </g>
     </g>
     <g id="text_12">
      <!-- 36 -->
      <defs>
       <path d="M 33.015625 40.375 
Q 26.375 40.375 22.484375 35.828125 
Q 18.609375 31.296875 18.609375 23.390625 
Q 18.609375 15.53125 22.484375 10.953125 
Q 26.375 6.390625 33.015625 6.390625 
Q 39.65625 6.390625 43.53125 10.953125 
Q 47.40625 15.53125 47.40625 23.390625 
Q 47.40625 31.296875 43.53125 35.828125 
Q 39.65625 40.375 33.015625 40.375 
z
M 52.59375 71.296875 
L 52.59375 62.3125 
Q 48.875 64.0625 45.09375 64.984375 
Q 41.3125 65.921875 37.59375 65.921875 
Q 27.828125 65.921875 22.671875 59.328125 
Q 17.53125 52.734375 16.796875 39.40625 
Q 19.671875 43.65625 24.015625 45.921875 
Q 28.375 48.1875 33.59375 48.1875 
Q 44.578125 48.1875 50.953125 41.515625 
Q 57.328125 34.859375 57.328125 23.390625 
Q 57.328125 12.15625 50.6875 5.359375 
Q 44.046875 -1.421875 33.015625 -1.421875 
Q 20.359375 -1.421875 13.671875 8.265625 
Q 6.984375 17.96875 6.984375 36.375 
Q 6.984375 53.65625 15.1875 63.9375 
Q 23.390625 74.21875 37.203125 74.21875 
Q 40.921875 74.21875 44.703125 73.484375 
Q 48.484375 72.75 52.59375 71.296875 
z
" id="DejaVuSans-36"/>
      </defs>
      <g transform="translate(37.875 110.896869)scale(0.1 -0.1)">
       <use xlink:href="#DejaVuSans-33"/>
       <use x="63.623047" xlink:href="#DejaVuSans-36"/>
      </g>
     </g>
    </g>
    <g id="ytick_5">
     <g id="line2d_13">
      <g>
       <use style="stroke:#000000;stroke-width:0.8;" x="57.6" xlink:href="#m4c4a1468fa" y="69.682355"/>
      </g>
     </g>
     <g id="text_13">
      <!-- 38 -->
      <defs>
       <path d="M 31.78125 34.625 
Q 24.75 34.625 20.71875 30.859375 
Q 16.703125 27.09375 16.703125 20.515625 
Q 16.703125 13.921875 20.71875 10.15625 
Q 24.75 6.390625 31.78125 6.390625 
Q 38.8125 6.390625 42.859375 10.171875 
Q 46.921875 13.96875 46.921875 20.515625 
Q 46.921875 27.09375 42.890625 30.859375 
Q 38.875 34.625 31.78125 34.625 
z
M 21.921875 38.8125 
Q 15.578125 40.375 12.03125 44.71875 
Q 8.5 49.078125 8.5 55.328125 
Q 8.5 64.0625 14.71875 69.140625 
Q 20.953125 74.21875 31.78125 74.21875 
Q 42.671875 74.21875 48.875 69.140625 
Q 55.078125 64.0625 55.078125 55.328125 
Q 55.078125 49.078125 51.53125 44.71875 
Q 48 40.375 41.703125 38.8125 
Q 48.828125 37.15625 52.796875 32.3125 
Q 56.78125 27.484375 56.78125 20.515625 
Q 56.78125 9.90625 50.3125 4.234375 
Q 43.84375 -1.421875 31.78125 -1.421875 
Q 19.734375 -1.421875 13.25 4.234375 
Q 6.78125 9.90625 6.78125 20.515625 
Q 6.78125 27.484375 10.78125 32.3125 
Q 14.796875 37.15625 21.921875 38.8125 
z
M 18.3125 54.390625 
Q 18.3125 48.734375 21.84375 45.5625 
Q 25.390625 42.390625 31.78125 42.390625 
Q 38.140625 42.390625 41.71875 45.5625 
Q 45.3125 48.734375 45.3125 54.390625 
Q 45.3125 60.0625 41.71875 63.234375 
Q 38.140625 66.40625 31.78125 66.40625 
Q 25.390625 66.40625 21.84375 63.234375 
Q 18.3125 60.0625 18.3125 54.390625 
z
" id="DejaVuSans-38"/>
      </defs>
      <g transform="translate(37.875 73.481573)scale(0.1 -0.1)">
       <use xlink:href="#DejaVuSans-33"/>
       <use x="63.623047" xlink:href="#DejaVuSans-38"/>
      </g>
     </g>
    </g>
    <g id="text_14">
     <!-- Temperatura [Celsius] -->
     <defs>
      <path d="M -0.296875 72.90625 
L 61.375 72.90625 
L 61.375 64.59375 
L 35.5 64.59375 
L 35.5 0 
L 25.59375 0 
L 25.59375 64.59375 
L -0.296875 64.59375 
z
" id="DejaVuSans-54"/>
      <path d="M 56.203125 29.59375 
L 56.203125 25.203125 
L 14.890625 25.203125 
Q 15.484375 15.921875 20.484375 11.0625 
Q 25.484375 6.203125 34.421875 6.203125 
Q 39.59375 6.203125 44.453125 7.46875 
Q 49.3125 8.734375 54.109375 11.28125 
L 54.109375 2.78125 
Q 49.265625 0.734375 44.1875 -0.34375 
Q 39.109375 -1.421875 33.890625 -1.421875 
Q 20.796875 -1.421875 13.15625 6.1875 
Q 5.515625 13.8125 5.515625 26.8125 
Q 5.515625 40.234375 12.765625 48.109375 
Q 20.015625 56 32.328125 56 
Q 43.359375 56 49.78125 48.890625 
Q 56.203125 41.796875 56.203125 29.59375 
z
M 47.21875 32.234375 
Q 47.125 39.59375 43.09375 43.984375 
Q 39.0625 48.390625 32.421875 48.390625 
Q 24.90625 48.390625 20.390625 44.140625 
Q 15.875 39.890625 15.1875 32.171875 
z
" id="DejaVuSans-65"/>
      <path d="M 52 44.1875 
Q 55.375 50.25 60.0625 53.125 
Q 64.75 56 71.09375 56 
Q 79.640625 56 84.28125 50.015625 
Q 88.921875 44.046875 88.921875 33.015625 
L 88.921875 0 
L 79.890625 0 
L 79.890625 32.71875 
Q 79.890625 40.578125 77.09375 44.375 
Q 74.3125 48.1875 68.609375 48.1875 
Q 61.625 48.1875 57.5625 43.546875 
Q 53.515625 38.921875 53.515625 30.90625 
L 53.515625 0 
L 44.484375 0 
L 44.484375 32.71875 
Q 44.484375 40.625 41.703125 44.40625 
Q 38.921875 48.1875 33.109375 48.1875 
Q 26.21875 48.1875 22.15625 43.53125 
Q 18.109375 38.875 18.109375 30.90625 
L 18.109375 0 
L 9.078125 0 
L 9.078125 54.6875 
L 18.109375 54.6875 
L 18.109375 46.1875 
Q 21.1875 51.21875 25.484375 53.609375 
Q 29.78125 56 35.6875 56 
Q 41.65625 56 45.828125 52.96875 
Q 50 49.953125 52 44.1875 
z
" id="DejaVuSans-6d"/>
      <path d="M 18.109375 8.203125 
L 18.109375 -20.796875 
L 9.078125 -20.796875 
L 9.078125 54.6875 
L 18.109375 54.6875 
L 18.109375 46.390625 
Q 20.953125 51.265625 25.265625 53.625 
Q 29.59375 56 35.59375 56 
Q 45.5625 56 51.78125 48.09375 
Q 58.015625 40.1875 58.015625 27.296875 
Q 58.015625 14.40625 51.78125 6.484375 
Q 45.5625 -1.421875 35.59375 -1.421875 
Q 29.59375 -1.421875 25.265625 0.953125 
Q 20.953125 3.328125 18.109375 8.203125 
z
M 48.6875 27.296875 
Q 48.6875 37.203125 44.609375 42.84375 
Q 40.53125 48.484375 33.40625 48.484375 
Q 26.265625 48.484375 22.1875 42.84375 
Q 18.109375 37.203125 18.109375 27.296875 
Q 18.109375 17.390625 22.1875 11.75 
Q 26.265625 6.109375 33.40625 6.109375 
Q 40.53125 6.109375 44.609375 11.75 
Q 48.6875 17.390625 48.6875 27.296875 
z
" id="DejaVuSans-70"/>
      <path d="M 41.109375 46.296875 
Q 39.59375 47.171875 37.8125 47.578125 
Q 36.03125 48 33.890625 48 
Q 26.265625 48 22.1875 43.046875 
Q 18.109375 38.09375 18.109375 28.8125 
L 18.109375 0 
L 9.078125 0 
L 9.078125 54.6875 
L 18.109375 54.6875 
L 18.109375 46.1875 
Q 20.953125 51.171875 25.484375 53.578125 
Q 30.03125 56 36.53125 56 
Q 37.453125 56 38.578125 55.875 
Q 39.703125 55.765625 41.0625 55.515625 
z
" id="DejaVuSans-72"/>
      <path d="M 34.28125 27.484375 
Q 23.390625 27.484375 19.1875 25 
Q 14.984375 22.515625 14.984375 16.5 
Q 14.984375 11.71875 18.140625 8.90625 
Q 21.296875 6.109375 26.703125 6.109375 
Q 34.1875 6.109375 38.703125 11.40625 
Q 43.21875 16.703125 43.21875 25.484375 
L 43.21875 27.484375 
z
M 52.203125 31.203125 
L 52.203125 0 
L 43.21875 0 
L 43.21875 8.296875 
Q 40.140625 3.328125 35.546875 0.953125 
Q 30.953125 -1.421875 24.3125 -1.421875 
Q 15.921875 -1.421875 10.953125 3.296875 
Q 6 8.015625 6 15.921875 
Q 6 25.140625 12.171875 29.828125 
Q 18.359375 34.515625 30.609375 34.515625 
L 43.21875 34.515625 
L 43.21875 35.40625 
Q 43.21875 41.609375 39.140625 45 
Q 35.0625 48.390625 27.6875 48.390625 
Q 23 48.390625 18.546875 47.265625 
Q 14.109375 46.140625 10.015625 43.890625 
L 10.015625 52.203125 
Q 14.9375 54.109375 19.578125 55.046875 
Q 24.21875 56 28.609375 56 
Q 40.484375 56 46.34375 49.84375 
Q 52.203125 43.703125 52.203125 31.203125 
z
" id="DejaVuSans-61"/>
      <path d="M 18.3125 70.21875 
L 18.3125 54.6875 
L 36.8125 54.6875 
L 36.8125 47.703125 
L 18.3125 47.703125 
L 18.3125 18.015625 
Q 18.3125 11.328125 20.140625 9.421875 
Q 21.96875 7.515625 27.59375 7.515625 
L 36.8125 7.515625 
L 36.8125 0 
L 27.59375 0 
Q 17.1875 0 13.234375 3.875 
Q 9.28125 7.765625 9.28125 18.015625 
L 9.28125 47.703125 
L 2.6875 47.703125 
L 2.6875 54.6875 
L 9.28125 54.6875 
L 9.28125 70.21875 
z
" id="DejaVuSans-74"/>
      <path d="M 8.5 21.578125 
L 8.5 54.6875 
L 17.484375 54.6875 
L 17.484375 21.921875 
Q 17.484375 14.15625 20.5 10.265625 
Q 23.53125 6.390625 29.59375 6.390625 
Q 36.859375 6.390625 41.078125 11.03125 
Q 45.3125 15.671875 45.3125 23.6875 
L 45.3125 54.6875 
L 54.296875 54.6875 
L 54.296875 0 
L 45.3125 0 
L 45.3125 8.40625 
Q 42.046875 3.421875 37.71875 1 
Q 33.40625 -1.421875 27.6875 -1.421875 
Q 18.265625 -1.421875 13.375 4.4375 
Q 8.5 10.296875 8.5 21.578125 
z
M 31.109375 56 
z
" id="DejaVuSans-75"/>
      <path id="DejaVuSans-20"/>
      <path d="M 8.59375 75.984375 
L 29.296875 75.984375 
L 29.296875 69 
L 17.578125 69 
L 17.578125 -6.203125 
L 29.296875 -6.203125 
L 29.296875 -13.1875 
L 8.59375 -13.1875 
z
" id="DejaVuSans-5b"/>
      <path d="M 64.40625 67.28125 
L 64.40625 56.890625 
Q 59.421875 61.53125 53.78125 63.8125 
Q 48.140625 66.109375 41.796875 66.109375 
Q 29.296875 66.109375 22.65625 58.46875 
Q 16.015625 50.828125 16.015625 36.375 
Q 16.015625 21.96875 22.65625 14.328125 
Q 29.296875 6.6875 41.796875 6.6875 
Q 48.140625 6.6875 53.78125 8.984375 
Q 59.421875 11.28125 64.40625 15.921875 
L 64.40625 5.609375 
Q 59.234375 2.09375 53.4375 0.328125 
Q 47.65625 -1.421875 41.21875 -1.421875 
Q 24.65625 -1.421875 15.125 8.703125 
Q 5.609375 18.84375 5.609375 36.375 
Q 5.609375 53.953125 15.125 64.078125 
Q 24.65625 74.21875 41.21875 74.21875 
Q 47.75 74.21875 53.53125 72.484375 
Q 59.328125 70.75 64.40625 67.28125 
z
" id="DejaVuSans-43"/>
      <path d="M 9.421875 75.984375 
L 18.40625 75.984375 
L 18.40625 0 
L 9.421875 0 
z
" id="DejaVuSans-6c"/>
      <path d="M 44.28125 53.078125 
L 44.28125 44.578125 
Q 40.484375 46.53125 36.375 47.5 
Q 32.28125 48.484375 27.875 48.484375 
Q 21.1875 48.484375 17.84375 46.4375 
Q 14.5 44.390625 14.5 40.28125 
Q 14.5 37.15625 16.890625 35.375 
Q 19.28125 33.59375 26.515625 31.984375 
L 29.59375 31.296875 
Q 39.15625 29.25 43.1875 25.515625 
Q 47.21875 21.78125 47.21875 15.09375 
Q 47.21875 7.46875 41.1875 3.015625 
Q 35.15625 -1.421875 24.609375 -1.421875 
Q 20.21875 -1.421875 15.453125 -0.5625 
Q 10.6875 0.296875 5.421875 2 
L 5.421875 11.28125 
Q 10.40625 8.6875 15.234375 7.390625 
Q 20.0625 6.109375 24.8125 6.109375 
Q 31.15625 6.109375 34.5625 8.28125 
Q 37.984375 10.453125 37.984375 14.40625 
Q 37.984375 18.0625 35.515625 20.015625 
Q 33.0625 21.96875 24.703125 23.78125 
L 21.578125 24.515625 
Q 13.234375 26.265625 9.515625 29.90625 
Q 5.8125 33.546875 5.8125 39.890625 
Q 5.8125 47.609375 11.28125 51.796875 
Q 16.75 56 26.8125 56 
Q 31.78125 56 36.171875 55.265625 
Q 40.578125 54.546875 44.28125 53.078125 
z
" id="DejaVuSans-73"/>
      <path d="M 9.421875 54.6875 
L 18.40625 54.6875 
L 18.40625 0 
L 9.421875 0 
z
M 9.421875 75.984375 
L 18.40625 75.984375 
L 18.40625 64.59375 
L 9.421875 64.59375 
z
" id="DejaVuSans-69"/>
      <path d="M 30.421875 75.984375 
L 30.421875 -13.1875 
L 9.71875 -13.1875 
L 9.71875 -6.203125 
L 21.390625 -6.203125 
L 21.390625 69 
L 9.71875 69 
L 9.71875 75.984375 
z
" id="DejaVuSans-5d"/>
     </defs>
     <g transform="translate(31.795312 201.315094)rotate(-90)scale(0.1 -0.1)">
      <use xlink:href="#DejaVuSans-54"/>
      <use x="60.818359" xlink:href="#DejaVuSans-65"/>
      <use x="122.341797" xlink:href="#DejaVuSans-6d"/>
      <use x="219.753906" xlink:href="#DejaVuSans-70"/>
      <use x="283.230469" xlink:href="#DejaVuSans-65"/>
      <use x="344.753906" xlink:href="#DejaVuSans-72"/>
      <use x="385.867188" xlink:href="#DejaVuSans-61"/>
      <use x="447.146484" xlink:href="#DejaVuSans-74"/>
      <use x="486.355469" xlink:href="#DejaVuSans-75"/>
      <use x="549.734375" xlink:href="#DejaVuSans-72"/>
      <use x="590.847656" xlink:href="#DejaVuSans-61"/>
      <use x="652.126953" xlink:href="#DejaVuSans-20"/>
      <use x="683.914062" xlink:href="#DejaVuSans-5b"/>
      <use x="722.927734" xlink:href="#DejaVuSans-43"/>
      <use x="792.751953" xlink:href="#DejaVuSans-65"/>
      <use x="854.275391" xlink:href="#DejaVuSans-6c"/>
      <use x="882.058594" xlink:href="#DejaVuSans-73"/>
      <use x="934.158203" xlink:href="#DejaVuSans-69"/>
      <use x="961.941406" xlink:href="#DejaVuSans-75"/>
      <use x="1025.320312" xlink:href="#DejaVuSans-73"/>
      <use x="1077.419922" xlink:href="#DejaVuSans-5d"/>
     </g>
    </g>
   </g>
   <g id="line2d_14">
    <path clip-path="url(#p386534d4a7)" d="M 73.832727 222.928726 
L 74.268505 222.998879 
L 74.704283 223.957636 
L 75.140061 223.487488 
L 75.575839 223.937944 
L 76.011617 222.561961 
L 76.447395 222.96811 
L 76.883173 222.669037 
L 77.318951 223.453027 
L 77.754728 223.86533 
L 78.190506 223.50718 
L 78.626284 222.73919 
L 79.062062 222.643191 
L 79.49784 222.691191 
L 79.933618 223.200723 
L 80.369396 221.421053 
L 80.805174 222.239504 
L 81.240952 220.744138 
L 81.67673 220.598909 
L 82.112508 219.501077 
L 82.548286 219.643844 
L 82.984063 219.184773 
L 83.419841 219.406309 
L 83.855619 218.884469 
L 84.291397 218.770009 
L 84.727175 217.246336 
L 85.162953 217.554024 
L 85.598731 216.756495 
L 86.034509 217.108491 
L 86.470287 215.264822 
L 86.906065 215.37559 
L 87.341843 215.307898 
L 87.777621 214.932518 
L 88.213398 213.709149 
L 88.649176 215.156515 
L 89.084954 213.119618 
L 89.520732 213.09008 
L 89.95651 212.788545 
L 90.828066 211.106104 
L 91.263844 211.109797 
L 91.699622 210.205193 
L 92.1354 210.195347 
L 92.571178 208.393523 
L 93.006955 208.914132 
L 93.442733 208.164603 
L 93.878511 208.259371 
L 94.314289 206.798466 
L 94.750067 206.588007 
L 95.185845 205.14064 
L 95.621623 205.518482 
L 96.057401 204.803414 
L 96.493179 204.789876 
L 96.928957 203.479123 
L 97.364735 203.504969 
L 98.23629 202.510519 
L 98.672068 201.257612 
L 99.107846 201.055768 
L 99.979402 200.415776 
L 100.41518 199.646555 
L 101.722514 198.586876 
L 102.158292 197.749963 
L 102.59407 196.621362 
L 103.029847 196.292751 
L 103.465625 195.495222 
L 103.901403 196.0306 
L 104.772959 193.575246 
L 105.208737 194.212777 
L 105.644515 193.934626 
L 106.080293 192.3888 
L 106.516071 192.692796 
L 106.951849 190.700205 
L 107.387627 190.959894 
L 107.823405 190.777743 
L 108.69496 189.057149 
L 109.130738 188.87869 
L 109.566516 187.732858 
L 110.002294 188.219005 
L 110.438072 187.305786 
L 110.87385 187.449784 
L 111.309628 186.851638 
L 112.181184 185.110121 
L 112.616962 185.373502 
L 113.052739 184.216594 
L 113.488517 183.943366 
L 113.924295 182.657229 
L 114.360073 183.138453 
L 114.795851 182.497231 
L 115.231629 182.240003 
L 115.667407 181.721856 
L 116.103185 180.664638 
L 116.538963 180.664638 
L 116.974741 180.279412 
L 117.410519 179.586498 
L 117.846297 179.238194 
L 118.282074 178.227746 
L 118.717852 177.879442 
L 119.15363 177.107759 
L 119.589408 176.903454 
L 120.460964 175.78593 
L 120.896742 175.699777 
L 121.33252 174.510869 
L 121.768298 174.574868 
L 122.204076 173.912722 
L 122.639854 173.587803 
L 123.075631 172.769352 
L 123.511409 173.232116 
L 123.947187 172.50474 
L 124.818743 171.576752 
L 125.254521 170.883837 
L 125.690299 169.906619 
L 126.126077 170.641379 
L 126.561855 169.379856 
L 126.997633 169.339241 
L 127.433411 168.475252 
L 128.304966 167.566955 
L 128.740744 167.441419 
L 129.176522 166.370663 
L 129.6123 166.256203 
L 130.048078 165.739286 
L 130.483856 165.678979 
L 130.919634 164.887604 
L 131.355412 163.643312 
L 131.79119 164.24392 
L 132.226968 163.664235 
L 132.662746 162.359636 
L 133.098523 162.295637 
L 133.970079 161.669183 
L 134.841635 160.474121 
L 135.277413 160.546735 
L 135.713191 159.292597 
L 136.584747 159.078446 
L 137.020525 158.663682 
L 137.456303 157.90923 
L 137.892081 158.227995 
L 138.327858 157.37016 
L 138.763636 156.807705 
L 139.199414 156.849551 
L 140.07097 155.420645 
L 140.506748 155.327108 
L 140.942526 154.250199 
L 141.378304 154.650194 
L 141.814082 154.428658 
L 142.24986 153.92528 
L 142.685638 152.843447 
L 143.121415 153.045291 
L 143.557193 152.743756 
L 143.992971 151.931458 
L 144.428749 151.479772 
L 144.864527 150.815164 
L 145.300305 151.175775 
L 145.736083 150.724089 
L 146.171861 150.589937 
L 146.607639 149.857638 
L 147.043417 149.957329 
L 147.479195 149.081032 
L 147.914973 149.036725 
L 148.35075 148.651499 
L 149.222306 147.466283 
L 149.658084 147.596743 
L 150.52964 147.136441 
L 150.965418 146.466911 
L 151.401196 146.148146 
L 151.836974 145.601691 
L 152.272752 145.381386 
L 152.70853 145.43677 
L 154.015863 144.181401 
L 154.451641 144.635549 
L 154.887419 143.441718 
L 155.323197 143.353104 
L 155.758975 142.67742 
L 156.194753 142.606036 
L 156.630531 141.766662 
L 157.066309 142.219579 
L 157.502087 141.154977 
L 157.937865 141.410974 
L 158.373642 140.693445 
L 158.80942 140.870673 
L 159.245198 139.642381 
L 159.680976 139.604227 
L 160.98831 138.126092 
L 161.424088 138.405473 
L 161.859866 137.822096 
L 162.295644 137.840557 
L 162.731422 137.391332 
L 163.1672 136.480574 
L 163.602977 136.640572 
L 164.038755 135.815967 
L 164.474533 135.961196 
L 164.910311 134.795672 
L 165.346089 134.767365 
L 165.781867 134.464599 
L 166.217645 133.652302 
L 166.653423 133.366767 
L 167.089201 133.380305 
L 167.960757 132.021553 
L 168.396534 132.126167 
L 168.832312 131.615404 
L 169.26809 131.457868 
L 169.703868 130.126192 
L 170.139646 130.324343 
L 170.575424 129.857888 
L 171.011202 129.870195 
L 171.44698 128.645595 
L 171.882758 128.921284 
L 172.318536 127.978526 
L 174.061647 126.761311 
L 174.497425 126.095473 
L 174.933203 125.645017 
L 175.368981 124.958256 
L 175.804759 125.083793 
L 176.240537 124.302265 
L 177.983649 122.817975 
L 178.419426 122.329366 
L 178.855204 121.571222 
L 179.290982 121.481377 
L 179.72676 120.943537 
L 180.162538 120.895538 
L 180.598316 120.288776 
L 181.034094 119.443248 
L 181.469872 119.753398 
L 181.90565 118.669104 
L 182.341428 119.414941 
L 182.777206 118.447568 
L 183.212984 118.308493 
L 183.648761 117.166354 
L 184.084539 117.044509 
L 184.520317 116.745436 
L 184.956095 115.912215 
L 185.827651 115.2993 
L 186.263429 114.766384 
L 186.699207 114.583001 
L 187.134985 114.0427 
L 187.570763 113.296863 
L 188.006541 112.852561 
L 188.442318 112.580565 
L 188.878096 112.463643 
L 189.313874 111.541808 
L 189.749652 111.562731 
L 190.18543 111.395349 
L 190.621208 110.706126 
L 191.056986 110.343054 
L 191.492764 109.821214 
L 191.928542 109.995981 
L 192.36432 108.585538 
L 192.800098 108.98184 
L 193.235876 108.072313 
L 193.671653 108.399694 
L 194.107431 106.947404 
L 194.543209 106.944943 
L 194.978987 106.789868 
L 195.414765 106.455103 
L 196.286321 105.480346 
L 196.722099 105.277271 
L 197.157877 104.487127 
L 197.593655 104.658202 
L 198.46521 104.217592 
L 198.900988 103.028684 
L 199.336766 103.843443 
L 199.772544 102.668073 
L 200.6441 101.909929 
L 201.079878 102.307462 
L 201.515656 101.087785 
L 201.951434 102.061311 
L 202.387212 101.076708 
L 202.82299 100.840403 
L 203.258768 100.941325 
L 204.130323 99.886569 
L 205.001879 99.623188 
L 205.437657 98.676738 
L 205.873435 99.791801 
L 206.309213 98.570893 
L 206.744991 98.947504 
L 207.180769 97.613367 
L 207.616547 97.969055 
L 208.052325 97.960439 
L 208.488103 97.50383 
L 208.92388 97.217064 
L 209.795436 96.973375 
L 210.231214 96.369075 
L 210.666992 96.473689 
L 211.10277 95.700775 
L 211.538548 96.125385 
L 211.974326 95.03863 
L 212.410104 94.625096 
L 213.28166 94.841709 
L 213.717437 94.04295 
L 214.153215 94.100795 
L 214.588993 93.437419 
L 215.024771 93.170345 
L 215.460549 93.603571 
L 215.896327 91.95436 
L 216.332105 92.365432 
L 216.767883 91.734055 
L 217.203661 91.537135 
L 217.639439 91.075602 
L 218.075217 91.641749 
L 218.510995 91.155601 
L 218.946772 90.361765 
L 219.38255 89.830079 
L 219.818328 89.789464 
L 220.254106 90.163614 
L 220.689884 89.560544 
L 221.125662 89.924847 
L 221.56144 89.548237 
L 221.997218 89.812849 
L 222.432996 88.823323 
L 222.868774 89.19501 
L 223.304552 88.712555 
L 223.740329 88.408558 
L 224.176107 88.940244 
L 224.611885 87.939641 
L 225.047663 88.129177 
L 225.483441 87.827643 
L 225.919219 88.127947 
L 226.354997 86.520582 
L 226.790775 86.878731 
L 227.662331 86.520582 
L 228.098109 86.102126 
L 228.533887 84.708912 
L 228.969664 85.465826 
L 229.405442 84.904602 
L 229.84122 85.118753 
L 230.276998 83.979075 
L 230.712776 83.831385 
L 231.148554 83.830154 
L 231.584332 82.897243 
L 232.02011 83.266469 
L 232.455888 82.226482 
L 232.891666 82.096022 
L 233.327444 81.617259 
L 233.763221 81.511414 
L 234.198999 80.945267 
L 234.634777 80.824653 
L 235.506333 80.23266 
L 235.942111 80.206815 
L 236.377889 79.229596 
L 236.813667 80.212968 
L 237.249445 79.12252 
L 237.685223 79.095444 
L 238.121001 78.179763 
L 238.556779 78.562527 
L 239.428334 77.45608 
L 239.864112 77.382235 
L 240.735668 76.944086 
L 241.171446 76.530553 
L 241.607224 76.572398 
L 242.043002 75.555796 
L 242.47878 75.153339 
L 242.914558 75.457335 
L 243.350336 75.282568 
L 244.657669 74.345965 
L 245.093447 74.365657 
L 245.529225 74.498578 
L 245.965003 73.826587 
L 246.400781 73.806894 
L 246.836559 73.01552 
L 247.272337 73.189056 
L 247.708115 72.603217 
L 248.143893 72.764446 
L 248.579671 71.597691 
L 249.015448 71.751536 
L 249.451226 71.030314 
L 250.322782 71.132466 
L 250.75856 70.443244 
L 251.194338 70.726318 
L 251.630116 69.573101 
L 252.065894 72.508449 
L 252.501672 69.994019 
L 252.93745 69.632177 
L 253.373228 69.002031 
L 253.809005 68.850649 
L 254.244783 68.940494 
L 254.680561 68.352193 
L 255.552117 67.627279 
L 255.987895 68.458038 
L 256.423673 67.616202 
L 256.859451 68.107273 
L 257.295229 67.470974 
L 257.731007 67.869738 
L 258.166785 67.405744 
L 258.602563 67.403282 
L 259.03834 67.030364 
L 259.474118 67.560819 
L 259.909896 67.90543 
L 260.345674 67.568203 
L 260.781452 68.139273 
L 261.21723 68.15158 
L 261.653008 68.523268 
L 262.088786 68.098658 
L 262.524564 68.766957 
L 262.960342 69.101722 
L 263.39612 69.037723 
L 263.831897 69.594024 
L 264.267675 69.164491 
L 264.703453 70.144171 
L 265.139231 69.875867 
L 265.575009 70.506013 
L 266.010787 70.211862 
L 266.446565 71.410617 
L 266.882343 71.43154 
L 267.318121 71.883226 
L 267.753899 72.579833 
L 269.061232 73.27644 
L 269.49701 73.696127 
L 269.932788 73.76628 
L 270.368566 74.6155 
L 271.240122 75.109032 
L 272.111678 76.21548 
L 272.547456 76.430862 
L 272.983234 77.077008 
L 273.419012 77.093007 
L 273.85479 77.346543 
L 274.290567 77.774845 
L 274.726345 77.836383 
L 275.162123 78.89237 
L 275.597901 78.312684 
L 276.033679 79.437593 
L 276.469457 79.912664 
L 276.905235 79.814204 
L 277.341013 80.28066 
L 277.776791 81.040035 
L 278.212569 80.91696 
L 278.648347 81.859717 
L 279.084124 82.14156 
L 279.519902 81.822794 
L 280.827236 83.710771 
L 281.263014 83.624618 
L 281.698792 84.071382 
L 282.13457 84.253533 
L 282.570348 85.012909 
L 283.006126 85.119984 
L 283.441904 85.428903 
L 284.313459 86.622735 
L 285.185015 86.865193 
L 285.620793 87.875642 
L 286.056571 88.359328 
L 286.492349 88.087332 
L 286.928127 89.11255 
L 287.363905 89.736542 
L 287.799683 89.800541 
L 288.235461 91.223293 
L 288.671239 90.578378 
L 289.107016 91.358676 
L 289.542794 90.687915 
L 289.978572 92.146358 
L 290.41435 92.44297 
L 290.850128 92.554968 
L 291.285906 92.429431 
L 291.721684 93.415265 
L 292.59324 94.380176 
L 293.029018 94.423253 
L 293.464796 95.498932 
L 293.900574 95.037399 
L 294.336351 95.656468 
L 294.772129 95.889081 
L 295.207907 96.419535 
L 295.643685 97.196141 
L 296.079463 97.277371 
L 296.951019 98.340742 
L 297.386797 98.19059 
L 297.822575 97.733981 
L 298.258353 98.723507 
L 298.694131 98.543817 
L 299.129908 99.711802 
L 299.565686 99.460728 
L 300.001464 100.493331 
L 300.87302 100.853942 
L 301.308798 100.991786 
L 301.744576 101.391781 
L 302.180354 101.230552 
L 302.616132 102.355461 
L 303.05191 102.17331 
L 303.487688 103.037299 
L 303.923466 102.476075 
L 304.359243 103.468063 
L 304.795021 103.000376 
L 305.230799 104.398513 
L 305.666577 104.560972 
L 306.102355 104.594203 
L 306.973911 105.731419 
L 307.409689 106.533871 
L 307.845467 106.07603 
L 308.281245 106.234798 
L 308.717023 106.765253 
L 309.588578 107.063095 
L 310.024356 107.775701 
L 310.460134 108.009545 
L 310.895912 108.54 
L 311.33169 108.73569 
L 311.767468 109.200914 
L 313.074802 109.481526 
L 313.51058 110.397207 
L 313.946358 110.162133 
L 314.382135 110.708588 
L 314.817913 110.610128 
L 315.253691 111.607038 
L 315.689469 111.252581 
L 316.125247 112.120263 
L 316.561025 112.292568 
L 316.996803 113.093789 
L 317.432581 112.953483 
L 317.868359 114.279005 
L 318.304137 114.056239 
L 319.175692 114.409465 
L 319.61147 115.470375 
L 320.047248 115.486375 
L 320.483026 115.684526 
L 320.918804 115.696833 
L 321.354582 115.989753 
L 322.226138 117.035894 
L 322.661916 116.671591 
L 323.097694 117.613117 
L 323.533472 117.24143 
L 323.96925 117.971267 
L 324.405027 117.833422 
L 324.840805 118.233417 
L 325.276583 118.089419 
L 325.712361 118.534952 
L 326.583917 119.691861 
L 327.019695 118.870948 
L 327.455473 119.688168 
L 327.891251 119.554016 
L 328.327029 120.630926 
L 328.762807 120.170624 
L 329.198585 121.009998 
L 329.634362 120.870923 
L 330.07014 120.873384 
L 330.941696 121.787834 
L 331.377474 121.848141 
L 331.813252 122.175522 
L 332.24903 121.939217 
L 332.684808 122.682592 
L 333.120586 122.399519 
L 333.556364 123.082587 
L 333.992142 123.009973 
L 334.427919 123.77304 
L 334.863697 123.262278 
L 335.299475 124.415494 
L 335.735253 124.280111 
L 336.171031 124.665337 
L 336.606809 124.766259 
L 337.042587 125.549018 
L 337.914143 125.498557 
L 338.349921 126.347777 
L 338.785699 125.648709 
L 339.221477 126.511468 
L 340.52881 127.488686 
L 340.964588 128.102832 
L 341.400366 127.566224 
L 341.836144 128.241908 
L 342.271922 128.358829 
L 342.7077 128.953283 
L 343.143478 128.723132 
L 344.015034 129.302818 
L 344.450811 129.819734 
L 344.886589 131.731095 
L 345.322367 130.641878 
L 345.758145 130.264036 
L 346.193923 130.206191 
L 346.629701 130.444957 
L 347.937035 130.666493 
L 348.372813 131.124333 
L 348.808591 130.587725 
L 349.244369 130.89049 
L 349.680146 130.185268 
L 350.115924 130.310805 
L 350.551702 129.726197 
L 350.98748 130.308343 
L 351.423258 129.978501 
L 351.859036 130.58034 
L 352.294814 129.508353 
L 352.730592 130.243113 
L 353.16637 129.457893 
L 353.602148 129.862811 
L 354.037926 129.689274 
L 354.473703 129.854195 
L 354.909481 129.302818 
L 355.781037 129.571122 
L 356.652593 129.332356 
L 357.088371 128.991437 
L 357.524149 137.300256 
L 357.959927 129.269587 
L 358.395705 130.17173 
L 358.831483 129.173588 
L 359.267261 129.931733 
L 359.703038 128.837593 
L 360.138816 129.621583 
L 360.574594 128.932361 
L 361.010372 129.492354 
L 361.44615 128.798208 
L 361.881928 129.345894 
L 362.317706 128.339137 
L 362.753484 129.429585 
L 363.62504 128.590211 
L 364.060818 129.018513 
L 364.496595 128.428982 
L 364.932373 130.40065 
L 365.368151 127.779144 
L 365.803929 128.811747 
L 366.239707 127.594531 
L 366.675485 129.132973 
L 367.111263 127.878835 
L 367.547041 128.352676 
L 367.982819 128.019141 
L 368.418597 128.110217 
L 368.854375 127.936681 
L 369.290153 128.230831 
L 369.72593 127.90222 
L 370.161708 127.769298 
L 370.597486 127.371765 
L 371.033264 127.381611 
L 371.469042 127.615454 
L 372.340598 127.419764 
L 372.776376 127.195767 
L 373.212154 127.38038 
L 373.647932 126.958231 
L 374.08371 126.781003 
L 374.519487 127.080076 
L 374.955265 127.21669 
L 376.262599 126.502852 
L 376.698377 126.95577 
L 377.134155 126.269009 
L 377.569933 127.081307 
L 378.005711 126.528698 
L 378.441489 126.571775 
L 378.877267 126.211164 
L 379.313045 126.870848 
L 379.748822 125.717631 
L 380.1846 140.174066 
L 380.620378 125.547787 
L 381.056156 125.561326 
L 381.491934 126.447469 
L 382.36349 125.908398 
L 383.235046 126.218548 
L 383.670824 125.440712 
L 384.106602 126.266548 
L 384.542379 125.675786 
L 384.978157 126.522545 
L 385.413935 126.075781 
L 385.849713 126.538544 
L 386.285491 126.276394 
L 386.721269 126.420392 
L 387.157047 126.197625 
L 387.592825 126.824079 
L 388.028603 125.972398 
L 388.900159 126.842541 
L 389.335937 126.85731 
L 389.771714 126.688696 
L 390.207492 126.884386 
L 390.64327 126.468391 
L 391.079048 127.116999 
L 391.514826 126.881925 
L 391.950604 126.921309 
L 392.386382 126.794541 
L 392.82216 126.893001 
L 393.257938 126.842541 
L 393.693716 127.177306 
L 394.129494 127.034538 
L 395.001049 127.683145 
L 395.436827 114.869767 
L 395.872605 126.974231 
L 396.308383 127.161306 
L 396.744161 127.537916 
L 397.179939 127.219151 
L 397.615717 127.33115 
L 398.051495 126.912693 
L 398.487273 127.849297 
L 398.487273 127.849297 
" style="fill:none;stroke:#1f77b4;stroke-linecap:square;stroke-width:1.5;"/>
   </g>
   <g id="patch_3">
    <path d="M 57.6 231.804 
L 57.6 59.184 
" style="fill:none;stroke:#000000;stroke-linecap:square;stroke-linejoin:miter;stroke-width:0.8;"/>
   </g>
   <g id="patch_4">
    <path d="M 414.72 231.804 
L 414.72 59.184 
" style="fill:none;stroke:#000000;stroke-linecap:square;stroke-linejoin:miter;stroke-width:0.8;"/>
   </g>
   <g id="patch_5">
    <path d="M 57.6 231.804 
L 414.72 231.804 
" style="fill:none;stroke:#000000;stroke-linecap:square;stroke-linejoin:miter;stroke-width:0.8;"/>
   </g>
   <g id="patch_6">
    <path d="M 57.6 59.184 
L 414.72 59.184 
" style="fill:none;stroke:#000000;stroke-linecap:square;stroke-linejoin:miter;stroke-width:0.8;"/>
   </g>
  </g>
  <g id="axes_2">
   <g id="patch_7">
    <path d="M 57.6 438.948 
L 414.72 438.948 
L 414.72 266.328 
L 57.6 266.328 
z
" style="fill:#ffffff;"/>
   </g>
   <g id="matplotlib.axis_3">
    <g id="xtick_9">
     <g id="line2d_15">
      <g>
       <use style="stroke:#000000;stroke-width:0.8;" x="73.832727" xlink:href="#m2570bce3d7" y="438.948"/>
      </g>
     </g>
     <g id="text_15">
      <!-- 0 -->
      <g transform="translate(70.651477 453.546438)scale(0.1 -0.1)">
       <use xlink:href="#DejaVuSans-30"/>
      </g>
     </g>
    </g>
    <g id="xtick_10">
     <g id="line2d_16">
      <g>
       <use style="stroke:#000000;stroke-width:0.8;" x="117.410519" xlink:href="#m2570bce3d7" y="438.948"/>
      </g>
     </g>
     <g id="text_16">
      <!-- 50 -->
      <g transform="translate(111.048019 453.546438)scale(0.1 -0.1)">
       <use xlink:href="#DejaVuSans-35"/>
       <use x="63.623047" xlink:href="#DejaVuSans-30"/>
      </g>
     </g>
    </g>
    <g id="xtick_11">
     <g id="line2d_17">
      <g>
       <use style="stroke:#000000;stroke-width:0.8;" x="160.98831" xlink:href="#m2570bce3d7" y="438.948"/>
      </g>
     </g>
     <g id="text_17">
      <!-- 100 -->
      <g transform="translate(151.44456 453.546438)scale(0.1 -0.1)">
       <use xlink:href="#DejaVuSans-31"/>
       <use x="63.623047" xlink:href="#DejaVuSans-30"/>
       <use x="127.246094" xlink:href="#DejaVuSans-30"/>
      </g>
     </g>
    </g>
    <g id="xtick_12">
     <g id="line2d_18">
      <g>
       <use style="stroke:#000000;stroke-width:0.8;" x="204.566101" xlink:href="#m2570bce3d7" y="438.948"/>
      </g>
     </g>
     <g id="text_18">
      <!-- 150 -->
      <g transform="translate(195.022351 453.546438)scale(0.1 -0.1)">
       <use xlink:href="#DejaVuSans-31"/>
       <use x="63.623047" xlink:href="#DejaVuSans-35"/>
       <use x="127.246094" xlink:href="#DejaVuSans-30"/>
      </g>
     </g>
    </g>
    <g id="xtick_13">
     <g id="line2d_19">
      <g>
       <use style="stroke:#000000;stroke-width:0.8;" x="248.143893" xlink:href="#m2570bce3d7" y="438.948"/>
      </g>
     </g>
     <g id="text_19">
      <!-- 200 -->
      <g transform="translate(238.600143 453.546438)scale(0.1 -0.1)">
       <use xlink:href="#DejaVuSans-32"/>
       <use x="63.623047" xlink:href="#DejaVuSans-30"/>
       <use x="127.246094" xlink:href="#DejaVuSans-30"/>
      </g>
     </g>
    </g>
    <g id="xtick_14">
     <g id="line2d_20">
      <g>
       <use style="stroke:#000000;stroke-width:0.8;" x="291.721684" xlink:href="#m2570bce3d7" y="438.948"/>
      </g>
     </g>
     <g id="text_20">
      <!-- 250 -->
      <g transform="translate(282.177934 453.546438)scale(0.1 -0.1)">
       <use xlink:href="#DejaVuSans-32"/>
       <use x="63.623047" xlink:href="#DejaVuSans-35"/>
       <use x="127.246094" xlink:href="#DejaVuSans-30"/>
      </g>
     </g>
    </g>
    <g id="xtick_15">
     <g id="line2d_21">
      <g>
       <use style="stroke:#000000;stroke-width:0.8;" x="335.299475" xlink:href="#m2570bce3d7" y="438.948"/>
      </g>
     </g>
     <g id="text_21">
      <!-- 300 -->
      <g transform="translate(325.755725 453.546438)scale(0.1 -0.1)">
       <use xlink:href="#DejaVuSans-33"/>
       <use x="63.623047" xlink:href="#DejaVuSans-30"/>
       <use x="127.246094" xlink:href="#DejaVuSans-30"/>
      </g>
     </g>
    </g>
    <g id="xtick_16">
     <g id="line2d_22">
      <g>
       <use style="stroke:#000000;stroke-width:0.8;" x="378.877267" xlink:href="#m2570bce3d7" y="438.948"/>
      </g>
     </g>
     <g id="text_22">
      <!-- 350 -->
      <g transform="translate(369.333517 453.546438)scale(0.1 -0.1)">
       <use xlink:href="#DejaVuSans-33"/>
       <use x="63.623047" xlink:href="#DejaVuSans-35"/>
       <use x="127.246094" xlink:href="#DejaVuSans-30"/>
      </g>
     </g>
    </g>
    <g id="text_23">
     <!-- Tiempo [s] -->
     <defs>
      <path d="M 30.609375 48.390625 
Q 23.390625 48.390625 19.1875 42.75 
Q 14.984375 37.109375 14.984375 27.296875 
Q 14.984375 17.484375 19.15625 11.84375 
Q 23.34375 6.203125 30.609375 6.203125 
Q 37.796875 6.203125 41.984375 11.859375 
Q 46.1875 17.53125 46.1875 27.296875 
Q 46.1875 37.015625 41.984375 42.703125 
Q 37.796875 48.390625 30.609375 48.390625 
z
M 30.609375 56 
Q 42.328125 56 49.015625 48.375 
Q 55.71875 40.765625 55.71875 27.296875 
Q 55.71875 13.875 49.015625 6.21875 
Q 42.328125 -1.421875 30.609375 -1.421875 
Q 18.84375 -1.421875 12.171875 6.21875 
Q 5.515625 13.875 5.515625 27.296875 
Q 5.515625 40.765625 12.171875 48.375 
Q 18.84375 56 30.609375 56 
z
" id="DejaVuSans-6f"/>
     </defs>
     <g transform="translate(209.443594 467.224562)scale(0.1 -0.1)">
      <use xlink:href="#DejaVuSans-54"/>
      <use x="61.037109" xlink:href="#DejaVuSans-69"/>
      <use x="88.820312" xlink:href="#DejaVuSans-65"/>
      <use x="150.34375" xlink:href="#DejaVuSans-6d"/>
      <use x="247.755859" xlink:href="#DejaVuSans-70"/>
      <use x="311.232422" xlink:href="#DejaVuSans-6f"/>
      <use x="372.414062" xlink:href="#DejaVuSans-20"/>
      <use x="404.201172" xlink:href="#DejaVuSans-5b"/>
      <use x="443.214844" xlink:href="#DejaVuSans-73"/>
      <use x="495.314453" xlink:href="#DejaVuSans-5d"/>
     </g>
    </g>
   </g>
   <g id="matplotlib.axis_4">
    <g id="ytick_6">
     <g id="line2d_23">
      <g>
       <use style="stroke:#000000;stroke-width:0.8;" x="57.6" xlink:href="#m4c4a1468fa" y="431.102029"/>
      </g>
     </g>
     <g id="text_24">
      <!-- 0.0 -->
      <defs>
       <path d="M 10.6875 12.40625 
L 21 12.40625 
L 21 0 
L 10.6875 0 
z
" id="DejaVuSans-2e"/>
      </defs>
      <g transform="translate(34.696875 434.901248)scale(0.1 -0.1)">
       <use xlink:href="#DejaVuSans-30"/>
       <use x="63.623047" xlink:href="#DejaVuSans-2e"/>
       <use x="95.410156" xlink:href="#DejaVuSans-30"/>
      </g>
     </g>
    </g>
    <g id="ytick_7">
     <g id="line2d_24">
      <g>
       <use style="stroke:#000000;stroke-width:0.8;" x="57.6" xlink:href="#m4c4a1468fa" y="399.685079"/>
      </g>
     </g>
     <g id="text_25">
      <!-- 0.2 -->
      <g transform="translate(34.696875 403.484298)scale(0.1 -0.1)">
       <use xlink:href="#DejaVuSans-30"/>
       <use x="63.623047" xlink:href="#DejaVuSans-2e"/>
       <use x="95.410156" xlink:href="#DejaVuSans-32"/>
      </g>
     </g>
    </g>
    <g id="ytick_8">
     <g id="line2d_25">
      <g>
       <use style="stroke:#000000;stroke-width:0.8;" x="57.6" xlink:href="#m4c4a1468fa" y="368.268129"/>
      </g>
     </g>
     <g id="text_26">
      <!-- 0.4 -->
      <g transform="translate(34.696875 372.067348)scale(0.1 -0.1)">
       <use xlink:href="#DejaVuSans-30"/>
       <use x="63.623047" xlink:href="#DejaVuSans-2e"/>
       <use x="95.410156" xlink:href="#DejaVuSans-34"/>
      </g>
     </g>
    </g>
    <g id="ytick_9">
     <g id="line2d_26">
      <g>
       <use style="stroke:#000000;stroke-width:0.8;" x="57.6" xlink:href="#m4c4a1468fa" y="336.851179"/>
      </g>
     </g>
     <g id="text_27">
      <!-- 0.6 -->
      <g transform="translate(34.696875 340.650398)scale(0.1 -0.1)">
       <use xlink:href="#DejaVuSans-30"/>
       <use x="63.623047" xlink:href="#DejaVuSans-2e"/>
       <use x="95.410156" xlink:href="#DejaVuSans-36"/>
      </g>
     </g>
    </g>
    <g id="ytick_10">
     <g id="line2d_27">
      <g>
       <use style="stroke:#000000;stroke-width:0.8;" x="57.6" xlink:href="#m4c4a1468fa" y="305.434229"/>
      </g>
     </g>
     <g id="text_28">
      <!-- 0.8 -->
      <g transform="translate(34.696875 309.233448)scale(0.1 -0.1)">
       <use xlink:href="#DejaVuSans-30"/>
       <use x="63.623047" xlink:href="#DejaVuSans-2e"/>
       <use x="95.410156" xlink:href="#DejaVuSans-38"/>
      </g>
     </g>
    </g>
    <g id="ytick_11">
     <g id="line2d_28">
      <g>
       <use style="stroke:#000000;stroke-width:0.8;" x="57.6" xlink:href="#m4c4a1468fa" y="274.017279"/>
      </g>
     </g>
     <g id="text_29">
      <!-- 1.0 -->
      <g transform="translate(34.696875 277.816498)scale(0.1 -0.1)">
       <use xlink:href="#DejaVuSans-31"/>
       <use x="63.623047" xlink:href="#DejaVuSans-2e"/>
       <use x="95.410156" xlink:href="#DejaVuSans-30"/>
      </g>
     </g>
    </g>
    <g id="text_30">
     <!-- Duty cycle -->
     <defs>
      <path d="M 19.671875 64.796875 
L 19.671875 8.109375 
L 31.59375 8.109375 
Q 46.6875 8.109375 53.6875 14.9375 
Q 60.6875 21.78125 60.6875 36.53125 
Q 60.6875 51.171875 53.6875 57.984375 
Q 46.6875 64.796875 31.59375 64.796875 
z
M 9.8125 72.90625 
L 30.078125 72.90625 
Q 51.265625 72.90625 61.171875 64.09375 
Q 71.09375 55.28125 71.09375 36.53125 
Q 71.09375 17.671875 61.125 8.828125 
Q 51.171875 0 30.078125 0 
L 9.8125 0 
z
" id="DejaVuSans-44"/>
      <path d="M 32.171875 -5.078125 
Q 28.375 -14.84375 24.75 -17.8125 
Q 21.140625 -20.796875 15.09375 -20.796875 
L 7.90625 -20.796875 
L 7.90625 -13.28125 
L 13.1875 -13.28125 
Q 16.890625 -13.28125 18.9375 -11.515625 
Q 21 -9.765625 23.484375 -3.21875 
L 25.09375 0.875 
L 2.984375 54.6875 
L 12.5 54.6875 
L 29.59375 11.921875 
L 46.6875 54.6875 
L 56.203125 54.6875 
z
" id="DejaVuSans-79"/>
      <path d="M 48.78125 52.59375 
L 48.78125 44.1875 
Q 44.96875 46.296875 41.140625 47.34375 
Q 37.3125 48.390625 33.40625 48.390625 
Q 24.65625 48.390625 19.8125 42.84375 
Q 14.984375 37.3125 14.984375 27.296875 
Q 14.984375 17.28125 19.8125 11.734375 
Q 24.65625 6.203125 33.40625 6.203125 
Q 37.3125 6.203125 41.140625 7.25 
Q 44.96875 8.296875 48.78125 10.40625 
L 48.78125 2.09375 
Q 45.015625 0.34375 40.984375 -0.53125 
Q 36.96875 -1.421875 32.421875 -1.421875 
Q 20.0625 -1.421875 12.78125 6.34375 
Q 5.515625 14.109375 5.515625 27.296875 
Q 5.515625 40.671875 12.859375 48.328125 
Q 20.21875 56 33.015625 56 
Q 37.15625 56 41.109375 55.140625 
Q 45.0625 54.296875 48.78125 52.59375 
z
" id="DejaVuSans-63"/>
     </defs>
     <g transform="translate(28.617187 379.088781)rotate(-90)scale(0.1 -0.1)">
      <use xlink:href="#DejaVuSans-44"/>
      <use x="77.001953" xlink:href="#DejaVuSans-75"/>
      <use x="140.380859" xlink:href="#DejaVuSans-74"/>
      <use x="179.589844" xlink:href="#DejaVuSans-79"/>
      <use x="238.769531" xlink:href="#DejaVuSans-20"/>
      <use x="270.556641" xlink:href="#DejaVuSans-63"/>
      <use x="325.537109" xlink:href="#DejaVuSans-79"/>
      <use x="384.716797" xlink:href="#DejaVuSans-63"/>
      <use x="439.697266" xlink:href="#DejaVuSans-6c"/>
      <use x="467.480469" xlink:href="#DejaVuSans-65"/>
     </g>
    </g>
   </g>
   <g id="line2d_29">
    <path clip-path="url(#p45037b3469)" d="M 73.832727 274.174364 
L 251.194338 274.174364 
L 251.630116 286.036432 
L 252.065894 274.174364 
L 252.501672 316.764881 
L 252.93745 310.203 
L 253.373228 337.408031 
L 254.244783 353.964685 
L 254.680561 385.316424 
L 255.116339 400.240748 
L 255.552117 421.496262 
L 255.987895 402.87944 
L 256.423673 431.101636 
L 338.785699 431.101636 
L 339.221477 430.941567 
L 339.657254 430.16452 
L 340.093032 420.916053 
L 340.52881 418.833942 
L 340.964588 401.802779 
L 341.400366 425.313881 
L 341.836144 397.517428 
L 342.271922 401.295671 
L 342.7077 383.554823 
L 343.143478 397.077521 
L 343.579256 385.105416 
L 344.015034 378.228364 
L 344.450811 364.898104 
L 344.886589 310.391462 
L 345.322367 365.66496 
L 345.758145 363.657898 
L 346.193923 360.090574 
L 346.629701 351.026013 
L 347.065479 350.322346 
L 347.501257 346.557196 
L 347.937035 346.293099 
L 348.372813 331.210598 
L 348.808591 352.251549 
L 349.244369 335.478573 
L 349.680146 360.015779 
L 350.115924 346.8845 
L 350.551702 365.68969 
L 350.98748 339.800346 
L 351.423258 356.010623 
L 351.859036 332.447855 
L 352.294814 372.029598 
L 352.730592 335.686287 
L 353.16637 367.937883 
L 353.602148 345.285973 
L 354.037926 354.620535 
L 354.473703 346.612357 
L 354.909481 364.937473 
L 355.345259 352.799299 
L 355.781037 350.423643 
L 356.652593 356.730657 
L 357.088371 364.738272 
L 357.524149 274.174364 
L 357.959927 431.101636 
L 358.395705 323.308851 
L 358.831483 364.19824 
L 359.267261 328.062205 
L 359.703038 370.309668 
L 360.138816 332.307617 
L 360.574594 362.267489 
L 361.010372 336.007022 
L 361.44615 363.514621 
L 361.881928 337.609064 
L 362.317706 374.773827 
L 362.753484 328.32456 
L 363.189262 354.194904 
L 363.62504 360.759985 
L 364.060818 342.116328 
L 364.496595 364.905169 
L 364.932373 295.797855 
L 365.368151 399.953041 
L 365.803929 336.446827 
L 366.239707 386.002138 
L 366.675485 323.231939 
L 367.111263 379.820486 
L 367.547041 349.83257 
L 367.982819 365.294564 
L 368.418597 358.063394 
L 368.854375 364.075555 
L 369.290153 352.395098 
L 369.72593 365.616374 
L 370.161708 365.468954 
L 370.597486 375.920688 
L 371.033264 370.611698 
L 371.469042 363.08822 
L 371.90482 367.881695 
L 372.340598 370.300439 
L 372.776376 375.574825 
L 373.212154 366.880075 
L 373.647932 381.915423 
L 374.08371 382.25098 
L 374.519487 370.615236 
L 374.955265 369.59399 
L 375.391043 377.367244 
L 375.826821 377.761881 
L 376.262599 389.144575 
L 376.698377 370.038405 
L 377.134155 396.587608 
L 377.569933 363.027586 
L 378.005711 389.58207 
L 378.441489 381.587955 
L 378.877267 393.20532 
L 379.313045 368.261662 
L 379.748822 411.83913 
L 380.1846 274.174364 
L 380.620378 431.101636 
L 381.491934 370.747341 
L 381.927712 387.6082 
L 382.36349 395.315019 
L 382.799268 387.352688 
L 383.235046 383.220906 
L 383.670824 409.559264 
L 384.106602 374.678878 
L 384.542379 402.755664 
L 384.978157 369.371243 
L 385.413935 393.139487 
L 385.849713 373.366476 
L 386.285491 386.846915 
L 386.721269 379.165649 
L 387.157047 387.692554 
L 387.592825 365.410836 
L 388.028603 399.182502 
L 388.464381 377.517828 
L 388.900159 366.194373 
L 389.771714 376.598775 
L 390.207492 368.315049 
L 390.64327 383.392124 
L 391.079048 358.089758 
L 391.514826 372.787445 
L 391.950604 368.567565 
L 392.386382 372.759186 
L 392.82216 367.984282 
L 393.257938 370.491213 
L 393.693716 359.2172 
L 394.129494 367.32768 
L 394.565272 354.312842 
L 395.001049 348.95392 
L 395.436827 431.101636 
L 395.872605 274.174364 
L 396.308383 362.040958 
L 396.744161 352.184603 
L 397.179939 366.212588 
L 397.615717 358.668574 
L 398.051495 372.7452 
L 398.487273 338.319069 
L 398.487273 338.319069 
" style="fill:none;stroke:#1f77b4;stroke-linecap:square;stroke-width:1.5;"/>
   </g>
   <g id="patch_8">
    <path d="M 57.6 438.948 
L 57.6 266.328 
" style="fill:none;stroke:#000000;stroke-linecap:square;stroke-linejoin:miter;stroke-width:0.8;"/>
   </g>
   <g id="patch_9">
    <path d="M 414.72 438.948 
L 414.72 266.328 
" style="fill:none;stroke:#000000;stroke-linecap:square;stroke-linejoin:miter;stroke-width:0.8;"/>
   </g>
   <g id="patch_10">
    <path d="M 57.6 438.948 
L 414.72 438.948 
" style="fill:none;stroke:#000000;stroke-linecap:square;stroke-linejoin:miter;stroke-width:0.8;"/>
   </g>
   <g id="patch_11">
    <path d="M 57.6 266.328 
L 414.72 266.328 
" style="fill:none;stroke:#000000;stroke-linecap:square;stroke-linejoin:miter;stroke-width:0.8;"/>
   </g>
  </g>
 </g>
 <defs>
  <clipPath id="p386534d4a7">
   <rect height="172.62" width="357.12" x="57.6" y="59.184"/>
  </clipPath>
  <clipPath id="p45037b3469">
   <rect height="172.62" width="357.12" x="57.6" y="266.328"/>
  </clipPath>
 </defs>
</svg>
