<?xml version="1.0" encoding="utf-8" standalone="no"?>
<!DOCTYPE svg PUBLIC "-//W3C//DTD SVG 1.1//EN"
  "http://www.w3.org/Graphics/SVG/1.1/DTD/svg11.dtd">
<!-- Created with matplotlib (http://matplotlib.org/) -->
<svg height="477.36pt" version="1.1" viewBox="0 0 460.8 477.36" width="460.8pt" xmlns="http://www.w3.org/2000/svg" xmlns:xlink="http://www.w3.org/1999/xlink">
 <defs>
  <style type="text/css">
*{stroke-linecap:butt;stroke-linejoin:round;}
  </style>
 </defs>
 <g id="figure_1">
  <g id="patch_1">
   <path d="M 0 477.36 
L 460.8 477.36 
L 460.8 0 
L 0 0 
z
" style="fill:#ffffff;"/>
  </g>
  <g id="axes_1">
   <g id="patch_2">
    <path d="M 57.6 224.3592 
L 414.72 224.3592 
L 414.72 57.2832 
L 57.6 57.2832 
z
" style="fill:#ffffff;"/>
   </g>
   <g id="matplotlib.axis_1">
    <g id="xtick_1">
     <g id="line2d_1">
      <defs>
       <path d="M 0 0 
L 0 3.5 
" id="mf36fe1a5c0" style="stroke:#000000;stroke-width:0.8;"/>
      </defs>
      <g>
       <use style="stroke:#000000;stroke-width:0.8;" x="73.832727" xlink:href="#mf36fe1a5c0" y="224.3592"/>
      </g>
     </g>
     <g id="text_1">
      <!-- 0 -->
      <defs>
       <path d="M 31.78125 66.40625 
Q 24.171875 66.40625 20.328125 58.90625 
Q 16.5 51.421875 16.5 36.375 
Q 16.5 21.390625 20.328125 13.890625 
Q 24.171875 6.390625 31.78125 6.390625 
Q 39.453125 6.390625 43.28125 13.890625 
Q 47.125 21.390625 47.125 36.375 
Q 47.125 51.421875 43.28125 58.90625 
Q 39.453125 66.40625 31.78125 66.40625 
z
M 31.78125 74.21875 
Q 44.046875 74.21875 50.515625 64.515625 
Q 56.984375 54.828125 56.984375 36.375 
Q 56.984375 17.96875 50.515625 8.265625 
Q 44.046875 -1.421875 31.78125 -1.421875 
Q 19.53125 -1.421875 13.0625 8.265625 
Q 6.59375 17.96875 6.59375 36.375 
Q 6.59375 54.828125 13.0625 64.515625 
Q 19.53125 74.21875 31.78125 74.21875 
z
" id="DejaVuSans-30"/>
      </defs>
      <g transform="translate(70.651477 238.957637)scale(0.1 -0.1)">
       <use xlink:href="#DejaVuSans-30"/>
      </g>
     </g>
    </g>
    <g id="xtick_2">
     <g id="line2d_2">
      <g>
       <use style="stroke:#000000;stroke-width:0.8;" x="123.818031" xlink:href="#mf36fe1a5c0" y="224.3592"/>
      </g>
     </g>
     <g id="text_2">
      <!-- 100 -->
      <defs>
       <path d="M 12.40625 8.296875 
L 28.515625 8.296875 
L 28.515625 63.921875 
L 10.984375 60.40625 
L 10.984375 69.390625 
L 28.421875 72.90625 
L 38.28125 72.90625 
L 38.28125 8.296875 
L 54.390625 8.296875 
L 54.390625 0 
L 12.40625 0 
z
" id="DejaVuSans-31"/>
      </defs>
      <g transform="translate(114.274281 238.957637)scale(0.1 -0.1)">
       <use xlink:href="#DejaVuSans-31"/>
       <use x="63.623047" xlink:href="#DejaVuSans-30"/>
       <use x="127.246094" xlink:href="#DejaVuSans-30"/>
      </g>
     </g>
    </g>
    <g id="xtick_3">
     <g id="line2d_3">
      <g>
       <use style="stroke:#000000;stroke-width:0.8;" x="173.803334" xlink:href="#mf36fe1a5c0" y="224.3592"/>
      </g>
     </g>
     <g id="text_3">
      <!-- 200 -->
      <defs>
       <path d="M 19.1875 8.296875 
L 53.609375 8.296875 
L 53.609375 0 
L 7.328125 0 
L 7.328125 8.296875 
Q 12.9375 14.109375 22.625 23.890625 
Q 32.328125 33.6875 34.8125 36.53125 
Q 39.546875 41.84375 41.421875 45.53125 
Q 43.3125 49.21875 43.3125 52.78125 
Q 43.3125 58.59375 39.234375 62.25 
Q 35.15625 65.921875 28.609375 65.921875 
Q 23.96875 65.921875 18.8125 64.3125 
Q 13.671875 62.703125 7.8125 59.421875 
L 7.8125 69.390625 
Q 13.765625 71.78125 18.9375 73 
Q 24.125 74.21875 28.421875 74.21875 
Q 39.75 74.21875 46.484375 68.546875 
Q 53.21875 62.890625 53.21875 53.421875 
Q 53.21875 48.921875 51.53125 44.890625 
Q 49.859375 40.875 45.40625 35.40625 
Q 44.1875 33.984375 37.640625 27.21875 
Q 31.109375 20.453125 19.1875 8.296875 
z
" id="DejaVuSans-32"/>
      </defs>
      <g transform="translate(164.259584 238.957637)scale(0.1 -0.1)">
       <use xlink:href="#DejaVuSans-32"/>
       <use x="63.623047" xlink:href="#DejaVuSans-30"/>
       <use x="127.246094" xlink:href="#DejaVuSans-30"/>
      </g>
     </g>
    </g>
    <g id="xtick_4">
     <g id="line2d_4">
      <g>
       <use style="stroke:#000000;stroke-width:0.8;" x="223.788637" xlink:href="#mf36fe1a5c0" y="224.3592"/>
      </g>
     </g>
     <g id="text_4">
      <!-- 300 -->
      <defs>
       <path d="M 40.578125 39.3125 
Q 47.65625 37.796875 51.625 33 
Q 55.609375 28.21875 55.609375 21.1875 
Q 55.609375 10.40625 48.1875 4.484375 
Q 40.765625 -1.421875 27.09375 -1.421875 
Q 22.515625 -1.421875 17.65625 -0.515625 
Q 12.796875 0.390625 7.625 2.203125 
L 7.625 11.71875 
Q 11.71875 9.328125 16.59375 8.109375 
Q 21.484375 6.890625 26.8125 6.890625 
Q 36.078125 6.890625 40.9375 10.546875 
Q 45.796875 14.203125 45.796875 21.1875 
Q 45.796875 27.640625 41.28125 31.265625 
Q 36.765625 34.90625 28.71875 34.90625 
L 20.21875 34.90625 
L 20.21875 43.015625 
L 29.109375 43.015625 
Q 36.375 43.015625 40.234375 45.921875 
Q 44.09375 48.828125 44.09375 54.296875 
Q 44.09375 59.90625 40.109375 62.90625 
Q 36.140625 65.921875 28.71875 65.921875 
Q 24.65625 65.921875 20.015625 65.03125 
Q 15.375 64.15625 9.8125 62.3125 
L 9.8125 71.09375 
Q 15.4375 72.65625 20.34375 73.4375 
Q 25.25 74.21875 29.59375 74.21875 
Q 40.828125 74.21875 47.359375 69.109375 
Q 53.90625 64.015625 53.90625 55.328125 
Q 53.90625 49.265625 50.4375 45.09375 
Q 46.96875 40.921875 40.578125 39.3125 
z
" id="DejaVuSans-33"/>
      </defs>
      <g transform="translate(214.244887 238.957637)scale(0.1 -0.1)">
       <use xlink:href="#DejaVuSans-33"/>
       <use x="63.623047" xlink:href="#DejaVuSans-30"/>
       <use x="127.246094" xlink:href="#DejaVuSans-30"/>
      </g>
     </g>
    </g>
    <g id="xtick_5">
     <g id="line2d_5">
      <g>
       <use style="stroke:#000000;stroke-width:0.8;" x="273.773941" xlink:href="#mf36fe1a5c0" y="224.3592"/>
      </g>
     </g>
     <g id="text_5">
      <!-- 400 -->
      <defs>
       <path d="M 37.796875 64.3125 
L 12.890625 25.390625 
L 37.796875 25.390625 
z
M 35.203125 72.90625 
L 47.609375 72.90625 
L 47.609375 25.390625 
L 58.015625 25.390625 
L 58.015625 17.1875 
L 47.609375 17.1875 
L 47.609375 0 
L 37.796875 0 
L 37.796875 17.1875 
L 4.890625 17.1875 
L 4.890625 26.703125 
z
" id="DejaVuSans-34"/>
      </defs>
      <g transform="translate(264.230191 238.957637)scale(0.1 -0.1)">
       <use xlink:href="#DejaVuSans-34"/>
       <use x="63.623047" xlink:href="#DejaVuSans-30"/>
       <use x="127.246094" xlink:href="#DejaVuSans-30"/>
      </g>
     </g>
    </g>
    <g id="xtick_6">
     <g id="line2d_6">
      <g>
       <use style="stroke:#000000;stroke-width:0.8;" x="323.759244" xlink:href="#mf36fe1a5c0" y="224.3592"/>
      </g>
     </g>
     <g id="text_6">
      <!-- 500 -->
      <defs>
       <path d="M 10.796875 72.90625 
L 49.515625 72.90625 
L 49.515625 64.59375 
L 19.828125 64.59375 
L 19.828125 46.734375 
Q 21.96875 47.46875 24.109375 47.828125 
Q 26.265625 48.1875 28.421875 48.1875 
Q 40.625 48.1875 47.75 41.5 
Q 54.890625 34.8125 54.890625 23.390625 
Q 54.890625 11.625 47.5625 5.09375 
Q 40.234375 -1.421875 26.90625 -1.421875 
Q 22.3125 -1.421875 17.546875 -0.640625 
Q 12.796875 0.140625 7.71875 1.703125 
L 7.71875 11.625 
Q 12.109375 9.234375 16.796875 8.0625 
Q 21.484375 6.890625 26.703125 6.890625 
Q 35.15625 6.890625 40.078125 11.328125 
Q 45.015625 15.765625 45.015625 23.390625 
Q 45.015625 31 40.078125 35.4375 
Q 35.15625 39.890625 26.703125 39.890625 
Q 22.75 39.890625 18.8125 39.015625 
Q 14.890625 38.140625 10.796875 36.28125 
z
" id="DejaVuSans-35"/>
      </defs>
      <g transform="translate(314.215494 238.957637)scale(0.1 -0.1)">
       <use xlink:href="#DejaVuSans-35"/>
       <use x="63.623047" xlink:href="#DejaVuSans-30"/>
       <use x="127.246094" xlink:href="#DejaVuSans-30"/>
      </g>
     </g>
    </g>
    <g id="xtick_7">
     <g id="line2d_7">
      <g>
       <use style="stroke:#000000;stroke-width:0.8;" x="373.744548" xlink:href="#mf36fe1a5c0" y="224.3592"/>
      </g>
     </g>
     <g id="text_7">
      <!-- 600 -->
      <defs>
       <path d="M 33.015625 40.375 
Q 26.375 40.375 22.484375 35.828125 
Q 18.609375 31.296875 18.609375 23.390625 
Q 18.609375 15.53125 22.484375 10.953125 
Q 26.375 6.390625 33.015625 6.390625 
Q 39.65625 6.390625 43.53125 10.953125 
Q 47.40625 15.53125 47.40625 23.390625 
Q 47.40625 31.296875 43.53125 35.828125 
Q 39.65625 40.375 33.015625 40.375 
z
M 52.59375 71.296875 
L 52.59375 62.3125 
Q 48.875 64.0625 45.09375 64.984375 
Q 41.3125 65.921875 37.59375 65.921875 
Q 27.828125 65.921875 22.671875 59.328125 
Q 17.53125 52.734375 16.796875 39.40625 
Q 19.671875 43.65625 24.015625 45.921875 
Q 28.375 48.1875 33.59375 48.1875 
Q 44.578125 48.1875 50.953125 41.515625 
Q 57.328125 34.859375 57.328125 23.390625 
Q 57.328125 12.15625 50.6875 5.359375 
Q 44.046875 -1.421875 33.015625 -1.421875 
Q 20.359375 -1.421875 13.671875 8.265625 
Q 6.984375 17.96875 6.984375 36.375 
Q 6.984375 53.65625 15.1875 63.9375 
Q 23.390625 74.21875 37.203125 74.21875 
Q 40.921875 74.21875 44.703125 73.484375 
Q 48.484375 72.75 52.59375 71.296875 
z
" id="DejaVuSans-36"/>
      </defs>
      <g transform="translate(364.200798 238.957637)scale(0.1 -0.1)">
       <use xlink:href="#DejaVuSans-36"/>
       <use x="63.623047" xlink:href="#DejaVuSans-30"/>
       <use x="127.246094" xlink:href="#DejaVuSans-30"/>
      </g>
     </g>
    </g>
   </g>
   <g id="matplotlib.axis_2">
    <g id="ytick_1">
     <g id="line2d_8">
      <defs>
       <path d="M 0 0 
L -3.5 0 
" id="m70e6e9b75d" style="stroke:#000000;stroke-width:0.8;"/>
      </defs>
      <g>
       <use style="stroke:#000000;stroke-width:0.8;" x="57.6" xlink:href="#m70e6e9b75d" y="192.558864"/>
      </g>
     </g>
     <g id="text_8">
      <!-- 32 -->
      <g transform="translate(37.875 196.358082)scale(0.1 -0.1)">
       <use xlink:href="#DejaVuSans-33"/>
       <use x="63.623047" xlink:href="#DejaVuSans-32"/>
      </g>
     </g>
    </g>
    <g id="ytick_2">
     <g id="line2d_9">
      <g>
       <use style="stroke:#000000;stroke-width:0.8;" x="57.6" xlink:href="#m70e6e9b75d" y="150.876748"/>
      </g>
     </g>
     <g id="text_9">
      <!-- 34 -->
      <g transform="translate(37.875 154.675967)scale(0.1 -0.1)">
       <use xlink:href="#DejaVuSans-33"/>
       <use x="63.623047" xlink:href="#DejaVuSans-34"/>
      </g>
     </g>
    </g>
    <g id="ytick_3">
     <g id="line2d_10">
      <g>
       <use style="stroke:#000000;stroke-width:0.8;" x="57.6" xlink:href="#m70e6e9b75d" y="109.194633"/>
      </g>
     </g>
     <g id="text_10">
      <!-- 36 -->
      <g transform="translate(37.875 112.993852)scale(0.1 -0.1)">
       <use xlink:href="#DejaVuSans-33"/>
       <use x="63.623047" xlink:href="#DejaVuSans-36"/>
      </g>
     </g>
    </g>
    <g id="ytick_4">
     <g id="line2d_11">
      <g>
       <use style="stroke:#000000;stroke-width:0.8;" x="57.6" xlink:href="#m70e6e9b75d" y="67.512518"/>
      </g>
     </g>
     <g id="text_11">
      <!-- 38 -->
      <defs>
       <path d="M 31.78125 34.625 
Q 24.75 34.625 20.71875 30.859375 
Q 16.703125 27.09375 16.703125 20.515625 
Q 16.703125 13.921875 20.71875 10.15625 
Q 24.75 6.390625 31.78125 6.390625 
Q 38.8125 6.390625 42.859375 10.171875 
Q 46.921875 13.96875 46.921875 20.515625 
Q 46.921875 27.09375 42.890625 30.859375 
Q 38.875 34.625 31.78125 34.625 
z
M 21.921875 38.8125 
Q 15.578125 40.375 12.03125 44.71875 
Q 8.5 49.078125 8.5 55.328125 
Q 8.5 64.0625 14.71875 69.140625 
Q 20.953125 74.21875 31.78125 74.21875 
Q 42.671875 74.21875 48.875 69.140625 
Q 55.078125 64.0625 55.078125 55.328125 
Q 55.078125 49.078125 51.53125 44.71875 
Q 48 40.375 41.703125 38.8125 
Q 48.828125 37.15625 52.796875 32.3125 
Q 56.78125 27.484375 56.78125 20.515625 
Q 56.78125 9.90625 50.3125 4.234375 
Q 43.84375 -1.421875 31.78125 -1.421875 
Q 19.734375 -1.421875 13.25 4.234375 
Q 6.78125 9.90625 6.78125 20.515625 
Q 6.78125 27.484375 10.78125 32.3125 
Q 14.796875 37.15625 21.921875 38.8125 
z
M 18.3125 54.390625 
Q 18.3125 48.734375 21.84375 45.5625 
Q 25.390625 42.390625 31.78125 42.390625 
Q 38.140625 42.390625 41.71875 45.5625 
Q 45.3125 48.734375 45.3125 54.390625 
Q 45.3125 60.0625 41.71875 63.234375 
Q 38.140625 66.40625 31.78125 66.40625 
Q 25.390625 66.40625 21.84375 63.234375 
Q 18.3125 60.0625 18.3125 54.390625 
z
" id="DejaVuSans-38"/>
      </defs>
      <g transform="translate(37.875 71.311737)scale(0.1 -0.1)">
       <use xlink:href="#DejaVuSans-33"/>
       <use x="63.623047" xlink:href="#DejaVuSans-38"/>
      </g>
     </g>
    </g>
    <g id="text_12">
     <!-- Temperatura [Celsius] -->
     <defs>
      <path d="M -0.296875 72.90625 
L 61.375 72.90625 
L 61.375 64.59375 
L 35.5 64.59375 
L 35.5 0 
L 25.59375 0 
L 25.59375 64.59375 
L -0.296875 64.59375 
z
" id="DejaVuSans-54"/>
      <path d="M 56.203125 29.59375 
L 56.203125 25.203125 
L 14.890625 25.203125 
Q 15.484375 15.921875 20.484375 11.0625 
Q 25.484375 6.203125 34.421875 6.203125 
Q 39.59375 6.203125 44.453125 7.46875 
Q 49.3125 8.734375 54.109375 11.28125 
L 54.109375 2.78125 
Q 49.265625 0.734375 44.1875 -0.34375 
Q 39.109375 -1.421875 33.890625 -1.421875 
Q 20.796875 -1.421875 13.15625 6.1875 
Q 5.515625 13.8125 5.515625 26.8125 
Q 5.515625 40.234375 12.765625 48.109375 
Q 20.015625 56 32.328125 56 
Q 43.359375 56 49.78125 48.890625 
Q 56.203125 41.796875 56.203125 29.59375 
z
M 47.21875 32.234375 
Q 47.125 39.59375 43.09375 43.984375 
Q 39.0625 48.390625 32.421875 48.390625 
Q 24.90625 48.390625 20.390625 44.140625 
Q 15.875 39.890625 15.1875 32.171875 
z
" id="DejaVuSans-65"/>
      <path d="M 52 44.1875 
Q 55.375 50.25 60.0625 53.125 
Q 64.75 56 71.09375 56 
Q 79.640625 56 84.28125 50.015625 
Q 88.921875 44.046875 88.921875 33.015625 
L 88.921875 0 
L 79.890625 0 
L 79.890625 32.71875 
Q 79.890625 40.578125 77.09375 44.375 
Q 74.3125 48.1875 68.609375 48.1875 
Q 61.625 48.1875 57.5625 43.546875 
Q 53.515625 38.921875 53.515625 30.90625 
L 53.515625 0 
L 44.484375 0 
L 44.484375 32.71875 
Q 44.484375 40.625 41.703125 44.40625 
Q 38.921875 48.1875 33.109375 48.1875 
Q 26.21875 48.1875 22.15625 43.53125 
Q 18.109375 38.875 18.109375 30.90625 
L 18.109375 0 
L 9.078125 0 
L 9.078125 54.6875 
L 18.109375 54.6875 
L 18.109375 46.1875 
Q 21.1875 51.21875 25.484375 53.609375 
Q 29.78125 56 35.6875 56 
Q 41.65625 56 45.828125 52.96875 
Q 50 49.953125 52 44.1875 
z
" id="DejaVuSans-6d"/>
      <path d="M 18.109375 8.203125 
L 18.109375 -20.796875 
L 9.078125 -20.796875 
L 9.078125 54.6875 
L 18.109375 54.6875 
L 18.109375 46.390625 
Q 20.953125 51.265625 25.265625 53.625 
Q 29.59375 56 35.59375 56 
Q 45.5625 56 51.78125 48.09375 
Q 58.015625 40.1875 58.015625 27.296875 
Q 58.015625 14.40625 51.78125 6.484375 
Q 45.5625 -1.421875 35.59375 -1.421875 
Q 29.59375 -1.421875 25.265625 0.953125 
Q 20.953125 3.328125 18.109375 8.203125 
z
M 48.6875 27.296875 
Q 48.6875 37.203125 44.609375 42.84375 
Q 40.53125 48.484375 33.40625 48.484375 
Q 26.265625 48.484375 22.1875 42.84375 
Q 18.109375 37.203125 18.109375 27.296875 
Q 18.109375 17.390625 22.1875 11.75 
Q 26.265625 6.109375 33.40625 6.109375 
Q 40.53125 6.109375 44.609375 11.75 
Q 48.6875 17.390625 48.6875 27.296875 
z
" id="DejaVuSans-70"/>
      <path d="M 41.109375 46.296875 
Q 39.59375 47.171875 37.8125 47.578125 
Q 36.03125 48 33.890625 48 
Q 26.265625 48 22.1875 43.046875 
Q 18.109375 38.09375 18.109375 28.8125 
L 18.109375 0 
L 9.078125 0 
L 9.078125 54.6875 
L 18.109375 54.6875 
L 18.109375 46.1875 
Q 20.953125 51.171875 25.484375 53.578125 
Q 30.03125 56 36.53125 56 
Q 37.453125 56 38.578125 55.875 
Q 39.703125 55.765625 41.0625 55.515625 
z
" id="DejaVuSans-72"/>
      <path d="M 34.28125 27.484375 
Q 23.390625 27.484375 19.1875 25 
Q 14.984375 22.515625 14.984375 16.5 
Q 14.984375 11.71875 18.140625 8.90625 
Q 21.296875 6.109375 26.703125 6.109375 
Q 34.1875 6.109375 38.703125 11.40625 
Q 43.21875 16.703125 43.21875 25.484375 
L 43.21875 27.484375 
z
M 52.203125 31.203125 
L 52.203125 0 
L 43.21875 0 
L 43.21875 8.296875 
Q 40.140625 3.328125 35.546875 0.953125 
Q 30.953125 -1.421875 24.3125 -1.421875 
Q 15.921875 -1.421875 10.953125 3.296875 
Q 6 8.015625 6 15.921875 
Q 6 25.140625 12.171875 29.828125 
Q 18.359375 34.515625 30.609375 34.515625 
L 43.21875 34.515625 
L 43.21875 35.40625 
Q 43.21875 41.609375 39.140625 45 
Q 35.0625 48.390625 27.6875 48.390625 
Q 23 48.390625 18.546875 47.265625 
Q 14.109375 46.140625 10.015625 43.890625 
L 10.015625 52.203125 
Q 14.9375 54.109375 19.578125 55.046875 
Q 24.21875 56 28.609375 56 
Q 40.484375 56 46.34375 49.84375 
Q 52.203125 43.703125 52.203125 31.203125 
z
" id="DejaVuSans-61"/>
      <path d="M 18.3125 70.21875 
L 18.3125 54.6875 
L 36.8125 54.6875 
L 36.8125 47.703125 
L 18.3125 47.703125 
L 18.3125 18.015625 
Q 18.3125 11.328125 20.140625 9.421875 
Q 21.96875 7.515625 27.59375 7.515625 
L 36.8125 7.515625 
L 36.8125 0 
L 27.59375 0 
Q 17.1875 0 13.234375 3.875 
Q 9.28125 7.765625 9.28125 18.015625 
L 9.28125 47.703125 
L 2.6875 47.703125 
L 2.6875 54.6875 
L 9.28125 54.6875 
L 9.28125 70.21875 
z
" id="DejaVuSans-74"/>
      <path d="M 8.5 21.578125 
L 8.5 54.6875 
L 17.484375 54.6875 
L 17.484375 21.921875 
Q 17.484375 14.15625 20.5 10.265625 
Q 23.53125 6.390625 29.59375 6.390625 
Q 36.859375 6.390625 41.078125 11.03125 
Q 45.3125 15.671875 45.3125 23.6875 
L 45.3125 54.6875 
L 54.296875 54.6875 
L 54.296875 0 
L 45.3125 0 
L 45.3125 8.40625 
Q 42.046875 3.421875 37.71875 1 
Q 33.40625 -1.421875 27.6875 -1.421875 
Q 18.265625 -1.421875 13.375 4.4375 
Q 8.5 10.296875 8.5 21.578125 
z
M 31.109375 56 
z
" id="DejaVuSans-75"/>
      <path id="DejaVuSans-20"/>
      <path d="M 8.59375 75.984375 
L 29.296875 75.984375 
L 29.296875 69 
L 17.578125 69 
L 17.578125 -6.203125 
L 29.296875 -6.203125 
L 29.296875 -13.1875 
L 8.59375 -13.1875 
z
" id="DejaVuSans-5b"/>
      <path d="M 64.40625 67.28125 
L 64.40625 56.890625 
Q 59.421875 61.53125 53.78125 63.8125 
Q 48.140625 66.109375 41.796875 66.109375 
Q 29.296875 66.109375 22.65625 58.46875 
Q 16.015625 50.828125 16.015625 36.375 
Q 16.015625 21.96875 22.65625 14.328125 
Q 29.296875 6.6875 41.796875 6.6875 
Q 48.140625 6.6875 53.78125 8.984375 
Q 59.421875 11.28125 64.40625 15.921875 
L 64.40625 5.609375 
Q 59.234375 2.09375 53.4375 0.328125 
Q 47.65625 -1.421875 41.21875 -1.421875 
Q 24.65625 -1.421875 15.125 8.703125 
Q 5.609375 18.84375 5.609375 36.375 
Q 5.609375 53.953125 15.125 64.078125 
Q 24.65625 74.21875 41.21875 74.21875 
Q 47.75 74.21875 53.53125 72.484375 
Q 59.328125 70.75 64.40625 67.28125 
z
" id="DejaVuSans-43"/>
      <path d="M 9.421875 75.984375 
L 18.40625 75.984375 
L 18.40625 0 
L 9.421875 0 
z
" id="DejaVuSans-6c"/>
      <path d="M 44.28125 53.078125 
L 44.28125 44.578125 
Q 40.484375 46.53125 36.375 47.5 
Q 32.28125 48.484375 27.875 48.484375 
Q 21.1875 48.484375 17.84375 46.4375 
Q 14.5 44.390625 14.5 40.28125 
Q 14.5 37.15625 16.890625 35.375 
Q 19.28125 33.59375 26.515625 31.984375 
L 29.59375 31.296875 
Q 39.15625 29.25 43.1875 25.515625 
Q 47.21875 21.78125 47.21875 15.09375 
Q 47.21875 7.46875 41.1875 3.015625 
Q 35.15625 -1.421875 24.609375 -1.421875 
Q 20.21875 -1.421875 15.453125 -0.5625 
Q 10.6875 0.296875 5.421875 2 
L 5.421875 11.28125 
Q 10.40625 8.6875 15.234375 7.390625 
Q 20.0625 6.109375 24.8125 6.109375 
Q 31.15625 6.109375 34.5625 8.28125 
Q 37.984375 10.453125 37.984375 14.40625 
Q 37.984375 18.0625 35.515625 20.015625 
Q 33.0625 21.96875 24.703125 23.78125 
L 21.578125 24.515625 
Q 13.234375 26.265625 9.515625 29.90625 
Q 5.8125 33.546875 5.8125 39.890625 
Q 5.8125 47.609375 11.28125 51.796875 
Q 16.75 56 26.8125 56 
Q 31.78125 56 36.171875 55.265625 
Q 40.578125 54.546875 44.28125 53.078125 
z
" id="DejaVuSans-73"/>
      <path d="M 9.421875 54.6875 
L 18.40625 54.6875 
L 18.40625 0 
L 9.421875 0 
z
M 9.421875 75.984375 
L 18.40625 75.984375 
L 18.40625 64.59375 
L 9.421875 64.59375 
z
" id="DejaVuSans-69"/>
      <path d="M 30.421875 75.984375 
L 30.421875 -13.1875 
L 9.71875 -13.1875 
L 9.71875 -6.203125 
L 21.390625 -6.203125 
L 21.390625 69 
L 9.71875 69 
L 9.71875 75.984375 
z
" id="DejaVuSans-5d"/>
     </defs>
     <g transform="translate(31.795312 196.642294)rotate(-90)scale(0.1 -0.1)">
      <use xlink:href="#DejaVuSans-54"/>
      <use x="60.818359" xlink:href="#DejaVuSans-65"/>
      <use x="122.341797" xlink:href="#DejaVuSans-6d"/>
      <use x="219.753906" xlink:href="#DejaVuSans-70"/>
      <use x="283.230469" xlink:href="#DejaVuSans-65"/>
      <use x="344.753906" xlink:href="#DejaVuSans-72"/>
      <use x="385.867188" xlink:href="#DejaVuSans-61"/>
      <use x="447.146484" xlink:href="#DejaVuSans-74"/>
      <use x="486.355469" xlink:href="#DejaVuSans-75"/>
      <use x="549.734375" xlink:href="#DejaVuSans-72"/>
      <use x="590.847656" xlink:href="#DejaVuSans-61"/>
      <use x="652.126953" xlink:href="#DejaVuSans-20"/>
      <use x="683.914062" xlink:href="#DejaVuSans-5b"/>
      <use x="722.927734" xlink:href="#DejaVuSans-43"/>
      <use x="792.751953" xlink:href="#DejaVuSans-65"/>
      <use x="854.275391" xlink:href="#DejaVuSans-6c"/>
      <use x="882.058594" xlink:href="#DejaVuSans-73"/>
      <use x="934.158203" xlink:href="#DejaVuSans-69"/>
      <use x="961.941406" xlink:href="#DejaVuSans-75"/>
      <use x="1025.320312" xlink:href="#DejaVuSans-73"/>
      <use x="1077.419922" xlink:href="#DejaVuSans-5d"/>
     </g>
    </g>
   </g>
   <g id="line2d_12">
    <path clip-path="url(#p92cbe6e6f5)" d="M 73.832727 216.42343 
L 74.082654 215.632301 
L 74.33258 216.313742 
L 74.582507 216.21228 
L 74.832433 216.27398 
L 75.08236 216.764836 
L 75.332286 215.626816 
L 75.582213 215.337513 
L 75.832139 215.392357 
L 76.082066 216.349391 
L 76.331992 214.391448 
L 76.581919 215.151042 
L 76.831845 214.39419 
L 77.081772 215.097569 
L 77.331699 214.203606 
L 77.581625 213.808727 
L 77.831552 213.018968 
L 78.081478 213.308272 
L 78.331405 212.395114 
L 78.581331 212.544565 
L 78.831258 211.553253 
L 79.081184 211.761662 
L 79.331111 210.54686 
L 79.581037 210.194485 
L 79.830964 210.471449 
L 80.08089 209.064692 
L 80.330817 208.676668 
L 80.580743 207.944496 
L 80.83067 208.743852 
L 81.080596 207.135542 
L 81.330523 207.013514 
L 81.580449 205.225588 
L 81.830376 205.580705 
L 82.080302 204.711423 
L 82.330229 204.812885 
L 82.580155 203.875047 
L 82.830082 203.802378 
L 83.329935 202.879622 
L 83.579861 201.742973 
L 83.829788 201.793704 
L 84.329641 199.604044 
L 84.579567 200.471956 
L 85.329347 197.646101 
L 85.579274 198.503044 
L 85.8292 196.776818 
L 86.079127 196.771334 
L 86.57898 195.670334 
L 86.828906 193.93314 
L 87.078833 194.633776 
L 87.328759 194.232041 
L 87.578686 194.282772 
L 87.828612 192.774553 
L 88.078539 192.965137 
L 88.328465 191.70646 
L 88.578392 191.696862 
L 88.828318 190.497142 
L 89.078245 190.569811 
L 89.328171 190.35866 
L 89.578098 189.25766 
L 89.828024 188.780514 
L 90.077951 187.940025 
L 90.327877 188.755834 
L 90.577804 187.694597 
L 90.82773 187.268182 
L 91.077657 186.130162 
L 91.327583 185.847714 
L 91.57751 184.874227 
L 91.827436 185.20055 
L 92.077363 183.549736 
L 92.32729 184.225692 
L 92.577216 183.227526 
L 92.827143 182.696907 
L 93.077069 182.558425 
L 93.326996 182.130639 
L 93.576922 180.800664 
L 93.826849 180.946001 
L 94.076775 180.467484 
L 94.326702 179.636593 
L 94.576628 179.945092 
L 94.826555 178.972976 
L 95.076481 178.486233 
L 95.326408 177.656712 
L 95.576334 177.429108 
L 95.826261 176.269151 
L 96.076187 176.616041 
L 96.326114 175.05572 
L 96.57604 174.87062 
L 96.825967 174.046584 
L 97.075893 174.715685 
L 97.32582 173.832691 
L 97.575746 173.504996 
L 97.825673 171.992663 
L 98.075599 172.103723 
L 98.325526 170.831335 
L 98.575452 170.455651 
L 98.825379 170.962961 
L 99.075305 170.566711 
L 99.325232 169.768726 
L 99.575159 168.324949 
L 99.825085 168.608768 
L 100.574865 166.469839 
L 100.824791 166.43419 
L 101.574571 164.554401 
L 101.824497 164.502298 
L 102.074424 163.290239 
L 102.824203 162.610169 
L 103.07413 161.561271 
L 103.324056 161.219865 
L 103.573983 160.600124 
L 103.823909 160.678277 
L 104.323762 158.352877 
L 104.573689 159.01238 
L 104.823615 157.894927 
L 105.073542 158.64081 
L 105.323468 157.150415 
L 105.573395 157.560377 
L 105.823321 157.457544 
L 106.073248 157.535697 
L 106.323174 155.909562 
L 106.573101 156.053529 
L 107.322881 154.982693 
L 107.572807 154.85518 
L 107.822734 154.316334 
L 108.07266 154.723553 
L 108.322587 153.697964 
L 108.572513 153.293487 
L 108.82244 153.421001 
L 109.072366 152.228136 
L 109.322293 152.860217 
L 109.572219 151.220372 
L 109.822146 151.938832 
L 110.072072 150.198896 
L 110.321999 150.381253 
L 110.571925 149.712152 
L 110.821852 150.096063 
L 111.071778 148.997805 
L 111.321705 149.062247 
L 111.821558 148.279344 
L 112.071484 148.017462 
L 112.321411 147.022038 
L 112.571337 146.917834 
L 112.821264 145.818205 
L 113.07119 146.592881 
L 113.321117 145.469943 
L 113.571043 145.070951 
L 113.82097 144.433385 
L 114.070896 144.766564 
L 114.57075 142.482298 
L 115.070603 142.306796 
L 115.320529 141.90369 
L 115.570456 141.796744 
L 115.820382 140.767041 
L 116.070309 140.702599 
L 116.570162 139.188896 
L 116.820088 139.393191 
L 117.070015 138.330582 
L 117.319941 138.016598 
L 117.569868 136.773003 
L 117.819794 136.86898 
L 118.069721 135.629498 
L 118.319647 135.556829 
L 118.569574 135.785805 
L 119.319353 133.502909 
L 119.56928 133.586547 
L 119.819206 132.585638 
L 120.069133 133.450807 
L 120.319059 131.967268 
L 120.568986 131.898712 
L 120.818912 130.842959 
L 121.068839 131.002007 
L 121.818619 129.610332 
L 122.068545 128.93986 
L 122.318472 128.676608 
L 122.568398 127.571494 
L 122.818325 128.922036 
L 123.068251 127.129997 
L 123.318178 127.674327 
L 123.818031 126.412908 
L 124.067957 126.673418 
L 124.317884 125.909711 
L 124.56781 125.848011 
L 124.817737 124.662002 
L 125.067663 124.530376 
L 125.31759 123.761184 
L 125.567516 124.232845 
L 125.817443 122.823346 
L 126.567222 122.39556 
L 126.817149 121.886879 
L 127.067075 119.963214 
L 127.317002 121.289076 
L 127.566928 120.026285 
L 127.816855 120.598037 
L 128.066781 119.370895 
L 128.316708 119.329762 
L 128.566634 118.468706 
L 128.816561 118.470077 
L 129.066488 118.257555 
L 129.316414 117.518528 
L 129.566341 118.071084 
L 129.816267 116.498423 
L 130.31612 115.859487 
L 130.566047 116.19815 
L 131.0659 114.550078 
L 131.315826 114.865433 
L 131.815679 113.604013 
L 132.315532 112.860873 
L 132.565459 112.631897 
L 132.815385 111.829799 
L 133.065312 111.452744 
L 133.315238 111.412982 
L 133.565165 110.43264 
L 133.815091 110.417557 
L 134.314944 108.791423 
L 134.564871 108.587128 
L 135.31465 107.287317 
L 135.564577 107.477901 
L 135.814503 106.730647 
L 136.06443 106.642896 
L 136.314356 105.148388 
L 136.81421 105.13879 
L 137.064136 105.007164 
L 137.314063 103.918504 
L 137.563989 103.418049 
L 137.813916 103.563387 
L 138.063842 103.009459 
L 138.313769 103.59218 
L 138.563695 102.011292 
L 138.813622 102.865492 
L 139.063548 101.595846 
L 139.313475 102.188165 
L 139.563401 101.771348 
L 139.813328 101.997581 
L 140.063254 101.434055 
L 140.313181 101.882408 
L 140.563107 100.186347 
L 141.06296 100.755357 
L 141.312887 99.537812 
L 141.562813 100.057462 
L 141.81274 99.528215 
L 142.062666 99.289642 
L 142.312593 98.73023 
L 142.562519 98.804269 
L 142.812446 98.558841 
L 143.062372 98.546501 
L 143.562225 97.904822 
L 143.812152 98.1859 
L 144.062079 97.094497 
L 144.312005 97.72932 
L 144.561932 96.567992 
L 144.811858 96.779142 
L 145.061785 95.754924 
L 145.311711 95.911231 
L 145.561638 95.665802 
L 145.811564 95.257212 
L 146.061491 95.255841 
L 146.311417 94.138388 
L 146.561344 94.237107 
L 146.81127 94.034183 
L 147.061197 93.679066 
L 147.311123 92.003572 
L 147.56105 92.206496 
L 147.810976 91.734835 
L 148.060903 91.634744 
L 148.310829 91.401655 
L 149.060609 89.833107 
L 149.560462 89.162635 
L 149.810388 89.835849 
L 150.060315 88.455143 
L 150.310241 88.230282 
L 150.560168 87.141622 
L 150.810094 87.503594 
L 151.309948 85.963839 
L 151.559874 85.830842 
L 151.809801 85.145288 
L 152.059727 85.16037 
L 152.309654 84.647575 
L 152.55958 84.783315 
L 152.809507 83.801602 
L 153.059433 83.967506 
L 153.30936 83.472535 
L 153.559286 83.331311 
L 153.809213 83.033781 
L 154.059139 82.198776 
L 154.309066 82.061665 
L 154.558992 81.206093 
L 155.558698 80.685072 
L 155.808625 79.740378 
L 156.308478 79.18508 
L 156.558404 79.141204 
L 156.808331 77.646696 
L 157.058257 78.092306 
L 157.308184 77.368361 
L 157.55811 77.959309 
L 157.808037 76.782898 
L 158.057963 76.32769 
L 158.30789 75.636651 
L 158.557817 75.921842 
L 158.807743 75.212979 
L 159.05767 74.923675 
L 159.557523 73.542969 
L 159.807449 73.723955 
L 160.307302 72.274693 
L 160.807155 72.396722 
L 161.057082 71.048922 
L 161.307008 71.670035 
L 161.556935 70.455233 
L 161.806861 70.570406 
L 162.056788 69.84646 
L 162.306714 69.865656 
L 162.556641 68.229924 
L 162.806567 68.542536 
L 163.056494 68.239521 
L 163.30642 67.50735 
L 163.556347 67.774716 
L 163.806273 66.516038 
L 164.0562 66.820424 
L 164.306126 66.27061 
L 164.556053 66.58048 
L 164.805979 65.453429 
L 165.055906 66.07317 
L 165.305832 65.251876 
L 165.555759 66.019697 
L 165.805685 65.069519 
L 166.055612 66.027924 
L 166.305539 64.877564 
L 166.555465 65.697486 
L 167.055318 65.116136 
L 167.305245 66.714849 
L 167.555171 65.294381 
L 167.805098 66.524265 
L 168.055024 66.433772 
L 168.554877 67.105615 
L 168.804804 67.869322 
L 169.304657 68.000949 
L 169.80451 68.656338 
L 170.054436 68.53431 
L 170.304363 69.410448 
L 170.554289 69.018311 
L 170.804216 69.17736 
L 171.054142 70.854225 
L 171.304069 70.725341 
L 171.553995 71.831825 
L 171.803922 71.469853 
L 172.303775 72.276064 
L 172.553701 72.838219 
L 172.803628 72.821766 
L 173.303481 73.407229 
L 173.553408 74.879799 
L 173.803334 74.563073 
L 174.053261 74.823584 
L 174.303187 75.522849 
L 174.80304 76.371565 
L 175.052967 76.37705 
L 175.55282 76.922751 
L 175.802746 77.671376 
L 176.052673 77.213426 
L 176.302599 79.156286 
L 176.552526 78.622925 
L 176.802452 79.659483 
L 177.052379 79.743121 
L 177.302305 80.630228 
L 177.552232 80.375202 
L 177.802158 81.223918 
L 178.052085 81.048416 
L 178.302011 82.2783 
L 178.551938 82.030129 
L 178.801864 82.48808 
L 179.051791 82.547037 
L 179.551644 83.752242 
L 179.80157 83.937341 
L 180.051497 84.7271 
L 180.301423 84.469331 
L 180.55135 85.636145 
L 180.801277 85.523714 
L 181.051203 85.226183 
L 181.30113 85.799306 
L 181.551056 86.689156 
L 181.800983 86.58358 
L 182.050909 87.081293 
L 182.300836 87.302041 
L 182.550762 88.53741 
L 182.800689 88.326259 
L 183.050615 89.170862 
L 183.300542 88.727994 
L 183.550468 89.91126 
L 183.800395 90.156689 
L 184.050321 90.236213 
L 184.300248 89.68777 
L 184.550174 90.835387 
L 184.800101 90.786028 
L 185.050027 91.991232 
L 185.299954 91.344069 
L 185.54988 91.722495 
L 185.799807 91.227524 
L 186.049733 93.414442 
L 186.29966 92.080354 
L 186.549586 94.307034 
L 186.799513 93.071665 
L 187.049439 94.706026 
L 187.299366 94.23985 
L 187.549292 95.150266 
L 187.799219 95.320283 
L 188.049145 95.782347 
L 188.299072 95.76178 
L 188.548999 96.487096 
L 188.798925 95.961962 
L 189.298778 97.278226 
L 189.548705 97.252175 
L 189.798631 98.187271 
L 190.048558 97.427677 
L 190.298484 98.95372 
L 190.548411 97.737547 
L 190.798337 99.639274 
L 191.29819 98.791929 
L 191.548117 99.636532 
L 191.798043 101.104989 
L 192.04797 99.957372 
L 192.297896 102.171712 
L 192.547823 100.69777 
L 192.797749 102.192278 
L 193.047676 101.484786 
L 193.297602 102.249865 
L 193.547529 101.931768 
L 193.797455 102.510375 
L 194.047382 102.548766 
L 194.297308 103.837608 
L 194.547235 103.398854 
L 194.797161 104.056986 
L 195.047088 103.437245 
L 195.297014 104.44638 
L 195.546941 103.818413 
L 195.796868 104.587605 
L 196.046794 104.987968 
L 196.296721 105.998475 
L 196.546647 104.771333 
L 196.796574 105.99162 
L 197.0465 105.692718 
L 197.79628 106.885582 
L 198.046206 106.592165 
L 198.296133 107.658887 
L 198.546059 107.168031 
L 198.795986 108.000293 
L 199.045912 107.231101 
L 199.295839 108.935389 
L 199.545765 108.916194 
L 199.795692 109.583923 
L 200.045618 109.079356 
L 200.295545 109.76491 
L 200.545471 108.85038 
L 200.795398 110.473773 
L 201.045324 109.716921 
L 201.295251 110.19818 
L 201.545177 109.829352 
L 201.795104 110.63145 
L 202.04503 110.221489 
L 202.294957 111.666637 
L 202.544883 111.740677 
L 202.79481 112.195885 
L 203.044737 111.986105 
L 203.294663 112.319285 
L 203.54459 111.88053 
L 203.794516 112.892408 
L 204.044443 113.052828 
L 204.294369 113.632807 
L 204.544296 113.927595 
L 204.794222 114.964153 
L 205.044149 114.125034 
L 205.294075 114.783166 
L 205.544002 114.960039 
L 205.793928 115.892393 
L 206.043855 115.7402 
L 206.293781 116.632792 
L 206.543708 116.045957 
L 206.793634 116.867251 
L 207.043561 116.306468 
L 207.293487 117.628216 
L 207.543414 116.636905 
L 207.79334 118.371357 
L 208.043267 117.933974 
L 208.293193 118.657919 
L 208.54312 118.660661 
L 208.793046 119.340731 
L 209.042973 119.653343 
L 209.292899 120.729663 
L 209.542826 119.819248 
L 209.792752 121.180758 
L 210.042679 121.025823 
L 210.292606 122.007536 
L 210.542532 121.23286 
L 211.042385 122.439436 
L 211.292312 122.140534 
L 211.542238 122.920695 
L 212.042091 123.046837 
L 212.292018 123.141443 
L 212.541944 123.608991 
L 212.791871 124.672971 
L 213.041797 124.427543 
L 213.291724 124.354874 
L 213.54165 125.826073 
L 213.791577 125.74792 
L 214.041503 125.114468 
L 214.29143 125.931649 
L 214.541356 126.089326 
L 215.041209 127.878623 
L 215.291136 127.308241 
L 215.790989 128.941232 
L 216.040915 128.820574 
L 216.290842 128.391417 
L 216.540768 129.507499 
L 216.790695 129.550004 
L 217.540474 130.963616 
L 217.790401 130.306856 
L 218.040328 132.163336 
L 218.290254 131.975494 
L 218.790107 132.591122 
L 219.040034 132.216809 
L 219.539887 133.735998 
L 219.789813 133.308212 
L 220.539593 134.843853 
L 220.789519 134.590198 
L 221.039446 134.894584 
L 221.289372 135.710394 
L 221.539299 136.070995 
L 221.789225 135.71862 
L 222.039152 136.989638 
L 222.289078 136.36167 
L 222.539005 137.366693 
L 222.788931 137.590183 
L 223.038858 138.765223 
L 223.288784 138.762481 
L 223.538711 139.238255 
L 223.788637 138.990085 
L 224.038564 140.202145 
L 224.28849 139.116227 
L 224.538417 140.503789 
L 224.788343 140.1473 
L 225.538123 141.813197 
L 225.78805 141.924257 
L 226.287903 142.508349 
L 226.537829 142.316394 
L 226.787756 143.400941 
L 227.037682 142.726355 
L 227.537535 144.481374 
L 227.787462 143.998744 
L 228.037388 144.578723 
L 228.287315 144.571867 
L 228.537241 145.410985 
L 228.787168 145.36711 
L 229.037094 146.495532 
L 229.287021 145.900471 
L 229.536947 147.139953 
L 229.786874 146.799918 
L 230.286727 147.619841 
L 230.78658 147.880352 
L 231.036506 148.128522 
L 231.286433 148.103842 
L 231.536359 148.441135 
L 231.786286 149.83281 
L 232.286139 149.126689 
L 232.536066 150.357944 
L 232.785992 149.915076 
L 233.035919 150.943408 
L 233.285845 150.218091 
L 233.535772 151.475398 
L 233.785698 150.763792 
L 234.035625 151.051725 
L 234.285551 150.755566 
L 234.535478 151.33006 
L 234.785404 151.155929 
L 235.035331 152.664149 
L 235.285257 152.151354 
L 235.535184 152.550347 
L 235.78511 151.437007 
L 236.035037 153.028864 
L 236.284963 152.377587 
L 236.53489 153.51972 
L 236.784816 153.004184 
L 237.034743 154.341014 
L 237.284669 153.628038 
L 237.534596 153.665058 
L 237.784522 154.10107 
L 238.284375 153.891291 
L 238.534302 154.498692 
L 238.784228 155.575012 
L 239.034155 155.159566 
L 239.284081 155.121175 
L 239.534008 156.083693 
L 239.783934 155.670989 
L 240.033861 155.932871 
L 240.283788 155.856089 
L 240.533714 156.403161 
L 240.783641 155.94384 
L 241.033567 157.52747 
L 241.53342 156.54987 
L 242.033273 157.968967 
L 242.2832 157.456172 
L 242.533126 158.193829 
L 242.783053 158.155438 
L 243.032979 159.176913 
L 243.282906 159.70479 
L 243.532832 159.263293 
L 243.782759 159.309911 
L 244.032685 159.885777 
L 244.282612 159.969414 
L 244.532538 159.898117 
L 244.782465 161.075899 
L 245.032391 160.498662 
L 245.282318 160.709813 
L 245.532244 161.361089 
L 245.782171 161.074527 
L 246.032097 161.791617 
L 246.282024 161.921872 
L 246.53195 160.945643 
L 246.781877 162.271505 
L 247.031803 161.373429 
L 247.28173 162.804866 
L 247.531657 161.860173 
L 247.781583 163.317661 
L 248.03151 163.159983 
L 248.281436 163.781095 
L 248.781289 164.489958 
L 249.031216 164.210252 
L 249.281142 164.765551 
L 249.531069 164.18283 
L 249.780995 165.171399 
L 250.030922 164.144439 
L 250.530775 165.111071 
L 250.780701 164.906775 
L 251.030628 165.201564 
L 251.280554 165.804851 
L 251.530481 165.301655 
L 251.780407 165.7171 
L 252.030334 165.381179 
L 252.28026 165.699276 
L 252.530187 165.298912 
L 252.780113 165.878891 
L 253.03004 164.94928 
L 253.279966 165.109699 
L 253.529893 164.585936 
L 253.779819 165.048 
L 254.029746 165.154946 
L 254.279672 164.525607 
L 254.529599 164.649007 
L 255.279379 162.429183 
L 255.529305 163.009161 
L 255.779232 162.176899 
L 256.029158 162.781557 
L 256.279085 161.182845 
L 256.529011 161.4365 
L 256.778938 159.900859 
L 257.028864 159.767861 
L 257.278791 159.038432 
L 257.528717 159.157718 
L 257.778644 157.903154 
L 258.02857 158.254158 
L 258.278497 156.634879 
L 258.77835 156.159104 
L 259.028276 156.072724 
L 259.278203 154.497321 
L 259.528129 154.874375 
L 259.778056 153.149521 
L 260.027982 154.025659 
L 260.277909 152.229507 
L 260.527835 152.026583 
L 260.777762 152.023841 
L 261.277615 149.739575 
L 261.527541 149.616175 
L 262.527248 147.348362 
L 262.777174 146.921947 
L 263.027101 145.988222 
L 263.277027 145.485025 
L 263.526954 145.275246 
L 264.026807 143.799933 
L 264.276733 143.454414 
L 265.526366 140.583313 
L 266.026219 139.808637 
L 266.526072 137.974094 
L 266.775998 137.749232 
L 267.025925 136.519348 
L 267.275851 136.560481 
L 267.525778 135.183888 
L 267.775704 135.951709 
L 268.025631 134.328316 
L 268.275557 134.225483 
L 268.525484 133.630422 
L 268.77541 133.910128 
L 269.275263 131.48738 
L 269.52519 131.688933 
L 270.025043 130.88135 
L 270.27497 130.629066 
L 270.524896 129.851648 
L 270.774823 129.621301 
L 271.024749 129.748814 
L 271.524602 127.609885 
L 271.774529 127.803212 
L 272.024455 128.597083 
L 272.274382 127.493341 
L 272.524308 127.908787 
L 272.774235 126.630914 
L 273.024161 127.404219 
L 273.274088 126.474608 
L 273.524014 126.887311 
L 273.773941 125.924793 
L 274.023867 126.796818 
L 274.52372 126.035853 
L 274.773647 126.598007 
L 275.023573 125.848011 
L 275.2735 125.953586 
L 275.523426 125.736951 
L 275.773353 125.863093 
L 276.023279 126.293621 
L 276.273206 125.79728 
L 276.523132 125.598469 
L 276.773059 126.406052 
L 277.022986 126.012544 
L 277.272912 126.704954 
L 277.522839 126.840694 
L 277.772765 126.803674 
L 278.022692 125.942618 
L 278.272618 126.683016 
L 278.522545 126.349837 
L 278.772471 126.969578 
L 279.272324 126.73786 
L 279.522251 127.641421 
L 279.772177 127.489228 
L 280.022104 127.082009 
L 280.27203 128.764359 
L 280.521957 128.192606 
L 280.771883 128.565548 
L 281.02181 127.720945 
L 281.271736 129.700826 
L 281.771589 129.370388 
L 282.021516 130.073767 
L 282.271442 129.475964 
L 282.521369 130.804568 
L 282.771295 130.206765 
L 283.021222 130.834732 
L 283.271148 130.879979 
L 283.521075 132.153738 
L 283.771001 131.59844 
L 284.020928 131.6478 
L 284.270855 131.354382 
L 284.520781 132.682986 
L 284.770708 131.717726 
L 285.020634 131.94533 
L 285.270561 131.750633 
L 285.770414 132.811871 
L 286.02034 132.730975 
L 286.270267 132.310045 
L 286.520193 133.135452 
L 286.77012 132.817355 
L 287.020046 132.92293 
L 287.269973 161.805328 
L 287.519899 133.570093 
L 287.769826 132.630884 
L 288.269679 133.040846 
L 288.519605 132.844777 
L 288.769532 133.478229 
L 289.019458 132.757026 
L 289.269385 133.03399 
L 289.519311 132.869457 
L 289.769238 132.839293 
L 290.019164 132.581524 
L 290.519017 132.693955 
L 290.768944 132.455382 
L 291.01887 132.536278 
L 291.268797 133.017537 
L 291.518723 131.780797 
L 291.76865 131.736922 
L 292.018577 131.477782 
L 292.268503 131.576502 
L 292.51843 131.063707 
L 292.768356 132.205841 
L 293.018283 130.938936 
L 293.518136 129.689857 
L 293.768062 130.964988 
L 294.017989 130.476873 
L 294.267915 129.425233 
L 294.517842 130.638664 
L 295.267621 129.444428 
L 295.517548 130.395978 
L 295.767474 130.012067 
L 296.017401 130.131354 
L 296.267327 129.245618 
L 296.76718 130.024407 
L 297.017107 129.684372 
L 297.267033 170.655833 
L 297.51696 129.541777 
L 297.766886 129.134558 
L 298.016813 129.905121 
L 298.266739 128.688948 
L 298.516666 129.643239 
L 298.766592 128.675237 
L 299.016519 129.584281 
L 299.266446 129.059147 
L 299.516372 128.905583 
L 299.766299 129.253844 
L 300.016225 128.446261 
L 300.516078 129.10028 
L 300.766005 128.789039 
L 301.015931 129.323771 
L 301.265858 129.104393 
L 301.515784 123.837966 
L 301.765711 129.567828 
L 302.015637 128.062351 
L 302.265564 130.042232 
L 302.51549 129.386842 
L 302.765417 130.051829 
L 303.015343 129.274411 
L 303.26527 129.589766 
L 303.515196 129.348451 
L 303.765123 129.981903 
L 304.015049 129.452655 
L 304.264976 129.547261 
L 304.514902 129.948996 
L 304.764829 129.863988 
L 305.014755 129.639126 
L 305.264682 129.75567 
L 305.514608 129.714537 
L 305.764535 130.247898 
L 306.264388 129.683001 
L 306.514315 129.825596 
L 306.764241 129.009787 
L 307.014168 129.847534 
L 307.264094 129.012529 
L 307.514021 129.556859 
L 307.763947 128.948087 
L 308.013874 129.747443 
L 308.2638 128.720483 
L 308.513727 129.145527 
L 308.763653 128.317377 
L 309.01358 127.966374 
L 309.263506 128.455859 
L 309.513433 128.573775 
L 309.763359 127.86354 
L 310.013286 129.055034 
L 310.263212 127.563268 
L 310.513139 127.733285 
L 311.012992 129.356677 
L 311.262918 127.593432 
L 311.512845 127.719574 
L 311.762771 127.236944 
L 312.262624 128.121309 
L 312.512551 126.51437 
L 312.762477 127.634565 
L 313.26233 126.806416 
L 313.512257 126.770767 
L 313.762183 127.112173 
L 314.01211 126.367661 
L 314.511963 127.326066 
L 314.76189 127.364457 
L 315.011816 127.254768 
L 315.261743 126.301848 
L 315.511669 127.217748 
L 315.761596 125.054139 
L 316.011522 127.537217 
L 316.261449 124.726444 
L 316.511375 127.465919 
L 316.761302 126.656965 
L 317.261155 126.931187 
L 317.511081 127.309613 
L 317.761008 126.651481 
L 318.010934 127.079266 
L 318.260861 126.858518 
L 318.510787 127.308241 
L 318.760714 127.385024 
L 319.260567 128.259791 
L 319.510493 127.959518 
L 319.76042 128.798636 
L 320.010346 128.183009 
L 320.260273 129.404666 
L 320.510199 128.557321 
L 320.760126 129.375873 
L 321.010052 129.226422 
L 321.259979 129.237391 
L 322.009759 130.297258 
L 322.259685 130.167002 
L 322.509612 130.323309 
L 322.759538 130.013438 
L 323.009465 131.440762 
L 323.259391 130.937565 
L 323.509318 131.621748 
L 323.759244 130.840217 
L 324.009171 132.290849 
L 324.259097 130.974585 
L 324.509024 131.753375 
L 325.008877 131.107583 
L 325.258803 132.082441 
L 325.50873 131.092501 
L 325.758656 131.347527 
L 326.008583 132.584267 
L 326.258509 131.461329 
L 327.258215 131.576502 
L 327.508142 130.877237 
L 327.758068 131.466813 
L 328.007995 129.979161 
L 328.257921 131.455844 
L 328.507848 130.80731 
L 328.757775 132.183903 
L 329.007701 131.32696 
L 329.257628 131.333816 
L 329.507554 130.922483 
L 330.007407 131.210416 
L 330.257334 130.908772 
L 330.757187 130.811423 
L 331.25704 131.084274 
L 331.506966 132.11809 
L 331.756893 130.257496 
L 332.006819 131.152829 
L 332.256746 130.487842 
L 332.506672 131.381804 
L 332.756599 130.718188 
L 333.006525 131.531255 
L 333.256452 130.59753 
L 333.506378 130.711332 
L 333.756305 130.555026 
L 334.006231 131.003379 
L 334.256158 130.457677 
L 334.506084 130.773032 
L 334.756011 130.804568 
L 335.005937 129.870843 
L 335.255864 130.882721 
L 335.50579 130.474131 
L 335.755717 130.465904 
L 336.25557 130.202651 
L 336.505497 130.252011 
L 336.755423 129.650095 
L 337.00535 98.091293 
L 337.255276 129.404666 
L 337.505203 130.734641 
L 337.755129 129.449913 
L 338.005056 130.744239 
L 338.254982 129.68163 
L 338.504909 129.407408 
L 339.004762 130.083365 
L 339.254688 129.645981 
L 339.504615 130.103931 
L 339.754541 129.944883 
L 340.004468 130.345247 
L 340.254394 126.565101 
L 340.504321 129.639126 
L 340.754247 129.684372 
L 341.004174 129.892781 
L 341.2541 130.740126 
L 341.504027 129.924316 
L 341.753953 129.665177 
L 342.00388 130.007954 
L 342.253806 130.549542 
L 342.503733 129.850276 
L 342.753659 131.045883 
L 343.003586 130.397349 
L 343.253512 129.251102 
L 343.503439 130.660601 
L 343.753366 130.549542 
L 344.003292 131.469555 
L 344.253219 130.815537 
L 344.503145 130.775775 
L 344.753072 130.158776 
L 345.002998 131.060965 
L 345.252925 130.534459 
L 345.502851 131.854837 
L 345.752778 131.587471 
L 346.002704 135.144126 
L 346.252631 131.632717 
L 346.502557 132.525309 
L 347.00241 130.837474 
L 347.252337 132.678873 
L 347.502263 131.394144 
L 347.75219 131.77257 
L 348.002116 131.103469 
L 348.252043 131.418824 
L 348.501969 131.076047 
L 348.751896 131.708128 
L 349.001822 131.097985 
L 349.251749 147.252384 
L 349.501675 130.821021 
L 349.751602 131.409227 
L 350.001528 131.22824 
L 350.251455 131.250178 
L 350.501381 131.738293 
L 350.751308 130.94305 
L 351.001235 131.486009 
L 351.251161 131.207674 
L 351.501088 131.742406 
L 351.751014 130.537202 
L 352.000941 131.470927 
L 352.250867 131.172025 
L 352.500794 132.017999 
L 352.75072 130.718188 
L 353.000647 130.690766 
L 353.250573 132.168821 
L 353.5005 130.688024 
L 353.750426 131.030801 
L 354.000353 130.620839 
L 354.250279 131.108954 
L 354.500206 130.524862 
L 354.750132 130.784001 
L 355.000059 130.544057 
L 355.249985 131.535369 
L 355.499912 130.069654 
L 355.999765 131.251549 
L 356.249691 130.723672 
L 356.499618 131.025316 
L 356.749544 130.071025 
L 356.999471 146.813629 
L 357.249397 129.958594 
L 357.499324 131.162427 
L 357.999177 130.101189 
L 358.249104 130.073767 
L 358.49903 130.291773 
L 358.748957 130.775775 
L 358.998883 130.320567 
L 359.24881 130.513893 
L 359.498736 129.691228 
L 359.748663 129.61993 
L 359.998589 129.909234 
L 360.248516 130.406946 
L 360.748369 129.921574 
L 361.248222 129.470479 
L 361.498148 130.088849 
L 361.748075 129.633641 
L 361.998001 129.810514 
L 362.247928 129.331997 
L 362.497854 130.020294 
L 362.747781 128.963169 
L 362.997707 130.075138 
L 363.247634 129.713166 
L 363.49756 128.42021 
L 363.997413 129.972305 
L 364.497266 129.715908 
L 365.247046 129.688486 
L 365.496972 129.492417 
L 365.746899 129.75567 
L 365.996826 128.885016 
L 366.246752 129.635012 
L 366.496679 129.939398 
L 366.746605 128.697174 
L 366.996532 129.164722 
L 367.246458 129.015271 
L 367.496385 129.381357 
L 367.996238 129.138671 
L 368.246164 129.057776 
L 368.496091 128.783554 
L 368.746017 129.02624 
L 368.995944 128.38319 
L 369.24587 129.053662 
L 369.495797 127.973229 
L 369.745723 128.661525 
L 369.99565 127.781274 
L 370.245576 128.218657 
L 370.495503 127.92524 
L 370.745429 127.896447 
L 370.995356 127.401477 
L 371.245282 127.752481 
L 371.495209 103.649766 
L 371.745135 127.618112 
L 371.995062 128.137762 
L 372.244988 127.312355 
L 372.494915 127.794985 
L 372.744841 127.404219 
L 372.994768 128.477797 
L 373.244695 127.661987 
L 373.494621 128.107598 
L 373.744548 127.947178 
L 374.244401 127.897818 
L 374.494327 127.629081 
L 374.744254 128.202204 
L 374.99418 127.672956 
L 375.244107 128.336573 
L 375.494033 127.881365 
L 375.74396 129.055034 
L 376.243813 128.268017 
L 376.493739 128.54361 
L 376.993592 128.405128 
L 377.243519 128.527157 
L 377.493445 129.205855 
L 377.743372 129.423862 
L 377.993298 129.301833 
L 378.243225 128.588857 
L 378.493151 129.798174 
L 378.743078 129.167464 
L 379.242931 129.604848 
L 379.492857 130.061427 
L 379.742784 130.113529 
L 379.99271 130.034005 
L 380.242637 130.810052 
L 380.492564 130.057314 
L 380.74249 131.135005 
L 380.992417 130.748352 
L 381.242343 130.938936 
L 381.49227 130.978699 
L 381.742196 131.303651 
L 381.992123 131.979608 
L 382.242049 92.889308 
L 382.491976 132.433445 
L 382.741902 132.104379 
L 382.991829 132.905106 
L 383.241755 131.898712 
L 383.491682 133.02165 
L 383.741608 132.443042 
L 383.991535 149.23912 
L 384.241461 132.877684 
L 384.491388 132.330611 
L 384.741314 133.671555 
L 384.991241 132.991486 
L 385.241167 133.792213 
L 385.491094 133.217719 
L 385.74102 133.09569 
L 386.240873 133.250625 
L 386.4908 133.907386 
L 386.740726 133.656473 
L 386.990653 133.589289 
L 387.240579 133.851171 
L 387.490506 100.461939 
L 387.740433 133.087463 
L 387.990359 133.505651 
L 388.240286 133.098432 
L 388.490212 133.055928 
L 388.740139 133.582433 
L 388.990065 133.297243 
L 389.239992 133.858026 
L 389.489918 132.721377 
L 389.739845 133.438467 
L 389.989771 132.680244 
L 390.239698 133.15739 
L 390.489624 132.097523 
L 390.739551 132.954466 
L 390.989477 132.448527 
L 391.239404 132.820097 
L 391.48933 132.098894 
L 391.739257 156.863854 
L 391.989183 131.824672 
L 392.23911 131.976866 
L 392.988889 131.51206 
L 393.238816 130.771661 
L 393.488742 131.587471 
L 393.738669 130.774403 
L 394.238522 129.901007 
L 394.488448 133.786729 
L 394.738375 130.046345 
L 394.988301 130.578335 
L 395.238228 130.249269 
L 395.488155 129.695341 
L 395.738081 129.588395 
L 395.988008 130.112158 
L 396.237934 129.939398 
L 396.487861 128.98922 
L 396.737787 129.591137 
L 396.987714 128.455859 
L 397.23764 129.230535 
L 397.487567 128.769843 
L 397.737493 128.805492 
L 397.98742 127.766192 
L 398.237346 128.413355 
L 398.487273 128.311893 
L 398.487273 128.311893 
" style="fill:none;stroke:#1f77b4;stroke-linecap:square;stroke-width:1.5;"/>
   </g>
   <g id="patch_3">
    <path d="M 57.6 224.3592 
L 57.6 57.2832 
" style="fill:none;stroke:#000000;stroke-linecap:square;stroke-linejoin:miter;stroke-width:0.8;"/>
   </g>
   <g id="patch_4">
    <path d="M 414.72 224.3592 
L 414.72 57.2832 
" style="fill:none;stroke:#000000;stroke-linecap:square;stroke-linejoin:miter;stroke-width:0.8;"/>
   </g>
   <g id="patch_5">
    <path d="M 57.6 224.3592 
L 414.72 224.3592 
" style="fill:none;stroke:#000000;stroke-linecap:square;stroke-linejoin:miter;stroke-width:0.8;"/>
   </g>
   <g id="patch_6">
    <path d="M 57.6 57.2832 
L 414.72 57.2832 
" style="fill:none;stroke:#000000;stroke-linecap:square;stroke-linejoin:miter;stroke-width:0.8;"/>
   </g>
  </g>
  <g id="axes_2">
   <g id="patch_7">
    <path d="M 57.6 424.8504 
L 414.72 424.8504 
L 414.72 257.7744 
L 57.6 257.7744 
z
" style="fill:#ffffff;"/>
   </g>
   <g id="matplotlib.axis_3">
    <g id="xtick_8">
     <g id="line2d_13">
      <g>
       <use style="stroke:#000000;stroke-width:0.8;" x="73.832727" xlink:href="#mf36fe1a5c0" y="424.8504"/>
      </g>
     </g>
     <g id="text_13">
      <!-- 0 -->
      <g transform="translate(70.651477 439.448838)scale(0.1 -0.1)">
       <use xlink:href="#DejaVuSans-30"/>
      </g>
     </g>
    </g>
    <g id="xtick_9">
     <g id="line2d_14">
      <g>
       <use style="stroke:#000000;stroke-width:0.8;" x="123.818031" xlink:href="#mf36fe1a5c0" y="424.8504"/>
      </g>
     </g>
     <g id="text_14">
      <!-- 100 -->
      <g transform="translate(114.274281 439.448838)scale(0.1 -0.1)">
       <use xlink:href="#DejaVuSans-31"/>
       <use x="63.623047" xlink:href="#DejaVuSans-30"/>
       <use x="127.246094" xlink:href="#DejaVuSans-30"/>
      </g>
     </g>
    </g>
    <g id="xtick_10">
     <g id="line2d_15">
      <g>
       <use style="stroke:#000000;stroke-width:0.8;" x="173.803334" xlink:href="#mf36fe1a5c0" y="424.8504"/>
      </g>
     </g>
     <g id="text_15">
      <!-- 200 -->
      <g transform="translate(164.259584 439.448838)scale(0.1 -0.1)">
       <use xlink:href="#DejaVuSans-32"/>
       <use x="63.623047" xlink:href="#DejaVuSans-30"/>
       <use x="127.246094" xlink:href="#DejaVuSans-30"/>
      </g>
     </g>
    </g>
    <g id="xtick_11">
     <g id="line2d_16">
      <g>
       <use style="stroke:#000000;stroke-width:0.8;" x="223.788637" xlink:href="#mf36fe1a5c0" y="424.8504"/>
      </g>
     </g>
     <g id="text_16">
      <!-- 300 -->
      <g transform="translate(214.244887 439.448838)scale(0.1 -0.1)">
       <use xlink:href="#DejaVuSans-33"/>
       <use x="63.623047" xlink:href="#DejaVuSans-30"/>
       <use x="127.246094" xlink:href="#DejaVuSans-30"/>
      </g>
     </g>
    </g>
    <g id="xtick_12">
     <g id="line2d_17">
      <g>
       <use style="stroke:#000000;stroke-width:0.8;" x="273.773941" xlink:href="#mf36fe1a5c0" y="424.8504"/>
      </g>
     </g>
     <g id="text_17">
      <!-- 400 -->
      <g transform="translate(264.230191 439.448838)scale(0.1 -0.1)">
       <use xlink:href="#DejaVuSans-34"/>
       <use x="63.623047" xlink:href="#DejaVuSans-30"/>
       <use x="127.246094" xlink:href="#DejaVuSans-30"/>
      </g>
     </g>
    </g>
    <g id="xtick_13">
     <g id="line2d_18">
      <g>
       <use style="stroke:#000000;stroke-width:0.8;" x="323.759244" xlink:href="#mf36fe1a5c0" y="424.8504"/>
      </g>
     </g>
     <g id="text_18">
      <!-- 500 -->
      <g transform="translate(314.215494 439.448838)scale(0.1 -0.1)">
       <use xlink:href="#DejaVuSans-35"/>
       <use x="63.623047" xlink:href="#DejaVuSans-30"/>
       <use x="127.246094" xlink:href="#DejaVuSans-30"/>
      </g>
     </g>
    </g>
    <g id="xtick_14">
     <g id="line2d_19">
      <g>
       <use style="stroke:#000000;stroke-width:0.8;" x="373.744548" xlink:href="#mf36fe1a5c0" y="424.8504"/>
      </g>
     </g>
     <g id="text_19">
      <!-- 600 -->
      <g transform="translate(364.200798 439.448838)scale(0.1 -0.1)">
       <use xlink:href="#DejaVuSans-36"/>
       <use x="63.623047" xlink:href="#DejaVuSans-30"/>
       <use x="127.246094" xlink:href="#DejaVuSans-30"/>
      </g>
     </g>
    </g>
    <g id="text_20">
     <!-- Tiempo [s] -->
     <defs>
      <path d="M 30.609375 48.390625 
Q 23.390625 48.390625 19.1875 42.75 
Q 14.984375 37.109375 14.984375 27.296875 
Q 14.984375 17.484375 19.15625 11.84375 
Q 23.34375 6.203125 30.609375 6.203125 
Q 37.796875 6.203125 41.984375 11.859375 
Q 46.1875 17.53125 46.1875 27.296875 
Q 46.1875 37.015625 41.984375 42.703125 
Q 37.796875 48.390625 30.609375 48.390625 
z
M 30.609375 56 
Q 42.328125 56 49.015625 48.375 
Q 55.71875 40.765625 55.71875 27.296875 
Q 55.71875 13.875 49.015625 6.21875 
Q 42.328125 -1.421875 30.609375 -1.421875 
Q 18.84375 -1.421875 12.171875 6.21875 
Q 5.515625 13.875 5.515625 27.296875 
Q 5.515625 40.765625 12.171875 48.375 
Q 18.84375 56 30.609375 56 
z
" id="DejaVuSans-6f"/>
     </defs>
     <g transform="translate(209.443594 453.126963)scale(0.1 -0.1)">
      <use xlink:href="#DejaVuSans-54"/>
      <use x="61.037109" xlink:href="#DejaVuSans-69"/>
      <use x="88.820312" xlink:href="#DejaVuSans-65"/>
      <use x="150.34375" xlink:href="#DejaVuSans-6d"/>
      <use x="247.755859" xlink:href="#DejaVuSans-70"/>
      <use x="311.232422" xlink:href="#DejaVuSans-6f"/>
      <use x="372.414062" xlink:href="#DejaVuSans-20"/>
      <use x="404.201172" xlink:href="#DejaVuSans-5b"/>
      <use x="443.214844" xlink:href="#DejaVuSans-73"/>
      <use x="495.314453" xlink:href="#DejaVuSans-5d"/>
     </g>
    </g>
   </g>
   <g id="matplotlib.axis_4">
    <g id="ytick_5">
     <g id="line2d_20">
      <g>
       <use style="stroke:#000000;stroke-width:0.8;" x="57.6" xlink:href="#m70e6e9b75d" y="417.256416"/>
      </g>
     </g>
     <g id="text_21">
      <!-- 0.0 -->
      <defs>
       <path d="M 10.6875 12.40625 
L 21 12.40625 
L 21 0 
L 10.6875 0 
z
" id="DejaVuSans-2e"/>
      </defs>
      <g transform="translate(34.696875 421.055635)scale(0.1 -0.1)">
       <use xlink:href="#DejaVuSans-30"/>
       <use x="63.623047" xlink:href="#DejaVuSans-2e"/>
       <use x="95.410156" xlink:href="#DejaVuSans-30"/>
      </g>
     </g>
    </g>
    <g id="ytick_6">
     <g id="line2d_21">
      <g>
       <use style="stroke:#000000;stroke-width:0.8;" x="57.6" xlink:href="#m70e6e9b75d" y="386.848478"/>
      </g>
     </g>
     <g id="text_22">
      <!-- 0.2 -->
      <g transform="translate(34.696875 390.647697)scale(0.1 -0.1)">
       <use xlink:href="#DejaVuSans-30"/>
       <use x="63.623047" xlink:href="#DejaVuSans-2e"/>
       <use x="95.410156" xlink:href="#DejaVuSans-32"/>
      </g>
     </g>
    </g>
    <g id="ytick_7">
     <g id="line2d_22">
      <g>
       <use style="stroke:#000000;stroke-width:0.8;" x="57.6" xlink:href="#m70e6e9b75d" y="356.440539"/>
      </g>
     </g>
     <g id="text_23">
      <!-- 0.4 -->
      <g transform="translate(34.696875 360.239758)scale(0.1 -0.1)">
       <use xlink:href="#DejaVuSans-30"/>
       <use x="63.623047" xlink:href="#DejaVuSans-2e"/>
       <use x="95.410156" xlink:href="#DejaVuSans-34"/>
      </g>
     </g>
    </g>
    <g id="ytick_8">
     <g id="line2d_23">
      <g>
       <use style="stroke:#000000;stroke-width:0.8;" x="57.6" xlink:href="#m70e6e9b75d" y="326.032601"/>
      </g>
     </g>
     <g id="text_24">
      <!-- 0.6 -->
      <g transform="translate(34.696875 329.83182)scale(0.1 -0.1)">
       <use xlink:href="#DejaVuSans-30"/>
       <use x="63.623047" xlink:href="#DejaVuSans-2e"/>
       <use x="95.410156" xlink:href="#DejaVuSans-36"/>
      </g>
     </g>
    </g>
    <g id="ytick_9">
     <g id="line2d_24">
      <g>
       <use style="stroke:#000000;stroke-width:0.8;" x="57.6" xlink:href="#m70e6e9b75d" y="295.624662"/>
      </g>
     </g>
     <g id="text_25">
      <!-- 0.8 -->
      <g transform="translate(34.696875 299.423881)scale(0.1 -0.1)">
       <use xlink:href="#DejaVuSans-30"/>
       <use x="63.623047" xlink:href="#DejaVuSans-2e"/>
       <use x="95.410156" xlink:href="#DejaVuSans-38"/>
      </g>
     </g>
    </g>
    <g id="ytick_10">
     <g id="line2d_25">
      <g>
       <use style="stroke:#000000;stroke-width:0.8;" x="57.6" xlink:href="#m70e6e9b75d" y="265.216724"/>
      </g>
     </g>
     <g id="text_26">
      <!-- 1.0 -->
      <g transform="translate(34.696875 269.015943)scale(0.1 -0.1)">
       <use xlink:href="#DejaVuSans-31"/>
       <use x="63.623047" xlink:href="#DejaVuSans-2e"/>
       <use x="95.410156" xlink:href="#DejaVuSans-30"/>
      </g>
     </g>
    </g>
    <g id="text_27">
     <!-- Duty cycle -->
     <defs>
      <path d="M 19.671875 64.796875 
L 19.671875 8.109375 
L 31.59375 8.109375 
Q 46.6875 8.109375 53.6875 14.9375 
Q 60.6875 21.78125 60.6875 36.53125 
Q 60.6875 51.171875 53.6875 57.984375 
Q 46.6875 64.796875 31.59375 64.796875 
z
M 9.8125 72.90625 
L 30.078125 72.90625 
Q 51.265625 72.90625 61.171875 64.09375 
Q 71.09375 55.28125 71.09375 36.53125 
Q 71.09375 17.671875 61.125 8.828125 
Q 51.171875 0 30.078125 0 
L 9.8125 0 
z
" id="DejaVuSans-44"/>
      <path d="M 32.171875 -5.078125 
Q 28.375 -14.84375 24.75 -17.8125 
Q 21.140625 -20.796875 15.09375 -20.796875 
L 7.90625 -20.796875 
L 7.90625 -13.28125 
L 13.1875 -13.28125 
Q 16.890625 -13.28125 18.9375 -11.515625 
Q 21 -9.765625 23.484375 -3.21875 
L 25.09375 0.875 
L 2.984375 54.6875 
L 12.5 54.6875 
L 29.59375 11.921875 
L 46.6875 54.6875 
L 56.203125 54.6875 
z
" id="DejaVuSans-79"/>
      <path d="M 48.78125 52.59375 
L 48.78125 44.1875 
Q 44.96875 46.296875 41.140625 47.34375 
Q 37.3125 48.390625 33.40625 48.390625 
Q 24.65625 48.390625 19.8125 42.84375 
Q 14.984375 37.3125 14.984375 27.296875 
Q 14.984375 17.28125 19.8125 11.734375 
Q 24.65625 6.203125 33.40625 6.203125 
Q 37.3125 6.203125 41.140625 7.25 
Q 44.96875 8.296875 48.78125 10.40625 
L 48.78125 2.09375 
Q 45.015625 0.34375 40.984375 -0.53125 
Q 36.96875 -1.421875 32.421875 -1.421875 
Q 20.0625 -1.421875 12.78125 6.34375 
Q 5.515625 14.109375 5.515625 27.296875 
Q 5.515625 40.671875 12.859375 48.328125 
Q 20.21875 56 33.015625 56 
Q 37.15625 56 41.109375 55.140625 
Q 45.0625 54.296875 48.78125 52.59375 
z
" id="DejaVuSans-63"/>
     </defs>
     <g transform="translate(28.617187 367.763181)rotate(-90)scale(0.1 -0.1)">
      <use xlink:href="#DejaVuSans-44"/>
      <use x="77.001953" xlink:href="#DejaVuSans-75"/>
      <use x="140.380859" xlink:href="#DejaVuSans-74"/>
      <use x="179.589844" xlink:href="#DejaVuSans-79"/>
      <use x="238.769531" xlink:href="#DejaVuSans-20"/>
      <use x="270.556641" xlink:href="#DejaVuSans-63"/>
      <use x="325.537109" xlink:href="#DejaVuSans-79"/>
      <use x="384.716797" xlink:href="#DejaVuSans-63"/>
      <use x="439.697266" xlink:href="#DejaVuSans-6c"/>
      <use x="467.480469" xlink:href="#DejaVuSans-65"/>
     </g>
    </g>
   </g>
   <g id="line2d_26">
    <path clip-path="url(#p1a54429262)" d="M 73.832727 265.368764 
L 162.306714 265.368764 
L 162.556641 294.588896 
L 162.806567 305.85169 
L 163.556347 359.193647 
L 163.806273 388.490348 
L 164.306126 417.256036 
L 248.531363 417.256036 
L 249.031216 406.214334 
L 249.281142 391.680243 
L 249.531069 389.995024 
L 249.780995 370.524927 
L 250.030922 373.810048 
L 250.530775 346.274304 
L 250.780701 340.189245 
L 251.280554 313.140471 
L 251.530481 310.298712 
L 251.780407 297.098153 
L 252.030334 292.369234 
L 252.28026 280.260113 
L 252.530187 276.270602 
L 252.780113 265.368764 
L 266.276145 265.368764 
L 266.775998 266.748882 
L 267.025925 278.928242 
L 267.275851 276.903396 
L 267.525778 291.041568 
L 267.775704 281.047359 
L 268.025631 298.146989 
L 268.275557 298.290148 
L 268.525484 304.073131 
L 268.77541 300.01987 
L 269.275263 326.083717 
L 269.52519 323.436175 
L 270.025043 331.971913 
L 270.27497 334.646976 
L 270.524896 343.373107 
L 270.774823 346.044968 
L 271.024749 344.68977 
L 271.524602 369.456493 
L 271.774529 367.833119 
L 272.024455 359.312563 
L 272.274382 372.248804 
L 272.524308 368.119535 
L 272.774235 383.207337 
L 273.024161 375.202664 
L 273.274088 386.438689 
L 273.524014 382.585126 
L 273.773941 394.320558 
L 274.023867 385.359145 
L 274.52372 395.67573 
L 274.773647 390.222558 
L 275.023573 399.603033 
L 275.2735 399.403412 
L 275.523426 402.854118 
L 275.773353 402.446527 
L 276.023279 398.53635 
L 276.273206 405.096254 
L 276.523132 408.381127 
L 276.773059 400.23314 
L 277.022986 405.592987 
L 277.272912 398.659503 
L 277.522839 397.910174 
L 277.772765 399.099054 
L 278.022692 409.697112 
L 278.272618 402.232968 
L 278.522545 406.838155 
L 278.772471 400.652723 
L 279.272324 404.79072 
L 279.522251 395.274484 
L 279.772177 397.585099 
L 280.022104 402.841472 
L 280.27203 384.358526 
L 280.521957 391.18589 
L 280.771883 387.373721 
L 281.02181 397.361362 
L 281.271736 375.331 
L 281.771589 379.300996 
L 282.021516 371.436741 
L 282.271442 378.247121 
L 282.521369 363.225199 
L 282.771295 369.860239 
L 283.021222 362.655574 
L 283.271148 361.947705 
L 283.521075 347.214563 
L 283.771001 353.041025 
L 284.020928 352.102997 
L 284.270855 355.0634 
L 284.520781 339.590791 
L 284.770708 349.966958 
L 285.020634 346.966969 
L 285.270561 348.729827 
L 285.520487 343.500907 
L 285.770414 335.699374 
L 286.02034 335.956113 
L 286.270267 340.111253 
L 286.520193 330.149634 
L 286.77012 333.034646 
L 287.020046 331.162882 
L 287.269973 265.368764 
L 287.519899 315.465116 
L 287.769826 325.331259 
L 288.269679 319.370104 
L 288.519605 320.885758 
L 288.769532 312.985595 
L 289.019458 320.386845 
L 289.269385 316.574419 
L 289.519311 317.731973 
L 289.769238 317.396176 
L 290.019164 319.664037 
L 290.269091 317.92706 
L 290.519017 317.136146 
L 290.768944 319.219903 
L 291.01887 317.716525 
L 291.268797 311.62654 
L 291.518723 325.019375 
L 291.76865 325.101189 
L 292.018577 327.649182 
L 292.268503 326.177024 
L 292.51843 331.657108 
L 292.768356 318.381429 
L 293.018283 332.313116 
L 293.268209 337.94617 
L 293.518136 346.251755 
L 293.768062 331.788516 
L 294.017989 337.13378 
L 294.267915 349.024644 
L 294.517842 335.328745 
L 295.267621 348.787878 
L 295.517548 338.074822 
L 295.767474 342.367884 
L 296.017401 341.012777 
L 296.267327 351.09397 
L 296.517254 347.717362 
L 296.76718 342.513947 
L 297.017107 346.395645 
L 297.267033 265.368764 
L 297.51696 338.360682 
L 297.766886 343.12459 
L 298.016813 334.550504 
L 298.266739 348.455479 
L 298.516666 337.892402 
L 298.766592 349.029173 
L 299.016519 338.985541 
L 299.266446 345.084385 
L 299.516372 347.070488 
L 299.766299 343.368796 
L 300.016225 352.768986 
L 300.516078 345.985681 
L 300.766005 349.76064 
L 301.015931 343.959722 
L 301.265858 346.633107 
L 301.515784 406.933982 
L 301.765711 343.056873 
L 302.015637 360.343045 
L 302.265564 338.23077 
L 302.51549 345.705642 
L 302.765417 338.27539 
L 303.015343 347.140017 
L 303.26527 343.725219 
L 303.515196 346.585041 
L 303.765123 339.523745 
L 304.015049 345.574111 
L 304.264976 344.634763 
L 304.514902 340.169111 
L 304.764829 341.15966 
L 305.014755 343.765995 
L 305.264682 342.53165 
L 305.514608 343.068067 
L 305.764535 337.060737 
L 306.264388 343.485937 
L 306.514315 341.943884 
L 306.764241 351.300741 
L 307.014168 341.990178 
L 307.264094 351.560746 
L 307.514021 345.596719 
L 307.763947 352.656249 
L 308.013874 343.79844 
L 308.2638 355.582776 
L 308.513727 351.049593 
L 308.763653 360.710388 
L 309.01358 365.126779 
L 309.263506 360.039398 
L 309.513433 359.073311 
L 309.763359 367.526151 
L 310.013286 354.455204 
L 310.263212 371.707998 
L 310.513139 370.361708 
L 311.012992 352.757667 
L 311.262918 373.035025 
L 311.512845 372.182012 
L 311.762771 378.243378 
L 312.012698 374.94204 
L 312.262624 369.414315 
L 312.512551 388.204988 
L 312.762477 376.271082 
L 313.26233 387.000111 
L 313.512257 388.181574 
L 313.762183 385.070291 
L 314.01211 394.264838 
L 314.262037 388.122053 
L 314.511963 384.944138 
L 314.76189 385.156304 
L 315.011816 387.048496 
L 315.261743 398.586277 
L 315.511669 389.033883 
L 315.761596 414.391629 
L 316.011522 387.26083 
L 316.261449 417.256036 
L 316.511375 389.947461 
L 316.761302 399.792266 
L 317.261155 398.255088 
L 317.511081 394.683005 
L 317.761008 402.844793 
L 318.010934 398.776741 
L 318.260861 402.004287 
L 318.510787 397.636303 
L 318.760714 397.414795 
L 319.260567 388.61857 
L 319.510493 392.470057 
L 319.76042 383.395843 
L 320.010346 390.715497 
L 320.260273 377.223796 
L 320.510199 387.041391 
L 320.760126 378.058363 
L 321.010052 379.921551 
L 321.259979 379.990589 
L 322.009759 368.221983 
L 322.259685 369.645129 
L 322.509612 367.830539 
L 322.759538 371.296418 
L 323.009465 355.019381 
L 323.259391 360.422545 
L 323.509318 352.401255 
L 323.759244 360.936137 
L 324.009171 344.194834 
L 324.259097 358.669205 
L 324.509024 349.559797 
L 325.008877 356.190014 
L 325.258803 344.812021 
L 325.50873 355.613815 
L 325.758656 352.451014 
L 326.008583 338.028003 
L 326.258509 350.22658 
L 326.508436 349.540425 
L 326.758362 349.300625 
L 327.008289 347.952609 
L 327.258215 347.506364 
L 327.508142 355.113636 
L 327.758068 348.186056 
L 328.007995 364.813273 
L 328.257921 347.981381 
L 328.507848 355.038882 
L 328.757775 339.150093 
L 329.007701 348.410358 
L 329.257628 348.02234 
L 329.507554 352.40321 
L 330.007407 348.665086 
L 330.257334 351.824276 
L 330.50726 351.724286 
L 330.757187 352.518142 
L 331.007113 350.236115 
L 331.25704 348.989242 
L 331.506966 336.944275 
L 331.756893 357.669608 
L 332.006819 347.402759 
L 332.256746 354.720655 
L 332.506672 344.414179 
L 332.756599 351.661496 
L 333.006525 342.222579 
L 333.256452 352.515333 
L 333.506378 351.082322 
L 333.756305 352.7033 
L 334.006231 347.46406 
L 334.256158 353.457039 
L 334.506084 349.758341 
L 334.756011 349.221687 
L 335.005937 359.688794 
L 335.255864 348.185221 
L 335.50579 352.643039 
L 335.755717 352.631692 
L 336.25557 355.466829 
L 336.505497 354.863692 
L 336.755423 361.678229 
L 337.00535 417.256036 
L 337.255276 372.23487 
L 337.505203 357.214413 
L 337.755129 371.702417 
L 338.005056 357.077772 
L 338.254982 369.029616 
L 338.504909 372.242784 
L 339.004762 364.755575 
L 339.254688 369.733645 
L 339.504615 364.603023 
L 339.754541 366.401017 
L 340.004468 361.855605 
L 340.254394 404.903822 
L 340.504321 370.669189 
L 340.754247 370.248181 
L 341.004174 367.955026 
L 341.2541 358.32312 
L 341.504027 367.460555 
L 341.753953 370.443443 
L 342.00388 366.622067 
L 342.253806 360.450491 
L 342.503733 368.30416 
L 342.753659 354.709615 
L 343.003586 361.865477 
L 343.253512 374.854657 
L 343.503439 358.963861 
L 343.753366 360.080856 
L 344.003292 349.462396 
L 344.253219 356.579172 
L 344.503145 356.845656 
L 344.753072 363.70658 
L 345.002998 353.38521 
L 345.252925 359.145397 
L 345.502851 343.963358 
L 345.752778 346.576905 
L 346.002704 305.631599 
L 346.252631 344.462774 
L 346.502557 333.897252 
L 347.00241 352.194947 
L 347.252337 330.996591 
L 347.502263 345.018119 
L 347.75219 340.375246 
L 348.002116 347.591372 
L 348.252043 343.73773 
L 348.501969 347.31615 
L 348.751896 339.855996 
L 349.001822 346.415016 
L 349.251749 265.368764 
L 349.501675 345.188867 
L 349.751602 338.290416 
L 350.001528 340.02549 
L 350.251455 339.489106 
L 350.501381 333.629487 
L 350.751308 342.292817 
L 351.001235 335.881244 
L 351.251161 338.708413 
L 351.501088 332.327196 
L 351.751014 345.666225 
L 352.000941 334.894315 
L 352.250867 337.959719 
L 352.500794 328.036527 
L 352.75072 342.388669 
L 353.000647 342.537741 
L 353.250573 325.519474 
L 353.5005 341.900053 
L 353.750426 337.833267 
L 354.000353 342.271198 
L 354.250279 336.562576 
L 354.500206 342.968175 
L 354.750132 339.894642 
L 355.000059 342.452292 
L 355.249985 331.021812 
L 355.499912 347.382323 
L 355.749838 341.977998 
L 355.999765 333.769911 
L 356.249691 339.500012 
L 356.499618 335.893906 
L 356.749544 346.542666 
L 356.999471 265.368764 
L 357.249397 343.791253 
L 357.499324 330.076873 
L 357.999177 341.784848 
L 358.249104 342.081955 
L 358.49903 339.585886 
L 358.748957 334.003139 
L 358.998883 339.018414 
L 359.24881 336.74467 
L 359.498736 346.014591 
L 359.748663 346.910574 
L 359.998589 343.710057 
L 360.248516 338.062681 
L 360.748369 343.493193 
L 360.998295 345.413145 
L 361.248222 348.733677 
L 361.498148 341.815155 
L 361.748075 346.995243 
L 361.998001 345.074005 
L 362.247928 350.586772 
L 362.497854 342.903781 
L 362.747781 354.966756 
L 362.997707 342.53916 
L 363.247634 346.658943 
L 363.49756 361.485875 
L 363.997413 344.317516 
L 364.24734 346.585041 
L 364.497266 347.320187 
L 364.747193 347.209219 
L 364.997119 348.157898 
L 365.247046 347.873711 
L 365.496972 350.193691 
L 365.746899 347.320949 
L 365.996826 357.320226 
L 366.246752 349.040629 
L 366.496679 345.664441 
L 366.746605 359.858373 
L 366.996532 354.845909 
L 367.246458 356.759758 
L 367.496385 352.828415 
L 367.996238 355.949034 
L 368.246164 357.087079 
L 368.496091 360.449927 
L 368.746017 357.981877 
L 368.995944 365.559745 
L 369.24587 358.307733 
L 369.495797 370.86853 
L 369.745723 363.511545 
L 369.99565 373.882827 
L 370.245576 369.434218 
L 370.495503 373.217369 
L 370.745429 374.052189 
L 370.995356 380.211889 
L 371.245282 376.839792 
L 371.495209 417.256036 
L 371.745135 385.25116 
L 371.995062 379.903233 
L 372.244988 389.774537 
L 372.494915 384.922279 
L 372.744841 389.917599 
L 372.994768 378.301989 
L 373.244695 387.982222 
L 373.494621 383.468386 
L 373.744548 385.760998 
L 374.244401 387.329554 
L 374.494327 390.908145 
L 374.744254 384.947583 
L 374.99418 391.42495 
L 375.244107 384.421549 
L 375.494033 390.022058 
L 375.74396 377.150168 
L 376.243813 386.711895 
L 376.493739 383.99215 
L 376.743666 385.726559 
L 376.993592 386.316835 
L 377.243519 385.315996 
L 377.493445 377.935597 
L 377.743372 375.647764 
L 377.993298 377.186617 
L 378.243225 385.496057 
L 378.493151 372.047752 
L 378.743078 379.29964 
L 378.993004 377.693586 
L 379.242931 374.688597 
L 379.492857 369.583485 
L 379.742784 368.982948 
L 379.99271 369.871456 
L 380.242637 361.019003 
L 380.492564 369.420171 
L 380.74249 357.121085 
L 380.992417 361.268116 
L 381.242343 358.923017 
L 381.49227 358.252711 
L 381.742196 354.319518 
L 381.992123 346.30424 
L 382.242049 417.256036 
L 382.491976 349.573113 
L 382.741902 352.751685 
L 382.991829 343.120951 
L 383.241755 353.913057 
L 383.491682 340.656012 
L 383.741608 346.540136 
L 383.991535 265.368764 
L 384.241461 336.396869 
L 384.491388 341.955789 
L 384.741314 326.108185 
L 384.991241 332.993819 
L 385.241167 323.150242 
L 385.491094 328.802563 
L 385.74102 329.431161 
L 386.240873 326.171012 
L 386.4908 317.907576 
L 386.740726 319.840965 
L 386.990653 319.73865 
L 387.240579 315.898592 
L 387.490506 417.256036 
L 387.740433 330.790822 
L 387.990359 325.288083 
L 388.240286 329.100944 
L 388.490212 328.850979 
L 388.740139 322.12016 
L 388.990065 324.522542 
L 389.239992 317.342797 
L 389.489918 329.392174 
L 389.739845 320.567511 
L 389.989771 328.400611 
L 390.239698 322.323008 
L 390.489624 333.664587 
L 390.739551 323.394213 
L 390.989477 328.465478 
L 391.239404 323.647835 
L 391.48933 331.20699 
L 391.739257 265.368764 
L 391.989183 327.403347 
L 392.23911 325.237959 
L 392.489036 326.789916 
L 392.738963 329.541752 
L 392.988889 329.294714 
L 393.238816 337.38668 
L 393.488742 327.90365 
L 393.738669 336.806501 
L 394.238522 346.509814 
L 394.488448 302.215276 
L 394.738375 343.984192 
L 394.988301 337.912892 
L 395.238228 341.536558 
L 395.488155 347.804315 
L 395.738081 349.10598 
L 395.988008 343.238402 
L 396.237934 345.190833 
L 396.487861 356.053213 
L 396.737787 349.437852 
L 396.987714 362.495336 
L 397.23764 354.037166 
L 397.487567 359.485753 
L 397.737493 359.382797 
L 397.98742 371.533904 
L 398.237346 364.695826 
L 398.487273 366.242512 
L 398.487273 366.242512 
" style="fill:none;stroke:#1f77b4;stroke-linecap:square;stroke-width:1.5;"/>
   </g>
   <g id="patch_8">
    <path d="M 57.6 424.8504 
L 57.6 257.7744 
" style="fill:none;stroke:#000000;stroke-linecap:square;stroke-linejoin:miter;stroke-width:0.8;"/>
   </g>
   <g id="patch_9">
    <path d="M 414.72 424.8504 
L 414.72 257.7744 
" style="fill:none;stroke:#000000;stroke-linecap:square;stroke-linejoin:miter;stroke-width:0.8;"/>
   </g>
   <g id="patch_10">
    <path d="M 57.6 424.8504 
L 414.72 424.8504 
" style="fill:none;stroke:#000000;stroke-linecap:square;stroke-linejoin:miter;stroke-width:0.8;"/>
   </g>
   <g id="patch_11">
    <path d="M 57.6 257.7744 
L 414.72 257.7744 
" style="fill:none;stroke:#000000;stroke-linecap:square;stroke-linejoin:miter;stroke-width:0.8;"/>
   </g>
  </g>
 </g>
 <defs>
  <clipPath id="p92cbe6e6f5">
   <rect height="167.076" width="357.12" x="57.6" y="57.2832"/>
  </clipPath>
  <clipPath id="p1a54429262">
   <rect height="167.076" width="357.12" x="57.6" y="257.7744"/>
  </clipPath>
 </defs>
</svg>
