<?xml version="1.0" encoding="utf-8" standalone="no"?>
<!DOCTYPE svg PUBLIC "-//W3C//DTD SVG 1.1//EN"
  "http://www.w3.org/Graphics/SVG/1.1/DTD/svg11.dtd">
<!-- Created with matplotlib (http://matplotlib.org/) -->
<svg height="696.96pt" version="1.1" viewBox="0 0 460.8 696.96" width="460.8pt" xmlns="http://www.w3.org/2000/svg" xmlns:xlink="http://www.w3.org/1999/xlink">
 <defs>
  <style type="text/css">
*{stroke-linecap:butt;stroke-linejoin:round;}
  </style>
 </defs>
 <g id="figure_1">
  <g id="patch_1">
   <path d="M 0 696.96 
L 460.8 696.96 
L 460.8 0 
L 0 0 
z
" style="fill:#ffffff;"/>
  </g>
  <g id="axes_1">
   <g id="patch_2">
    <path d="M 57.6 327.5712 
L 414.72 327.5712 
L 414.72 83.6352 
L 57.6 83.6352 
z
" style="fill:#ffffff;"/>
   </g>
   <g id="matplotlib.axis_1">
    <g id="xtick_1">
     <g id="line2d_1">
      <defs>
       <path d="M 0 0 
L 0 3.5 
" id="me99ab4e11c" style="stroke:#000000;stroke-width:0.8;"/>
      </defs>
      <g>
       <use style="stroke:#000000;stroke-width:0.8;" x="73.832727" xlink:href="#me99ab4e11c" y="327.5712"/>
      </g>
     </g>
     <g id="text_1">
      <!-- 0 -->
      <defs>
       <path d="M 31.78125 66.40625 
Q 24.171875 66.40625 20.328125 58.90625 
Q 16.5 51.421875 16.5 36.375 
Q 16.5 21.390625 20.328125 13.890625 
Q 24.171875 6.390625 31.78125 6.390625 
Q 39.453125 6.390625 43.28125 13.890625 
Q 47.125 21.390625 47.125 36.375 
Q 47.125 51.421875 43.28125 58.90625 
Q 39.453125 66.40625 31.78125 66.40625 
z
M 31.78125 74.21875 
Q 44.046875 74.21875 50.515625 64.515625 
Q 56.984375 54.828125 56.984375 36.375 
Q 56.984375 17.96875 50.515625 8.265625 
Q 44.046875 -1.421875 31.78125 -1.421875 
Q 19.53125 -1.421875 13.0625 8.265625 
Q 6.59375 17.96875 6.59375 36.375 
Q 6.59375 54.828125 13.0625 64.515625 
Q 19.53125 74.21875 31.78125 74.21875 
z
" id="DejaVuSans-30"/>
      </defs>
      <g transform="translate(70.651477 342.169637)scale(0.1 -0.1)">
       <use xlink:href="#DejaVuSans-30"/>
      </g>
     </g>
    </g>
    <g id="xtick_2">
     <g id="line2d_2">
      <g>
       <use style="stroke:#000000;stroke-width:0.8;" x="115.401811" xlink:href="#me99ab4e11c" y="327.5712"/>
      </g>
     </g>
     <g id="text_2">
      <!-- 100 -->
      <defs>
       <path d="M 12.40625 8.296875 
L 28.515625 8.296875 
L 28.515625 63.921875 
L 10.984375 60.40625 
L 10.984375 69.390625 
L 28.421875 72.90625 
L 38.28125 72.90625 
L 38.28125 8.296875 
L 54.390625 8.296875 
L 54.390625 0 
L 12.40625 0 
z
" id="DejaVuSans-31"/>
      </defs>
      <g transform="translate(105.858061 342.169637)scale(0.1 -0.1)">
       <use xlink:href="#DejaVuSans-31"/>
       <use x="63.623047" xlink:href="#DejaVuSans-30"/>
       <use x="127.246094" xlink:href="#DejaVuSans-30"/>
      </g>
     </g>
    </g>
    <g id="xtick_3">
     <g id="line2d_3">
      <g>
       <use style="stroke:#000000;stroke-width:0.8;" x="156.970895" xlink:href="#me99ab4e11c" y="327.5712"/>
      </g>
     </g>
     <g id="text_3">
      <!-- 200 -->
      <defs>
       <path d="M 19.1875 8.296875 
L 53.609375 8.296875 
L 53.609375 0 
L 7.328125 0 
L 7.328125 8.296875 
Q 12.9375 14.109375 22.625 23.890625 
Q 32.328125 33.6875 34.8125 36.53125 
Q 39.546875 41.84375 41.421875 45.53125 
Q 43.3125 49.21875 43.3125 52.78125 
Q 43.3125 58.59375 39.234375 62.25 
Q 35.15625 65.921875 28.609375 65.921875 
Q 23.96875 65.921875 18.8125 64.3125 
Q 13.671875 62.703125 7.8125 59.421875 
L 7.8125 69.390625 
Q 13.765625 71.78125 18.9375 73 
Q 24.125 74.21875 28.421875 74.21875 
Q 39.75 74.21875 46.484375 68.546875 
Q 53.21875 62.890625 53.21875 53.421875 
Q 53.21875 48.921875 51.53125 44.890625 
Q 49.859375 40.875 45.40625 35.40625 
Q 44.1875 33.984375 37.640625 27.21875 
Q 31.109375 20.453125 19.1875 8.296875 
z
" id="DejaVuSans-32"/>
      </defs>
      <g transform="translate(147.427145 342.169637)scale(0.1 -0.1)">
       <use xlink:href="#DejaVuSans-32"/>
       <use x="63.623047" xlink:href="#DejaVuSans-30"/>
       <use x="127.246094" xlink:href="#DejaVuSans-30"/>
      </g>
     </g>
    </g>
    <g id="xtick_4">
     <g id="line2d_4">
      <g>
       <use style="stroke:#000000;stroke-width:0.8;" x="198.539979" xlink:href="#me99ab4e11c" y="327.5712"/>
      </g>
     </g>
     <g id="text_4">
      <!-- 300 -->
      <defs>
       <path d="M 40.578125 39.3125 
Q 47.65625 37.796875 51.625 33 
Q 55.609375 28.21875 55.609375 21.1875 
Q 55.609375 10.40625 48.1875 4.484375 
Q 40.765625 -1.421875 27.09375 -1.421875 
Q 22.515625 -1.421875 17.65625 -0.515625 
Q 12.796875 0.390625 7.625 2.203125 
L 7.625 11.71875 
Q 11.71875 9.328125 16.59375 8.109375 
Q 21.484375 6.890625 26.8125 6.890625 
Q 36.078125 6.890625 40.9375 10.546875 
Q 45.796875 14.203125 45.796875 21.1875 
Q 45.796875 27.640625 41.28125 31.265625 
Q 36.765625 34.90625 28.71875 34.90625 
L 20.21875 34.90625 
L 20.21875 43.015625 
L 29.109375 43.015625 
Q 36.375 43.015625 40.234375 45.921875 
Q 44.09375 48.828125 44.09375 54.296875 
Q 44.09375 59.90625 40.109375 62.90625 
Q 36.140625 65.921875 28.71875 65.921875 
Q 24.65625 65.921875 20.015625 65.03125 
Q 15.375 64.15625 9.8125 62.3125 
L 9.8125 71.09375 
Q 15.4375 72.65625 20.34375 73.4375 
Q 25.25 74.21875 29.59375 74.21875 
Q 40.828125 74.21875 47.359375 69.109375 
Q 53.90625 64.015625 53.90625 55.328125 
Q 53.90625 49.265625 50.4375 45.09375 
Q 46.96875 40.921875 40.578125 39.3125 
z
" id="DejaVuSans-33"/>
      </defs>
      <g transform="translate(188.996229 342.169637)scale(0.1 -0.1)">
       <use xlink:href="#DejaVuSans-33"/>
       <use x="63.623047" xlink:href="#DejaVuSans-30"/>
       <use x="127.246094" xlink:href="#DejaVuSans-30"/>
      </g>
     </g>
    </g>
    <g id="xtick_5">
     <g id="line2d_5">
      <g>
       <use style="stroke:#000000;stroke-width:0.8;" x="240.109063" xlink:href="#me99ab4e11c" y="327.5712"/>
      </g>
     </g>
     <g id="text_5">
      <!-- 400 -->
      <defs>
       <path d="M 37.796875 64.3125 
L 12.890625 25.390625 
L 37.796875 25.390625 
z
M 35.203125 72.90625 
L 47.609375 72.90625 
L 47.609375 25.390625 
L 58.015625 25.390625 
L 58.015625 17.1875 
L 47.609375 17.1875 
L 47.609375 0 
L 37.796875 0 
L 37.796875 17.1875 
L 4.890625 17.1875 
L 4.890625 26.703125 
z
" id="DejaVuSans-34"/>
      </defs>
      <g transform="translate(230.565313 342.169637)scale(0.1 -0.1)">
       <use xlink:href="#DejaVuSans-34"/>
       <use x="63.623047" xlink:href="#DejaVuSans-30"/>
       <use x="127.246094" xlink:href="#DejaVuSans-30"/>
      </g>
     </g>
    </g>
    <g id="xtick_6">
     <g id="line2d_6">
      <g>
       <use style="stroke:#000000;stroke-width:0.8;" x="281.678147" xlink:href="#me99ab4e11c" y="327.5712"/>
      </g>
     </g>
     <g id="text_6">
      <!-- 500 -->
      <defs>
       <path d="M 10.796875 72.90625 
L 49.515625 72.90625 
L 49.515625 64.59375 
L 19.828125 64.59375 
L 19.828125 46.734375 
Q 21.96875 47.46875 24.109375 47.828125 
Q 26.265625 48.1875 28.421875 48.1875 
Q 40.625 48.1875 47.75 41.5 
Q 54.890625 34.8125 54.890625 23.390625 
Q 54.890625 11.625 47.5625 5.09375 
Q 40.234375 -1.421875 26.90625 -1.421875 
Q 22.3125 -1.421875 17.546875 -0.640625 
Q 12.796875 0.140625 7.71875 1.703125 
L 7.71875 11.625 
Q 12.109375 9.234375 16.796875 8.0625 
Q 21.484375 6.890625 26.703125 6.890625 
Q 35.15625 6.890625 40.078125 11.328125 
Q 45.015625 15.765625 45.015625 23.390625 
Q 45.015625 31 40.078125 35.4375 
Q 35.15625 39.890625 26.703125 39.890625 
Q 22.75 39.890625 18.8125 39.015625 
Q 14.890625 38.140625 10.796875 36.28125 
z
" id="DejaVuSans-35"/>
      </defs>
      <g transform="translate(272.134397 342.169637)scale(0.1 -0.1)">
       <use xlink:href="#DejaVuSans-35"/>
       <use x="63.623047" xlink:href="#DejaVuSans-30"/>
       <use x="127.246094" xlink:href="#DejaVuSans-30"/>
      </g>
     </g>
    </g>
    <g id="xtick_7">
     <g id="line2d_7">
      <g>
       <use style="stroke:#000000;stroke-width:0.8;" x="323.247231" xlink:href="#me99ab4e11c" y="327.5712"/>
      </g>
     </g>
     <g id="text_7">
      <!-- 600 -->
      <defs>
       <path d="M 33.015625 40.375 
Q 26.375 40.375 22.484375 35.828125 
Q 18.609375 31.296875 18.609375 23.390625 
Q 18.609375 15.53125 22.484375 10.953125 
Q 26.375 6.390625 33.015625 6.390625 
Q 39.65625 6.390625 43.53125 10.953125 
Q 47.40625 15.53125 47.40625 23.390625 
Q 47.40625 31.296875 43.53125 35.828125 
Q 39.65625 40.375 33.015625 40.375 
z
M 52.59375 71.296875 
L 52.59375 62.3125 
Q 48.875 64.0625 45.09375 64.984375 
Q 41.3125 65.921875 37.59375 65.921875 
Q 27.828125 65.921875 22.671875 59.328125 
Q 17.53125 52.734375 16.796875 39.40625 
Q 19.671875 43.65625 24.015625 45.921875 
Q 28.375 48.1875 33.59375 48.1875 
Q 44.578125 48.1875 50.953125 41.515625 
Q 57.328125 34.859375 57.328125 23.390625 
Q 57.328125 12.15625 50.6875 5.359375 
Q 44.046875 -1.421875 33.015625 -1.421875 
Q 20.359375 -1.421875 13.671875 8.265625 
Q 6.984375 17.96875 6.984375 36.375 
Q 6.984375 53.65625 15.1875 63.9375 
Q 23.390625 74.21875 37.203125 74.21875 
Q 40.921875 74.21875 44.703125 73.484375 
Q 48.484375 72.75 52.59375 71.296875 
z
" id="DejaVuSans-36"/>
      </defs>
      <g transform="translate(313.703481 342.169637)scale(0.1 -0.1)">
       <use xlink:href="#DejaVuSans-36"/>
       <use x="63.623047" xlink:href="#DejaVuSans-30"/>
       <use x="127.246094" xlink:href="#DejaVuSans-30"/>
      </g>
     </g>
    </g>
    <g id="xtick_8">
     <g id="line2d_8">
      <g>
       <use style="stroke:#000000;stroke-width:0.8;" x="364.816315" xlink:href="#me99ab4e11c" y="327.5712"/>
      </g>
     </g>
     <g id="text_8">
      <!-- 700 -->
      <defs>
       <path d="M 8.203125 72.90625 
L 55.078125 72.90625 
L 55.078125 68.703125 
L 28.609375 0 
L 18.3125 0 
L 43.21875 64.59375 
L 8.203125 64.59375 
z
" id="DejaVuSans-37"/>
      </defs>
      <g transform="translate(355.272565 342.169637)scale(0.1 -0.1)">
       <use xlink:href="#DejaVuSans-37"/>
       <use x="63.623047" xlink:href="#DejaVuSans-30"/>
       <use x="127.246094" xlink:href="#DejaVuSans-30"/>
      </g>
     </g>
    </g>
    <g id="xtick_9">
     <g id="line2d_9">
      <g>
       <use style="stroke:#000000;stroke-width:0.8;" x="406.385399" xlink:href="#me99ab4e11c" y="327.5712"/>
      </g>
     </g>
     <g id="text_9">
      <!-- 800 -->
      <defs>
       <path d="M 31.78125 34.625 
Q 24.75 34.625 20.71875 30.859375 
Q 16.703125 27.09375 16.703125 20.515625 
Q 16.703125 13.921875 20.71875 10.15625 
Q 24.75 6.390625 31.78125 6.390625 
Q 38.8125 6.390625 42.859375 10.171875 
Q 46.921875 13.96875 46.921875 20.515625 
Q 46.921875 27.09375 42.890625 30.859375 
Q 38.875 34.625 31.78125 34.625 
z
M 21.921875 38.8125 
Q 15.578125 40.375 12.03125 44.71875 
Q 8.5 49.078125 8.5 55.328125 
Q 8.5 64.0625 14.71875 69.140625 
Q 20.953125 74.21875 31.78125 74.21875 
Q 42.671875 74.21875 48.875 69.140625 
Q 55.078125 64.0625 55.078125 55.328125 
Q 55.078125 49.078125 51.53125 44.71875 
Q 48 40.375 41.703125 38.8125 
Q 48.828125 37.15625 52.796875 32.3125 
Q 56.78125 27.484375 56.78125 20.515625 
Q 56.78125 9.90625 50.3125 4.234375 
Q 43.84375 -1.421875 31.78125 -1.421875 
Q 19.734375 -1.421875 13.25 4.234375 
Q 6.78125 9.90625 6.78125 20.515625 
Q 6.78125 27.484375 10.78125 32.3125 
Q 14.796875 37.15625 21.921875 38.8125 
z
M 18.3125 54.390625 
Q 18.3125 48.734375 21.84375 45.5625 
Q 25.390625 42.390625 31.78125 42.390625 
Q 38.140625 42.390625 41.71875 45.5625 
Q 45.3125 48.734375 45.3125 54.390625 
Q 45.3125 60.0625 41.71875 63.234375 
Q 38.140625 66.40625 31.78125 66.40625 
Q 25.390625 66.40625 21.84375 63.234375 
Q 18.3125 60.0625 18.3125 54.390625 
z
" id="DejaVuSans-38"/>
      </defs>
      <g transform="translate(396.841649 342.169637)scale(0.1 -0.1)">
       <use xlink:href="#DejaVuSans-38"/>
       <use x="63.623047" xlink:href="#DejaVuSans-30"/>
       <use x="127.246094" xlink:href="#DejaVuSans-30"/>
      </g>
     </g>
    </g>
   </g>
   <g id="matplotlib.axis_2">
    <g id="ytick_1">
     <g id="line2d_10">
      <defs>
       <path d="M 0 0 
L -3.5 0 
" id="m1059f9bdae" style="stroke:#000000;stroke-width:0.8;"/>
      </defs>
      <g>
       <use style="stroke:#000000;stroke-width:0.8;" x="57.6" xlink:href="#m1059f9bdae" y="306.569102"/>
      </g>
     </g>
     <g id="text_10">
      <!-- 26 -->
      <g transform="translate(37.875 310.368321)scale(0.1 -0.1)">
       <use xlink:href="#DejaVuSans-32"/>
       <use x="63.623047" xlink:href="#DejaVuSans-36"/>
      </g>
     </g>
    </g>
    <g id="ytick_2">
     <g id="line2d_11">
      <g>
       <use style="stroke:#000000;stroke-width:0.8;" x="57.6" xlink:href="#m1059f9bdae" y="266.91956"/>
      </g>
     </g>
     <g id="text_11">
      <!-- 28 -->
      <g transform="translate(37.875 270.718778)scale(0.1 -0.1)">
       <use xlink:href="#DejaVuSans-32"/>
       <use x="63.623047" xlink:href="#DejaVuSans-38"/>
      </g>
     </g>
    </g>
    <g id="ytick_3">
     <g id="line2d_12">
      <g>
       <use style="stroke:#000000;stroke-width:0.8;" x="57.6" xlink:href="#m1059f9bdae" y="227.270017"/>
      </g>
     </g>
     <g id="text_12">
      <!-- 30 -->
      <g transform="translate(37.875 231.069236)scale(0.1 -0.1)">
       <use xlink:href="#DejaVuSans-33"/>
       <use x="63.623047" xlink:href="#DejaVuSans-30"/>
      </g>
     </g>
    </g>
    <g id="ytick_4">
     <g id="line2d_13">
      <g>
       <use style="stroke:#000000;stroke-width:0.8;" x="57.6" xlink:href="#m1059f9bdae" y="187.620475"/>
      </g>
     </g>
     <g id="text_13">
      <!-- 32 -->
      <g transform="translate(37.875 191.419694)scale(0.1 -0.1)">
       <use xlink:href="#DejaVuSans-33"/>
       <use x="63.623047" xlink:href="#DejaVuSans-32"/>
      </g>
     </g>
    </g>
    <g id="ytick_5">
     <g id="line2d_14">
      <g>
       <use style="stroke:#000000;stroke-width:0.8;" x="57.6" xlink:href="#m1059f9bdae" y="147.970933"/>
      </g>
     </g>
     <g id="text_14">
      <!-- 34 -->
      <g transform="translate(37.875 151.770151)scale(0.1 -0.1)">
       <use xlink:href="#DejaVuSans-33"/>
       <use x="63.623047" xlink:href="#DejaVuSans-34"/>
      </g>
     </g>
    </g>
    <g id="ytick_6">
     <g id="line2d_15">
      <g>
       <use style="stroke:#000000;stroke-width:0.8;" x="57.6" xlink:href="#m1059f9bdae" y="108.32139"/>
      </g>
     </g>
     <g id="text_15">
      <!-- 36 -->
      <g transform="translate(37.875 112.120609)scale(0.1 -0.1)">
       <use xlink:href="#DejaVuSans-33"/>
       <use x="63.623047" xlink:href="#DejaVuSans-36"/>
      </g>
     </g>
    </g>
    <g id="text_16">
     <!-- Temperatura [Celsius] -->
     <defs>
      <path d="M -0.296875 72.90625 
L 61.375 72.90625 
L 61.375 64.59375 
L 35.5 64.59375 
L 35.5 0 
L 25.59375 0 
L 25.59375 64.59375 
L -0.296875 64.59375 
z
" id="DejaVuSans-54"/>
      <path d="M 56.203125 29.59375 
L 56.203125 25.203125 
L 14.890625 25.203125 
Q 15.484375 15.921875 20.484375 11.0625 
Q 25.484375 6.203125 34.421875 6.203125 
Q 39.59375 6.203125 44.453125 7.46875 
Q 49.3125 8.734375 54.109375 11.28125 
L 54.109375 2.78125 
Q 49.265625 0.734375 44.1875 -0.34375 
Q 39.109375 -1.421875 33.890625 -1.421875 
Q 20.796875 -1.421875 13.15625 6.1875 
Q 5.515625 13.8125 5.515625 26.8125 
Q 5.515625 40.234375 12.765625 48.109375 
Q 20.015625 56 32.328125 56 
Q 43.359375 56 49.78125 48.890625 
Q 56.203125 41.796875 56.203125 29.59375 
z
M 47.21875 32.234375 
Q 47.125 39.59375 43.09375 43.984375 
Q 39.0625 48.390625 32.421875 48.390625 
Q 24.90625 48.390625 20.390625 44.140625 
Q 15.875 39.890625 15.1875 32.171875 
z
" id="DejaVuSans-65"/>
      <path d="M 52 44.1875 
Q 55.375 50.25 60.0625 53.125 
Q 64.75 56 71.09375 56 
Q 79.640625 56 84.28125 50.015625 
Q 88.921875 44.046875 88.921875 33.015625 
L 88.921875 0 
L 79.890625 0 
L 79.890625 32.71875 
Q 79.890625 40.578125 77.09375 44.375 
Q 74.3125 48.1875 68.609375 48.1875 
Q 61.625 48.1875 57.5625 43.546875 
Q 53.515625 38.921875 53.515625 30.90625 
L 53.515625 0 
L 44.484375 0 
L 44.484375 32.71875 
Q 44.484375 40.625 41.703125 44.40625 
Q 38.921875 48.1875 33.109375 48.1875 
Q 26.21875 48.1875 22.15625 43.53125 
Q 18.109375 38.875 18.109375 30.90625 
L 18.109375 0 
L 9.078125 0 
L 9.078125 54.6875 
L 18.109375 54.6875 
L 18.109375 46.1875 
Q 21.1875 51.21875 25.484375 53.609375 
Q 29.78125 56 35.6875 56 
Q 41.65625 56 45.828125 52.96875 
Q 50 49.953125 52 44.1875 
z
" id="DejaVuSans-6d"/>
      <path d="M 18.109375 8.203125 
L 18.109375 -20.796875 
L 9.078125 -20.796875 
L 9.078125 54.6875 
L 18.109375 54.6875 
L 18.109375 46.390625 
Q 20.953125 51.265625 25.265625 53.625 
Q 29.59375 56 35.59375 56 
Q 45.5625 56 51.78125 48.09375 
Q 58.015625 40.1875 58.015625 27.296875 
Q 58.015625 14.40625 51.78125 6.484375 
Q 45.5625 -1.421875 35.59375 -1.421875 
Q 29.59375 -1.421875 25.265625 0.953125 
Q 20.953125 3.328125 18.109375 8.203125 
z
M 48.6875 27.296875 
Q 48.6875 37.203125 44.609375 42.84375 
Q 40.53125 48.484375 33.40625 48.484375 
Q 26.265625 48.484375 22.1875 42.84375 
Q 18.109375 37.203125 18.109375 27.296875 
Q 18.109375 17.390625 22.1875 11.75 
Q 26.265625 6.109375 33.40625 6.109375 
Q 40.53125 6.109375 44.609375 11.75 
Q 48.6875 17.390625 48.6875 27.296875 
z
" id="DejaVuSans-70"/>
      <path d="M 41.109375 46.296875 
Q 39.59375 47.171875 37.8125 47.578125 
Q 36.03125 48 33.890625 48 
Q 26.265625 48 22.1875 43.046875 
Q 18.109375 38.09375 18.109375 28.8125 
L 18.109375 0 
L 9.078125 0 
L 9.078125 54.6875 
L 18.109375 54.6875 
L 18.109375 46.1875 
Q 20.953125 51.171875 25.484375 53.578125 
Q 30.03125 56 36.53125 56 
Q 37.453125 56 38.578125 55.875 
Q 39.703125 55.765625 41.0625 55.515625 
z
" id="DejaVuSans-72"/>
      <path d="M 34.28125 27.484375 
Q 23.390625 27.484375 19.1875 25 
Q 14.984375 22.515625 14.984375 16.5 
Q 14.984375 11.71875 18.140625 8.90625 
Q 21.296875 6.109375 26.703125 6.109375 
Q 34.1875 6.109375 38.703125 11.40625 
Q 43.21875 16.703125 43.21875 25.484375 
L 43.21875 27.484375 
z
M 52.203125 31.203125 
L 52.203125 0 
L 43.21875 0 
L 43.21875 8.296875 
Q 40.140625 3.328125 35.546875 0.953125 
Q 30.953125 -1.421875 24.3125 -1.421875 
Q 15.921875 -1.421875 10.953125 3.296875 
Q 6 8.015625 6 15.921875 
Q 6 25.140625 12.171875 29.828125 
Q 18.359375 34.515625 30.609375 34.515625 
L 43.21875 34.515625 
L 43.21875 35.40625 
Q 43.21875 41.609375 39.140625 45 
Q 35.0625 48.390625 27.6875 48.390625 
Q 23 48.390625 18.546875 47.265625 
Q 14.109375 46.140625 10.015625 43.890625 
L 10.015625 52.203125 
Q 14.9375 54.109375 19.578125 55.046875 
Q 24.21875 56 28.609375 56 
Q 40.484375 56 46.34375 49.84375 
Q 52.203125 43.703125 52.203125 31.203125 
z
" id="DejaVuSans-61"/>
      <path d="M 18.3125 70.21875 
L 18.3125 54.6875 
L 36.8125 54.6875 
L 36.8125 47.703125 
L 18.3125 47.703125 
L 18.3125 18.015625 
Q 18.3125 11.328125 20.140625 9.421875 
Q 21.96875 7.515625 27.59375 7.515625 
L 36.8125 7.515625 
L 36.8125 0 
L 27.59375 0 
Q 17.1875 0 13.234375 3.875 
Q 9.28125 7.765625 9.28125 18.015625 
L 9.28125 47.703125 
L 2.6875 47.703125 
L 2.6875 54.6875 
L 9.28125 54.6875 
L 9.28125 70.21875 
z
" id="DejaVuSans-74"/>
      <path d="M 8.5 21.578125 
L 8.5 54.6875 
L 17.484375 54.6875 
L 17.484375 21.921875 
Q 17.484375 14.15625 20.5 10.265625 
Q 23.53125 6.390625 29.59375 6.390625 
Q 36.859375 6.390625 41.078125 11.03125 
Q 45.3125 15.671875 45.3125 23.6875 
L 45.3125 54.6875 
L 54.296875 54.6875 
L 54.296875 0 
L 45.3125 0 
L 45.3125 8.40625 
Q 42.046875 3.421875 37.71875 1 
Q 33.40625 -1.421875 27.6875 -1.421875 
Q 18.265625 -1.421875 13.375 4.4375 
Q 8.5 10.296875 8.5 21.578125 
z
M 31.109375 56 
z
" id="DejaVuSans-75"/>
      <path id="DejaVuSans-20"/>
      <path d="M 8.59375 75.984375 
L 29.296875 75.984375 
L 29.296875 69 
L 17.578125 69 
L 17.578125 -6.203125 
L 29.296875 -6.203125 
L 29.296875 -13.1875 
L 8.59375 -13.1875 
z
" id="DejaVuSans-5b"/>
      <path d="M 64.40625 67.28125 
L 64.40625 56.890625 
Q 59.421875 61.53125 53.78125 63.8125 
Q 48.140625 66.109375 41.796875 66.109375 
Q 29.296875 66.109375 22.65625 58.46875 
Q 16.015625 50.828125 16.015625 36.375 
Q 16.015625 21.96875 22.65625 14.328125 
Q 29.296875 6.6875 41.796875 6.6875 
Q 48.140625 6.6875 53.78125 8.984375 
Q 59.421875 11.28125 64.40625 15.921875 
L 64.40625 5.609375 
Q 59.234375 2.09375 53.4375 0.328125 
Q 47.65625 -1.421875 41.21875 -1.421875 
Q 24.65625 -1.421875 15.125 8.703125 
Q 5.609375 18.84375 5.609375 36.375 
Q 5.609375 53.953125 15.125 64.078125 
Q 24.65625 74.21875 41.21875 74.21875 
Q 47.75 74.21875 53.53125 72.484375 
Q 59.328125 70.75 64.40625 67.28125 
z
" id="DejaVuSans-43"/>
      <path d="M 9.421875 75.984375 
L 18.40625 75.984375 
L 18.40625 0 
L 9.421875 0 
z
" id="DejaVuSans-6c"/>
      <path d="M 44.28125 53.078125 
L 44.28125 44.578125 
Q 40.484375 46.53125 36.375 47.5 
Q 32.28125 48.484375 27.875 48.484375 
Q 21.1875 48.484375 17.84375 46.4375 
Q 14.5 44.390625 14.5 40.28125 
Q 14.5 37.15625 16.890625 35.375 
Q 19.28125 33.59375 26.515625 31.984375 
L 29.59375 31.296875 
Q 39.15625 29.25 43.1875 25.515625 
Q 47.21875 21.78125 47.21875 15.09375 
Q 47.21875 7.46875 41.1875 3.015625 
Q 35.15625 -1.421875 24.609375 -1.421875 
Q 20.21875 -1.421875 15.453125 -0.5625 
Q 10.6875 0.296875 5.421875 2 
L 5.421875 11.28125 
Q 10.40625 8.6875 15.234375 7.390625 
Q 20.0625 6.109375 24.8125 6.109375 
Q 31.15625 6.109375 34.5625 8.28125 
Q 37.984375 10.453125 37.984375 14.40625 
Q 37.984375 18.0625 35.515625 20.015625 
Q 33.0625 21.96875 24.703125 23.78125 
L 21.578125 24.515625 
Q 13.234375 26.265625 9.515625 29.90625 
Q 5.8125 33.546875 5.8125 39.890625 
Q 5.8125 47.609375 11.28125 51.796875 
Q 16.75 56 26.8125 56 
Q 31.78125 56 36.171875 55.265625 
Q 40.578125 54.546875 44.28125 53.078125 
z
" id="DejaVuSans-73"/>
      <path d="M 9.421875 54.6875 
L 18.40625 54.6875 
L 18.40625 0 
L 9.421875 0 
z
M 9.421875 75.984375 
L 18.40625 75.984375 
L 18.40625 64.59375 
L 9.421875 64.59375 
z
" id="DejaVuSans-69"/>
      <path d="M 30.421875 75.984375 
L 30.421875 -13.1875 
L 9.71875 -13.1875 
L 9.71875 -6.203125 
L 21.390625 -6.203125 
L 21.390625 69 
L 9.71875 69 
L 9.71875 75.984375 
z
" id="DejaVuSans-5d"/>
     </defs>
     <g transform="translate(31.795312 261.424294)rotate(-90)scale(0.1 -0.1)">
      <use xlink:href="#DejaVuSans-54"/>
      <use x="60.818359" xlink:href="#DejaVuSans-65"/>
      <use x="122.341797" xlink:href="#DejaVuSans-6d"/>
      <use x="219.753906" xlink:href="#DejaVuSans-70"/>
      <use x="283.230469" xlink:href="#DejaVuSans-65"/>
      <use x="344.753906" xlink:href="#DejaVuSans-72"/>
      <use x="385.867188" xlink:href="#DejaVuSans-61"/>
      <use x="447.146484" xlink:href="#DejaVuSans-74"/>
      <use x="486.355469" xlink:href="#DejaVuSans-75"/>
      <use x="549.734375" xlink:href="#DejaVuSans-72"/>
      <use x="590.847656" xlink:href="#DejaVuSans-61"/>
      <use x="652.126953" xlink:href="#DejaVuSans-20"/>
      <use x="683.914062" xlink:href="#DejaVuSans-5b"/>
      <use x="722.927734" xlink:href="#DejaVuSans-43"/>
      <use x="792.751953" xlink:href="#DejaVuSans-65"/>
      <use x="854.275391" xlink:href="#DejaVuSans-6c"/>
      <use x="882.058594" xlink:href="#DejaVuSans-73"/>
      <use x="934.158203" xlink:href="#DejaVuSans-69"/>
      <use x="961.941406" xlink:href="#DejaVuSans-75"/>
      <use x="1025.320312" xlink:href="#DejaVuSans-73"/>
      <use x="1077.419922" xlink:href="#DejaVuSans-5d"/>
     </g>
    </g>
   </g>
   <g id="line2d_16">
    <path clip-path="url(#pf22a631ac4)" d="M 73.832727 316.4832 
L 74.040573 314.642906 
L 74.456264 316.290171 
L 74.871954 315.4085 
L 75.0798 315.413717 
L 75.287645 314.968968 
L 75.495491 315.134607 
L 75.703336 315.845423 
L 75.911181 315.401978 
L 76.119027 315.657611 
L 76.326872 315.225905 
L 76.534718 315.400674 
L 76.742563 314.848977 
L 76.950409 313.934699 
L 77.366099 314.961142 
L 77.989636 314.556826 
L 78.197481 313.856444 
L 78.405327 315.039397 
L 78.613172 313.780798 
L 78.821017 315.3472 
L 79.028863 313.899485 
L 79.236708 314.448573 
L 79.444554 313.476908 
L 79.652399 314.740725 
L 79.860244 313.444302 
L 80.06809 313.431259 
L 80.275935 312.813046 
L 80.483781 312.9526 
L 80.691626 313.389524 
L 80.899472 312.47655 
L 81.107317 312.429597 
L 81.315162 311.46967 
L 81.523008 312.535241 
L 81.730853 311.216646 
L 81.938699 311.654874 
L 82.146544 310.084559 
L 82.354389 310.724945 
L 82.562235 309.04116 
L 82.77008 310.105427 
L 82.977926 308.724228 
L 83.185771 309.110286 
L 83.393617 308.032977 
L 83.601462 308.772485 
L 83.809307 308.299043 
L 84.224998 307.978198 
L 84.432844 307.605183 
L 84.640689 307.613009 
L 84.848535 305.952701 
L 85.05638 306.792637 
L 85.264225 304.808875 
L 85.472071 305.730979 
L 85.679916 304.348476 
L 85.887762 304.765835 
L 86.095607 304.232398 
L 86.303452 303.315511 
L 86.511298 303.271167 
L 86.719143 302.842069 
L 86.926989 303.102919 
L 87.134834 301.334358 
L 87.34268 302.180815 
L 87.550525 300.284439 
L 87.75837 301.412613 
L 87.966216 300.76701 
L 88.174061 301.172632 
L 88.381907 299.947943 
L 88.589752 299.908815 
L 88.797597 298.498923 
L 89.005443 298.818464 
L 89.213288 297.841582 
L 89.421134 298.34763 
L 89.628979 297.066859 
L 89.836825 297.531171 
L 90.04467 297.362923 
L 90.252515 295.596971 
L 90.460361 296.530813 
L 90.668206 296.200838 
L 90.876052 296.233444 
L 91.083897 295.040057 
L 91.499588 294.197513 
L 91.707433 294.291419 
L 91.915279 293.105857 
L 92.123124 293.593646 
L 92.33097 293.009343 
L 92.538815 293.215414 
L 92.74666 292.725017 
L 92.954506 291.469026 
L 93.162351 291.960727 
L 93.370197 290.931676 
L 93.993733 290.366936 
L 94.201578 289.152681 
L 94.409424 289.743506 
L 94.617269 288.960957 
L 94.825115 289.255717 
L 95.240805 287.279781 
L 95.448651 287.498895 
L 95.656496 287.294128 
L 96.072187 286.37072 
L 96.280033 286.194647 
L 96.487878 287.119358 
L 96.695723 285.185158 
L 96.903569 285.680773 
L 97.111414 284.808231 
L 97.527105 283.836566 
L 97.734951 283.236612 
L 97.942796 283.800047 
L 98.150641 282.975762 
L 98.358487 283.01489 
L 98.566332 282.240166 
L 98.774178 282.992717 
L 98.982023 282.035399 
L 99.189868 282.056267 
L 99.397714 280.668547 
L 99.605559 281.4524 
L 99.813405 279.382559 
L 100.02125 280.452042 
L 100.229096 279.034324 
L 100.436941 279.263872 
L 100.644786 278.614357 
L 100.852632 279.059105 
L 101.268323 277.900933 
L 101.476168 277.580088 
L 101.891859 277.711817 
L 102.30755 275.756749 
L 102.515395 276.77015 
L 102.931086 275.031587 
L 103.138931 275.408515 
L 103.346777 274.623357 
L 103.554622 274.363812 
L 103.762468 273.756032 
L 103.970313 274.336423 
L 104.178159 272.886099 
L 104.386004 273.392147 
L 104.801695 272.170067 
L 105.00954 272.074857 
L 105.425231 271.540115 
L 105.633076 271.699233 
L 105.840922 271.126668 
L 106.048767 271.118843 
L 106.880149 269.339848 
L 107.087994 269.290287 
L 107.711531 267.632588 
L 107.919376 267.712147 
L 108.127222 267.155233 
L 108.335067 267.521727 
L 108.542912 267.166971 
L 108.750758 267.230879 
L 108.958603 265.900546 
L 109.166449 266.24878 
L 109.374294 264.682378 
L 109.582139 264.943228 
L 109.789985 264.555866 
L 109.99783 264.429354 
L 110.205676 263.949391 
L 110.829212 263.530727 
L 111.452748 262.399944 
L 111.660594 262.131269 
L 111.868439 262.3556 
L 112.076284 261.480449 
L 112.491975 261.279595 
L 112.699821 261.111347 
L 112.907666 260.245326 
L 113.115512 260.336624 
L 113.323357 260.114902 
L 113.739048 258.963251 
L 113.946893 259.010203 
L 114.154739 258.736311 
L 114.57043 257.792036 
L 114.778275 258.545891 
L 114.98612 257.647264 
L 115.193966 257.313377 
L 115.401811 257.429455 
L 115.609657 257.010791 
L 115.817502 256.893409 
L 116.233193 256.117381 
L 116.441038 255.970001 
L 116.648884 255.466561 
L 116.856729 255.566988 
L 117.064575 254.664449 
L 117.27242 255.239622 
L 117.480265 255.299618 
L 117.895956 253.724086 
L 118.103802 254.29013 
L 118.311647 253.280642 
L 118.519492 253.154129 
L 118.727338 253.161955 
L 118.935183 252.53722 
L 119.143029 253.705826 
L 119.350874 252.005087 
L 119.55872 252.359842 
L 119.766565 251.792494 
L 119.97441 252.091167 
L 120.390101 250.982556 
L 120.597947 249.56223 
L 120.805792 250.755617 
L 121.013638 250.09958 
L 121.221483 250.952559 
L 121.429328 249.114873 
L 121.637174 249.910464 
L 121.845019 248.681863 
L 122.052865 249.246602 
L 122.26071 248.630997 
L 122.468555 248.604912 
L 122.676401 248.075387 
L 122.884246 248.02713 
L 123.299937 247.154588 
L 123.507783 247.026772 
L 123.715628 247.728457 
L 123.923473 245.975548 
L 124.131319 246.450294 
L 124.339164 245.502106 
L 124.54701 245.805996 
L 124.754855 245.076921 
L 124.962701 246.107277 
L 125.170546 244.360889 
L 125.378391 244.977798 
L 125.586237 244.140471 
L 125.794082 245.267341 
L 126.001928 244.037435 
L 126.209773 244.193945 
L 126.417618 243.384007 
L 126.625464 243.942225 
L 126.833309 242.866221 
L 127.041155 243.365748 
L 127.249 242.394083 
L 127.456846 243.213151 
L 127.664691 241.914119 
L 127.872536 242.57146 
L 128.080382 241.654574 
L 128.288227 241.801954 
L 128.703918 240.795075 
L 128.911763 241.685876 
L 129.119609 240.599437 
L 129.327454 240.635956 
L 129.5353 240.145559 
L 129.743145 240.111649 
L 129.950991 239.870363 
L 130.158836 239.078684 
L 130.366681 239.602992 
L 130.574527 239.065642 
L 130.782372 239.167373 
L 130.990218 238.02746 
L 131.198063 238.38352 
L 131.613754 237.740525 
L 131.821599 238.037894 
L 132.23729 236.738863 
L 132.445136 236.779295 
L 132.860826 235.544172 
L 133.068672 236.331938 
L 133.276517 235.369402 
L 133.484363 236.224989 
L 133.692208 235.083772 
L 133.900054 234.849007 
L 134.107899 234.264704 
L 134.315744 234.67163 
L 134.52359 234.276443 
L 134.731435 234.399042 
L 134.939281 234.279051 
L 135.354971 233.313907 
L 135.562817 233.383033 
L 135.770662 232.167473 
L 136.394199 233.123487 
L 136.602044 232.292681 
L 136.809889 232.269205 
L 137.017735 231.20233 
L 137.22558 231.956185 
L 137.433426 230.291965 
L 137.641271 231.348406 
L 137.849117 231.034082 
L 138.056962 231.021039 
L 138.264807 230.405434 
L 138.472653 230.156323 
L 138.680498 229.480722 
L 138.888344 229.818523 
L 139.096189 229.407684 
L 139.304034 228.567749 
L 139.51188 229.295519 
L 139.719725 227.970403 
L 139.927571 228.466017 
L 140.135416 227.899974 
L 140.343262 228.299074 
L 140.551107 226.842228 
L 140.758952 227.426532 
L 140.966798 226.291836 
L 141.174643 226.323138 
L 141.382489 226.158802 
L 141.590334 226.466605 
L 141.798179 225.770136 
L 142.006025 225.925342 
L 142.21387 225.198876 
L 142.421716 225.427119 
L 142.629561 225.215831 
L 142.837407 225.193659 
L 143.045252 224.028965 
L 143.253097 224.378504 
L 143.460943 223.532047 
L 143.668788 223.832024 
L 143.876634 223.629865 
L 144.084479 223.792896 
L 144.292325 223.089907 
L 144.50017 222.958178 
L 144.708015 221.918692 
L 144.915861 223.1186 
L 145.123706 221.417861 
L 145.331552 222.332138 
L 145.539397 221.27961 
L 145.747242 221.694361 
L 145.955088 220.013185 
L 146.162933 222.003468 
L 146.370779 220.759215 
L 146.578624 220.634007 
L 146.78647 219.824069 
L 146.994315 219.642779 
L 147.20216 218.934572 
L 147.410006 219.84885 
L 147.617851 219.096299 
L 147.825697 219.977971 
L 148.033542 218.311142 
L 148.241387 218.50417 
L 148.449233 218.371137 
L 148.657078 218.840666 
L 148.864924 217.896391 
L 149.072769 218.483302 
L 149.280615 217.112538 
L 149.48846 217.931605 
L 149.696305 216.468239 
L 149.904151 217.896391 
L 150.111996 216.365203 
L 150.319842 216.624749 
L 150.527687 215.963495 
L 150.735533 216.147394 
L 150.943378 216.020882 
L 151.151223 215.293111 
L 151.77476 214.45448 
L 151.982605 214.412744 
L 152.19045 214.557516 
L 152.398296 213.177621 
L 152.606141 213.945823 
L 152.813987 212.744611 
L 153.021832 213.606719 
L 153.229678 211.83555 
L 153.437523 212.267256 
L 153.645368 212.012928 
L 153.853214 212.453763 
L 154.061059 211.589047 
L 154.268905 212.464197 
L 154.47675 211.636 
L 154.684596 211.697299 
L 154.892441 210.567821 
L 155.723823 209.697887 
L 155.931668 210.216978 
L 156.139513 209.560941 
L 156.347359 209.469644 
L 156.555204 208.533194 
L 156.76305 209.538769 
L 156.970895 208.421028 
L 157.178741 209.401823 
L 157.386586 208.008886 
L 157.594431 207.768904 
L 157.802277 207.120693 
L 158.010122 207.77673 
L 158.217968 207.058089 
L 158.425813 207.213295 
L 158.633658 206.522043 
L 158.841504 206.944619 
L 159.049349 205.618199 
L 159.257195 206.28467 
L 159.46504 204.913905 
L 159.672886 205.367783 
L 159.880731 205.088674 
L 160.088576 205.073023 
L 160.296422 204.424812 
L 160.504267 205.254314 
L 160.712113 203.454451 
L 160.919958 204.580018 
L 161.127804 203.479232 
L 161.543494 203.037092 
L 161.75134 203.290116 
L 161.959185 202.504959 
L 162.167031 203.145345 
L 162.374876 202.186722 
L 162.582721 202.60669 
L 162.790567 201.795448 
L 162.998412 202.434529 
L 163.621949 200.883778 
L 163.829794 201.649372 
L 164.037639 201.217666 
L 164.245485 201.072894 
L 164.45333 200.150791 
L 165.076866 199.549533 
L 165.284712 198.886975 
L 165.492557 199.271728 
L 166.116094 198.568738 
L 166.323939 198.622212 
L 166.531784 198.100513 
L 166.947475 197.865748 
L 167.155321 197.851402 
L 167.363166 197.397523 
L 167.571012 197.630984 
L 167.778857 197.242318 
L 167.986702 197.184931 
L 168.194548 197.311443 
L 168.610239 196.703663 
L 168.818084 196.236743 
L 169.025929 196.920169 
L 169.44162 196.53672 
L 169.649466 195.875466 
L 169.857311 196.268044 
L 170.065157 196.317606 
L 170.273002 196.61367 
L 170.480847 195.683741 
L 170.688693 195.552012 
L 170.896538 195.245514 
L 171.104384 195.811558 
L 171.312229 194.7499 
L 171.520074 195.353767 
L 171.72792 194.470791 
L 171.935765 195.133349 
L 172.143611 194.674253 
L 172.559302 194.419925 
L 172.767147 194.69773 
L 172.974992 194.113427 
L 173.598529 193.975176 
L 173.806374 193.870836 
L 174.01422 194.267328 
L 174.222065 192.960471 
L 174.42991 193.512168 
L 174.637756 193.002207 
L 174.845601 193.821275 
L 175.053447 192.845697 
L 175.261292 193.917789 
L 175.469137 192.515723 
L 175.676983 192.805266 
L 175.884828 191.990111 
L 176.092674 193.093505 
L 176.300519 191.866207 
L 176.508365 193.176976 
L 176.71621 192.343562 
L 176.924055 192.691796 
L 177.131901 191.811429 
L 177.339746 193.10133 
L 177.547592 191.677091 
L 177.755437 192.351387 
L 177.963283 191.971851 
L 178.171128 192.574414 
L 178.378973 191.399286 
L 178.586819 192.005762 
L 178.794664 191.289729 
L 179.00251 191.750129 
L 179.210355 190.646735 
L 179.4182 190.906281 
L 179.626046 190.392407 
L 179.833891 190.874979 
L 180.041737 190.696297 
L 180.457428 189.655507 
L 180.665273 190.34415 
L 180.873118 189.48465 
L 181.080964 189.77028 
L 181.288809 189.140329 
L 181.7045 189.638551 
L 181.912345 189.882446 
L 182.120191 189.722023 
L 182.328036 188.948604 
L 182.743727 188.925128 
L 182.951573 188.286046 
L 183.159418 188.98121 
L 183.367263 188.777748 
L 183.575109 188.138666 
L 183.782954 188.390386 
L 183.9908 188.243006 
L 184.198645 187.881729 
L 184.406491 187.946942 
L 184.614336 187.693917 
L 184.822181 187.752609 
L 185.030027 188.213008 
L 185.237872 186.930932 
L 185.445718 187.009187 
L 185.653563 186.525311 
L 185.861408 186.733991 
L 186.069254 186.777031 
L 186.277099 187.54132 
L 186.484945 186.090997 
L 186.69279 186.357063 
L 186.900636 185.592774 
L 187.108481 186.51879 
L 187.524172 186.071433 
L 187.732017 185.449306 
L 187.939863 185.684071 
L 188.147708 185.168893 
L 188.355553 185.724503 
L 188.563399 184.386344 
L 188.771244 185.380181 
L 188.97909 184.27157 
L 189.186935 185.159763 
L 189.394781 184.103322 
L 189.602626 184.369389 
L 189.810471 183.423809 
L 190.018317 184.711102 
L 190.226162 183.997678 
L 190.434008 184.378519 
L 190.641853 183.23078 
L 190.849699 183.592057 
L 191.057544 182.96341 
L 191.265389 183.268604 
L 191.473235 182.452144 
L 191.68108 182.741687 
L 191.888926 182.05174 
L 192.096771 182.411713 
L 192.304616 181.865233 
L 192.512462 181.71394 
L 192.720307 180.816617 
L 192.928153 181.093118 
L 193.343844 181.059207 
L 193.551689 180.726624 
L 193.759534 180.910523 
L 193.96738 179.981898 
L 194.175225 180.424039 
L 194.590916 179.488893 
L 194.798761 179.462808 
L 195.006607 179.765393 
L 195.214452 179.758872 
L 195.630143 178.903285 
L 195.837989 178.973715 
L 196.045834 178.908502 
L 196.253679 179.17196 
L 196.461525 178.42593 
L 196.66937 178.484622 
L 196.877216 178.255074 
L 197.085061 178.290289 
L 197.500752 177.820759 
L 197.708597 178.238119 
L 197.916443 176.669108 
L 198.124288 177.908144 
L 198.332134 177.016038 
L 198.539979 178.243336 
L 198.747824 177.113857 
L 198.95567 177.49861 
L 199.163515 176.640415 
L 199.371361 176.730408 
L 199.579206 177.240369 
L 200.410588 176.016984 
L 200.618433 175.257912 
L 200.826279 176.097848 
L 201.034124 175.171831 
L 201.24197 176.233489 
L 201.449815 175.092272 
L 201.65766 175.31269 
L 202.073351 174.694477 
L 202.281197 174.08148 
L 202.489042 175.139225 
L 202.696887 173.911928 
L 202.904733 174.587528 
L 203.112578 173.825847 
L 203.320424 174.163648 
L 203.528269 173.232415 
L 203.736115 173.808892 
L 203.94396 173.018518 
L 204.151805 173.425443 
L 204.359651 172.276401 
L 204.567496 172.88418 
L 204.775342 172.329875 
L 204.983187 172.638982 
L 205.191032 172.130325 
L 205.398878 172.226839 
L 206.022414 171.685576 
L 206.23026 171.724704 
L 206.438105 172.179886 
L 206.64595 171.187353 
L 206.853796 171.982945 
L 207.061641 171.024322 
L 207.269487 171.728616 
L 207.477332 170.891289 
L 207.685178 171.69601 
L 207.893023 170.859987 
L 208.100868 171.300823 
L 208.308714 170.4648 
L 208.516559 170.72565 
L 208.724405 170.753039 
L 208.93225 171.090839 
L 209.140095 170.413934 
L 209.347941 170.510449 
L 209.555786 170.060483 
L 209.763632 171.021714 
L 209.971477 170.051353 
L 210.179323 170.095698 
L 210.387168 170.548272 
L 210.595013 169.396621 
L 210.802859 169.731813 
L 211.010704 169.512699 
L 211.21855 169.131858 
L 211.426395 169.457921 
L 211.63424 169.290977 
L 211.842086 168.491473 
L 212.049931 169.249241 
L 212.257777 169.140988 
L 212.465622 168.565815 
L 212.673468 168.661025 
L 213.089158 167.697186 
L 213.297004 167.838044 
L 213.504849 167.415468 
L 213.712695 167.620235 
L 213.92054 166.595096 
L 214.128386 167.410251 
L 214.336231 166.305553 
L 214.544076 166.931592 
L 214.751922 165.834719 
L 214.959767 166.426848 
L 215.167613 165.371711 
L 215.375458 166.171215 
L 215.583303 165.881672 
L 215.998994 164.970003 
L 216.414685 165.130425 
L 216.622531 164.42874 
L 216.830376 165.461704 
L 217.246067 164.243537 
L 217.453912 164.051812 
L 217.661758 164.207018 
L 217.869603 163.217093 
L 218.077448 163.69184 
L 218.493139 163.359256 
L 218.700985 163.445337 
L 218.90883 162.687569 
L 219.116676 163.087973 
L 219.324521 162.268905 
L 219.532366 162.825819 
L 219.740212 161.935017 
L 219.948057 162.207605 
L 220.155903 161.603738 
L 220.363748 161.796767 
L 220.571594 161.713295 
L 220.779439 161.953277 
L 220.987284 161.49679 
L 221.402975 161.472009 
L 221.610821 160.676418 
L 221.818666 161.492877 
L 222.650048 160.452087 
L 222.857893 159.544331 
L 223.065739 160.642508 
L 223.273584 159.383908 
L 223.481429 159.644758 
L 223.689275 158.528321 
L 223.89712 159.736055 
L 224.104966 158.645704 
L 224.312811 159.811702 
L 224.520657 158.550494 
L 224.728502 158.404418 
L 224.936347 157.522746 
L 225.144193 158.356161 
L 225.559884 158.066618 
L 225.767729 157.250158 
L 226.391265 156.755848 
L 226.599111 157.419711 
L 226.806956 157.280156 
L 227.222647 156.620206 
L 227.430492 157.495357 
L 227.638338 156.274581 
L 227.846183 156.79628 
L 228.054029 156.348923 
L 228.261874 157.311458 
L 228.469719 155.762011 
L 228.677565 156.538039 
L 228.88541 156.339793 
L 229.093256 155.75549 
L 229.301101 156.183283 
L 229.716792 155.486815 
L 229.924637 155.278135 
L 230.132483 156.065901 
L 230.340328 155.353782 
L 230.548174 155.473772 
L 230.756019 154.088661 
L 230.963865 155.395517 
L 231.17171 154.884252 
L 231.379555 156.132418 
L 231.587401 155.00946 
L 231.795246 155.582025 
L 232.003092 155.618544 
L 232.210937 154.56732 
L 232.418782 154.830778 
L 232.626628 154.699049 
L 232.834473 155.138581 
L 233.042319 154.612969 
L 233.250164 154.414723 
L 233.45801 154.436895 
L 233.665855 155.375954 
L 233.8737 154.117354 
L 234.081546 154.873818 
L 234.289391 154.537322 
L 234.705082 155.476381 
L 234.912927 154.941639 
L 235.328618 155.232486 
L 235.744309 154.181263 
L 235.952155 155.224661 
L 236.16 154.97555 
L 236.367845 155.665497 
L 236.575691 154.888165 
L 236.783536 155.362911 
L 236.991382 154.751219 
L 237.199227 155.827224 
L 237.407073 154.375595 
L 237.614918 155.091628 
L 237.822763 154.470806 
L 238.030609 155.257267 
L 238.238454 155.222052 
L 238.4463 154.743393 
L 238.654145 154.963811 
L 238.86199 154.81904 
L 239.069836 155.002939 
L 239.277681 154.001276 
L 239.485527 154.75774 
L 239.693372 154.067793 
L 239.901218 154.850342 
L 240.109063 154.238649 
L 240.316908 154.778608 
L 240.524754 154.075618 
L 240.732599 154.755132 
L 240.940445 154.136918 
L 241.563981 154.279081 
L 241.771826 154.080835 
L 241.979672 153.264376 
L 242.187517 154.109529 
L 242.395363 153.774337 
L 242.603208 153.829116 
L 242.811053 152.753111 
L 243.018899 154.199522 
L 243.226744 152.917446 
L 243.43459 153.602176 
L 243.642435 152.361836 
L 243.850281 153.439145 
L 244.058126 152.536606 
L 244.265971 152.811802 
L 244.473817 152.230107 
L 244.681662 152.017515 
L 245.097353 151.975779 
L 245.305198 152.312275 
L 245.513044 150.929772 
L 245.720889 151.657542 
L 245.928735 150.841083 
L 246.13658 151.082369 
L 246.344426 150.81239 
L 246.552271 151.168449 
L 246.760116 150.358511 
L 246.967962 150.739352 
L 247.175807 150.001147 
L 247.383653 150.282865 
L 247.591498 150.777175 
L 247.799343 150.075489 
L 248.007189 149.870723 
L 248.215034 150.088532 
L 248.42288 150.58545 
L 248.630725 149.367283 
L 248.838571 150.198089 
L 249.046416 150.172004 
L 249.462107 148.796022 
L 249.669952 149.785946 
L 249.877798 149.262943 
L 250.085643 149.688128 
L 250.293489 149.17295 
L 250.501334 149.303375 
L 250.709179 148.458222 
L 251.12487 148.940794 
L 251.540561 148.797326 
L 251.748406 148.400835 
L 251.956252 148.546911 
L 252.164097 147.658718 
L 252.371943 148.443875 
L 252.579788 148.169983 
L 252.787634 148.447788 
L 252.995479 147.708279 
L 253.203324 147.94174 
L 253.41117 147.413519 
L 254.034706 147.170929 
L 254.242552 147.240054 
L 254.450397 146.462722 
L 254.658242 146.917905 
L 254.866088 146.409248 
L 255.073933 147.095283 
L 255.281779 146.037537 
L 255.489624 146.949207 
L 255.697469 146.505762 
L 255.905315 146.407944 
L 256.11316 145.543227 
L 256.321006 145.758428 
L 256.528851 145.620178 
L 256.736697 145.721909 
L 256.944542 145.658001 
L 257.152387 145.436279 
L 257.360233 145.048917 
L 257.568078 145.172821 
L 257.775924 145.566704 
L 257.983769 145.612352 
L 258.191614 144.442442 
L 258.607305 144.979792 
L 258.815151 144.930231 
L 259.022996 145.540619 
L 259.230842 144.293758 
L 259.438687 144.96675 
L 259.646532 143.966391 
L 259.854378 144.658947 
L 260.062223 144.010736 
L 260.270069 144.447659 
L 260.477914 143.807273 
L 260.68576 144.596343 
L 260.893605 143.816403 
L 261.10145 144.185505 
L 261.309296 143.211232 
L 261.517141 143.87379 
L 261.724987 143.27514 
L 261.932832 143.739452 
L 262.140677 142.926906 
L 262.348523 143.499471 
L 262.764214 142.696054 
L 262.972059 143.174713 
L 263.179905 143.228187 
L 263.38775 142.489983 
L 263.803441 142.544761 
L 264.011286 142.830391 
L 264.219132 141.903071 
L 264.426977 142.862997 
L 264.634822 141.944807 
L 264.842668 141.910896 
L 265.050513 142.48607 
L 265.258359 141.537881 
L 265.466204 141.742648 
L 265.67405 141.647438 
L 265.881895 141.780472 
L 266.08974 141.219645 
L 266.297586 141.689174 
L 266.505431 141.203994 
L 266.713277 141.910896 
L 266.921122 141.351374 
L 267.336813 140.88967 
L 267.544658 141.243121 
L 267.752504 140.825762 
L 267.960349 140.99401 
L 268.37604 140.832283 
L 268.583885 140.68099 
L 268.791731 141.021399 
L 268.999576 140.339277 
L 269.207422 141.05531 
L 269.415267 140.141032 
L 269.623113 141.129652 
L 269.830958 139.547599 
L 270.038803 140.374492 
L 270.246649 139.644113 
L 270.454494 140.043213 
L 270.66234 139.931048 
L 270.870185 140.067994 
L 271.07803 139.29327 
L 271.285876 139.358483 
L 271.493721 139.248926 
L 271.701567 139.907571 
L 271.909412 139.338919 
L 272.117258 139.749757 
L 272.325103 138.757224 
L 272.532948 139.627158 
L 272.740794 138.324214 
L 272.948639 139.470648 
L 273.156485 138.381601 
L 273.36433 138.836784 
L 273.572176 138.273348 
L 273.780021 139.148499 
L 273.987866 138.223787 
L 274.195712 137.807732 
L 274.403557 138.1051 
L 274.611403 138.077711 
L 274.819248 137.469932 
L 275.027093 137.689045 
L 275.234939 137.269077 
L 275.442784 137.556012 
L 275.858475 136.603911 
L 276.274166 136.854326 
L 276.482011 136.03265 
L 276.689857 136.948232 
L 276.897702 136.135686 
L 277.105548 136.693904 
L 277.313393 135.580076 
L 277.521239 136.459139 
L 277.729084 135.516168 
L 277.936929 136.120035 
L 278.144775 135.199236 
L 278.35262 135.518776 
L 278.560466 135.35705 
L 278.768311 134.391906 
L 278.976156 134.005849 
L 279.184002 135.023162 
L 279.391847 134.553633 
L 279.599693 134.74014 
L 279.807538 133.270253 
L 280.015384 134.600586 
L 280.223229 133.254602 
L 280.431074 134.191052 
L 280.846765 133.184172 
L 281.054611 132.778551 
L 281.262456 133.386331 
L 281.470301 132.723773 
L 281.678147 132.825504 
L 281.885992 132.192944 
L 282.093838 132.966363 
L 282.301683 131.680374 
L 282.509529 132.43423 
L 282.717374 131.474303 
L 282.925219 132.102951 
L 283.133065 131.069986 
L 283.34091 132.045564 
L 283.548756 130.501334 
L 283.756601 131.467782 
L 283.964447 130.668278 
L 284.172292 131.337357 
L 284.587983 129.969201 
L 284.795828 130.502638 
L 285.003674 129.620967 
L 285.211519 129.455327 
L 285.419364 129.965288 
L 285.62721 128.84233 
L 285.835055 129.361421 
L 286.042901 128.777118 
L 286.250746 129.035359 
L 286.458592 127.994569 
L 286.666437 128.161513 
L 286.874282 128.050652 
L 287.082128 128.199336 
L 287.289973 128.122385 
L 287.497819 127.753283 
L 287.705664 127.689375 
L 287.913509 127.132461 
L 288.121355 127.176806 
L 288.3292 126.482946 
L 288.537046 126.9603 
L 288.744891 126.882045 
L 288.952737 126.669453 
L 289.160582 125.927336 
L 289.368427 126.086454 
L 289.576273 126.027763 
L 289.784118 125.120006 
L 289.991964 125.463024 
L 290.6155 124.994798 
L 290.823345 124.915239 
L 291.239036 123.781848 
L 291.654727 123.481871 
L 291.862572 123.218413 
L 292.070418 123.451873 
L 292.278263 124.20312 
L 292.486109 123.198849 
L 292.693954 123.399703 
L 292.9018 122.802357 
L 293.109645 123.086684 
L 293.31749 122.55455 
L 293.525336 122.670628 
L 293.733181 122.335437 
L 293.941027 122.781489 
L 294.148872 122.045894 
L 294.356717 122.682367 
L 294.564563 121.989811 
L 294.772408 122.742362 
L 294.980254 122.120236 
L 295.188099 122.134582 
L 295.395945 121.697659 
L 295.60379 121.998941 
L 295.811635 120.950325 
L 296.019481 121.710702 
L 296.435172 121.63636 
L 296.643017 121.267257 
L 296.850863 121.762872 
L 297.058708 120.83816 
L 297.266553 121.537237 
L 297.474399 120.922936 
L 298.30578 120.633393 
L 298.513626 121.007712 
L 298.721471 120.487317 
L 298.929317 120.979019 
L 299.137162 120.746862 
L 299.345008 120.979019 
L 299.760698 120.56818 
L 299.968544 120.432539 
L 300.176389 120.50036 
L 300.384235 119.828672 
L 300.59208 120.235597 
L 300.799926 119.711289 
L 301.007771 120.054307 
L 301.215616 119.833889 
L 301.631307 119.809108 
L 301.839153 119.445223 
L 302.254843 119.518261 
L 302.462689 119.794761 
L 302.670534 119.707377 
L 302.87838 118.914394 
L 303.086225 118.739625 
L 303.294071 119.072208 
L 303.501916 119.048731 
L 303.917607 117.834476 
L 304.125452 118.379652 
L 304.333298 118.272704 
L 304.541143 118.40965 
L 304.748988 118.000116 
L 305.164679 117.616667 
L 305.372525 118.259661 
L 305.58037 116.968456 
L 305.788216 117.135399 
L 305.996061 117.061057 
L 306.203906 117.572323 
L 306.411752 116.582398 
L 306.619597 118.06272 
L 306.827443 116.588919 
L 307.035288 117.170614 
L 307.243134 116.886288 
L 307.450979 117.251477 
L 307.658824 116.381544 
L 307.86667 117.474504 
L 308.074515 116.811946 
L 308.282361 116.823684 
L 308.490206 116.329374 
L 308.698051 116.694564 
L 309.113742 116.791078 
L 309.321588 115.918536 
L 309.529433 116.427193 
L 309.737279 115.801154 
L 310.152969 115.765939 
L 310.360815 116.347634 
L 310.56866 116.221121 
L 310.776506 116.377631 
L 311.400042 115.222067 
L 311.607887 115.522045 
L 311.815733 115.509002 
L 312.023578 115.653774 
L 312.231424 114.830793 
L 312.439269 115.595082 
L 312.647114 115.688988 
L 313.062805 115.241631 
L 313.270651 115.69551 
L 313.478496 114.978173 
L 313.686342 115.891147 
L 314.102032 114.863399 
L 314.309878 115.555955 
L 314.517723 115.291193 
L 314.725569 114.825576 
L 314.933414 115.385098 
L 315.141259 115.432051 
L 315.349105 115.844194 
L 315.764796 115.209025 
L 315.972641 115.532478 
L 316.180487 116.135041 
L 316.388332 115.340754 
L 316.596177 115.527262 
L 316.804023 115.394228 
L 317.011868 116.238077 
L 317.219714 115.673337 
L 317.427559 115.883321 
L 317.635404 115.331624 
L 317.84325 116.238077 
L 318.051095 115.323799 
L 318.258941 116.034614 
L 318.466786 115.39162 
L 318.674632 115.678554 
L 318.882477 115.752896 
L 319.090322 116.607179 
L 319.298168 115.255978 
L 319.506013 115.631601 
L 319.713859 115.267716 
L 319.921704 115.859845 
L 320.12955 114.982086 
L 320.337395 115.19207 
L 320.54524 115.188157 
L 320.960931 114.796883 
L 321.168777 115.557259 
L 321.376622 114.94035 
L 321.584467 115.185548 
L 321.792313 114.431693 
L 322.000158 114.622113 
L 322.208004 114.412129 
L 322.415849 115.228589 
L 322.623695 114.616896 
L 322.83154 115.146421 
L 323.039385 113.964772 
L 323.247231 115.061645 
L 323.455076 114.777319 
L 323.662922 114.760364 
L 323.870767 114.212579 
L 324.078613 115.081209 
L 324.286458 114.610375 
L 324.494303 115.129466 
L 324.702149 114.119978 
L 324.909994 115.02643 
L 325.53353 114.577769 
L 325.741376 114.662545 
L 326.157067 113.958251 
L 326.364912 113.418292 
L 326.572758 114.864703 
L 326.780603 113.476983 
L 326.988448 114.071721 
L 327.196294 113.718269 
L 327.404139 114.219101 
L 327.611985 114.020855 
L 327.81983 114.365176 
L 328.027675 113.902168 
L 328.235521 114.566031 
L 328.443366 113.536979 
L 328.651212 114.335179 
L 328.859057 113.616538 
L 329.066903 114.524295 
L 329.274748 113.372644 
L 329.482593 113.810871 
L 329.690439 113.330908 
L 329.898284 114.045636 
L 330.10613 114.144759 
L 330.521821 113.865649 
L 330.729666 113.958251 
L 330.937511 113.790003 
L 331.145357 114.313007 
L 331.353202 113.954338 
L 331.561048 114.3417 
L 331.768893 114.219101 
L 331.976738 114.422563 
L 332.184584 114.219101 
L 332.392429 114.663849 
L 333.015966 113.889126 
L 333.223811 114.822968 
L 333.431656 113.816088 
L 333.639502 114.567335 
L 333.847347 114.28953 
L 334.055193 115.102077 
L 334.263038 114.490384 
L 334.470883 114.314311 
L 334.678729 114.453865 
L 334.886574 115.155551 
L 335.302265 114.221709 
L 335.717956 114.460387 
L 336.133647 114.834706 
L 336.549338 114.770798 
L 336.965029 115.128162 
L 337.172874 114.603854 
L 337.380719 115.252065 
L 337.588565 114.907744 
L 337.79641 115.156855 
L 338.627792 114.290834 
L 338.835637 114.816446 
L 339.043483 114.64559 
L 339.251328 114.156497 
L 339.459174 114.294747 
L 339.667019 114.935133 
L 339.874864 113.912602 
L 340.08271 113.934775 
L 340.290555 113.237002 
L 340.498401 113.992161 
L 340.706246 113.787395 
L 340.914091 113.763918 
L 341.121937 113.019192 
L 341.329782 113.11049 
L 341.537628 113.406554 
L 341.745473 113.149617 
L 342.161164 112.419238 
L 342.369009 112.584878 
L 342.576855 112.406196 
L 342.7847 111.519307 
L 342.992546 111.26237 
L 343.200391 111.354972 
L 343.408237 111.613213 
L 343.616082 110.46417 
L 343.823927 111.310627 
L 344.447464 109.899431 
L 344.655309 110.548946 
L 344.863154 109.605975 
L 345.071 109.427293 
L 345.278845 108.946026 
L 345.486691 109.482072 
L 345.694536 108.50519 
L 345.902382 109.802917 
L 346.110227 108.80908 
L 346.318072 109.411642 
L 346.525918 107.739596 
L 346.733763 108.931679 
L 346.941609 107.764377 
L 347.149454 108.078701 
L 347.357299 107.536133 
L 347.565145 108.133479 
L 347.77299 107.086168 
L 347.980836 107.911757 
L 348.188681 107.300064 
L 348.396527 107.914365 
L 348.604372 107.450053 
L 348.812217 107.630039 
L 349.020063 107.349626 
L 349.227908 107.85437 
L 349.435754 107.236156 
L 349.643599 107.320932 
L 349.851445 107.267458 
L 350.05929 107.082255 
L 350.267135 107.99262 
L 350.682826 106.886618 
L 350.890672 106.848795 
L 351.098517 107.036606 
L 351.306362 106.820101 
L 351.514208 107.054866 
L 351.722053 106.650549 
L 351.929899 107.783941 
L 352.137744 106.894443 
L 352.34559 107.040519 
L 352.553435 106.777061 
L 352.76128 107.387449 
L 352.969126 105.968427 
L 353.176971 107.193116 
L 353.384817 106.659679 
L 353.592662 107.44614 
L 353.800508 106.747063 
L 354.008353 107.285718 
L 354.216198 106.406655 
L 354.424044 106.980524 
L 354.631889 106.415784 
L 354.839735 107.924799 
L 355.04758 106.316661 
L 355.255425 107.267458 
L 355.463271 106.483605 
L 355.671116 107.134425 
L 355.878962 106.533167 
L 356.086807 106.988349 
L 356.294653 106.778365 
L 356.502498 107.396579 
L 356.918189 106.331008 
L 357.126034 106.984436 
L 357.33388 107.028781 
L 357.541725 106.7275 
L 357.74957 106.694893 
L 358.165261 105.9293 
L 358.373107 106.82271 
L 358.580952 106.226668 
L 358.788798 106.207105 
L 358.996643 105.916257 
L 359.204488 106.188845 
L 359.412334 105.295435 
L 359.620179 106.886618 
L 359.828025 105.334563 
L 360.03587 106.470563 
L 360.243716 106.221451 
L 360.451561 106.689676 
L 360.659406 106.37144 
L 360.867252 106.925745 
L 361.075097 106.321878 
L 361.282943 106.878792 
L 361.490788 106.419697 
L 361.698633 106.829231 
L 361.906479 106.522733 
L 362.114324 106.872271 
L 362.32217 106.094939 
L 362.530015 107.113557 
L 362.737861 106.732717 
L 362.945706 107.520482 
L 363.153551 106.950526 
L 363.361397 107.054866 
L 363.777088 106.565773 
L 363.984933 106.740542 
L 364.192778 107.991316 
L 364.400624 106.791408 
L 364.608469 107.99262 
L 364.816315 107.613084 
L 365.02416 108.110003 
L 365.647696 107.200942 
L 366.063387 108.147826 
L 366.271233 107.721337 
L 366.479078 107.889585 
L 366.686924 107.59352 
L 366.894769 106.860533 
L 367.102614 107.36919 
L 367.31046 108.172606 
L 367.518305 107.603954 
L 367.726151 108.047399 
L 367.933996 107.480051 
L 368.141841 107.944363 
L 368.349687 107.379624 
L 368.973223 107.468312 
L 369.181069 107.002696 
L 369.388914 107.538742 
L 369.596759 106.912703 
L 369.804605 107.130512 
L 370.01245 106.512299 
L 370.220296 107.240069 
L 370.428141 106.036248 
L 370.635986 106.710544 
L 370.843832 106.333617 
L 371.051677 106.941396 
L 371.259523 106.58012 
L 371.467368 106.743151 
L 371.675214 106.089722 
L 371.883059 106.460129 
L 372.29875 105.604542 
L 372.714441 105.742792 
L 373.130132 104.988937 
L 373.337977 105.320216 
L 373.545822 104.87025 
L 373.753668 105.234135 
L 373.961513 104.565056 
L 374.169359 104.365506 
L 374.377204 104.862425 
L 374.585049 104.060312 
L 374.792895 104.064225 
L 375.00074 103.078213 
L 375.208586 103.255591 
L 375.416431 104.278122 
L 375.624277 103.594696 
L 375.832122 103.44862 
L 376.039967 103.053433 
L 376.247813 103.536004 
L 376.455658 102.609988 
L 376.663504 102.973874 
L 376.871349 102.643899 
L 377.079195 102.84084 
L 377.28704 102.690852 
L 377.494885 102.732588 
L 377.702731 102.396092 
L 377.910576 102.80693 
L 378.118422 102.266971 
L 378.326267 102.804321 
L 378.534112 101.9996 
L 378.741958 102.735196 
L 378.949803 101.541809 
L 379.157649 102.851274 
L 379.365494 102.148284 
L 379.57334 102.187412 
L 379.781185 101.963081 
L 379.98903 101.484422 
L 380.196876 101.724404 
L 380.612567 100.480151 
L 380.820412 101.180532 
L 381.236103 100.643182 
L 381.443948 101.204009 
L 381.651794 100.894902 
L 381.859639 100.186695 
L 382.067485 100.793171 
L 382.27533 100.67318 
L 382.483175 99.747164 
L 382.691021 99.937584 
L 382.898866 99.204596 
L 383.106712 99.648041 
L 383.522403 99.278939 
L 383.730248 97.840353 
L 383.938093 99.323283 
L 384.353784 98.399875 
L 384.56163 97.712537 
L 384.769475 98.483347 
L 384.97732 97.579503 
L 385.393011 97.409951 
L 385.600857 98.209455 
L 386.016548 96.875209 
L 386.224393 97.283439 
L 386.432238 96.764348 
L 387.055775 96.893469 
L 387.26362 95.538355 
L 387.471465 96.374378 
L 387.679311 95.238378 
L 387.887156 95.694865 
L 388.095002 95.397496 
L 388.302847 96.601317 
L 388.510693 95.144472 
L 388.718538 95.743122 
L 388.926383 95.542268 
L 389.134229 95.847462 
L 389.342074 95.483577 
L 389.54992 95.847462 
L 389.965611 95.60748 
L 390.173456 95.126213 
L 390.381301 95.615306 
L 390.589147 95.367499 
L 390.796992 95.680518 
L 391.004838 94.93188 
L 391.212683 95.718341 
L 391.628374 94.823627 
L 391.836219 95.420973 
L 392.044065 94.907099 
L 392.25191 95.265767 
L 392.459756 94.901882 
L 392.667601 95.025786 
L 392.875446 94.785804 
L 393.083292 95.509662 
L 393.291137 94.7232 
L 393.498983 95.606176 
L 393.706828 95.028394 
L 393.914673 95.578787 
L 394.122519 94.761023 
L 394.330364 95.486185 
L 394.53821 95.200555 
L 394.746055 95.865721 
L 394.953901 94.92275 
L 395.161746 95.405322 
L 395.369591 95.462709 
L 395.785282 95.218814 
L 395.993128 95.5214 
L 396.200973 95.307503 
L 396.408819 95.792683 
L 396.616664 94.930575 
L 397.032355 95.741818 
L 397.2402 95.050566 
L 397.655891 95.703995 
L 397.863736 94.938401 
L 398.071582 94.925358 
L 398.487273 95.736601 
L 398.487273 95.736601 
" style="fill:none;stroke:#1f77b4;stroke-linecap:square;stroke-width:1.5;"/>
   </g>
   <g id="patch_3">
    <path d="M 57.6 327.5712 
L 57.6 83.6352 
" style="fill:none;stroke:#000000;stroke-linecap:square;stroke-linejoin:miter;stroke-width:0.8;"/>
   </g>
   <g id="patch_4">
    <path d="M 414.72 327.5712 
L 414.72 83.6352 
" style="fill:none;stroke:#000000;stroke-linecap:square;stroke-linejoin:miter;stroke-width:0.8;"/>
   </g>
   <g id="patch_5">
    <path d="M 57.6 327.5712 
L 414.72 327.5712 
" style="fill:none;stroke:#000000;stroke-linecap:square;stroke-linejoin:miter;stroke-width:0.8;"/>
   </g>
   <g id="patch_6">
    <path d="M 57.6 83.6352 
L 414.72 83.6352 
" style="fill:none;stroke:#000000;stroke-linecap:square;stroke-linejoin:miter;stroke-width:0.8;"/>
   </g>
  </g>
  <g id="axes_2">
   <g id="patch_7">
    <path d="M 57.6 620.2944 
L 414.72 620.2944 
L 414.72 376.3584 
L 57.6 376.3584 
z
" style="fill:#ffffff;"/>
   </g>
   <g id="matplotlib.axis_3">
    <g id="xtick_10">
     <g id="line2d_17">
      <g>
       <use style="stroke:#000000;stroke-width:0.8;" x="73.832727" xlink:href="#me99ab4e11c" y="620.2944"/>
      </g>
     </g>
     <g id="text_17">
      <!-- 0 -->
      <g transform="translate(70.651477 634.892838)scale(0.1 -0.1)">
       <use xlink:href="#DejaVuSans-30"/>
      </g>
     </g>
    </g>
    <g id="xtick_11">
     <g id="line2d_18">
      <g>
       <use style="stroke:#000000;stroke-width:0.8;" x="115.401811" xlink:href="#me99ab4e11c" y="620.2944"/>
      </g>
     </g>
     <g id="text_18">
      <!-- 100 -->
      <g transform="translate(105.858061 634.892838)scale(0.1 -0.1)">
       <use xlink:href="#DejaVuSans-31"/>
       <use x="63.623047" xlink:href="#DejaVuSans-30"/>
       <use x="127.246094" xlink:href="#DejaVuSans-30"/>
      </g>
     </g>
    </g>
    <g id="xtick_12">
     <g id="line2d_19">
      <g>
       <use style="stroke:#000000;stroke-width:0.8;" x="156.970895" xlink:href="#me99ab4e11c" y="620.2944"/>
      </g>
     </g>
     <g id="text_19">
      <!-- 200 -->
      <g transform="translate(147.427145 634.892838)scale(0.1 -0.1)">
       <use xlink:href="#DejaVuSans-32"/>
       <use x="63.623047" xlink:href="#DejaVuSans-30"/>
       <use x="127.246094" xlink:href="#DejaVuSans-30"/>
      </g>
     </g>
    </g>
    <g id="xtick_13">
     <g id="line2d_20">
      <g>
       <use style="stroke:#000000;stroke-width:0.8;" x="198.539979" xlink:href="#me99ab4e11c" y="620.2944"/>
      </g>
     </g>
     <g id="text_20">
      <!-- 300 -->
      <g transform="translate(188.996229 634.892838)scale(0.1 -0.1)">
       <use xlink:href="#DejaVuSans-33"/>
       <use x="63.623047" xlink:href="#DejaVuSans-30"/>
       <use x="127.246094" xlink:href="#DejaVuSans-30"/>
      </g>
     </g>
    </g>
    <g id="xtick_14">
     <g id="line2d_21">
      <g>
       <use style="stroke:#000000;stroke-width:0.8;" x="240.109063" xlink:href="#me99ab4e11c" y="620.2944"/>
      </g>
     </g>
     <g id="text_21">
      <!-- 400 -->
      <g transform="translate(230.565313 634.892838)scale(0.1 -0.1)">
       <use xlink:href="#DejaVuSans-34"/>
       <use x="63.623047" xlink:href="#DejaVuSans-30"/>
       <use x="127.246094" xlink:href="#DejaVuSans-30"/>
      </g>
     </g>
    </g>
    <g id="xtick_15">
     <g id="line2d_22">
      <g>
       <use style="stroke:#000000;stroke-width:0.8;" x="281.678147" xlink:href="#me99ab4e11c" y="620.2944"/>
      </g>
     </g>
     <g id="text_22">
      <!-- 500 -->
      <g transform="translate(272.134397 634.892838)scale(0.1 -0.1)">
       <use xlink:href="#DejaVuSans-35"/>
       <use x="63.623047" xlink:href="#DejaVuSans-30"/>
       <use x="127.246094" xlink:href="#DejaVuSans-30"/>
      </g>
     </g>
    </g>
    <g id="xtick_16">
     <g id="line2d_23">
      <g>
       <use style="stroke:#000000;stroke-width:0.8;" x="323.247231" xlink:href="#me99ab4e11c" y="620.2944"/>
      </g>
     </g>
     <g id="text_23">
      <!-- 600 -->
      <g transform="translate(313.703481 634.892838)scale(0.1 -0.1)">
       <use xlink:href="#DejaVuSans-36"/>
       <use x="63.623047" xlink:href="#DejaVuSans-30"/>
       <use x="127.246094" xlink:href="#DejaVuSans-30"/>
      </g>
     </g>
    </g>
    <g id="xtick_17">
     <g id="line2d_24">
      <g>
       <use style="stroke:#000000;stroke-width:0.8;" x="364.816315" xlink:href="#me99ab4e11c" y="620.2944"/>
      </g>
     </g>
     <g id="text_24">
      <!-- 700 -->
      <g transform="translate(355.272565 634.892838)scale(0.1 -0.1)">
       <use xlink:href="#DejaVuSans-37"/>
       <use x="63.623047" xlink:href="#DejaVuSans-30"/>
       <use x="127.246094" xlink:href="#DejaVuSans-30"/>
      </g>
     </g>
    </g>
    <g id="xtick_18">
     <g id="line2d_25">
      <g>
       <use style="stroke:#000000;stroke-width:0.8;" x="406.385399" xlink:href="#me99ab4e11c" y="620.2944"/>
      </g>
     </g>
     <g id="text_25">
      <!-- 800 -->
      <g transform="translate(396.841649 634.892838)scale(0.1 -0.1)">
       <use xlink:href="#DejaVuSans-38"/>
       <use x="63.623047" xlink:href="#DejaVuSans-30"/>
       <use x="127.246094" xlink:href="#DejaVuSans-30"/>
      </g>
     </g>
    </g>
    <g id="text_26">
     <!-- Tiempo [s] -->
     <defs>
      <path d="M 30.609375 48.390625 
Q 23.390625 48.390625 19.1875 42.75 
Q 14.984375 37.109375 14.984375 27.296875 
Q 14.984375 17.484375 19.15625 11.84375 
Q 23.34375 6.203125 30.609375 6.203125 
Q 37.796875 6.203125 41.984375 11.859375 
Q 46.1875 17.53125 46.1875 27.296875 
Q 46.1875 37.015625 41.984375 42.703125 
Q 37.796875 48.390625 30.609375 48.390625 
z
M 30.609375 56 
Q 42.328125 56 49.015625 48.375 
Q 55.71875 40.765625 55.71875 27.296875 
Q 55.71875 13.875 49.015625 6.21875 
Q 42.328125 -1.421875 30.609375 -1.421875 
Q 18.84375 -1.421875 12.171875 6.21875 
Q 5.515625 13.875 5.515625 27.296875 
Q 5.515625 40.765625 12.171875 48.375 
Q 18.84375 56 30.609375 56 
z
" id="DejaVuSans-6f"/>
     </defs>
     <g transform="translate(209.443594 648.570963)scale(0.1 -0.1)">
      <use xlink:href="#DejaVuSans-54"/>
      <use x="61.037109" xlink:href="#DejaVuSans-69"/>
      <use x="88.820312" xlink:href="#DejaVuSans-65"/>
      <use x="150.34375" xlink:href="#DejaVuSans-6d"/>
      <use x="247.755859" xlink:href="#DejaVuSans-70"/>
      <use x="311.232422" xlink:href="#DejaVuSans-6f"/>
      <use x="372.414062" xlink:href="#DejaVuSans-20"/>
      <use x="404.201172" xlink:href="#DejaVuSans-5b"/>
      <use x="443.214844" xlink:href="#DejaVuSans-73"/>
      <use x="495.314453" xlink:href="#DejaVuSans-5d"/>
     </g>
    </g>
   </g>
   <g id="matplotlib.axis_4">
    <g id="ytick_7">
     <g id="line2d_26">
      <g>
       <use style="stroke:#000000;stroke-width:0.8;" x="57.6" xlink:href="#m1059f9bdae" y="609.650809"/>
      </g>
     </g>
     <g id="text_27">
      <!-- 0.0 -->
      <defs>
       <path d="M 10.6875 12.40625 
L 21 12.40625 
L 21 0 
L 10.6875 0 
z
" id="DejaVuSans-2e"/>
      </defs>
      <g transform="translate(34.696875 613.450028)scale(0.1 -0.1)">
       <use xlink:href="#DejaVuSans-30"/>
       <use x="63.623047" xlink:href="#DejaVuSans-2e"/>
       <use x="95.410156" xlink:href="#DejaVuSans-30"/>
      </g>
     </g>
    </g>
    <g id="ytick_8">
     <g id="line2d_27">
      <g>
       <use style="stroke:#000000;stroke-width:0.8;" x="57.6" xlink:href="#m1059f9bdae" y="565.209927"/>
      </g>
     </g>
     <g id="text_28">
      <!-- 0.1 -->
      <g transform="translate(34.696875 569.009146)scale(0.1 -0.1)">
       <use xlink:href="#DejaVuSans-30"/>
       <use x="63.623047" xlink:href="#DejaVuSans-2e"/>
       <use x="95.410156" xlink:href="#DejaVuSans-31"/>
      </g>
     </g>
    </g>
    <g id="ytick_9">
     <g id="line2d_28">
      <g>
       <use style="stroke:#000000;stroke-width:0.8;" x="57.6" xlink:href="#m1059f9bdae" y="520.769045"/>
      </g>
     </g>
     <g id="text_29">
      <!-- 0.2 -->
      <g transform="translate(34.696875 524.568264)scale(0.1 -0.1)">
       <use xlink:href="#DejaVuSans-30"/>
       <use x="63.623047" xlink:href="#DejaVuSans-2e"/>
       <use x="95.410156" xlink:href="#DejaVuSans-32"/>
      </g>
     </g>
    </g>
    <g id="ytick_10">
     <g id="line2d_29">
      <g>
       <use style="stroke:#000000;stroke-width:0.8;" x="57.6" xlink:href="#m1059f9bdae" y="476.328164"/>
      </g>
     </g>
     <g id="text_30">
      <!-- 0.3 -->
      <g transform="translate(34.696875 480.127382)scale(0.1 -0.1)">
       <use xlink:href="#DejaVuSans-30"/>
       <use x="63.623047" xlink:href="#DejaVuSans-2e"/>
       <use x="95.410156" xlink:href="#DejaVuSans-33"/>
      </g>
     </g>
    </g>
    <g id="ytick_11">
     <g id="line2d_30">
      <g>
       <use style="stroke:#000000;stroke-width:0.8;" x="57.6" xlink:href="#m1059f9bdae" y="431.887282"/>
      </g>
     </g>
     <g id="text_31">
      <!-- 0.4 -->
      <g transform="translate(34.696875 435.686501)scale(0.1 -0.1)">
       <use xlink:href="#DejaVuSans-30"/>
       <use x="63.623047" xlink:href="#DejaVuSans-2e"/>
       <use x="95.410156" xlink:href="#DejaVuSans-34"/>
      </g>
     </g>
    </g>
    <g id="ytick_12">
     <g id="line2d_31">
      <g>
       <use style="stroke:#000000;stroke-width:0.8;" x="57.6" xlink:href="#m1059f9bdae" y="387.4464"/>
      </g>
     </g>
     <g id="text_32">
      <!-- 0.5 -->
      <g transform="translate(34.696875 391.245619)scale(0.1 -0.1)">
       <use xlink:href="#DejaVuSans-30"/>
       <use x="63.623047" xlink:href="#DejaVuSans-2e"/>
       <use x="95.410156" xlink:href="#DejaVuSans-35"/>
      </g>
     </g>
    </g>
    <g id="text_33">
     <!-- Duty cycle -->
     <defs>
      <path d="M 19.671875 64.796875 
L 19.671875 8.109375 
L 31.59375 8.109375 
Q 46.6875 8.109375 53.6875 14.9375 
Q 60.6875 21.78125 60.6875 36.53125 
Q 60.6875 51.171875 53.6875 57.984375 
Q 46.6875 64.796875 31.59375 64.796875 
z
M 9.8125 72.90625 
L 30.078125 72.90625 
Q 51.265625 72.90625 61.171875 64.09375 
Q 71.09375 55.28125 71.09375 36.53125 
Q 71.09375 17.671875 61.125 8.828125 
Q 51.171875 0 30.078125 0 
L 9.8125 0 
z
" id="DejaVuSans-44"/>
      <path d="M 32.171875 -5.078125 
Q 28.375 -14.84375 24.75 -17.8125 
Q 21.140625 -20.796875 15.09375 -20.796875 
L 7.90625 -20.796875 
L 7.90625 -13.28125 
L 13.1875 -13.28125 
Q 16.890625 -13.28125 18.9375 -11.515625 
Q 21 -9.765625 23.484375 -3.21875 
L 25.09375 0.875 
L 2.984375 54.6875 
L 12.5 54.6875 
L 29.59375 11.921875 
L 46.6875 54.6875 
L 56.203125 54.6875 
z
" id="DejaVuSans-79"/>
      <path d="M 48.78125 52.59375 
L 48.78125 44.1875 
Q 44.96875 46.296875 41.140625 47.34375 
Q 37.3125 48.390625 33.40625 48.390625 
Q 24.65625 48.390625 19.8125 42.84375 
Q 14.984375 37.3125 14.984375 27.296875 
Q 14.984375 17.28125 19.8125 11.734375 
Q 24.65625 6.203125 33.40625 6.203125 
Q 37.3125 6.203125 41.140625 7.25 
Q 44.96875 8.296875 48.78125 10.40625 
L 48.78125 2.09375 
Q 45.015625 0.34375 40.984375 -0.53125 
Q 36.96875 -1.421875 32.421875 -1.421875 
Q 20.0625 -1.421875 12.78125 6.34375 
Q 5.515625 14.109375 5.515625 27.296875 
Q 5.515625 40.671875 12.859375 48.328125 
Q 20.21875 56 33.015625 56 
Q 37.15625 56 41.109375 55.140625 
Q 45.0625 54.296875 48.78125 52.59375 
z
" id="DejaVuSans-63"/>
     </defs>
     <g transform="translate(28.617187 524.777181)rotate(-90)scale(0.1 -0.1)">
      <use xlink:href="#DejaVuSans-44"/>
      <use x="77.001953" xlink:href="#DejaVuSans-75"/>
      <use x="140.380859" xlink:href="#DejaVuSans-74"/>
      <use x="179.589844" xlink:href="#DejaVuSans-79"/>
      <use x="238.769531" xlink:href="#DejaVuSans-20"/>
      <use x="270.556641" xlink:href="#DejaVuSans-63"/>
      <use x="325.537109" xlink:href="#DejaVuSans-79"/>
      <use x="384.716797" xlink:href="#DejaVuSans-63"/>
      <use x="439.697266" xlink:href="#DejaVuSans-6c"/>
      <use x="467.480469" xlink:href="#DejaVuSans-65"/>
     </g>
    </g>
   </g>
   <g id="line2d_32">
    <path clip-path="url(#pd2167fe6ac)" d="M 73.832727 609.2064 
L 77.573945 609.2064 
L 77.78179 387.4464 
L 398.487273 387.4464 
L 398.487273 387.4464 
" style="fill:none;stroke:#1f77b4;stroke-linecap:square;stroke-width:1.5;"/>
   </g>
   <g id="patch_8">
    <path d="M 57.6 620.2944 
L 57.6 376.3584 
" style="fill:none;stroke:#000000;stroke-linecap:square;stroke-linejoin:miter;stroke-width:0.8;"/>
   </g>
   <g id="patch_9">
    <path d="M 414.72 620.2944 
L 414.72 376.3584 
" style="fill:none;stroke:#000000;stroke-linecap:square;stroke-linejoin:miter;stroke-width:0.8;"/>
   </g>
   <g id="patch_10">
    <path d="M 57.6 620.2944 
L 414.72 620.2944 
" style="fill:none;stroke:#000000;stroke-linecap:square;stroke-linejoin:miter;stroke-width:0.8;"/>
   </g>
   <g id="patch_11">
    <path d="M 57.6 376.3584 
L 414.72 376.3584 
" style="fill:none;stroke:#000000;stroke-linecap:square;stroke-linejoin:miter;stroke-width:0.8;"/>
   </g>
  </g>
 </g>
 <defs>
  <clipPath id="pf22a631ac4">
   <rect height="243.936" width="357.12" x="57.6" y="83.6352"/>
  </clipPath>
  <clipPath id="pd2167fe6ac">
   <rect height="243.936" width="357.12" x="57.6" y="376.3584"/>
  </clipPath>
 </defs>
</svg>
