<?xml version="1.0" encoding="utf-8" standalone="no"?>
<!DOCTYPE svg PUBLIC "-//W3C//DTD SVG 1.1//EN"
  "http://www.w3.org/Graphics/SVG/1.1/DTD/svg11.dtd">
<!-- Created with matplotlib (http://matplotlib.org/) -->
<svg height="488.16pt" version="1.1" viewBox="0 0 460.8 488.16" width="460.8pt" xmlns="http://www.w3.org/2000/svg" xmlns:xlink="http://www.w3.org/1999/xlink">
 <defs>
  <style type="text/css">
*{stroke-linecap:butt;stroke-linejoin:round;}
  </style>
 </defs>
 <g id="figure_1">
  <g id="patch_1">
   <path d="M 0 488.16 
L 460.8 488.16 
L 460.8 0 
L 0 0 
z
" style="fill:#ffffff;"/>
  </g>
  <g id="axes_1">
   <g id="patch_2">
    <path d="M 57.6 229.4352 
L 414.72 229.4352 
L 414.72 58.5792 
L 57.6 58.5792 
z
" style="fill:#ffffff;"/>
   </g>
   <g id="matplotlib.axis_1">
    <g id="xtick_1">
     <g id="line2d_1">
      <defs>
       <path d="M 0 0 
L 0 3.5 
" id="m37e3827759" style="stroke:#000000;stroke-width:0.8;"/>
      </defs>
      <g>
       <use style="stroke:#000000;stroke-width:0.8;" x="73.832727" xlink:href="#m37e3827759" y="229.4352"/>
      </g>
     </g>
     <g id="text_1">
      <!-- 0 -->
      <defs>
       <path d="M 31.78125 66.40625 
Q 24.171875 66.40625 20.328125 58.90625 
Q 16.5 51.421875 16.5 36.375 
Q 16.5 21.390625 20.328125 13.890625 
Q 24.171875 6.390625 31.78125 6.390625 
Q 39.453125 6.390625 43.28125 13.890625 
Q 47.125 21.390625 47.125 36.375 
Q 47.125 51.421875 43.28125 58.90625 
Q 39.453125 66.40625 31.78125 66.40625 
z
M 31.78125 74.21875 
Q 44.046875 74.21875 50.515625 64.515625 
Q 56.984375 54.828125 56.984375 36.375 
Q 56.984375 17.96875 50.515625 8.265625 
Q 44.046875 -1.421875 31.78125 -1.421875 
Q 19.53125 -1.421875 13.0625 8.265625 
Q 6.59375 17.96875 6.59375 36.375 
Q 6.59375 54.828125 13.0625 64.515625 
Q 19.53125 74.21875 31.78125 74.21875 
z
" id="DejaVuSans-30"/>
      </defs>
      <g transform="translate(70.651477 244.033637)scale(0.1 -0.1)">
       <use xlink:href="#DejaVuSans-30"/>
      </g>
     </g>
    </g>
    <g id="xtick_2">
     <g id="line2d_2">
      <g>
       <use style="stroke:#000000;stroke-width:0.8;" x="118.98635" xlink:href="#m37e3827759" y="229.4352"/>
      </g>
     </g>
     <g id="text_2">
      <!-- 50 -->
      <defs>
       <path d="M 10.796875 72.90625 
L 49.515625 72.90625 
L 49.515625 64.59375 
L 19.828125 64.59375 
L 19.828125 46.734375 
Q 21.96875 47.46875 24.109375 47.828125 
Q 26.265625 48.1875 28.421875 48.1875 
Q 40.625 48.1875 47.75 41.5 
Q 54.890625 34.8125 54.890625 23.390625 
Q 54.890625 11.625 47.5625 5.09375 
Q 40.234375 -1.421875 26.90625 -1.421875 
Q 22.3125 -1.421875 17.546875 -0.640625 
Q 12.796875 0.140625 7.71875 1.703125 
L 7.71875 11.625 
Q 12.109375 9.234375 16.796875 8.0625 
Q 21.484375 6.890625 26.703125 6.890625 
Q 35.15625 6.890625 40.078125 11.328125 
Q 45.015625 15.765625 45.015625 23.390625 
Q 45.015625 31 40.078125 35.4375 
Q 35.15625 39.890625 26.703125 39.890625 
Q 22.75 39.890625 18.8125 39.015625 
Q 14.890625 38.140625 10.796875 36.28125 
z
" id="DejaVuSans-35"/>
      </defs>
      <g transform="translate(112.62385 244.033637)scale(0.1 -0.1)">
       <use xlink:href="#DejaVuSans-35"/>
       <use x="63.623047" xlink:href="#DejaVuSans-30"/>
      </g>
     </g>
    </g>
    <g id="xtick_3">
     <g id="line2d_3">
      <g>
       <use style="stroke:#000000;stroke-width:0.8;" x="164.139972" xlink:href="#m37e3827759" y="229.4352"/>
      </g>
     </g>
     <g id="text_3">
      <!-- 100 -->
      <defs>
       <path d="M 12.40625 8.296875 
L 28.515625 8.296875 
L 28.515625 63.921875 
L 10.984375 60.40625 
L 10.984375 69.390625 
L 28.421875 72.90625 
L 38.28125 72.90625 
L 38.28125 8.296875 
L 54.390625 8.296875 
L 54.390625 0 
L 12.40625 0 
z
" id="DejaVuSans-31"/>
      </defs>
      <g transform="translate(154.596222 244.033637)scale(0.1 -0.1)">
       <use xlink:href="#DejaVuSans-31"/>
       <use x="63.623047" xlink:href="#DejaVuSans-30"/>
       <use x="127.246094" xlink:href="#DejaVuSans-30"/>
      </g>
     </g>
    </g>
    <g id="xtick_4">
     <g id="line2d_4">
      <g>
       <use style="stroke:#000000;stroke-width:0.8;" x="209.293595" xlink:href="#m37e3827759" y="229.4352"/>
      </g>
     </g>
     <g id="text_4">
      <!-- 150 -->
      <g transform="translate(199.749845 244.033637)scale(0.1 -0.1)">
       <use xlink:href="#DejaVuSans-31"/>
       <use x="63.623047" xlink:href="#DejaVuSans-35"/>
       <use x="127.246094" xlink:href="#DejaVuSans-30"/>
      </g>
     </g>
    </g>
    <g id="xtick_5">
     <g id="line2d_5">
      <g>
       <use style="stroke:#000000;stroke-width:0.8;" x="254.447217" xlink:href="#m37e3827759" y="229.4352"/>
      </g>
     </g>
     <g id="text_5">
      <!-- 200 -->
      <defs>
       <path d="M 19.1875 8.296875 
L 53.609375 8.296875 
L 53.609375 0 
L 7.328125 0 
L 7.328125 8.296875 
Q 12.9375 14.109375 22.625 23.890625 
Q 32.328125 33.6875 34.8125 36.53125 
Q 39.546875 41.84375 41.421875 45.53125 
Q 43.3125 49.21875 43.3125 52.78125 
Q 43.3125 58.59375 39.234375 62.25 
Q 35.15625 65.921875 28.609375 65.921875 
Q 23.96875 65.921875 18.8125 64.3125 
Q 13.671875 62.703125 7.8125 59.421875 
L 7.8125 69.390625 
Q 13.765625 71.78125 18.9375 73 
Q 24.125 74.21875 28.421875 74.21875 
Q 39.75 74.21875 46.484375 68.546875 
Q 53.21875 62.890625 53.21875 53.421875 
Q 53.21875 48.921875 51.53125 44.890625 
Q 49.859375 40.875 45.40625 35.40625 
Q 44.1875 33.984375 37.640625 27.21875 
Q 31.109375 20.453125 19.1875 8.296875 
z
" id="DejaVuSans-32"/>
      </defs>
      <g transform="translate(244.903467 244.033637)scale(0.1 -0.1)">
       <use xlink:href="#DejaVuSans-32"/>
       <use x="63.623047" xlink:href="#DejaVuSans-30"/>
       <use x="127.246094" xlink:href="#DejaVuSans-30"/>
      </g>
     </g>
    </g>
    <g id="xtick_6">
     <g id="line2d_6">
      <g>
       <use style="stroke:#000000;stroke-width:0.8;" x="299.60084" xlink:href="#m37e3827759" y="229.4352"/>
      </g>
     </g>
     <g id="text_6">
      <!-- 250 -->
      <g transform="translate(290.05709 244.033637)scale(0.1 -0.1)">
       <use xlink:href="#DejaVuSans-32"/>
       <use x="63.623047" xlink:href="#DejaVuSans-35"/>
       <use x="127.246094" xlink:href="#DejaVuSans-30"/>
      </g>
     </g>
    </g>
    <g id="xtick_7">
     <g id="line2d_7">
      <g>
       <use style="stroke:#000000;stroke-width:0.8;" x="344.754462" xlink:href="#m37e3827759" y="229.4352"/>
      </g>
     </g>
     <g id="text_7">
      <!-- 300 -->
      <defs>
       <path d="M 40.578125 39.3125 
Q 47.65625 37.796875 51.625 33 
Q 55.609375 28.21875 55.609375 21.1875 
Q 55.609375 10.40625 48.1875 4.484375 
Q 40.765625 -1.421875 27.09375 -1.421875 
Q 22.515625 -1.421875 17.65625 -0.515625 
Q 12.796875 0.390625 7.625 2.203125 
L 7.625 11.71875 
Q 11.71875 9.328125 16.59375 8.109375 
Q 21.484375 6.890625 26.8125 6.890625 
Q 36.078125 6.890625 40.9375 10.546875 
Q 45.796875 14.203125 45.796875 21.1875 
Q 45.796875 27.640625 41.28125 31.265625 
Q 36.765625 34.90625 28.71875 34.90625 
L 20.21875 34.90625 
L 20.21875 43.015625 
L 29.109375 43.015625 
Q 36.375 43.015625 40.234375 45.921875 
Q 44.09375 48.828125 44.09375 54.296875 
Q 44.09375 59.90625 40.109375 62.90625 
Q 36.140625 65.921875 28.71875 65.921875 
Q 24.65625 65.921875 20.015625 65.03125 
Q 15.375 64.15625 9.8125 62.3125 
L 9.8125 71.09375 
Q 15.4375 72.65625 20.34375 73.4375 
Q 25.25 74.21875 29.59375 74.21875 
Q 40.828125 74.21875 47.359375 69.109375 
Q 53.90625 64.015625 53.90625 55.328125 
Q 53.90625 49.265625 50.4375 45.09375 
Q 46.96875 40.921875 40.578125 39.3125 
z
" id="DejaVuSans-33"/>
      </defs>
      <g transform="translate(335.210712 244.033637)scale(0.1 -0.1)">
       <use xlink:href="#DejaVuSans-33"/>
       <use x="63.623047" xlink:href="#DejaVuSans-30"/>
       <use x="127.246094" xlink:href="#DejaVuSans-30"/>
      </g>
     </g>
    </g>
    <g id="xtick_8">
     <g id="line2d_8">
      <g>
       <use style="stroke:#000000;stroke-width:0.8;" x="389.908084" xlink:href="#m37e3827759" y="229.4352"/>
      </g>
     </g>
     <g id="text_8">
      <!-- 350 -->
      <g transform="translate(380.364334 244.033637)scale(0.1 -0.1)">
       <use xlink:href="#DejaVuSans-33"/>
       <use x="63.623047" xlink:href="#DejaVuSans-35"/>
       <use x="127.246094" xlink:href="#DejaVuSans-30"/>
      </g>
     </g>
    </g>
   </g>
   <g id="matplotlib.axis_2">
    <g id="ytick_1">
     <g id="line2d_9">
      <defs>
       <path d="M 0 0 
L -3.5 0 
" id="m113b2da50f" style="stroke:#000000;stroke-width:0.8;"/>
      </defs>
      <g>
       <use style="stroke:#000000;stroke-width:0.8;" x="57.6" xlink:href="#m113b2da50f" y="212.751445"/>
      </g>
     </g>
     <g id="text_9">
      <!-- 32 -->
      <g transform="translate(37.875 216.550664)scale(0.1 -0.1)">
       <use xlink:href="#DejaVuSans-33"/>
       <use x="63.623047" xlink:href="#DejaVuSans-32"/>
      </g>
     </g>
    </g>
    <g id="ytick_2">
     <g id="line2d_10">
      <g>
       <use style="stroke:#000000;stroke-width:0.8;" x="57.6" xlink:href="#m113b2da50f" y="183.77144"/>
      </g>
     </g>
     <g id="text_10">
      <!-- 33 -->
      <g transform="translate(37.875 187.570658)scale(0.1 -0.1)">
       <use xlink:href="#DejaVuSans-33"/>
       <use x="63.623047" xlink:href="#DejaVuSans-33"/>
      </g>
     </g>
    </g>
    <g id="ytick_3">
     <g id="line2d_11">
      <g>
       <use style="stroke:#000000;stroke-width:0.8;" x="57.6" xlink:href="#m113b2da50f" y="154.791434"/>
      </g>
     </g>
     <g id="text_11">
      <!-- 34 -->
      <defs>
       <path d="M 37.796875 64.3125 
L 12.890625 25.390625 
L 37.796875 25.390625 
z
M 35.203125 72.90625 
L 47.609375 72.90625 
L 47.609375 25.390625 
L 58.015625 25.390625 
L 58.015625 17.1875 
L 47.609375 17.1875 
L 47.609375 0 
L 37.796875 0 
L 37.796875 17.1875 
L 4.890625 17.1875 
L 4.890625 26.703125 
z
" id="DejaVuSans-34"/>
      </defs>
      <g transform="translate(37.875 158.590653)scale(0.1 -0.1)">
       <use xlink:href="#DejaVuSans-33"/>
       <use x="63.623047" xlink:href="#DejaVuSans-34"/>
      </g>
     </g>
    </g>
    <g id="ytick_4">
     <g id="line2d_12">
      <g>
       <use style="stroke:#000000;stroke-width:0.8;" x="57.6" xlink:href="#m113b2da50f" y="125.811429"/>
      </g>
     </g>
     <g id="text_12">
      <!-- 35 -->
      <g transform="translate(37.875 129.610647)scale(0.1 -0.1)">
       <use xlink:href="#DejaVuSans-33"/>
       <use x="63.623047" xlink:href="#DejaVuSans-35"/>
      </g>
     </g>
    </g>
    <g id="ytick_5">
     <g id="line2d_13">
      <g>
       <use style="stroke:#000000;stroke-width:0.8;" x="57.6" xlink:href="#m113b2da50f" y="96.831423"/>
      </g>
     </g>
     <g id="text_13">
      <!-- 36 -->
      <defs>
       <path d="M 33.015625 40.375 
Q 26.375 40.375 22.484375 35.828125 
Q 18.609375 31.296875 18.609375 23.390625 
Q 18.609375 15.53125 22.484375 10.953125 
Q 26.375 6.390625 33.015625 6.390625 
Q 39.65625 6.390625 43.53125 10.953125 
Q 47.40625 15.53125 47.40625 23.390625 
Q 47.40625 31.296875 43.53125 35.828125 
Q 39.65625 40.375 33.015625 40.375 
z
M 52.59375 71.296875 
L 52.59375 62.3125 
Q 48.875 64.0625 45.09375 64.984375 
Q 41.3125 65.921875 37.59375 65.921875 
Q 27.828125 65.921875 22.671875 59.328125 
Q 17.53125 52.734375 16.796875 39.40625 
Q 19.671875 43.65625 24.015625 45.921875 
Q 28.375 48.1875 33.59375 48.1875 
Q 44.578125 48.1875 50.953125 41.515625 
Q 57.328125 34.859375 57.328125 23.390625 
Q 57.328125 12.15625 50.6875 5.359375 
Q 44.046875 -1.421875 33.015625 -1.421875 
Q 20.359375 -1.421875 13.671875 8.265625 
Q 6.984375 17.96875 6.984375 36.375 
Q 6.984375 53.65625 15.1875 63.9375 
Q 23.390625 74.21875 37.203125 74.21875 
Q 40.921875 74.21875 44.703125 73.484375 
Q 48.484375 72.75 52.59375 71.296875 
z
" id="DejaVuSans-36"/>
      </defs>
      <g transform="translate(37.875 100.630642)scale(0.1 -0.1)">
       <use xlink:href="#DejaVuSans-33"/>
       <use x="63.623047" xlink:href="#DejaVuSans-36"/>
      </g>
     </g>
    </g>
    <g id="ytick_6">
     <g id="line2d_14">
      <g>
       <use style="stroke:#000000;stroke-width:0.8;" x="57.6" xlink:href="#m113b2da50f" y="67.851418"/>
      </g>
     </g>
     <g id="text_14">
      <!-- 37 -->
      <defs>
       <path d="M 8.203125 72.90625 
L 55.078125 72.90625 
L 55.078125 68.703125 
L 28.609375 0 
L 18.3125 0 
L 43.21875 64.59375 
L 8.203125 64.59375 
z
" id="DejaVuSans-37"/>
      </defs>
      <g transform="translate(37.875 71.650636)scale(0.1 -0.1)">
       <use xlink:href="#DejaVuSans-33"/>
       <use x="63.623047" xlink:href="#DejaVuSans-37"/>
      </g>
     </g>
    </g>
    <g id="text_15">
     <!-- Temperatura [Celsius] -->
     <defs>
      <path d="M -0.296875 72.90625 
L 61.375 72.90625 
L 61.375 64.59375 
L 35.5 64.59375 
L 35.5 0 
L 25.59375 0 
L 25.59375 64.59375 
L -0.296875 64.59375 
z
" id="DejaVuSans-54"/>
      <path d="M 56.203125 29.59375 
L 56.203125 25.203125 
L 14.890625 25.203125 
Q 15.484375 15.921875 20.484375 11.0625 
Q 25.484375 6.203125 34.421875 6.203125 
Q 39.59375 6.203125 44.453125 7.46875 
Q 49.3125 8.734375 54.109375 11.28125 
L 54.109375 2.78125 
Q 49.265625 0.734375 44.1875 -0.34375 
Q 39.109375 -1.421875 33.890625 -1.421875 
Q 20.796875 -1.421875 13.15625 6.1875 
Q 5.515625 13.8125 5.515625 26.8125 
Q 5.515625 40.234375 12.765625 48.109375 
Q 20.015625 56 32.328125 56 
Q 43.359375 56 49.78125 48.890625 
Q 56.203125 41.796875 56.203125 29.59375 
z
M 47.21875 32.234375 
Q 47.125 39.59375 43.09375 43.984375 
Q 39.0625 48.390625 32.421875 48.390625 
Q 24.90625 48.390625 20.390625 44.140625 
Q 15.875 39.890625 15.1875 32.171875 
z
" id="DejaVuSans-65"/>
      <path d="M 52 44.1875 
Q 55.375 50.25 60.0625 53.125 
Q 64.75 56 71.09375 56 
Q 79.640625 56 84.28125 50.015625 
Q 88.921875 44.046875 88.921875 33.015625 
L 88.921875 0 
L 79.890625 0 
L 79.890625 32.71875 
Q 79.890625 40.578125 77.09375 44.375 
Q 74.3125 48.1875 68.609375 48.1875 
Q 61.625 48.1875 57.5625 43.546875 
Q 53.515625 38.921875 53.515625 30.90625 
L 53.515625 0 
L 44.484375 0 
L 44.484375 32.71875 
Q 44.484375 40.625 41.703125 44.40625 
Q 38.921875 48.1875 33.109375 48.1875 
Q 26.21875 48.1875 22.15625 43.53125 
Q 18.109375 38.875 18.109375 30.90625 
L 18.109375 0 
L 9.078125 0 
L 9.078125 54.6875 
L 18.109375 54.6875 
L 18.109375 46.1875 
Q 21.1875 51.21875 25.484375 53.609375 
Q 29.78125 56 35.6875 56 
Q 41.65625 56 45.828125 52.96875 
Q 50 49.953125 52 44.1875 
z
" id="DejaVuSans-6d"/>
      <path d="M 18.109375 8.203125 
L 18.109375 -20.796875 
L 9.078125 -20.796875 
L 9.078125 54.6875 
L 18.109375 54.6875 
L 18.109375 46.390625 
Q 20.953125 51.265625 25.265625 53.625 
Q 29.59375 56 35.59375 56 
Q 45.5625 56 51.78125 48.09375 
Q 58.015625 40.1875 58.015625 27.296875 
Q 58.015625 14.40625 51.78125 6.484375 
Q 45.5625 -1.421875 35.59375 -1.421875 
Q 29.59375 -1.421875 25.265625 0.953125 
Q 20.953125 3.328125 18.109375 8.203125 
z
M 48.6875 27.296875 
Q 48.6875 37.203125 44.609375 42.84375 
Q 40.53125 48.484375 33.40625 48.484375 
Q 26.265625 48.484375 22.1875 42.84375 
Q 18.109375 37.203125 18.109375 27.296875 
Q 18.109375 17.390625 22.1875 11.75 
Q 26.265625 6.109375 33.40625 6.109375 
Q 40.53125 6.109375 44.609375 11.75 
Q 48.6875 17.390625 48.6875 27.296875 
z
" id="DejaVuSans-70"/>
      <path d="M 41.109375 46.296875 
Q 39.59375 47.171875 37.8125 47.578125 
Q 36.03125 48 33.890625 48 
Q 26.265625 48 22.1875 43.046875 
Q 18.109375 38.09375 18.109375 28.8125 
L 18.109375 0 
L 9.078125 0 
L 9.078125 54.6875 
L 18.109375 54.6875 
L 18.109375 46.1875 
Q 20.953125 51.171875 25.484375 53.578125 
Q 30.03125 56 36.53125 56 
Q 37.453125 56 38.578125 55.875 
Q 39.703125 55.765625 41.0625 55.515625 
z
" id="DejaVuSans-72"/>
      <path d="M 34.28125 27.484375 
Q 23.390625 27.484375 19.1875 25 
Q 14.984375 22.515625 14.984375 16.5 
Q 14.984375 11.71875 18.140625 8.90625 
Q 21.296875 6.109375 26.703125 6.109375 
Q 34.1875 6.109375 38.703125 11.40625 
Q 43.21875 16.703125 43.21875 25.484375 
L 43.21875 27.484375 
z
M 52.203125 31.203125 
L 52.203125 0 
L 43.21875 0 
L 43.21875 8.296875 
Q 40.140625 3.328125 35.546875 0.953125 
Q 30.953125 -1.421875 24.3125 -1.421875 
Q 15.921875 -1.421875 10.953125 3.296875 
Q 6 8.015625 6 15.921875 
Q 6 25.140625 12.171875 29.828125 
Q 18.359375 34.515625 30.609375 34.515625 
L 43.21875 34.515625 
L 43.21875 35.40625 
Q 43.21875 41.609375 39.140625 45 
Q 35.0625 48.390625 27.6875 48.390625 
Q 23 48.390625 18.546875 47.265625 
Q 14.109375 46.140625 10.015625 43.890625 
L 10.015625 52.203125 
Q 14.9375 54.109375 19.578125 55.046875 
Q 24.21875 56 28.609375 56 
Q 40.484375 56 46.34375 49.84375 
Q 52.203125 43.703125 52.203125 31.203125 
z
" id="DejaVuSans-61"/>
      <path d="M 18.3125 70.21875 
L 18.3125 54.6875 
L 36.8125 54.6875 
L 36.8125 47.703125 
L 18.3125 47.703125 
L 18.3125 18.015625 
Q 18.3125 11.328125 20.140625 9.421875 
Q 21.96875 7.515625 27.59375 7.515625 
L 36.8125 7.515625 
L 36.8125 0 
L 27.59375 0 
Q 17.1875 0 13.234375 3.875 
Q 9.28125 7.765625 9.28125 18.015625 
L 9.28125 47.703125 
L 2.6875 47.703125 
L 2.6875 54.6875 
L 9.28125 54.6875 
L 9.28125 70.21875 
z
" id="DejaVuSans-74"/>
      <path d="M 8.5 21.578125 
L 8.5 54.6875 
L 17.484375 54.6875 
L 17.484375 21.921875 
Q 17.484375 14.15625 20.5 10.265625 
Q 23.53125 6.390625 29.59375 6.390625 
Q 36.859375 6.390625 41.078125 11.03125 
Q 45.3125 15.671875 45.3125 23.6875 
L 45.3125 54.6875 
L 54.296875 54.6875 
L 54.296875 0 
L 45.3125 0 
L 45.3125 8.40625 
Q 42.046875 3.421875 37.71875 1 
Q 33.40625 -1.421875 27.6875 -1.421875 
Q 18.265625 -1.421875 13.375 4.4375 
Q 8.5 10.296875 8.5 21.578125 
z
M 31.109375 56 
z
" id="DejaVuSans-75"/>
      <path id="DejaVuSans-20"/>
      <path d="M 8.59375 75.984375 
L 29.296875 75.984375 
L 29.296875 69 
L 17.578125 69 
L 17.578125 -6.203125 
L 29.296875 -6.203125 
L 29.296875 -13.1875 
L 8.59375 -13.1875 
z
" id="DejaVuSans-5b"/>
      <path d="M 64.40625 67.28125 
L 64.40625 56.890625 
Q 59.421875 61.53125 53.78125 63.8125 
Q 48.140625 66.109375 41.796875 66.109375 
Q 29.296875 66.109375 22.65625 58.46875 
Q 16.015625 50.828125 16.015625 36.375 
Q 16.015625 21.96875 22.65625 14.328125 
Q 29.296875 6.6875 41.796875 6.6875 
Q 48.140625 6.6875 53.78125 8.984375 
Q 59.421875 11.28125 64.40625 15.921875 
L 64.40625 5.609375 
Q 59.234375 2.09375 53.4375 0.328125 
Q 47.65625 -1.421875 41.21875 -1.421875 
Q 24.65625 -1.421875 15.125 8.703125 
Q 5.609375 18.84375 5.609375 36.375 
Q 5.609375 53.953125 15.125 64.078125 
Q 24.65625 74.21875 41.21875 74.21875 
Q 47.75 74.21875 53.53125 72.484375 
Q 59.328125 70.75 64.40625 67.28125 
z
" id="DejaVuSans-43"/>
      <path d="M 9.421875 75.984375 
L 18.40625 75.984375 
L 18.40625 0 
L 9.421875 0 
z
" id="DejaVuSans-6c"/>
      <path d="M 44.28125 53.078125 
L 44.28125 44.578125 
Q 40.484375 46.53125 36.375 47.5 
Q 32.28125 48.484375 27.875 48.484375 
Q 21.1875 48.484375 17.84375 46.4375 
Q 14.5 44.390625 14.5 40.28125 
Q 14.5 37.15625 16.890625 35.375 
Q 19.28125 33.59375 26.515625 31.984375 
L 29.59375 31.296875 
Q 39.15625 29.25 43.1875 25.515625 
Q 47.21875 21.78125 47.21875 15.09375 
Q 47.21875 7.46875 41.1875 3.015625 
Q 35.15625 -1.421875 24.609375 -1.421875 
Q 20.21875 -1.421875 15.453125 -0.5625 
Q 10.6875 0.296875 5.421875 2 
L 5.421875 11.28125 
Q 10.40625 8.6875 15.234375 7.390625 
Q 20.0625 6.109375 24.8125 6.109375 
Q 31.15625 6.109375 34.5625 8.28125 
Q 37.984375 10.453125 37.984375 14.40625 
Q 37.984375 18.0625 35.515625 20.015625 
Q 33.0625 21.96875 24.703125 23.78125 
L 21.578125 24.515625 
Q 13.234375 26.265625 9.515625 29.90625 
Q 5.8125 33.546875 5.8125 39.890625 
Q 5.8125 47.609375 11.28125 51.796875 
Q 16.75 56 26.8125 56 
Q 31.78125 56 36.171875 55.265625 
Q 40.578125 54.546875 44.28125 53.078125 
z
" id="DejaVuSans-73"/>
      <path d="M 9.421875 54.6875 
L 18.40625 54.6875 
L 18.40625 0 
L 9.421875 0 
z
M 9.421875 75.984375 
L 18.40625 75.984375 
L 18.40625 64.59375 
L 9.421875 64.59375 
z
" id="DejaVuSans-69"/>
      <path d="M 30.421875 75.984375 
L 30.421875 -13.1875 
L 9.71875 -13.1875 
L 9.71875 -6.203125 
L 21.390625 -6.203125 
L 21.390625 69 
L 9.71875 69 
L 9.71875 75.984375 
z
" id="DejaVuSans-5d"/>
     </defs>
     <g transform="translate(31.795312 199.828294)rotate(-90)scale(0.1 -0.1)">
      <use xlink:href="#DejaVuSans-54"/>
      <use x="60.818359" xlink:href="#DejaVuSans-65"/>
      <use x="122.341797" xlink:href="#DejaVuSans-6d"/>
      <use x="219.753906" xlink:href="#DejaVuSans-70"/>
      <use x="283.230469" xlink:href="#DejaVuSans-65"/>
      <use x="344.753906" xlink:href="#DejaVuSans-72"/>
      <use x="385.867188" xlink:href="#DejaVuSans-61"/>
      <use x="447.146484" xlink:href="#DejaVuSans-74"/>
      <use x="486.355469" xlink:href="#DejaVuSans-75"/>
      <use x="549.734375" xlink:href="#DejaVuSans-72"/>
      <use x="590.847656" xlink:href="#DejaVuSans-61"/>
      <use x="652.126953" xlink:href="#DejaVuSans-20"/>
      <use x="683.914062" xlink:href="#DejaVuSans-5b"/>
      <use x="722.927734" xlink:href="#DejaVuSans-43"/>
      <use x="792.751953" xlink:href="#DejaVuSans-65"/>
      <use x="854.275391" xlink:href="#DejaVuSans-6c"/>
      <use x="882.058594" xlink:href="#DejaVuSans-73"/>
      <use x="934.158203" xlink:href="#DejaVuSans-69"/>
      <use x="961.941406" xlink:href="#DejaVuSans-75"/>
      <use x="1025.320312" xlink:href="#DejaVuSans-73"/>
      <use x="1077.419922" xlink:href="#DejaVuSans-5d"/>
     </g>
    </g>
   </g>
   <g id="line2d_15">
    <path clip-path="url(#p1ccc0df48e)" d="M 73.832727 221.295332 
L 74.284263 220.610877 
L 74.7358 221.546998 
L 75.187336 220.467885 
L 75.638872 221.087517 
L 76.090408 221.022694 
L 76.541945 221.669018 
L 76.993481 220.725271 
L 77.445017 220.721458 
L 77.896553 221.548905 
L 78.34809 219.974086 
L 78.799626 220.13805 
L 79.251162 219.182864 
L 79.702698 220.212406 
L 80.154234 217.911188 
L 80.605771 218.95217 
L 81.057307 218.200985 
L 81.508843 218.233397 
L 81.960379 216.368781 
L 82.411916 217.22292 
L 82.863452 214.864505 
L 83.314988 216.32493 
L 83.766524 213.787299 
L 84.21806 213.575671 
L 84.669597 211.960814 
L 85.121133 213.58139 
L 85.572669 210.891234 
L 86.024205 211.55281 
L 86.475742 210.382183 
L 86.927278 210.437473 
L 87.378814 209.556642 
L 87.83035 207.857897 
L 88.281886 207.345032 
L 88.733423 207.682494 
L 89.184959 206.363154 
L 89.636495 206.488987 
L 90.991104 204.16489 
L 91.44264 202.980916 
L 91.894176 203.653932 
L 92.345712 201.339368 
L 92.797249 201.718774 
L 93.248785 199.072468 
L 93.700321 199.939953 
L 94.151857 199.051496 
L 94.603394 198.877999 
L 95.05493 198.942822 
L 95.958002 196.942841 
L 96.861075 195.613968 
L 97.312611 195.371835 
L 97.764147 194.756016 
L 98.215683 193.650211 
L 98.66722 193.387106 
L 99.570292 192.372816 
L 100.021828 191.715053 
L 100.473365 191.848512 
L 100.924901 189.509163 
L 101.376437 189.638809 
L 101.827973 188.315656 
L 102.279509 188.113561 
L 102.731046 186.599752 
L 103.182582 186.757997 
L 103.634118 186.166963 
L 104.085654 186.043037 
L 104.537191 184.289001 
L 104.988727 184.578799 
L 105.440263 183.011606 
L 105.891799 182.47205 
L 106.343335 181.675108 
L 106.794872 181.278543 
L 107.246408 180.208963 
L 107.697944 179.77808 
L 108.14948 178.603639 
L 108.601017 178.247113 
L 109.052553 176.97925 
L 109.504089 176.376777 
L 109.955625 176.249038 
L 110.858698 174.304346 
L 111.310234 174.393955 
L 111.76177 173.724752 
L 112.213306 171.844884 
L 112.664843 172.352029 
L 113.116379 170.191896 
L 113.567915 170.277692 
L 114.019451 169.381608 
L 114.470987 169.360636 
L 114.922524 168.043203 
L 115.37406 168.390197 
L 115.825596 165.730546 
L 116.728669 164.76392 
L 117.180205 163.701966 
L 117.631741 163.435047 
L 118.083277 162.813509 
L 118.534814 162.653358 
L 118.98635 161.200559 
L 119.437886 161.171961 
L 119.889422 160.434122 
L 120.340958 160.411243 
L 120.792495 159.745854 
L 121.244031 159.660058 
L 121.695567 157.141493 
L 122.147103 158.479898 
L 123.050176 155.273064 
L 123.501712 155.621964 
L 123.953248 155.263531 
L 124.404784 154.390326 
L 124.856321 154.653432 
L 125.759393 152.432289 
L 126.210929 152.375092 
L 126.662466 151.013809 
L 127.114002 150.213053 
L 127.565538 149.755479 
L 128.017074 148.897527 
L 128.46861 147.755497 
L 128.920147 147.650637 
L 129.371683 146.207371 
L 129.823219 146.52386 
L 130.274755 144.743132 
L 130.726292 144.531504 
L 131.177828 143.570598 
L 131.629364 143.492429 
L 132.0809 142.438101 
L 132.532436 141.730768 
L 132.983973 140.476251 
L 133.435509 140.830871 
L 134.338581 138.848049 
L 135.69319 136.777524 
L 136.144726 136.483914 
L 136.596262 136.661224 
L 137.047799 134.628831 
L 137.499335 134.318062 
L 137.950871 134.167444 
L 138.402407 133.498241 
L 138.853944 132.045442 
L 139.30548 132.604065 
L 139.757016 131.454409 
L 140.208552 131.271379 
L 140.660089 130.396268 
L 141.111625 130.230397 
L 141.563161 129.46396 
L 142.014697 129.244706 
L 142.466233 128.451577 
L 143.369306 127.871982 
L 143.820842 127.49639 
L 144.723915 124.726158 
L 145.175451 125.063619 
L 145.626987 124.590793 
L 146.078523 124.283836 
L 146.530059 123.122741 
L 146.981596 124.545035 
L 147.433132 122.49167 
L 147.884668 122.31436 
L 148.336204 120.581297 
L 148.787741 120.657559 
L 149.239277 118.991226 
L 149.690813 119.519343 
L 150.142349 117.467884 
L 150.593885 117.828224 
L 151.045422 116.718606 
L 151.496958 117.090385 
L 151.948494 115.21433 
L 152.40003 115.187638 
L 152.851567 113.887364 
L 153.303103 113.153339 
L 153.754639 112.644287 
L 154.206175 111.246779 
L 154.657711 111.534669 
L 155.109248 110.161946 
L 155.560784 110.632866 
L 156.01232 108.764437 
L 156.463856 109.267769 
L 156.915393 107.929364 
L 158.270001 106.182955 
L 158.721537 105.828335 
L 159.173074 104.158188 
L 159.62461 103.64723 
L 160.076146 102.489948 
L 160.527682 100.688249 
L 160.979219 101.115318 
L 161.430755 100.865559 
L 161.882291 99.048607 
L 162.333827 100.451835 
L 162.785364 99.420386 
L 163.688436 96.438526 
L 164.139972 97.191618 
L 164.591508 95.845586 
L 165.043045 96.865596 
L 165.494581 94.831296 
L 165.946117 95.803642 
L 166.397653 94.663519 
L 166.84919 94.57963 
L 167.300726 93.069635 
L 168.203798 92.083943 
L 169.106871 90.520564 
L 169.558407 90.156411 
L 170.009943 89.185972 
L 170.461479 89.443358 
L 170.913016 90.28987 
L 171.816088 88.631163 
L 172.267624 87.256533 
L 172.71916 86.64834 
L 173.170697 86.8981 
L 173.622233 86.41574 
L 174.073769 85.386198 
L 174.525305 85.088774 
L 174.976842 84.186971 
L 175.428378 84.57591 
L 175.879914 84.366188 
L 176.33145 83.092606 
L 176.782986 83.376683 
L 177.234523 81.695097 
L 177.686059 81.744668 
L 178.137595 81.006829 
L 178.589131 81.248962 
L 179.040668 78.85051 
L 179.492204 79.714181 
L 180.395276 78.522581 
L 180.846812 78.419627 
L 181.298349 77.058343 
L 181.749885 77.241373 
L 182.652957 76.579797 
L 183.104494 75.422515 
L 183.55603 75.144157 
L 184.007566 73.628442 
L 184.459102 73.809565 
L 184.910639 72.208054 
L 185.362175 72.299569 
L 185.813711 71.576983 
L 186.265247 71.315784 
L 186.716783 70.469272 
L 187.16832 70.905874 
L 187.619856 69.407318 
L 188.071392 69.310083 
L 188.974465 68.244316 
L 189.426001 68.669479 
L 189.877537 67.773396 
L 190.329073 68.320578 
L 190.780609 67.653282 
L 191.232146 67.668535 
L 191.683682 67.317728 
L 192.135218 67.908762 
L 192.586754 67.950706 
L 193.038291 68.778153 
L 193.489827 67.885883 
L 193.941363 68.129922 
L 194.844435 67.212867 
L 195.295972 68.934491 
L 195.747508 67.76005 
L 196.199044 69.668516 
L 196.65058 67.201428 
L 197.102117 69.268139 
L 197.553653 68.778153 
L 198.005189 69.453075 
L 198.456725 69.07367 
L 198.908261 69.866799 
L 199.359798 70.26527 
L 199.811334 70.25955 
L 200.26287 70.787667 
L 200.714406 70.627516 
L 201.165943 71.584609 
L 201.617479 71.754293 
L 202.069015 72.749518 
L 202.520551 71.039333 
L 202.972087 72.534076 
L 203.423624 72.589366 
L 203.87516 74.257607 
L 204.326696 72.646563 
L 204.778232 73.803845 
L 205.229769 73.986875 
L 205.681305 73.923959 
L 206.132841 75.273803 
L 207.48745 75.5636 
L 207.938986 76.873407 
L 208.390522 76.310972 
L 208.842058 77.546423 
L 209.293595 77.479693 
L 210.196667 78.31286 
L 210.648203 79.68177 
L 211.09974 80.583573 
L 211.551276 80.419609 
L 212.002812 81.064026 
L 212.454348 80.392917 
L 212.905884 82.600713 
L 213.357421 82.450095 
L 213.808957 83.752276 
L 214.260493 83.077353 
L 214.712029 84.471049 
L 215.163566 84.50918 
L 215.615102 84.938156 
L 216.066638 85.151691 
L 216.518174 86.347104 
L 216.96971 86.202205 
L 217.421247 85.29087 
L 217.872783 88.924773 
L 218.324319 87.868539 
L 218.775855 89.163093 
L 219.227392 89.384254 
L 219.678928 90.17357 
L 220.130464 89.603509 
L 220.582 91.033429 
L 221.033536 91.184047 
L 221.485073 90.871371 
L 221.936609 94.034354 
L 222.388145 94.621575 
L 222.839681 94.255515 
L 223.291218 94.171627 
L 223.742754 95.670183 
L 224.19429 95.443302 
L 224.645826 96.612023 
L 225.097362 96.001924 
L 225.548899 97.786464 
L 226.000435 98.024784 
L 226.451971 98.960905 
L 227.355044 99.71209 
L 227.80658 100.72638 
L 228.258116 100.61008 
L 228.709652 102.316451 
L 229.161189 102.467069 
L 229.612725 103.267825 
L 230.064261 103.128646 
L 230.515797 104.373629 
L 230.967333 104.024729 
L 231.41887 104.854083 
L 231.870406 105.168665 
L 232.321942 104.604323 
L 232.773478 106.667221 
L 233.225015 106.56236 
L 233.676551 107.904579 
L 234.128087 107.243002 
L 234.579623 108.953187 
L 235.031159 107.990374 
L 235.482696 109.242984 
L 235.934232 108.434602 
L 236.385768 110.354508 
L 236.837304 109.43364 
L 237.740377 111.835906 
L 238.191913 112.038001 
L 238.643449 110.064711 
L 239.094985 112.108544 
L 239.546522 112.276321 
L 239.998058 113.467921 
L 240.449594 113.973159 
L 240.90113 113.997945 
L 241.352667 115.160946 
L 241.804203 114.215293 
L 242.255739 115.63568 
L 242.707275 116.335387 
L 243.158811 116.259125 
L 243.610348 116.596586 
L 244.061884 119.399229 
L 244.51342 115.976954 
L 245.416493 119.525062 
L 245.868029 117.446912 
L 246.319565 120.077965 
L 246.771101 118.341089 
L 247.222638 120.386828 
L 247.674174 120.167573 
L 248.12571 120.466903 
L 248.577246 121.313416 
L 249.028782 120.453557 
L 249.480319 121.849159 
L 249.931855 121.464034 
L 250.383391 121.978805 
L 250.834927 122.859636 
L 251.286464 123.158966 
L 251.738 122.625129 
L 252.189536 123.692803 
L 252.641072 122.331519 
L 253.092608 124.558381 
L 253.544145 123.250481 
L 253.995681 124.716625 
L 255.35029 125.364856 
L 255.801826 124.966385 
L 256.253362 126.321949 
L 256.704898 126.102695 
L 257.156434 126.493539 
L 257.607971 125.599363 
L 258.059507 127.364837 
L 258.511043 126.034058 
L 258.962579 126.560269 
L 259.414116 127.448726 
L 259.865652 127.465885 
L 261.22026 126.893917 
L 262.123333 128.352436 
L 262.574869 126.382959 
L 263.026405 127.900581 
L 263.477942 126.640345 
L 263.929478 128.68799 
L 264.381014 127.43538 
L 264.83255 127.219939 
L 265.284086 128.02832 
L 265.735623 129.101714 
L 266.187159 127.742336 
L 266.638695 128.007348 
L 267.090231 128.718495 
L 267.541768 127.788094 
L 267.993304 128.543092 
L 268.896376 128.886272 
L 269.347913 127.309547 
L 269.799449 127.237098 
L 270.250985 127.9063 
L 270.702521 121.073189 
L 271.154057 126.541203 
L 271.605594 128.886272 
L 272.05713 126.859599 
L 272.960202 127.288575 
L 273.411739 126.539297 
L 274.314811 127.443006 
L 274.766347 128.308585 
L 275.217883 126.918702 
L 275.66942 127.91774 
L 276.120956 125.986394 
L 276.572492 127.504016 
L 277.024028 126.144639 
L 277.475565 127.26379 
L 278.378637 126.823374 
L 278.830173 125.65656 
L 279.281709 125.961609 
L 279.733246 127.240911 
L 280.184782 127.094106 
L 280.636318 126.047404 
L 281.087854 126.792869 
L 281.539391 128.037853 
L 281.990927 126.234247 
L 282.442463 126.335295 
L 282.893999 126.184677 
L 283.345535 127.894861 
L 283.797072 125.408707 
L 284.248608 126.028339 
L 284.700144 126.2495 
L 285.15168 126.173237 
L 285.603217 124.682307 
L 286.506289 126.508792 
L 286.957825 126.034058 
L 287.409361 126.030245 
L 287.860898 125.557418 
L 288.312434 124.716625 
L 288.76397 124.644176 
L 289.215506 125.873907 
L 289.667043 126.095068 
L 290.118579 125.488782 
L 290.570115 125.765234 
L 291.021651 126.173237 
L 291.473188 126.076003 
L 291.924724 126.611746 
L 292.37626 124.611765 
L 292.827796 126.259033 
L 293.279332 124.649896 
L 293.730869 126.047404 
L 294.182405 125.46209 
L 294.633941 126.180864 
L 295.085477 125.197079 
L 295.537014 126.131293 
L 295.98855 124.825299 
L 296.440086 126.541203 
L 296.891622 126.29907 
L 297.343158 126.785243 
L 297.794695 125.952076 
L 298.246231 125.879627 
L 298.697767 125.28478 
L 299.149303 126.068377 
L 299.60084 127.330519 
L 300.052376 125.216144 
L 300.503912 126.491633 
L 300.955448 125.256182 
L 301.406984 126.232341 
L 301.858521 126.003554 
L 302.310057 126.466848 
L 302.761593 125.870094 
L 303.213129 128.457296 
L 303.664666 125.294313 
L 304.116202 127.753776 
L 304.567738 126.058844 
L 305.019274 127.017843 
L 305.47081 127.063601 
L 305.922347 127.517362 
L 306.373883 125.195172 
L 306.825419 127.860543 
L 307.276955 126.844347 
L 307.728492 127.519269 
L 308.180028 127.012124 
L 308.631564 126.985432 
L 309.0831 126.361987 
L 309.534636 127.303827 
L 309.986173 127.669887 
L 310.437709 127.523082 
L 310.889245 126.983525 
L 311.340781 127.094106 
L 311.792318 127.437287 
L 312.243854 127.229472 
L 312.69539 128.026414 
L 313.146926 127.212313 
L 313.598463 128.741374 
L 314.049999 126.84816 
L 314.501535 127.362931 
L 315.404607 127.524988 
L 315.856144 127.738523 
L 316.30768 126.630812 
L 316.759216 126.682289 
L 317.210752 127.227565 
L 317.662289 125.786206 
L 318.113825 128.091237 
L 318.565361 126.577428 
L 319.016897 126.846253 
L 319.468433 125.95017 
L 319.91997 125.65084 
L 320.371506 126.07219 
L 320.823042 125.11891 
L 321.274578 125.770953 
L 321.726115 125.854842 
L 322.177651 66.345382 
L 322.629187 123.729027 
L 323.080723 125.378202 
L 323.532259 125.4068 
L 323.983796 125.984488 
L 324.435332 125.038834 
L 324.886868 124.506904 
L 325.338404 125.427772 
L 325.789941 125.271434 
L 326.241477 127.200873 
L 326.693013 125.035021 
L 327.144549 124.40395 
L 327.596085 125.288594 
L 328.047622 137.869983 
L 328.499158 124.945413 
L 328.950694 124.796701 
L 329.853767 125.4068 
L 330.305303 125.751888 
L 330.756839 124.798608 
L 331.208375 125.10747 
L 331.659911 124.312435 
L 332.111448 125.870094 
L 332.562984 124.369632 
L 333.01452 124.842458 
L 333.466056 123.300051 
L 333.917593 125.967329 
L 334.369129 124.848178 
L 334.820665 125.860562 
L 335.272201 125.263808 
L 335.723738 124.86915 
L 336.175274 124.857711 
L 336.62681 126.407744 
L 337.078346 124.815767 
L 337.529882 125.669906 
L 337.981419 124.400137 
L 338.884491 129.057863 
L 339.336027 123.420165 
L 339.787564 126.014993 
L 340.2391 126.396305 
L 340.690636 126.190396 
L 341.142172 125.626055 
L 341.593708 126.615559 
L 342.045245 126.878665 
L 342.496781 126.29907 
L 342.948317 126.7147 
L 343.399853 126.892011 
L 343.85139 127.277136 
L 344.302926 127.315267 
L 344.754462 127.786187 
L 345.205998 126.251406 
L 345.657534 127.277136 
L 346.109071 127.523082 
L 346.560607 127.467792 
L 347.012143 126.972086 
L 347.463679 128.302865 
L 347.915216 127.44682 
L 348.366752 127.61841 
L 348.818288 120.564138 
L 349.269824 128.169406 
L 349.72136 128.533559 
L 350.172897 127.229472 
L 350.624433 127.6737 
L 351.075969 127.168462 
L 351.979042 128.363875 
L 352.430578 128.230416 
L 352.882114 127.330519 
L 353.33365 127.948245 
L 353.785186 127.824318 
L 354.236723 127.13605 
L 354.688259 127.866263 
L 355.139795 127.980656 
L 355.591331 127.212313 
L 356.042868 127.269509 
L 356.494404 126.752832 
L 356.94594 127.031189 
L 357.849013 127.891048 
L 358.300549 127.755682 
L 358.752085 127.204686 
L 359.203621 125.879627 
L 359.655157 125.801458 
L 360.106694 126.459221 
L 360.55823 125.933011 
L 361.009766 126.306697 
L 361.461302 126.89773 
L 361.912839 126.013086 
L 362.364375 126.384866 
L 362.815911 124.855804 
L 363.267447 126.247593 
L 363.718983 123.637512 
L 364.17052 126.36008 
L 364.622056 124.871057 
L 365.073592 124.977824 
L 365.525128 124.470679 
L 365.976665 125.492595 
L 366.428201 123.751906 
L 366.879737 124.659429 
L 367.331273 124.756663 
L 367.782809 125.420146 
L 368.234346 124.998796 
L 368.685882 125.627961 
L 369.137418 124.22092 
L 369.588954 125.671812 
L 370.040491 124.394417 
L 370.492027 124.665148 
L 370.943563 124.577447 
L 371.395099 125.913945 
L 371.846635 124.619391 
L 372.298172 124.693747 
L 372.749708 125.035021 
L 373.201244 126.606027 
L 373.65278 124.945413 
L 374.104317 124.916814 
L 374.555853 124.239985 
L 375.007389 125.749981 
L 375.458925 124.131312 
L 375.910461 124.451614 
L 376.361998 123.593662 
L 376.813534 124.773822 
L 377.26507 124.137031 
L 377.716606 124.22092 
L 378.168143 125.35723 
L 379.071215 123.875832 
L 379.522751 124.686121 
L 379.974288 124.022638 
L 380.425824 124.794794 
L 380.87736 124.834832 
L 381.328896 125.103657 
L 381.780432 120.146601 
L 382.231969 124.933973 
L 382.683505 125.639401 
L 383.135041 125.576484 
L 383.586577 124.928254 
L 384.038114 125.99974 
L 384.48965 124.693747 
L 384.941186 126.83672 
L 385.392722 126.062657 
L 385.844258 127.383903 
L 386.295795 126.00546 
L 386.747331 126.546923 
L 387.198867 126.253313 
L 387.650403 127.463979 
L 388.10194 127.183714 
L 388.553476 128.722308 
L 389.005012 127.767122 
L 389.456548 128.726121 
L 389.908084 128.184658 
L 390.359621 128.201817 
L 390.811157 127.130331 
L 391.262693 128.899618 
L 391.714229 127.483044 
L 392.165766 128.646046 
L 392.617302 128.306678 
L 393.068838 128.403913 
L 393.520374 127.20278 
L 393.97191 127.597438 
L 394.423447 126.96446 
L 394.874983 127.997815 
L 395.326519 127.021657 
L 395.778055 127.683233 
L 396.229592 127.240911 
L 396.681128 119.849178 
L 397.132664 126.434436 
L 397.5842 126.514512 
L 398.035737 126.480194 
L 398.487273 127.124611 
L 398.487273 127.124611 
" style="fill:none;stroke:#1f77b4;stroke-linecap:square;stroke-width:1.5;"/>
   </g>
   <g id="patch_3">
    <path d="M 57.6 229.4352 
L 57.6 58.5792 
" style="fill:none;stroke:#000000;stroke-linecap:square;stroke-linejoin:miter;stroke-width:0.8;"/>
   </g>
   <g id="patch_4">
    <path d="M 414.72 229.4352 
L 414.72 58.5792 
" style="fill:none;stroke:#000000;stroke-linecap:square;stroke-linejoin:miter;stroke-width:0.8;"/>
   </g>
   <g id="patch_5">
    <path d="M 57.6 229.4352 
L 414.72 229.4352 
" style="fill:none;stroke:#000000;stroke-linecap:square;stroke-linejoin:miter;stroke-width:0.8;"/>
   </g>
   <g id="patch_6">
    <path d="M 57.6 58.5792 
L 414.72 58.5792 
" style="fill:none;stroke:#000000;stroke-linecap:square;stroke-linejoin:miter;stroke-width:0.8;"/>
   </g>
  </g>
  <g id="axes_2">
   <g id="patch_7">
    <path d="M 57.6 434.4624 
L 414.72 434.4624 
L 414.72 263.6064 
L 57.6 263.6064 
z
" style="fill:#ffffff;"/>
   </g>
   <g id="matplotlib.axis_3">
    <g id="xtick_9">
     <g id="line2d_16">
      <g>
       <use style="stroke:#000000;stroke-width:0.8;" x="73.832727" xlink:href="#m37e3827759" y="434.4624"/>
      </g>
     </g>
     <g id="text_16">
      <!-- 0 -->
      <g transform="translate(70.651477 449.060838)scale(0.1 -0.1)">
       <use xlink:href="#DejaVuSans-30"/>
      </g>
     </g>
    </g>
    <g id="xtick_10">
     <g id="line2d_17">
      <g>
       <use style="stroke:#000000;stroke-width:0.8;" x="118.98635" xlink:href="#m37e3827759" y="434.4624"/>
      </g>
     </g>
     <g id="text_17">
      <!-- 50 -->
      <g transform="translate(112.62385 449.060838)scale(0.1 -0.1)">
       <use xlink:href="#DejaVuSans-35"/>
       <use x="63.623047" xlink:href="#DejaVuSans-30"/>
      </g>
     </g>
    </g>
    <g id="xtick_11">
     <g id="line2d_18">
      <g>
       <use style="stroke:#000000;stroke-width:0.8;" x="164.139972" xlink:href="#m37e3827759" y="434.4624"/>
      </g>
     </g>
     <g id="text_18">
      <!-- 100 -->
      <g transform="translate(154.596222 449.060838)scale(0.1 -0.1)">
       <use xlink:href="#DejaVuSans-31"/>
       <use x="63.623047" xlink:href="#DejaVuSans-30"/>
       <use x="127.246094" xlink:href="#DejaVuSans-30"/>
      </g>
     </g>
    </g>
    <g id="xtick_12">
     <g id="line2d_19">
      <g>
       <use style="stroke:#000000;stroke-width:0.8;" x="209.293595" xlink:href="#m37e3827759" y="434.4624"/>
      </g>
     </g>
     <g id="text_19">
      <!-- 150 -->
      <g transform="translate(199.749845 449.060838)scale(0.1 -0.1)">
       <use xlink:href="#DejaVuSans-31"/>
       <use x="63.623047" xlink:href="#DejaVuSans-35"/>
       <use x="127.246094" xlink:href="#DejaVuSans-30"/>
      </g>
     </g>
    </g>
    <g id="xtick_13">
     <g id="line2d_20">
      <g>
       <use style="stroke:#000000;stroke-width:0.8;" x="254.447217" xlink:href="#m37e3827759" y="434.4624"/>
      </g>
     </g>
     <g id="text_20">
      <!-- 200 -->
      <g transform="translate(244.903467 449.060838)scale(0.1 -0.1)">
       <use xlink:href="#DejaVuSans-32"/>
       <use x="63.623047" xlink:href="#DejaVuSans-30"/>
       <use x="127.246094" xlink:href="#DejaVuSans-30"/>
      </g>
     </g>
    </g>
    <g id="xtick_14">
     <g id="line2d_21">
      <g>
       <use style="stroke:#000000;stroke-width:0.8;" x="299.60084" xlink:href="#m37e3827759" y="434.4624"/>
      </g>
     </g>
     <g id="text_21">
      <!-- 250 -->
      <g transform="translate(290.05709 449.060838)scale(0.1 -0.1)">
       <use xlink:href="#DejaVuSans-32"/>
       <use x="63.623047" xlink:href="#DejaVuSans-35"/>
       <use x="127.246094" xlink:href="#DejaVuSans-30"/>
      </g>
     </g>
    </g>
    <g id="xtick_15">
     <g id="line2d_22">
      <g>
       <use style="stroke:#000000;stroke-width:0.8;" x="344.754462" xlink:href="#m37e3827759" y="434.4624"/>
      </g>
     </g>
     <g id="text_22">
      <!-- 300 -->
      <g transform="translate(335.210712 449.060838)scale(0.1 -0.1)">
       <use xlink:href="#DejaVuSans-33"/>
       <use x="63.623047" xlink:href="#DejaVuSans-30"/>
       <use x="127.246094" xlink:href="#DejaVuSans-30"/>
      </g>
     </g>
    </g>
    <g id="xtick_16">
     <g id="line2d_23">
      <g>
       <use style="stroke:#000000;stroke-width:0.8;" x="389.908084" xlink:href="#m37e3827759" y="434.4624"/>
      </g>
     </g>
     <g id="text_23">
      <!-- 350 -->
      <g transform="translate(380.364334 449.060838)scale(0.1 -0.1)">
       <use xlink:href="#DejaVuSans-33"/>
       <use x="63.623047" xlink:href="#DejaVuSans-35"/>
       <use x="127.246094" xlink:href="#DejaVuSans-30"/>
      </g>
     </g>
    </g>
    <g id="text_24">
     <!-- Tiempo [s] -->
     <defs>
      <path d="M 30.609375 48.390625 
Q 23.390625 48.390625 19.1875 42.75 
Q 14.984375 37.109375 14.984375 27.296875 
Q 14.984375 17.484375 19.15625 11.84375 
Q 23.34375 6.203125 30.609375 6.203125 
Q 37.796875 6.203125 41.984375 11.859375 
Q 46.1875 17.53125 46.1875 27.296875 
Q 46.1875 37.015625 41.984375 42.703125 
Q 37.796875 48.390625 30.609375 48.390625 
z
M 30.609375 56 
Q 42.328125 56 49.015625 48.375 
Q 55.71875 40.765625 55.71875 27.296875 
Q 55.71875 13.875 49.015625 6.21875 
Q 42.328125 -1.421875 30.609375 -1.421875 
Q 18.84375 -1.421875 12.171875 6.21875 
Q 5.515625 13.875 5.515625 27.296875 
Q 5.515625 40.765625 12.171875 48.375 
Q 18.84375 56 30.609375 56 
z
" id="DejaVuSans-6f"/>
     </defs>
     <g transform="translate(209.443594 462.738963)scale(0.1 -0.1)">
      <use xlink:href="#DejaVuSans-54"/>
      <use x="61.037109" xlink:href="#DejaVuSans-69"/>
      <use x="88.820312" xlink:href="#DejaVuSans-65"/>
      <use x="150.34375" xlink:href="#DejaVuSans-6d"/>
      <use x="247.755859" xlink:href="#DejaVuSans-70"/>
      <use x="311.232422" xlink:href="#DejaVuSans-6f"/>
      <use x="372.414062" xlink:href="#DejaVuSans-20"/>
      <use x="404.201172" xlink:href="#DejaVuSans-5b"/>
      <use x="443.214844" xlink:href="#DejaVuSans-73"/>
      <use x="495.314453" xlink:href="#DejaVuSans-5d"/>
     </g>
    </g>
   </g>
   <g id="matplotlib.axis_4">
    <g id="ytick_7">
     <g id="line2d_24">
      <g>
       <use style="stroke:#000000;stroke-width:0.8;" x="57.6" xlink:href="#m113b2da50f" y="426.696607"/>
      </g>
     </g>
     <g id="text_25">
      <!-- 0.0 -->
      <defs>
       <path d="M 10.6875 12.40625 
L 21 12.40625 
L 21 0 
L 10.6875 0 
z
" id="DejaVuSans-2e"/>
      </defs>
      <g transform="translate(34.696875 430.495826)scale(0.1 -0.1)">
       <use xlink:href="#DejaVuSans-30"/>
       <use x="63.623047" xlink:href="#DejaVuSans-2e"/>
       <use x="95.410156" xlink:href="#DejaVuSans-30"/>
      </g>
     </g>
    </g>
    <g id="ytick_8">
     <g id="line2d_25">
      <g>
       <use style="stroke:#000000;stroke-width:0.8;" x="57.6" xlink:href="#m113b2da50f" y="395.600706"/>
      </g>
     </g>
     <g id="text_26">
      <!-- 0.2 -->
      <g transform="translate(34.696875 399.399925)scale(0.1 -0.1)">
       <use xlink:href="#DejaVuSans-30"/>
       <use x="63.623047" xlink:href="#DejaVuSans-2e"/>
       <use x="95.410156" xlink:href="#DejaVuSans-32"/>
      </g>
     </g>
    </g>
    <g id="ytick_9">
     <g id="line2d_26">
      <g>
       <use style="stroke:#000000;stroke-width:0.8;" x="57.6" xlink:href="#m113b2da50f" y="364.504805"/>
      </g>
     </g>
     <g id="text_27">
      <!-- 0.4 -->
      <g transform="translate(34.696875 368.304024)scale(0.1 -0.1)">
       <use xlink:href="#DejaVuSans-30"/>
       <use x="63.623047" xlink:href="#DejaVuSans-2e"/>
       <use x="95.410156" xlink:href="#DejaVuSans-34"/>
      </g>
     </g>
    </g>
    <g id="ytick_10">
     <g id="line2d_27">
      <g>
       <use style="stroke:#000000;stroke-width:0.8;" x="57.6" xlink:href="#m113b2da50f" y="333.408904"/>
      </g>
     </g>
     <g id="text_28">
      <!-- 0.6 -->
      <g transform="translate(34.696875 337.208123)scale(0.1 -0.1)">
       <use xlink:href="#DejaVuSans-30"/>
       <use x="63.623047" xlink:href="#DejaVuSans-2e"/>
       <use x="95.410156" xlink:href="#DejaVuSans-36"/>
      </g>
     </g>
    </g>
    <g id="ytick_11">
     <g id="line2d_28">
      <g>
       <use style="stroke:#000000;stroke-width:0.8;" x="57.6" xlink:href="#m113b2da50f" y="302.313003"/>
      </g>
     </g>
     <g id="text_29">
      <!-- 0.8 -->
      <defs>
       <path d="M 31.78125 34.625 
Q 24.75 34.625 20.71875 30.859375 
Q 16.703125 27.09375 16.703125 20.515625 
Q 16.703125 13.921875 20.71875 10.15625 
Q 24.75 6.390625 31.78125 6.390625 
Q 38.8125 6.390625 42.859375 10.171875 
Q 46.921875 13.96875 46.921875 20.515625 
Q 46.921875 27.09375 42.890625 30.859375 
Q 38.875 34.625 31.78125 34.625 
z
M 21.921875 38.8125 
Q 15.578125 40.375 12.03125 44.71875 
Q 8.5 49.078125 8.5 55.328125 
Q 8.5 64.0625 14.71875 69.140625 
Q 20.953125 74.21875 31.78125 74.21875 
Q 42.671875 74.21875 48.875 69.140625 
Q 55.078125 64.0625 55.078125 55.328125 
Q 55.078125 49.078125 51.53125 44.71875 
Q 48 40.375 41.703125 38.8125 
Q 48.828125 37.15625 52.796875 32.3125 
Q 56.78125 27.484375 56.78125 20.515625 
Q 56.78125 9.90625 50.3125 4.234375 
Q 43.84375 -1.421875 31.78125 -1.421875 
Q 19.734375 -1.421875 13.25 4.234375 
Q 6.78125 9.90625 6.78125 20.515625 
Q 6.78125 27.484375 10.78125 32.3125 
Q 14.796875 37.15625 21.921875 38.8125 
z
M 18.3125 54.390625 
Q 18.3125 48.734375 21.84375 45.5625 
Q 25.390625 42.390625 31.78125 42.390625 
Q 38.140625 42.390625 41.71875 45.5625 
Q 45.3125 48.734375 45.3125 54.390625 
Q 45.3125 60.0625 41.71875 63.234375 
Q 38.140625 66.40625 31.78125 66.40625 
Q 25.390625 66.40625 21.84375 63.234375 
Q 18.3125 60.0625 18.3125 54.390625 
z
" id="DejaVuSans-38"/>
      </defs>
      <g transform="translate(34.696875 306.112222)scale(0.1 -0.1)">
       <use xlink:href="#DejaVuSans-30"/>
       <use x="63.623047" xlink:href="#DejaVuSans-2e"/>
       <use x="95.410156" xlink:href="#DejaVuSans-38"/>
      </g>
     </g>
    </g>
    <g id="ytick_12">
     <g id="line2d_29">
      <g>
       <use style="stroke:#000000;stroke-width:0.8;" x="57.6" xlink:href="#m113b2da50f" y="271.217102"/>
      </g>
     </g>
     <g id="text_30">
      <!-- 1.0 -->
      <g transform="translate(34.696875 275.016321)scale(0.1 -0.1)">
       <use xlink:href="#DejaVuSans-31"/>
       <use x="63.623047" xlink:href="#DejaVuSans-2e"/>
       <use x="95.410156" xlink:href="#DejaVuSans-30"/>
      </g>
     </g>
    </g>
    <g id="text_31">
     <!-- Duty cycle -->
     <defs>
      <path d="M 19.671875 64.796875 
L 19.671875 8.109375 
L 31.59375 8.109375 
Q 46.6875 8.109375 53.6875 14.9375 
Q 60.6875 21.78125 60.6875 36.53125 
Q 60.6875 51.171875 53.6875 57.984375 
Q 46.6875 64.796875 31.59375 64.796875 
z
M 9.8125 72.90625 
L 30.078125 72.90625 
Q 51.265625 72.90625 61.171875 64.09375 
Q 71.09375 55.28125 71.09375 36.53125 
Q 71.09375 17.671875 61.125 8.828125 
Q 51.171875 0 30.078125 0 
L 9.8125 0 
z
" id="DejaVuSans-44"/>
      <path d="M 32.171875 -5.078125 
Q 28.375 -14.84375 24.75 -17.8125 
Q 21.140625 -20.796875 15.09375 -20.796875 
L 7.90625 -20.796875 
L 7.90625 -13.28125 
L 13.1875 -13.28125 
Q 16.890625 -13.28125 18.9375 -11.515625 
Q 21 -9.765625 23.484375 -3.21875 
L 25.09375 0.875 
L 2.984375 54.6875 
L 12.5 54.6875 
L 29.59375 11.921875 
L 46.6875 54.6875 
L 56.203125 54.6875 
z
" id="DejaVuSans-79"/>
      <path d="M 48.78125 52.59375 
L 48.78125 44.1875 
Q 44.96875 46.296875 41.140625 47.34375 
Q 37.3125 48.390625 33.40625 48.390625 
Q 24.65625 48.390625 19.8125 42.84375 
Q 14.984375 37.3125 14.984375 27.296875 
Q 14.984375 17.28125 19.8125 11.734375 
Q 24.65625 6.203125 33.40625 6.203125 
Q 37.3125 6.203125 41.140625 7.25 
Q 44.96875 8.296875 48.78125 10.40625 
L 48.78125 2.09375 
Q 45.015625 0.34375 40.984375 -0.53125 
Q 36.96875 -1.421875 32.421875 -1.421875 
Q 20.0625 -1.421875 12.78125 6.34375 
Q 5.515625 14.109375 5.515625 27.296875 
Q 5.515625 40.671875 12.859375 48.328125 
Q 20.21875 56 33.015625 56 
Q 37.15625 56 41.109375 55.140625 
Q 45.0625 54.296875 48.78125 52.59375 
z
" id="DejaVuSans-63"/>
     </defs>
     <g transform="translate(28.617187 375.485181)rotate(-90)scale(0.1 -0.1)">
      <use xlink:href="#DejaVuSans-44"/>
      <use x="77.001953" xlink:href="#DejaVuSans-75"/>
      <use x="140.380859" xlink:href="#DejaVuSans-74"/>
      <use x="179.589844" xlink:href="#DejaVuSans-79"/>
      <use x="238.769531" xlink:href="#DejaVuSans-20"/>
      <use x="270.556641" xlink:href="#DejaVuSans-63"/>
      <use x="325.537109" xlink:href="#DejaVuSans-79"/>
      <use x="384.716797" xlink:href="#DejaVuSans-63"/>
      <use x="439.697266" xlink:href="#DejaVuSans-6c"/>
      <use x="467.480469" xlink:href="#DejaVuSans-65"/>
     </g>
    </g>
   </g>
   <g id="line2d_30">
    <path clip-path="url(#p8d5a81f242)" d="M 73.832727 271.372582 
L 182.652957 271.372582 
L 183.55603 294.829756 
L 184.007566 320.592578 
L 184.459102 325.182841 
L 184.910639 352.236478 
L 185.362175 358.1336 
L 185.813711 374.36104 
L 186.265247 384.835097 
L 186.716783 402.720137 
L 187.16832 404.582615 
L 187.619856 426.696218 
L 250.383391 426.696218 
L 250.834927 416.459573 
L 251.286464 413.170968 
L 251.738 420.24354 
L 252.189536 407.239593 
L 252.641072 424.67731 
L 253.092608 397.111577 
L 253.544145 413.856034 
L 253.995681 395.710468 
L 254.447217 393.582535 
L 255.35029 388.089663 
L 255.801826 393.164417 
L 256.253362 376.248014 
L 256.704898 379.036532 
L 257.156434 374.079243 
L 257.607971 385.231353 
L 258.059507 363.050946 
L 258.511043 379.670211 
L 258.962579 372.936548 
L 259.414116 361.737447 
L 259.865652 361.373697 
L 260.317188 363.544403 
L 260.768724 366.847761 
L 261.22026 367.934254 
L 262.123333 349.305375 
L 262.574869 373.715298 
L 263.026405 354.45267 
L 263.477942 370.09604 
L 263.929478 344.209092 
L 264.381014 359.693525 
L 264.83255 362.078389 
L 265.284086 351.736298 
L 265.735623 338.044189 
L 266.187159 354.734786 
L 266.638695 351.045556 
L 267.090231 341.855479 
L 267.541768 353.189547 
L 267.993304 343.384128 
L 268.44484 341.476771 
L 268.896376 338.402851 
L 269.347913 357.779617 
L 269.799449 358.362586 
L 270.250985 349.774749 
L 270.702521 426.696218 
L 271.154057 366.756902 
L 271.605594 337.687392 
L 272.05713 362.875119 
L 272.508666 360.422506 
L 272.960202 357.045481 
L 273.411739 366.263706 
L 274.314811 354.654549 
L 274.766347 343.6206 
L 275.217883 360.783339 
L 275.66942 347.9977 
L 276.120956 372.012897 
L 276.572492 352.80635 
L 277.024028 369.74594 
L 277.475565 355.560145 
L 277.927101 358.610319 
L 278.378637 360.796505 
L 278.830173 375.277212 
L 279.281709 371.380269 
L 279.733246 355.342792 
L 280.184782 357.093846 
L 280.636318 370.035519 
L 281.087854 360.5733 
L 281.539391 344.889866 
L 281.990927 367.306733 
L 282.442463 365.840038 
L 282.893999 367.666615 
L 283.345535 346.160177 
L 283.797072 377.191769 
L 284.248608 369.27869 
L 284.700144 366.525608 
L 285.15168 367.440818 
L 285.603217 386.081615 
L 286.506289 363.317331 
L 286.957825 369.255803 
L 287.409361 369.236177 
L 287.860898 375.135528 
L 288.312434 385.674984 
L 288.76397 386.663236 
L 289.215506 371.393661 
L 289.667043 368.709631 
L 290.118579 376.291641 
L 290.570115 372.820209 
L 291.021651 367.732225 
L 291.473188 368.935435 
L 291.924724 362.174465 
L 292.37626 387.188297 
L 292.827796 366.534546 
L 293.279332 386.782801 
L 293.730869 369.286762 
L 294.182405 376.705477 
L 294.633941 367.692862 
L 295.085477 380.036443 
L 295.537014 368.326191 
L 295.98855 384.733771 
L 296.440086 363.245844 
L 296.891622 366.320491 
L 297.343158 360.139766 
L 297.794695 370.495386 
L 298.246231 371.31895 
L 298.697767 378.763054 
L 299.149303 368.960569 
L 299.60084 353.161927 
L 300.052376 379.571627 
L 300.503912 363.489802 
L 300.955448 378.991682 
L 301.406984 366.727607 
L 301.858521 369.617555 
L 302.310057 363.76431 
L 302.761593 371.196249 
L 303.213129 338.699306 
L 303.664666 378.212187 
L 304.116202 347.190501 
L 304.567738 368.379006 
L 305.019274 356.18626 
L 305.47081 355.527149 
L 305.922347 349.673389 
L 306.373883 378.599833 
L 306.825419 345.076147 
L 307.276955 357.755817 
L 307.728492 349.073952 
L 308.180028 355.258244 
L 308.631564 355.392074 
L 309.0831 363.050465 
L 309.534636 351.117311 
L 309.986173 346.402205 
L 310.437709 348.023431 
L 310.889245 354.548455 
L 311.340781 352.962238 
L 311.792318 348.496142 
L 312.243854 350.911696 
L 312.69539 340.712376 
L 313.146926 350.687518 
L 313.598463 331.262127 
L 314.049999 354.731029 
L 314.501535 347.987277 
L 314.953071 347.10332 
L 315.404607 345.577743 
L 315.856144 342.679219 
L 316.30768 356.328278 
L 316.759216 355.485303 
L 317.210752 348.535478 
L 317.662289 366.462931 
L 318.113825 337.448452 
L 318.565361 356.308397 
L 319.016897 352.714959 
L 319.468433 363.834108 
L 319.91997 367.497866 
L 320.371506 362.212168 
L 320.823042 374.164187 
L 321.274578 366.005045 
L 321.726115 365.010271 
L 322.177651 426.696218 
L 322.629187 394.903363 
L 323.080723 379.053915 
L 323.532259 378.884079 
L 323.983796 371.69667 
L 324.435332 383.577195 
L 324.886868 390.275601 
L 325.338404 378.860877 
L 325.789941 380.945619 
L 326.241477 356.811609 
L 326.693013 383.937071 
L 327.144549 391.782367 
L 327.596085 380.827787 
L 328.047622 271.372582 
L 328.499158 384.655739 
L 328.950694 385.611215 
L 329.40223 382.698997 
L 330.305303 373.963682 
L 330.756839 385.952506 
L 331.208375 382.139473 
L 331.659911 392.227362 
L 332.111448 372.832859 
L 332.562984 391.763345 
L 333.01452 385.908305 
L 333.466056 405.416189 
L 333.917593 372.183997 
L 334.369129 386.408091 
L 334.820665 373.753596 
L 335.272201 381.310204 
L 335.723738 386.284882 
L 336.175274 386.52309 
L 336.62681 367.213413 
L 337.078346 387.218897 
L 337.529882 376.515514 
L 337.981419 392.52424 
L 338.884491 334.276679 
L 339.336027 404.730328 
L 339.787564 372.065706 
L 340.2391 367.462889 
L 340.690636 369.996835 
L 341.142172 377.006265 
L 341.593708 364.578586 
L 342.045245 361.250322 
L 342.496781 368.396123 
L 342.948317 363.073189 
L 343.399853 360.761957 
L 343.85139 355.802239 
L 344.302926 355.158547 
L 344.754462 349.055348 
L 345.205998 368.073607 
L 345.657534 355.031057 
L 346.109071 351.832315 
L 346.560607 352.31612 
L 347.012143 358.30594 
L 347.463679 341.424269 
L 347.915216 351.930719 
L 348.366752 349.492392 
L 348.818288 426.696218 
L 349.269824 342.49765 
L 349.72136 338.219165 
L 350.172897 354.236219 
L 350.624433 348.372737 
L 351.075969 354.494163 
L 351.979042 339.072113 
L 352.430578 340.456428 
L 352.882114 351.406294 
L 353.33365 343.385816 
L 353.785186 344.702877 
L 354.236723 353.054157 
L 354.688259 343.665972 
L 355.139795 342.014552 
L 355.591331 351.367911 
L 356.042868 350.402333 
L 356.494404 356.69058 
L 356.94594 353.033229 
L 357.849013 341.922157 
L 358.300549 343.373526 
L 358.752085 350.01178 
L 359.203621 366.397016 
L 359.655157 367.262979 
L 360.106694 359.010207 
L 360.55823 365.574034 
L 361.009766 360.830263 
L 361.461302 353.382478 
L 361.912839 364.376854 
L 362.364375 359.617848 
L 362.815911 378.744007 
L 363.267447 361.298492 
L 363.718983 394.079174 
L 364.17052 360.023846 
L 364.622056 378.837731 
L 365.073592 377.506651 
L 365.525128 383.985903 
L 365.976665 371.310922 
L 366.428201 393.2617 
L 366.879737 382.019462 
L 367.331273 381.026316 
L 367.782809 372.855521 
L 368.234346 378.243937 
L 368.685882 370.42994 
L 369.137418 388.147735 
L 369.588954 370.055724 
L 370.040491 386.207155 
L 370.492027 382.900631 
L 370.943563 384.175188 
L 371.395099 367.57454 
L 371.846635 383.899665 
L 372.298172 383.024098 
L 372.749708 378.900184 
L 373.201244 359.331784 
L 373.65278 380.173054 
L 374.104317 380.51581 
L 374.555853 389.120209 
L 375.007389 370.342449 
L 375.458925 390.767457 
L 375.910461 386.847484 
L 376.361998 397.812959 
L 376.813534 383.243212 
L 377.26507 391.46057 
L 377.716606 390.582175 
L 378.168143 376.55307 
L 379.071215 395.379296 
L 379.522751 385.416857 
L 379.974288 393.951309 
L 380.425824 384.455685 
L 380.87736 384.150901 
L 381.328896 380.913854 
L 381.780432 426.696218 
L 382.231969 383.52232 
L 382.683505 375.173855 
L 383.135041 376.041753 
L 383.586577 384.196567 
L 384.038114 370.827594 
L 384.48965 387.263663 
L 384.941186 360.438175 
L 385.392722 370.177204 
L 385.844258 353.514663 
L 386.295795 370.693817 
L 386.747331 363.768944 
L 387.198867 367.395162 
L 387.650403 352.131826 
L 388.10194 355.521079 
L 388.553476 336.022322 
L 389.005012 347.7323 
L 389.456548 335.369676 
L 389.908084 341.845359 
L 390.359621 341.269731 
L 390.811157 354.386997 
L 391.262693 331.939881 
L 391.714229 349.429922 
L 392.165766 334.510663 
L 392.617302 338.479101 
L 393.068838 336.899084 
L 393.520374 351.621337 
L 393.97191 346.391173 
L 394.423447 354.120637 
L 394.874983 340.958587 
L 395.326519 352.988399 
L 395.778055 344.453335 
L 396.229592 349.801795 
L 396.681128 426.696218 
L 397.132664 359.89952 
L 397.5842 359.334395 
L 398.035737 359.677005 
L 398.487273 351.504251 
L 398.487273 351.504251 
" style="fill:none;stroke:#1f77b4;stroke-linecap:square;stroke-width:1.5;"/>
   </g>
   <g id="patch_8">
    <path d="M 57.6 434.4624 
L 57.6 263.6064 
" style="fill:none;stroke:#000000;stroke-linecap:square;stroke-linejoin:miter;stroke-width:0.8;"/>
   </g>
   <g id="patch_9">
    <path d="M 414.72 434.4624 
L 414.72 263.6064 
" style="fill:none;stroke:#000000;stroke-linecap:square;stroke-linejoin:miter;stroke-width:0.8;"/>
   </g>
   <g id="patch_10">
    <path d="M 57.6 434.4624 
L 414.72 434.4624 
" style="fill:none;stroke:#000000;stroke-linecap:square;stroke-linejoin:miter;stroke-width:0.8;"/>
   </g>
   <g id="patch_11">
    <path d="M 57.6 263.6064 
L 414.72 263.6064 
" style="fill:none;stroke:#000000;stroke-linecap:square;stroke-linejoin:miter;stroke-width:0.8;"/>
   </g>
  </g>
 </g>
 <defs>
  <clipPath id="p1ccc0df48e">
   <rect height="170.856" width="357.12" x="57.6" y="58.5792"/>
  </clipPath>
  <clipPath id="p8d5a81f242">
   <rect height="170.856" width="357.12" x="57.6" y="263.6064"/>
  </clipPath>
 </defs>
</svg>
