<?xml version="1.0" encoding="utf-8" standalone="no"?>
<!DOCTYPE svg PUBLIC "-//W3C//DTD SVG 1.1//EN"
  "http://www.w3.org/Graphics/SVG/1.1/DTD/svg11.dtd">
<!-- Created with matplotlib (http://matplotlib.org/) -->
<svg height="474.48pt" version="1.1" viewBox="0 0 444.24 474.48" width="444.24pt" xmlns="http://www.w3.org/2000/svg" xmlns:xlink="http://www.w3.org/1999/xlink">
 <defs>
  <style type="text/css">
*{stroke-linecap:butt;stroke-linejoin:round;}
  </style>
 </defs>
 <g id="figure_1">
  <g id="patch_1">
   <path d="M 0 474.48 
L 444.24 474.48 
L 444.24 0 
L 0 0 
z
" style="fill:#ffffff;"/>
  </g>
  <g id="axes_1">
   <g id="patch_2">
    <path d="M 55.53 223.0056 
L 399.816 223.0056 
L 399.816 56.9376 
L 55.53 56.9376 
z
" style="fill:#ffffff;"/>
   </g>
   <g id="matplotlib.axis_1">
    <g id="xtick_1">
     <g id="line2d_1">
      <defs>
       <path d="M 0 0 
L 0 3.5 
" id="ma7760b0a44" style="stroke:#000000;stroke-width:0.8;"/>
      </defs>
      <g>
       <use style="stroke:#000000;stroke-width:0.8;" x="71.179364" xlink:href="#ma7760b0a44" y="223.0056"/>
      </g>
     </g>
     <g id="text_1">
      <!-- 0 -->
      <defs>
       <path d="M 31.78125 66.40625 
Q 24.171875 66.40625 20.328125 58.90625 
Q 16.5 51.421875 16.5 36.375 
Q 16.5 21.390625 20.328125 13.890625 
Q 24.171875 6.390625 31.78125 6.390625 
Q 39.453125 6.390625 43.28125 13.890625 
Q 47.125 21.390625 47.125 36.375 
Q 47.125 51.421875 43.28125 58.90625 
Q 39.453125 66.40625 31.78125 66.40625 
z
M 31.78125 74.21875 
Q 44.046875 74.21875 50.515625 64.515625 
Q 56.984375 54.828125 56.984375 36.375 
Q 56.984375 17.96875 50.515625 8.265625 
Q 44.046875 -1.421875 31.78125 -1.421875 
Q 19.53125 -1.421875 13.0625 8.265625 
Q 6.59375 17.96875 6.59375 36.375 
Q 6.59375 54.828125 13.0625 64.515625 
Q 19.53125 74.21875 31.78125 74.21875 
z
" id="DejaVuSans-30"/>
      </defs>
      <g transform="translate(67.998114 237.604037)scale(0.1 -0.1)">
       <use xlink:href="#DejaVuSans-30"/>
      </g>
     </g>
    </g>
    <g id="xtick_2">
     <g id="line2d_2">
      <g>
       <use style="stroke:#000000;stroke-width:0.8;" x="146.056702" xlink:href="#ma7760b0a44" y="223.0056"/>
      </g>
     </g>
     <g id="text_2">
      <!-- 200 -->
      <defs>
       <path d="M 19.1875 8.296875 
L 53.609375 8.296875 
L 53.609375 0 
L 7.328125 0 
L 7.328125 8.296875 
Q 12.9375 14.109375 22.625 23.890625 
Q 32.328125 33.6875 34.8125 36.53125 
Q 39.546875 41.84375 41.421875 45.53125 
Q 43.3125 49.21875 43.3125 52.78125 
Q 43.3125 58.59375 39.234375 62.25 
Q 35.15625 65.921875 28.609375 65.921875 
Q 23.96875 65.921875 18.8125 64.3125 
Q 13.671875 62.703125 7.8125 59.421875 
L 7.8125 69.390625 
Q 13.765625 71.78125 18.9375 73 
Q 24.125 74.21875 28.421875 74.21875 
Q 39.75 74.21875 46.484375 68.546875 
Q 53.21875 62.890625 53.21875 53.421875 
Q 53.21875 48.921875 51.53125 44.890625 
Q 49.859375 40.875 45.40625 35.40625 
Q 44.1875 33.984375 37.640625 27.21875 
Q 31.109375 20.453125 19.1875 8.296875 
z
" id="DejaVuSans-32"/>
      </defs>
      <g transform="translate(136.512952 237.604037)scale(0.1 -0.1)">
       <use xlink:href="#DejaVuSans-32"/>
       <use x="63.623047" xlink:href="#DejaVuSans-30"/>
       <use x="127.246094" xlink:href="#DejaVuSans-30"/>
      </g>
     </g>
    </g>
    <g id="xtick_3">
     <g id="line2d_3">
      <g>
       <use style="stroke:#000000;stroke-width:0.8;" x="220.93404" xlink:href="#ma7760b0a44" y="223.0056"/>
      </g>
     </g>
     <g id="text_3">
      <!-- 400 -->
      <defs>
       <path d="M 37.796875 64.3125 
L 12.890625 25.390625 
L 37.796875 25.390625 
z
M 35.203125 72.90625 
L 47.609375 72.90625 
L 47.609375 25.390625 
L 58.015625 25.390625 
L 58.015625 17.1875 
L 47.609375 17.1875 
L 47.609375 0 
L 37.796875 0 
L 37.796875 17.1875 
L 4.890625 17.1875 
L 4.890625 26.703125 
z
" id="DejaVuSans-34"/>
      </defs>
      <g transform="translate(211.39029 237.604037)scale(0.1 -0.1)">
       <use xlink:href="#DejaVuSans-34"/>
       <use x="63.623047" xlink:href="#DejaVuSans-30"/>
       <use x="127.246094" xlink:href="#DejaVuSans-30"/>
      </g>
     </g>
    </g>
    <g id="xtick_4">
     <g id="line2d_4">
      <g>
       <use style="stroke:#000000;stroke-width:0.8;" x="295.811378" xlink:href="#ma7760b0a44" y="223.0056"/>
      </g>
     </g>
     <g id="text_4">
      <!-- 600 -->
      <defs>
       <path d="M 33.015625 40.375 
Q 26.375 40.375 22.484375 35.828125 
Q 18.609375 31.296875 18.609375 23.390625 
Q 18.609375 15.53125 22.484375 10.953125 
Q 26.375 6.390625 33.015625 6.390625 
Q 39.65625 6.390625 43.53125 10.953125 
Q 47.40625 15.53125 47.40625 23.390625 
Q 47.40625 31.296875 43.53125 35.828125 
Q 39.65625 40.375 33.015625 40.375 
z
M 52.59375 71.296875 
L 52.59375 62.3125 
Q 48.875 64.0625 45.09375 64.984375 
Q 41.3125 65.921875 37.59375 65.921875 
Q 27.828125 65.921875 22.671875 59.328125 
Q 17.53125 52.734375 16.796875 39.40625 
Q 19.671875 43.65625 24.015625 45.921875 
Q 28.375 48.1875 33.59375 48.1875 
Q 44.578125 48.1875 50.953125 41.515625 
Q 57.328125 34.859375 57.328125 23.390625 
Q 57.328125 12.15625 50.6875 5.359375 
Q 44.046875 -1.421875 33.015625 -1.421875 
Q 20.359375 -1.421875 13.671875 8.265625 
Q 6.984375 17.96875 6.984375 36.375 
Q 6.984375 53.65625 15.1875 63.9375 
Q 23.390625 74.21875 37.203125 74.21875 
Q 40.921875 74.21875 44.703125 73.484375 
Q 48.484375 72.75 52.59375 71.296875 
z
" id="DejaVuSans-36"/>
      </defs>
      <g transform="translate(286.267628 237.604037)scale(0.1 -0.1)">
       <use xlink:href="#DejaVuSans-36"/>
       <use x="63.623047" xlink:href="#DejaVuSans-30"/>
       <use x="127.246094" xlink:href="#DejaVuSans-30"/>
      </g>
     </g>
    </g>
    <g id="xtick_5">
     <g id="line2d_5">
      <g>
       <use style="stroke:#000000;stroke-width:0.8;" x="370.688716" xlink:href="#ma7760b0a44" y="223.0056"/>
      </g>
     </g>
     <g id="text_5">
      <!-- 800 -->
      <defs>
       <path d="M 31.78125 34.625 
Q 24.75 34.625 20.71875 30.859375 
Q 16.703125 27.09375 16.703125 20.515625 
Q 16.703125 13.921875 20.71875 10.15625 
Q 24.75 6.390625 31.78125 6.390625 
Q 38.8125 6.390625 42.859375 10.171875 
Q 46.921875 13.96875 46.921875 20.515625 
Q 46.921875 27.09375 42.890625 30.859375 
Q 38.875 34.625 31.78125 34.625 
z
M 21.921875 38.8125 
Q 15.578125 40.375 12.03125 44.71875 
Q 8.5 49.078125 8.5 55.328125 
Q 8.5 64.0625 14.71875 69.140625 
Q 20.953125 74.21875 31.78125 74.21875 
Q 42.671875 74.21875 48.875 69.140625 
Q 55.078125 64.0625 55.078125 55.328125 
Q 55.078125 49.078125 51.53125 44.71875 
Q 48 40.375 41.703125 38.8125 
Q 48.828125 37.15625 52.796875 32.3125 
Q 56.78125 27.484375 56.78125 20.515625 
Q 56.78125 9.90625 50.3125 4.234375 
Q 43.84375 -1.421875 31.78125 -1.421875 
Q 19.734375 -1.421875 13.25 4.234375 
Q 6.78125 9.90625 6.78125 20.515625 
Q 6.78125 27.484375 10.78125 32.3125 
Q 14.796875 37.15625 21.921875 38.8125 
z
M 18.3125 54.390625 
Q 18.3125 48.734375 21.84375 45.5625 
Q 25.390625 42.390625 31.78125 42.390625 
Q 38.140625 42.390625 41.71875 45.5625 
Q 45.3125 48.734375 45.3125 54.390625 
Q 45.3125 60.0625 41.71875 63.234375 
Q 38.140625 66.40625 31.78125 66.40625 
Q 25.390625 66.40625 21.84375 63.234375 
Q 18.3125 60.0625 18.3125 54.390625 
z
" id="DejaVuSans-38"/>
      </defs>
      <g transform="translate(361.144966 237.604037)scale(0.1 -0.1)">
       <use xlink:href="#DejaVuSans-38"/>
       <use x="63.623047" xlink:href="#DejaVuSans-30"/>
       <use x="127.246094" xlink:href="#DejaVuSans-30"/>
      </g>
     </g>
    </g>
   </g>
   <g id="matplotlib.axis_2">
    <g id="ytick_1">
     <g id="line2d_6">
      <defs>
       <path d="M 0 0 
L -3.5 0 
" id="mb349ba1922" style="stroke:#000000;stroke-width:0.8;"/>
      </defs>
      <g>
       <use style="stroke:#000000;stroke-width:0.8;" x="55.53" xlink:href="#mb349ba1922" y="211.30297"/>
      </g>
     </g>
     <g id="text_6">
      <!-- 44 -->
      <g transform="translate(35.805 215.102188)scale(0.1 -0.1)">
       <use xlink:href="#DejaVuSans-34"/>
       <use x="63.623047" xlink:href="#DejaVuSans-34"/>
      </g>
     </g>
    </g>
    <g id="ytick_2">
     <g id="line2d_7">
      <g>
       <use style="stroke:#000000;stroke-width:0.8;" x="55.53" xlink:href="#mb349ba1922" y="176.156805"/>
      </g>
     </g>
     <g id="text_7">
      <!-- 46 -->
      <g transform="translate(35.805 179.956024)scale(0.1 -0.1)">
       <use xlink:href="#DejaVuSans-34"/>
       <use x="63.623047" xlink:href="#DejaVuSans-36"/>
      </g>
     </g>
    </g>
    <g id="ytick_3">
     <g id="line2d_8">
      <g>
       <use style="stroke:#000000;stroke-width:0.8;" x="55.53" xlink:href="#mb349ba1922" y="141.010641"/>
      </g>
     </g>
     <g id="text_8">
      <!-- 48 -->
      <g transform="translate(35.805 144.809859)scale(0.1 -0.1)">
       <use xlink:href="#DejaVuSans-34"/>
       <use x="63.623047" xlink:href="#DejaVuSans-38"/>
      </g>
     </g>
    </g>
    <g id="ytick_4">
     <g id="line2d_9">
      <g>
       <use style="stroke:#000000;stroke-width:0.8;" x="55.53" xlink:href="#mb349ba1922" y="105.864476"/>
      </g>
     </g>
     <g id="text_9">
      <!-- 50 -->
      <defs>
       <path d="M 10.796875 72.90625 
L 49.515625 72.90625 
L 49.515625 64.59375 
L 19.828125 64.59375 
L 19.828125 46.734375 
Q 21.96875 47.46875 24.109375 47.828125 
Q 26.265625 48.1875 28.421875 48.1875 
Q 40.625 48.1875 47.75 41.5 
Q 54.890625 34.8125 54.890625 23.390625 
Q 54.890625 11.625 47.5625 5.09375 
Q 40.234375 -1.421875 26.90625 -1.421875 
Q 22.3125 -1.421875 17.546875 -0.640625 
Q 12.796875 0.140625 7.71875 1.703125 
L 7.71875 11.625 
Q 12.109375 9.234375 16.796875 8.0625 
Q 21.484375 6.890625 26.703125 6.890625 
Q 35.15625 6.890625 40.078125 11.328125 
Q 45.015625 15.765625 45.015625 23.390625 
Q 45.015625 31 40.078125 35.4375 
Q 35.15625 39.890625 26.703125 39.890625 
Q 22.75 39.890625 18.8125 39.015625 
Q 14.890625 38.140625 10.796875 36.28125 
z
" id="DejaVuSans-35"/>
      </defs>
      <g transform="translate(35.805 109.663695)scale(0.1 -0.1)">
       <use xlink:href="#DejaVuSans-35"/>
       <use x="63.623047" xlink:href="#DejaVuSans-30"/>
      </g>
     </g>
    </g>
    <g id="ytick_5">
     <g id="line2d_10">
      <g>
       <use style="stroke:#000000;stroke-width:0.8;" x="55.53" xlink:href="#mb349ba1922" y="70.718311"/>
      </g>
     </g>
     <g id="text_10">
      <!-- 52 -->
      <g transform="translate(35.805 74.51753)scale(0.1 -0.1)">
       <use xlink:href="#DejaVuSans-35"/>
       <use x="63.623047" xlink:href="#DejaVuSans-32"/>
      </g>
     </g>
    </g>
    <g id="text_11">
     <!-- Temperatura [Celsius] -->
     <defs>
      <path d="M -0.296875 72.90625 
L 61.375 72.90625 
L 61.375 64.59375 
L 35.5 64.59375 
L 35.5 0 
L 25.59375 0 
L 25.59375 64.59375 
L -0.296875 64.59375 
z
" id="DejaVuSans-54"/>
      <path d="M 56.203125 29.59375 
L 56.203125 25.203125 
L 14.890625 25.203125 
Q 15.484375 15.921875 20.484375 11.0625 
Q 25.484375 6.203125 34.421875 6.203125 
Q 39.59375 6.203125 44.453125 7.46875 
Q 49.3125 8.734375 54.109375 11.28125 
L 54.109375 2.78125 
Q 49.265625 0.734375 44.1875 -0.34375 
Q 39.109375 -1.421875 33.890625 -1.421875 
Q 20.796875 -1.421875 13.15625 6.1875 
Q 5.515625 13.8125 5.515625 26.8125 
Q 5.515625 40.234375 12.765625 48.109375 
Q 20.015625 56 32.328125 56 
Q 43.359375 56 49.78125 48.890625 
Q 56.203125 41.796875 56.203125 29.59375 
z
M 47.21875 32.234375 
Q 47.125 39.59375 43.09375 43.984375 
Q 39.0625 48.390625 32.421875 48.390625 
Q 24.90625 48.390625 20.390625 44.140625 
Q 15.875 39.890625 15.1875 32.171875 
z
" id="DejaVuSans-65"/>
      <path d="M 52 44.1875 
Q 55.375 50.25 60.0625 53.125 
Q 64.75 56 71.09375 56 
Q 79.640625 56 84.28125 50.015625 
Q 88.921875 44.046875 88.921875 33.015625 
L 88.921875 0 
L 79.890625 0 
L 79.890625 32.71875 
Q 79.890625 40.578125 77.09375 44.375 
Q 74.3125 48.1875 68.609375 48.1875 
Q 61.625 48.1875 57.5625 43.546875 
Q 53.515625 38.921875 53.515625 30.90625 
L 53.515625 0 
L 44.484375 0 
L 44.484375 32.71875 
Q 44.484375 40.625 41.703125 44.40625 
Q 38.921875 48.1875 33.109375 48.1875 
Q 26.21875 48.1875 22.15625 43.53125 
Q 18.109375 38.875 18.109375 30.90625 
L 18.109375 0 
L 9.078125 0 
L 9.078125 54.6875 
L 18.109375 54.6875 
L 18.109375 46.1875 
Q 21.1875 51.21875 25.484375 53.609375 
Q 29.78125 56 35.6875 56 
Q 41.65625 56 45.828125 52.96875 
Q 50 49.953125 52 44.1875 
z
" id="DejaVuSans-6d"/>
      <path d="M 18.109375 8.203125 
L 18.109375 -20.796875 
L 9.078125 -20.796875 
L 9.078125 54.6875 
L 18.109375 54.6875 
L 18.109375 46.390625 
Q 20.953125 51.265625 25.265625 53.625 
Q 29.59375 56 35.59375 56 
Q 45.5625 56 51.78125 48.09375 
Q 58.015625 40.1875 58.015625 27.296875 
Q 58.015625 14.40625 51.78125 6.484375 
Q 45.5625 -1.421875 35.59375 -1.421875 
Q 29.59375 -1.421875 25.265625 0.953125 
Q 20.953125 3.328125 18.109375 8.203125 
z
M 48.6875 27.296875 
Q 48.6875 37.203125 44.609375 42.84375 
Q 40.53125 48.484375 33.40625 48.484375 
Q 26.265625 48.484375 22.1875 42.84375 
Q 18.109375 37.203125 18.109375 27.296875 
Q 18.109375 17.390625 22.1875 11.75 
Q 26.265625 6.109375 33.40625 6.109375 
Q 40.53125 6.109375 44.609375 11.75 
Q 48.6875 17.390625 48.6875 27.296875 
z
" id="DejaVuSans-70"/>
      <path d="M 41.109375 46.296875 
Q 39.59375 47.171875 37.8125 47.578125 
Q 36.03125 48 33.890625 48 
Q 26.265625 48 22.1875 43.046875 
Q 18.109375 38.09375 18.109375 28.8125 
L 18.109375 0 
L 9.078125 0 
L 9.078125 54.6875 
L 18.109375 54.6875 
L 18.109375 46.1875 
Q 20.953125 51.171875 25.484375 53.578125 
Q 30.03125 56 36.53125 56 
Q 37.453125 56 38.578125 55.875 
Q 39.703125 55.765625 41.0625 55.515625 
z
" id="DejaVuSans-72"/>
      <path d="M 34.28125 27.484375 
Q 23.390625 27.484375 19.1875 25 
Q 14.984375 22.515625 14.984375 16.5 
Q 14.984375 11.71875 18.140625 8.90625 
Q 21.296875 6.109375 26.703125 6.109375 
Q 34.1875 6.109375 38.703125 11.40625 
Q 43.21875 16.703125 43.21875 25.484375 
L 43.21875 27.484375 
z
M 52.203125 31.203125 
L 52.203125 0 
L 43.21875 0 
L 43.21875 8.296875 
Q 40.140625 3.328125 35.546875 0.953125 
Q 30.953125 -1.421875 24.3125 -1.421875 
Q 15.921875 -1.421875 10.953125 3.296875 
Q 6 8.015625 6 15.921875 
Q 6 25.140625 12.171875 29.828125 
Q 18.359375 34.515625 30.609375 34.515625 
L 43.21875 34.515625 
L 43.21875 35.40625 
Q 43.21875 41.609375 39.140625 45 
Q 35.0625 48.390625 27.6875 48.390625 
Q 23 48.390625 18.546875 47.265625 
Q 14.109375 46.140625 10.015625 43.890625 
L 10.015625 52.203125 
Q 14.9375 54.109375 19.578125 55.046875 
Q 24.21875 56 28.609375 56 
Q 40.484375 56 46.34375 49.84375 
Q 52.203125 43.703125 52.203125 31.203125 
z
" id="DejaVuSans-61"/>
      <path d="M 18.3125 70.21875 
L 18.3125 54.6875 
L 36.8125 54.6875 
L 36.8125 47.703125 
L 18.3125 47.703125 
L 18.3125 18.015625 
Q 18.3125 11.328125 20.140625 9.421875 
Q 21.96875 7.515625 27.59375 7.515625 
L 36.8125 7.515625 
L 36.8125 0 
L 27.59375 0 
Q 17.1875 0 13.234375 3.875 
Q 9.28125 7.765625 9.28125 18.015625 
L 9.28125 47.703125 
L 2.6875 47.703125 
L 2.6875 54.6875 
L 9.28125 54.6875 
L 9.28125 70.21875 
z
" id="DejaVuSans-74"/>
      <path d="M 8.5 21.578125 
L 8.5 54.6875 
L 17.484375 54.6875 
L 17.484375 21.921875 
Q 17.484375 14.15625 20.5 10.265625 
Q 23.53125 6.390625 29.59375 6.390625 
Q 36.859375 6.390625 41.078125 11.03125 
Q 45.3125 15.671875 45.3125 23.6875 
L 45.3125 54.6875 
L 54.296875 54.6875 
L 54.296875 0 
L 45.3125 0 
L 45.3125 8.40625 
Q 42.046875 3.421875 37.71875 1 
Q 33.40625 -1.421875 27.6875 -1.421875 
Q 18.265625 -1.421875 13.375 4.4375 
Q 8.5 10.296875 8.5 21.578125 
z
M 31.109375 56 
z
" id="DejaVuSans-75"/>
      <path id="DejaVuSans-20"/>
      <path d="M 8.59375 75.984375 
L 29.296875 75.984375 
L 29.296875 69 
L 17.578125 69 
L 17.578125 -6.203125 
L 29.296875 -6.203125 
L 29.296875 -13.1875 
L 8.59375 -13.1875 
z
" id="DejaVuSans-5b"/>
      <path d="M 64.40625 67.28125 
L 64.40625 56.890625 
Q 59.421875 61.53125 53.78125 63.8125 
Q 48.140625 66.109375 41.796875 66.109375 
Q 29.296875 66.109375 22.65625 58.46875 
Q 16.015625 50.828125 16.015625 36.375 
Q 16.015625 21.96875 22.65625 14.328125 
Q 29.296875 6.6875 41.796875 6.6875 
Q 48.140625 6.6875 53.78125 8.984375 
Q 59.421875 11.28125 64.40625 15.921875 
L 64.40625 5.609375 
Q 59.234375 2.09375 53.4375 0.328125 
Q 47.65625 -1.421875 41.21875 -1.421875 
Q 24.65625 -1.421875 15.125 8.703125 
Q 5.609375 18.84375 5.609375 36.375 
Q 5.609375 53.953125 15.125 64.078125 
Q 24.65625 74.21875 41.21875 74.21875 
Q 47.75 74.21875 53.53125 72.484375 
Q 59.328125 70.75 64.40625 67.28125 
z
" id="DejaVuSans-43"/>
      <path d="M 9.421875 75.984375 
L 18.40625 75.984375 
L 18.40625 0 
L 9.421875 0 
z
" id="DejaVuSans-6c"/>
      <path d="M 44.28125 53.078125 
L 44.28125 44.578125 
Q 40.484375 46.53125 36.375 47.5 
Q 32.28125 48.484375 27.875 48.484375 
Q 21.1875 48.484375 17.84375 46.4375 
Q 14.5 44.390625 14.5 40.28125 
Q 14.5 37.15625 16.890625 35.375 
Q 19.28125 33.59375 26.515625 31.984375 
L 29.59375 31.296875 
Q 39.15625 29.25 43.1875 25.515625 
Q 47.21875 21.78125 47.21875 15.09375 
Q 47.21875 7.46875 41.1875 3.015625 
Q 35.15625 -1.421875 24.609375 -1.421875 
Q 20.21875 -1.421875 15.453125 -0.5625 
Q 10.6875 0.296875 5.421875 2 
L 5.421875 11.28125 
Q 10.40625 8.6875 15.234375 7.390625 
Q 20.0625 6.109375 24.8125 6.109375 
Q 31.15625 6.109375 34.5625 8.28125 
Q 37.984375 10.453125 37.984375 14.40625 
Q 37.984375 18.0625 35.515625 20.015625 
Q 33.0625 21.96875 24.703125 23.78125 
L 21.578125 24.515625 
Q 13.234375 26.265625 9.515625 29.90625 
Q 5.8125 33.546875 5.8125 39.890625 
Q 5.8125 47.609375 11.28125 51.796875 
Q 16.75 56 26.8125 56 
Q 31.78125 56 36.171875 55.265625 
Q 40.578125 54.546875 44.28125 53.078125 
z
" id="DejaVuSans-73"/>
      <path d="M 9.421875 54.6875 
L 18.40625 54.6875 
L 18.40625 0 
L 9.421875 0 
z
M 9.421875 75.984375 
L 18.40625 75.984375 
L 18.40625 64.59375 
L 9.421875 64.59375 
z
" id="DejaVuSans-69"/>
      <path d="M 30.421875 75.984375 
L 30.421875 -13.1875 
L 9.71875 -13.1875 
L 9.71875 -6.203125 
L 21.390625 -6.203125 
L 21.390625 69 
L 9.71875 69 
L 9.71875 75.984375 
z
" id="DejaVuSans-5d"/>
     </defs>
     <g transform="translate(29.725312 195.792694)rotate(-90)scale(0.1 -0.1)">
      <use xlink:href="#DejaVuSans-54"/>
      <use x="60.818359" xlink:href="#DejaVuSans-65"/>
      <use x="122.341797" xlink:href="#DejaVuSans-6d"/>
      <use x="219.753906" xlink:href="#DejaVuSans-70"/>
      <use x="283.230469" xlink:href="#DejaVuSans-65"/>
      <use x="344.753906" xlink:href="#DejaVuSans-72"/>
      <use x="385.867188" xlink:href="#DejaVuSans-61"/>
      <use x="447.146484" xlink:href="#DejaVuSans-74"/>
      <use x="486.355469" xlink:href="#DejaVuSans-75"/>
      <use x="549.734375" xlink:href="#DejaVuSans-72"/>
      <use x="590.847656" xlink:href="#DejaVuSans-61"/>
      <use x="652.126953" xlink:href="#DejaVuSans-20"/>
      <use x="683.914062" xlink:href="#DejaVuSans-5b"/>
      <use x="722.927734" xlink:href="#DejaVuSans-43"/>
      <use x="792.751953" xlink:href="#DejaVuSans-65"/>
      <use x="854.275391" xlink:href="#DejaVuSans-6c"/>
      <use x="882.058594" xlink:href="#DejaVuSans-73"/>
      <use x="934.158203" xlink:href="#DejaVuSans-69"/>
      <use x="961.941406" xlink:href="#DejaVuSans-75"/>
      <use x="1025.320312" xlink:href="#DejaVuSans-73"/>
      <use x="1077.419922" xlink:href="#DejaVuSans-5d"/>
     </g>
    </g>
   </g>
   <g id="line2d_11">
    <path clip-path="url(#pb961e312f0)" d="M 71.179364 214.872062 
L 71.366557 215.457055 
L 71.928137 211.20603 
L 72.11533 210.083445 
L 73.051297 199.950122 
L 73.612877 194.44934 
L 74.174457 188.40403 
L 74.736037 182.75989 
L 75.297617 177.027886 
L 75.672004 174.159571 
L 76.607971 165.733826 
L 77.169551 160.963707 
L 77.356744 160.430739 
L 78.667097 150.570259 
L 78.854291 149.834971 
L 79.415871 146.062577 
L 79.603064 145.589727 
L 82.410964 130.125571 
L 82.972544 124.849075 
L 83.346931 121.873242 
L 84.657284 104.02287 
L 87.090798 67.251566 
L 87.277991 64.986742 
L 87.465185 64.486145 
L 87.652378 64.895409 
L 88.026765 66.833053 
L 88.962731 75.468055 
L 89.149925 76.234557 
L 89.337118 76.499307 
L 89.524311 76.513181 
L 89.711505 76.18022 
L 89.898698 75.183651 
L 90.085891 75.199837 
L 90.460278 75.357068 
L 90.647472 75.159373 
L 91.021858 76.003335 
L 91.396245 78.131738 
L 91.583438 78.61268 
L 91.770632 78.62771 
L 92.145018 79.679772 
L 92.332212 79.601156 
L 92.706598 80.576915 
L 92.893792 80.786171 
L 93.268178 80.520265 
L 93.829758 81.178093 
L 94.016952 80.523734 
L 94.204145 81.544581 
L 94.391338 81.941127 
L 94.578532 82.65098 
L 94.765725 82.701849 
L 94.952918 83.094927 
L 95.140112 83.760848 
L 95.327305 83.853337 
L 95.514498 84.4233 
L 95.701692 83.845244 
L 95.888885 83.997851 
L 96.076079 84.346997 
L 96.263272 85.014073 
L 96.450465 84.437173 
L 97.012045 85.66034 
L 97.199239 85.751673 
L 97.386432 86.092726 
L 97.573625 86.07076 
L 97.760819 86.342446 
L 97.948012 86.301982 
L 98.135205 86.874258 
L 98.322399 86.914722 
L 98.696785 87.378323 
L 98.883979 87.249994 
L 99.071172 87.725156 
L 99.258365 87.53093 
L 99.445559 87.803772 
L 99.632752 88.359862 
L 99.819945 88.372579 
L 100.194332 89.16336 
L 100.381525 88.956416 
L 100.568719 89.389958 
L 100.755912 93.219002 
L 100.943105 89.663957 
L 101.317492 88.700915 
L 101.691879 88.595709 
L 102.627846 91.987742 
L 103.002232 91.820106 
L 103.189426 92.232838 
L 103.376619 92.025894 
L 103.751006 91.011983 
L 103.938199 91.277889 
L 104.125392 91.023545 
L 104.874166 92.805113 
L 105.061359 93.687227 
L 105.248552 93.592426 
L 105.435746 93.690695 
L 105.622939 94.120769 
L 106.184519 93.585489 
L 106.371712 93.668729 
L 106.746099 93.569304 
L 106.933293 93.702256 
L 107.120486 94.336962 
L 107.307679 94.36124 
L 107.494873 94.264127 
L 107.869259 95.320814 
L 108.056453 94.793626 
L 108.243646 94.772816 
L 108.430839 95.212139 
L 108.618033 94.949701 
L 108.805226 95.146241 
L 108.992419 95.580939 
L 109.741193 95.546255 
L 109.928386 95.948582 
L 110.115579 96.052633 
L 110.302773 96.013325 
L 110.677159 96.54398 
L 110.864353 96.415652 
L 111.238739 96.863067 
L 111.425933 96.742831 
L 111.613126 97.186779 
L 111.800319 96.701211 
L 111.987513 97.108163 
L 112.174706 97.065387 
L 112.3619 96.41912 
L 112.549093 96.89197 
L 112.736286 97.830733 
L 112.92348 97.713966 
L 113.110673 98.107044 
L 113.48506 97.05845 
L 113.672253 97.043421 
L 113.859446 97.912817 
L 114.04664 98.144039 
L 114.60822 98.29549 
L 114.795413 98.48278 
L 114.982606 98.364857 
L 115.1698 98.93482 
L 115.544186 98.704754 
L 115.918573 98.956786 
L 116.29296 99.253907 
L 116.480153 99.149857 
L 116.667346 99.641205 
L 117.041733 99.176448 
L 117.228926 99.466632 
L 117.603313 99.194945 
L 117.790507 99.362582 
L 117.9777 99.108237 
L 118.164893 100.023878 
L 118.352087 99.945262 
L 118.913667 100.546441 
L 119.10086 99.978789 
L 119.288053 100.452795 
L 119.475247 99.809997 
L 119.66244 100.019253 
L 119.849633 99.742943 
L 120.036827 100.566094 
L 120.22402 100.401927 
L 120.411213 100.777663 
L 120.7856 100.682862 
L 120.972793 100.908304 
L 121.159987 100.778819 
L 121.534373 100.953392 
L 121.721567 100.514069 
L 122.095953 100.369555 
L 122.47034 101.563819 
L 122.657533 101.555727 
L 122.844727 102.023952 
L 123.03192 101.543009 
L 123.5935 101.208893 
L 123.780694 101.570756 
L 123.967887 101.258606 
L 124.342274 101.577693 
L 124.529467 101.711802 
L 124.903854 101.643591 
L 125.091047 101.7777 
L 125.27824 102.082914 
L 125.465434 101.962678 
L 125.652627 102.459806 
L 125.83982 102.163842 
L 126.027014 102.402001 
L 126.4014 101.982332 
L 126.588594 102.337258 
L 126.775787 102.138407 
L 126.96298 102.449401 
L 127.337367 102.273672 
L 127.52456 102.590447 
L 127.711754 102.361537 
L 127.898947 102.652877 
L 128.08614 102.634379 
L 128.273334 102.251706 
L 128.647721 102.433216 
L 128.834914 102.907222 
L 129.022107 102.17309 
L 129.209301 103.296831 
L 129.396494 102.657501 
L 129.583687 103.411287 
L 129.770881 103.52921 
L 130.145267 103.377759 
L 130.332461 102.758083 
L 130.894041 103.132664 
L 131.081234 103.060985 
L 131.268427 103.355793 
L 131.455621 103.232089 
L 131.642814 103.5084 
L 131.830007 103.503776 
L 132.017201 102.933812 
L 132.204394 102.962715 
L 132.391587 102.245925 
L 132.578781 102.953466 
L 132.765974 103.066765 
L 132.953167 103.338451 
L 133.140361 103.227465 
L 133.327554 103.666787 
L 133.514747 103.806677 
L 133.701941 103.311861 
L 133.889134 103.992811 
L 134.076328 104.048304 
L 134.450714 103.783555 
L 134.637908 103.012428 
L 134.825101 103.049423 
L 135.012294 102.777737 
L 135.199488 101.249357 
L 135.386681 103.684129 
L 135.573874 103.9246 
L 135.761068 104.464505 
L 135.948261 104.315366 
L 136.135454 104.544276 
L 136.322648 104.429821 
L 136.509841 104.087612 
L 136.697034 103.434409 
L 137.071421 103.59164 
L 137.258614 102.976588 
L 137.445808 103.908415 
L 137.633001 103.559269 
L 138.007388 104.346581 
L 138.194581 104.26681 
L 138.381774 104.523466 
L 138.568968 104.151198 
L 138.756161 104.415948 
L 138.943355 102.904909 
L 139.130548 103.940786 
L 139.317741 103.872575 
L 139.504935 104.553525 
L 139.692128 103.974313 
L 139.879321 104.311898 
L 140.066515 104.33502 
L 140.253708 104.562774 
L 140.440901 104.555838 
L 141.002481 104.185882 
L 141.189675 103.636728 
L 141.564061 104.096861 
L 141.751255 104.135013 
L 141.938448 104.315366 
L 142.125641 104.946604 
L 142.312835 104.873768 
L 142.500028 105.221758 
L 142.874415 104.202067 
L 143.061608 104.536184 
L 143.248801 104.304961 
L 143.435995 104.339645 
L 143.623188 103.937318 
L 144.559155 105.022907 
L 144.746348 105.558187 
L 144.933542 105.397487 
L 145.307928 104.387045 
L 145.495122 103.985874 
L 145.869508 104.005528 
L 146.056702 104.279527 
L 146.243895 102.675999 
L 146.431088 104.492251 
L 146.992668 105.640271 
L 147.179862 105.05759 
L 147.367055 105.413673 
L 147.554248 104.91192 
L 147.741442 105.302686 
L 147.928635 104.629829 
L 148.303022 104.531559 
L 148.490215 104.417104 
L 148.677408 104.011309 
L 148.864602 104.096861 
L 149.051795 104.795153 
L 149.426182 104.596302 
L 149.613375 104.619424 
L 149.800569 105.225227 
L 149.987762 105.355867 
L 150.174955 105.688828 
L 150.362149 105.473791 
L 150.549342 104.874925 
L 150.736535 105.202104 
L 151.110922 104.776655 
L 151.485309 104.967414 
L 151.672502 104.760469 
L 151.859695 105.046029 
L 152.234082 104.307273 
L 152.421275 104.378952 
L 152.608469 104.569711 
L 152.795662 104.432134 
L 152.982855 104.547745 
L 153.170049 104.115359 
L 153.357242 104.967414 
L 153.544435 105.061059 
L 153.731629 105.6079 
L 154.106015 105.48882 
L 154.293209 105.385926 
L 154.667595 104.45988 
L 154.854789 105.417141 
L 155.229176 104.284151 
L 155.416369 104.547745 
L 155.603562 104.348894 
L 156.165142 105.736228 
L 156.352336 105.791722 
L 156.913916 104.999785 
L 157.101109 105.354711 
L 157.288302 104.739659 
L 157.475496 104.937355 
L 157.662689 104.80787 
L 157.849882 105.394019 
L 158.224269 104.950072 
L 158.411462 105.11424 
L 158.598656 105.555875 
L 158.785849 105.518879 
L 158.973042 106.138555 
L 159.347429 105.367428 
L 159.534622 104.664512 
L 159.721816 104.733879 
L 159.909009 105.328121 
L 160.096202 105.294593 
L 160.470589 105.677266 
L 160.844976 105.515411 
L 161.032169 105.799814 
L 161.219363 105.824093 
L 161.406556 106.037973 
L 161.593749 105.124645 
L 161.780943 105.38477 
L 161.968136 104.637922 
L 162.155329 104.984755 
L 162.342523 105.034468 
L 162.529716 105.505006 
L 162.716909 105.546626 
L 162.904103 105.273783 
L 163.091296 106.019476 
L 163.465683 105.83681 
L 163.652876 105.293437 
L 163.840069 105.760507 
L 164.027263 105.435639 
L 164.214456 105.977856 
L 164.588843 105.240256 
L 164.776036 105.089961 
L 165.150423 105.59287 
L 165.524809 104.900359 
L 165.712003 104.532715 
L 166.273583 105.950109 
L 166.64797 105.846059 
L 167.20955 106.639152 
L 167.583936 107.612598 
L 167.77113 107.708556 
L 168.33271 107.32357 
L 168.519903 107.372127 
L 168.707096 106.93396 
L 168.89429 107.173276 
L 169.081483 107.897002 
L 169.268676 107.535139 
L 169.45587 107.831103 
L 169.830256 107.36519 
L 170.01745 107.566354 
L 170.391836 108.358291 
L 170.57903 107.9629 
L 170.953416 108.226494 
L 171.14061 107.899314 
L 171.327803 108.592981 
L 171.514997 107.468084 
L 171.70219 107.300448 
L 171.889383 107.5941 
L 172.076577 107.60913 
L 172.450963 106.994078 
L 173.012543 109.068143 
L 173.199737 108.63807 
L 173.38693 108.655411 
L 173.761317 106.929336 
L 174.135703 106.643776 
L 174.322897 106.644932 
L 174.51009 107.275013 
L 174.697283 107.374439 
L 175.07167 108.888946 
L 175.258863 108.690095 
L 175.446057 108.78374 
L 175.820443 106.780197 
L 176.007637 106.449549 
L 176.19483 106.599844 
L 176.382023 106.925868 
L 176.569217 106.750139 
L 176.75641 108.930566 
L 176.943604 107.498143 
L 177.31799 108.268114 
L 177.505184 108.280831 
L 177.692377 108.134005 
L 177.87957 107.649594 
L 178.066764 107.61491 
L 178.253957 107.87966 
L 178.44115 107.943246 
L 178.815537 106.843784 
L 179.189924 106.891184 
L 179.751504 108.099321 
L 179.938697 107.69237 
L 180.12589 108.446155 
L 180.313084 108.662348 
L 180.500277 107.850757 
L 180.68747 107.83226 
L 181.061857 106.231044 
L 181.436244 106.964019 
L 181.623437 106.606781 
L 181.81063 107.214896 
L 181.997824 107.354785 
L 182.372211 108.018394 
L 182.559404 107.952495 
L 182.746597 108.295861 
L 183.120984 107.310853 
L 183.495371 106.811412 
L 184.056951 106.895809 
L 184.244144 106.74667 
L 184.431337 107.454211 
L 184.805724 107.783703 
L 184.992917 107.566354 
L 185.367304 107.589476 
L 185.554497 107.306228 
L 185.741691 106.791759 
L 185.928884 107.056508 
L 186.490464 107.197554 
L 186.677657 106.872686 
L 186.864851 107.300448 
L 187.052044 106.783666 
L 187.426431 106.543194 
L 187.613624 106.885404 
L 187.800818 107.834572 
L 187.988011 107.403342 
L 188.175204 108.143254 
L 188.362398 107.055352 
L 188.736784 107.092348 
L 188.923978 106.982517 
L 189.111171 107.114314 
L 189.298364 106.669211 
L 189.485558 106.617186 
L 189.672751 107.308541 
L 189.859944 107.336287 
L 190.047138 107.53167 
L 190.234331 106.99061 
L 190.421524 107.11547 
L 190.608718 106.82413 
L 190.795911 106.895809 
L 190.983104 104.351206 
L 191.170298 107.31779 
L 191.357491 106.987142 
L 191.544684 107.848445 
L 191.731878 108.093541 
L 192.293458 107.152466 
L 192.480651 106.369778 
L 192.667844 106.747826 
L 192.855038 106.276133 
L 193.042231 106.132775 
L 193.229425 105.640271 
L 193.416618 106.196361 
L 193.603811 105.829873 
L 193.791005 107.152466 
L 193.978198 107.239174 
L 194.165391 107.688902 
L 194.352585 107.647282 
L 195.288551 105.703857 
L 195.662938 106.637996 
L 195.850131 106.84494 
L 196.037325 107.44265 
L 196.224518 107.330507 
L 196.598905 108.072731 
L 196.786098 107.299292 
L 196.973291 107.088879 
L 197.160485 106.670367 
L 197.347678 107.041479 
L 197.534871 106.731641 
L 197.722065 107.310853 
L 197.909258 106.130462 
L 198.096452 106.114277 
L 198.283645 106.220639 
L 198.470838 105.762819 
L 198.658032 106.707362 
L 198.845225 106.439144 
L 199.219612 106.914306 
L 200.342772 105.859932 
L 200.717158 106.564004 
L 200.904352 106.503887 
L 201.091545 106.619498 
L 201.278738 107.022981 
L 201.465932 106.374402 
L 201.653125 106.130462 
L 201.840318 106.172082 
L 202.401898 105.806751 
L 202.776285 106.37787 
L 202.963478 106.157053 
L 203.150672 106.955927 
L 203.337865 107.050728 
L 203.525059 106.397524 
L 203.712252 106.274976 
L 204.086639 105.826405 
L 204.273832 106.089998 
L 204.461025 106.130462 
L 204.648219 106.598688 
L 204.835412 106.416022 
L 205.022605 106.635683 
L 205.209799 106.409085 
L 205.396992 106.478452 
L 205.584185 106.674991 
L 205.958572 106.058783 
L 206.145765 105.270315 
L 206.332959 106.035661 
L 206.520152 106.138555 
L 206.707345 106.113121 
L 206.894539 106.337406 
L 207.081732 107.010264 
L 207.268925 106.64262 
L 207.456119 106.651869 
L 207.643312 105.900396 
L 207.830505 106.108496 
L 208.204892 106.137399 
L 208.392085 106.41371 
L 208.579279 106.453018 
L 208.766472 106.077281 
L 208.953666 106.088842 
L 209.140859 105.538533 
L 209.328052 106.618342 
L 209.515246 106.533946 
L 209.889632 106.554756 
L 210.076826 106.545507 
L 210.264019 106.056471 
L 210.451212 106.034505 
L 210.638406 105.754726 
L 210.825599 105.936236 
L 211.012792 105.506162 
L 211.199986 105.463386 
L 211.387179 105.650676 
L 211.574372 106.182487 
L 211.761566 105.909645 
L 212.135952 106.795227 
L 212.323146 106.611405 
L 212.510339 106.609093 
L 212.884726 105.517723 
L 213.071919 104.972038 
L 213.446306 105.889991 
L 213.633499 105.648364 
L 214.195079 106.731641 
L 214.569466 106.647245 
L 214.943853 105.881898 
L 215.131046 105.942016 
L 215.318239 105.351243 
L 215.505433 105.730448 
L 215.879819 105.737384 
L 216.067013 106.28885 
L 216.254206 106.124682 
L 216.441399 106.466891 
L 216.628593 106.212546 
L 216.815786 106.353592 
L 217.002979 106.207922 
L 217.190173 106.28885 
L 217.377366 106.500418 
L 217.564559 105.478415 
L 217.751753 105.967451 
L 217.938946 105.807907 
L 218.313333 106.176707 
L 218.687719 105.517723 
L 218.874913 109.856612 
L 219.062106 105.851839 
L 219.249299 105.873806 
L 219.436493 106.19058 
L 219.81088 107.394093 
L 219.998073 106.444925 
L 220.185266 107.392937 
L 220.37246 106.429895 
L 220.559653 106.375558 
L 220.746846 106.035661 
L 220.93404 105.358179 
L 221.121233 105.631022 
L 221.308426 105.536221 
L 221.49562 105.785941 
L 221.870006 105.963982 
L 222.0572 103.919976 
L 222.244393 105.92005 
L 222.431586 106.340875 
L 222.61878 106.366309 
L 222.993166 106.862281 
L 223.367553 105.955889 
L 223.74194 105.292281 
L 223.929133 105.536221 
L 224.490713 105.170889 
L 224.677906 105.300374 
L 225.052293 106.016007 
L 225.239487 105.828717 
L 225.42668 106.342031 
L 225.613873 106.126994 
L 225.801067 105.513099 
L 226.175453 105.662237 
L 226.362647 105.316559 
L 226.54984 105.627554 
L 226.737033 105.261066 
L 226.924227 105.723511 
L 227.11142 105.782473 
L 227.298613 106.12237 
L 227.485807 105.905021 
L 227.673 106.137399 
L 227.860193 105.580153 
L 228.047387 105.754726 
L 228.421773 104.867988 
L 228.79616 105.902708 
L 228.983353 105.748945 
L 229.35774 106.292318 
L 229.544933 106.019476 
L 229.732127 105.484196 
L 229.91932 105.999822 
L 230.106513 105.034468 
L 230.4809 106.576722 
L 230.855287 106.693489 
L 231.04248 106.558224 
L 231.791254 104.555838 
L 231.978447 102.634379 
L 232.352834 104.920013 
L 233.101607 106.955927 
L 233.2888 106.961707 
L 233.663187 105.739696 
L 233.85038 105.977856 
L 234.037574 105.569748 
L 234.224767 104.732723 
L 234.599154 105.211353 
L 234.786347 104.981287 
L 235.160734 105.411361 
L 235.347927 105.473791 
L 235.722314 106.333938 
L 236.283894 106.581346 
L 236.471087 106.037973 
L 236.658281 105.859932 
L 237.032667 104.644858 
L 237.219861 104.559306 
L 237.407054 105.147767 
L 237.594247 104.824056 
L 237.781441 105.799814 
L 237.968634 106.005602 
L 238.155827 106.387119 
L 238.343021 105.994041 
L 238.530214 106.427583 
L 238.904601 106.01832 
L 239.091794 105.568592 
L 239.278987 105.522347 
L 239.466181 104.610175 
L 239.653374 105.232163 
L 239.840567 105.428702 
L 240.027761 105.456449 
L 240.214954 109.026523 
L 240.402147 105.974387 
L 240.589341 106.49695 
L 240.776534 106.479608 
L 240.963727 106.113121 
L 241.150921 106.495794 
L 241.338114 106.58019 
L 241.712501 104.856427 
L 241.899694 104.717693 
L 242.086888 104.774343 
L 242.274081 104.531559 
L 242.461274 104.509593 
L 242.648468 105.185919 
L 242.835661 105.367428 
L 243.022854 106.217171 
L 243.210048 106.010227 
L 243.397241 106.14896 
L 243.584434 106.485389 
L 243.771628 105.436795 
L 243.958821 105.362804 
L 244.146014 105.485352 
L 244.333208 105.126957 
L 244.520401 105.50385 
L 244.707594 105.173202 
L 244.894788 105.456449 
L 245.081981 105.296906 
L 245.269174 105.578997 
L 245.456368 105.347774 
L 245.643561 105.846059 
L 245.830754 105.803283 
L 246.017948 105.126957 
L 246.205141 105.839122 
L 246.392334 105.976699 
L 246.579528 105.422922 
L 246.953915 106.448393 
L 247.141108 105.908489 
L 247.328301 105.903864 
L 247.515495 105.300374 
L 247.702688 105.195168 
L 247.889881 105.459917 
L 248.077075 105.485352 
L 248.264268 105.12002 
L 248.451461 105.825249 
L 248.638655 105.557031 
L 248.825848 105.968607 
L 249.013041 105.407892 
L 249.200235 105.436795 
L 249.387428 105.671486 
L 249.761815 105.392863 
L 249.949008 105.725823 
L 250.136201 105.703857 
L 250.323395 105.227539 
L 250.510588 105.181294 
L 250.697781 105.656456 
L 250.884975 105.518879 
L 251.259361 106.077281 
L 251.446555 105.624085 
L 251.633748 104.788216 
L 252.008135 105.563967 
L 252.195328 105.784785 
L 252.382522 105.049498 
L 252.569715 105.87843 
L 252.756908 106.029881 
L 252.944102 106.622966 
L 253.131295 105.46801 
L 253.318488 105.865713 
L 253.505682 105.715418 
L 254.067262 104.649483 
L 254.441648 105.6553 
L 254.628842 105.469166 
L 254.816035 105.71773 
L 255.003228 106.20561 
L 255.190422 105.769755 
L 255.752002 105.644895 
L 255.939195 105.146611 
L 256.126388 105.16164 
L 256.313582 105.6079 
L 256.500775 104.880705 
L 256.687968 105.788253 
L 256.875162 105.858776 
L 257.249548 105.277252 
L 257.623935 106.010227 
L 257.811129 106.21139 
L 257.998322 106.200985 
L 258.559902 104.877237 
L 258.747095 105.041405 
L 258.934289 105.683047 
L 259.121482 105.321184 
L 259.683062 106.026412 
L 260.244642 105.582465 
L 260.431835 105.375521 
L 260.619029 105.902708 
L 260.806222 104.925794 
L 260.993415 105.547782 
L 261.180609 105.567436 
L 261.367802 105.26569 
L 261.554995 105.599807 
L 262.116575 105.789409 
L 262.490962 105.671486 
L 263.052542 105.513099 
L 263.239736 105.194012 
L 263.426929 105.760507 
L 263.614122 105.251817 
L 263.801316 105.435639 
L 263.988509 105.153548 
L 264.175702 105.594026 
L 264.362896 105.642583 
L 264.550089 106.132775 
L 264.737282 105.906177 
L 264.924476 106.33047 
L 265.111669 110.265876 
L 265.298862 105.523504 
L 265.486056 105.115396 
L 265.673249 105.440263 
L 266.047636 104.694571 
L 266.234829 104.931574 
L 266.422022 104.969726 
L 266.609216 105.666861 
L 266.796409 105.398643 
L 267.170796 105.673798 
L 267.357989 106.441457 
L 267.545182 105.736228 
L 267.732376 105.931611 
L 267.919569 105.792878 
L 268.106763 105.278408 
L 268.293956 105.266847 
L 268.481149 104.929262 
L 268.668343 105.252973 
L 268.855536 105.212509 
L 269.229923 104.62058 
L 269.417116 105.75935 
L 269.604309 105.466854 
L 269.791503 105.473791 
L 269.978696 105.737384 
L 270.353083 105.484196 
L 270.540276 105.353555 
L 270.727469 105.755882 
L 270.914663 105.190543 
L 271.101856 106.026412 
L 271.476243 105.648364 
L 271.663436 105.96167 
L 271.850629 105.332745 
L 272.037823 105.452981 
L 272.225016 104.732723 
L 272.412209 104.879549 
L 272.599403 105.394019 
L 272.786596 104.48069 
L 272.973789 105.722355 
L 273.160983 105.785941 
L 273.348176 105.440263 
L 273.53537 106.462267 
L 273.722563 105.266847 
L 273.909756 105.518879 
L 274.09695 105.000941 
L 274.284143 105.294593 
L 274.471336 105.799814 
L 274.845723 105.577841 
L 275.032916 105.639115 
L 275.22011 106.019476 
L 275.407303 105.929299 
L 275.78169 105.192855 
L 275.968883 105.217134 
L 276.34327 105.005565 
L 276.530463 105.862244 
L 276.717656 105.672642 
L 276.90485 104.541964 
L 277.092043 105.316559 
L 277.279236 105.125801 
L 277.46643 105.528128 
L 277.653623 105.454137 
L 277.840816 105.790565 
L 278.02801 105.812532 
L 278.215203 105.529284 
L 278.776783 105.612524 
L 278.963977 105.01019 
L 279.15117 105.287657 
L 279.338363 105.129269 
L 279.525557 105.32234 
L 279.71275 105.728135 
L 279.899943 105.528128 
L 280.27433 106.217171 
L 280.461523 106.081906 
L 280.83591 106.214859 
L 281.210297 105.227539 
L 281.39749 105.346618 
L 281.771877 105.116552 
L 281.95907 105.109615 
L 282.146263 104.751221 
L 282.333457 105.362804 
L 282.52065 105.528128 
L 282.707843 105.13505 
L 283.456617 106.214859 
L 283.64381 105.584777 
L 283.831003 105.369741 
L 284.20539 105.465698 
L 284.392584 106.155897 
L 284.76697 105.806751 
L 284.954164 105.210197 
L 285.141357 105.456449 
L 285.32855 105.198636 
L 285.515744 104.723474 
L 285.702937 104.851802 
L 285.89013 105.651832 
L 286.077324 105.582465 
L 286.264517 105.071464 
L 286.45171 105.314247 
L 286.638904 106.071501 
L 286.826097 105.656456 
L 287.01329 106.084218 
L 287.387677 105.496913 
L 287.57487 106.009071 
L 287.762064 105.886523 
L 287.949257 105.317716 
L 288.323644 105.310779 
L 288.510837 105.05759 
L 288.69803 105.378989 
L 288.885224 105.220602 
L 289.072417 105.788253 
L 289.25961 105.736228 
L 289.446804 105.909645 
L 289.821191 105.328121 
L 290.008384 105.404424 
L 290.195577 105.733916 
L 290.382771 105.796346 
L 290.569964 105.409048 
L 290.944351 105.117708 
L 291.131544 105.887679 
L 291.318737 102.169622 
L 291.505931 105.234475 
L 291.693124 105.944328 
L 292.254704 106.674991 
L 293.190671 104.984755 
L 293.377864 104.6622 
L 293.565057 104.743128 
L 293.752251 104.990536 
L 293.939444 104.913076 
L 294.313831 105.581309 
L 294.501024 105.644895 
L 294.688217 104.547745 
L 294.875411 106.479608 
L 295.249798 105.663393 
L 295.436991 105.844903 
L 295.811378 105.784785 
L 296.185764 104.677229 
L 296.372958 105.092274 
L 296.560151 105.066839 
L 297.121731 106.28885 
L 297.308924 106.350124 
L 297.683311 105.750102 
L 298.057698 105.861088 
L 298.244891 105.846059 
L 298.432084 105.636803 
L 298.619278 105.070308 
L 298.806471 105.157016 
L 298.993664 104.741972 
L 299.180858 105.167421 
L 299.368051 104.689947 
L 299.555244 105.499225 
L 299.742438 105.360492 
L 299.929631 105.591714 
L 300.116824 106.328158 
L 300.491211 106.138555 
L 300.678405 105.849527 
L 300.865598 105.916582 
L 301.239985 104.895735 
L 301.427178 105.189387 
L 301.614371 104.561618 
L 301.801565 105.396331 
L 301.988758 104.910764 
L 302.550338 106.068032 
L 302.737531 106.266884 
L 302.924725 105.776692 
L 303.299111 106.261103 
L 303.860691 105.192855 
L 304.047885 105.352399 
L 304.235078 104.855271 
L 304.796658 105.516567 
L 304.983851 105.236788 
L 305.171045 105.398643 
L 305.358238 105.212509 
L 305.545431 105.220602 
L 305.732625 105.706169 
L 305.919818 105.869181 
L 306.107012 106.262259 
L 306.481398 105.323496 
L 306.668592 105.304998 
L 306.855785 105.09921 
L 307.042978 105.236788 
L 307.230172 105.714262 
L 307.791752 105.086493 
L 307.978945 105.721199 
L 308.353332 105.427546 
L 308.727718 105.739696 
L 308.914912 105.500381 
L 309.102105 104.842553 
L 309.289298 107.432245 
L 309.476492 105.643739 
L 309.663685 105.250661 
L 309.850878 105.477259 
L 310.225265 104.661044 
L 310.599652 105.159328 
L 310.786845 105.05181 
L 311.161232 105.666861 
L 311.348425 105.569748 
L 311.535619 105.661081 
L 311.722812 105.12002 
L 311.910005 104.958165 
L 312.471585 105.935079 
L 312.658779 105.489976 
L 312.845972 106.25301 
L 313.220359 105.433327 
L 313.407552 105.46801 
L 313.594745 104.90614 
L 313.781939 104.917701 
L 314.156325 105.67033 
L 314.343519 106.131619 
L 314.530712 105.874962 
L 314.717905 105.089961 
L 315.092292 105.832185 
L 315.279485 106.096935 
L 315.466679 104.850646 
L 315.653872 105.55125 
L 315.841065 104.948916 
L 316.028259 105.641427 
L 316.402645 105.375521 
L 316.589839 104.936199 
L 316.777032 105.113084 
L 316.964226 105.095742 
L 317.151419 105.425234 
L 317.338612 105.222914 
L 317.712999 106.113121 
L 317.900192 106.272664 
L 318.087386 106.180175 
L 318.274579 106.324689 
L 318.461772 106.016007 
L 318.836159 105.825249 
L 319.023352 105.304998 
L 319.210546 105.336213 
L 319.397739 105.540845 
L 319.959319 105.080713 
L 320.146512 105.009034 
L 320.520899 106.187112 
L 320.708092 106.191736 
L 320.895286 108.340949 
L 321.082479 106.139711 
L 321.269672 105.745477 
L 321.456866 104.880705 
L 321.644059 105.24488 
L 321.831253 105.175514 
L 322.018446 105.491132 
L 322.205639 104.741972 
L 322.580026 105.611368 
L 322.767219 105.110771 
L 322.954413 105.046029 
L 323.328799 105.617149 
L 323.515993 106.118901 
L 323.703186 106.021788 
L 323.890379 106.250698 
L 324.077573 106.029881 
L 324.264766 106.062252 
L 324.451959 105.603275 
L 324.639153 105.50385 
L 324.826346 106.00329 
L 325.013539 105.683047 
L 325.200733 105.812532 
L 325.387926 105.698076 
L 325.575119 105.720043 
L 325.762313 105.472635 
L 325.949506 105.700389 
L 326.136699 105.739696 
L 326.511086 105.360492 
L 326.885473 105.554719 
L 327.072666 105.432171 
L 327.25986 106.076125 
L 327.447053 105.522347 
L 327.634246 105.686515 
L 327.82144 105.687671 
L 328.195826 106.144336 
L 328.38302 106.368622 
L 328.570213 105.758194 
L 328.9446 106.108496 
L 329.131793 105.576685 
L 329.318986 105.765131 
L 329.50618 105.506162 
L 329.693373 105.459917 
L 329.880566 105.639115 
L 330.06776 105.340838 
L 330.254953 104.665668 
L 330.442146 105.915426 
L 331.003726 105.900396 
L 331.19092 105.743165 
L 331.378113 105.963982 
L 331.565306 105.59287 
L 331.7525 105.610212 
L 332.126886 106.183644 
L 332.688467 105.418297 
L 333.250047 105.970919 
L 333.43724 105.906177 
L 333.99882 106.188268 
L 334.186013 105.573216 
L 334.5604 106.328158 
L 334.747593 106.017163 
L 334.934787 105.337369 
L 335.12198 105.168577 
L 335.309173 105.440263 
L 335.68356 105.042561 
L 335.870753 105.577841 
L 336.057947 105.603275 
L 336.24514 105.243724 
L 336.619527 106.347811 
L 336.993913 106.542038 
L 337.181107 106.617186 
L 337.3683 105.692296 
L 337.555493 106.161677 
L 337.92988 104.874925 
L 338.117074 105.137362 
L 338.304267 104.871456 
L 338.49146 105.440263 
L 338.678654 105.0784 
L 338.865847 105.913113 
L 339.05304 106.037973 
L 339.240234 105.850683 
L 339.427427 106.053003 
L 339.61462 105.73854 
L 339.989007 105.871493 
L 340.1762 105.869181 
L 340.363394 105.706169 
L 340.550587 105.294593 
L 340.73778 105.331589 
L 341.112167 105.049498 
L 341.29936 105.24488 
L 341.486554 105.870337 
L 341.86094 106.227576 
L 342.048134 105.432171 
L 342.42252 106.322377 
L 342.796907 105.295749 
L 342.9841 105.499225 
L 343.171294 104.341957 
L 343.358487 105.341994 
L 343.545681 105.469166 
L 343.732874 105.73276 
L 343.920067 106.399837 
L 344.107261 106.019476 
L 344.294454 106.181331 
L 344.481647 105.747789 
L 345.043227 105.686515 
L 345.230421 105.302686 
L 345.792001 106.167458 
L 345.979194 105.622929 
L 346.353581 105.574372 
L 346.540774 105.627554 
L 346.727967 104.686478 
L 346.915161 105.359336 
L 347.102354 105.117708 
L 347.289547 106.329314 
L 347.476741 105.729291 
L 347.663934 106.284225 
L 348.038321 105.806751 
L 348.225514 105.485352 
L 348.412707 106.194049 
L 348.599901 105.643739 
L 348.787094 106.213702 
L 348.974288 105.502693 
L 349.161481 106.037973 
L 349.348674 106.020632 
L 349.910254 105.52466 
L 350.097448 105.748945 
L 350.284641 106.249542 
L 350.659028 105.021751 
L 350.846221 105.385926 
L 351.033414 105.412517 
L 351.220608 105.314247 
L 351.407801 104.980131 
L 351.594994 105.932767 
L 351.782188 105.692296 
L 351.969381 106.303879 
L 352.343768 105.817156 
L 352.905348 106.083062 
L 353.092541 105.523504 
L 353.279734 106.142024 
L 353.466928 105.422922 
L 353.654121 105.211353 
L 353.841314 105.511942 
L 354.402895 105.537377 
L 354.777281 105.151235 
L 355.151668 105.487664 
L 355.338861 105.496913 
L 355.526055 105.080713 
L 355.713248 105.029844 
L 355.900441 105.450668 
L 356.087635 105.446044 
L 356.274828 105.017126 
L 356.462021 105.167421 
L 356.836408 105.220602 
L 357.023601 104.793997 
L 357.397988 105.398643 
L 357.585181 105.633334 
L 358.333955 105.255285 
L 358.521148 104.765094 
L 358.708341 105.019439 
L 358.895535 104.309586 
L 359.269921 105.121176 
L 359.644308 104.889954 
L 359.831502 105.760507 
L 360.018695 105.162797 
L 360.205888 105.226383 
L 360.393082 105.594026 
L 360.580275 105.603275 
L 360.767468 105.450668 
L 360.954662 105.958202 
L 361.141855 105.062215 
L 361.329048 105.706169 
L 361.516242 104.857583 
L 361.703435 105.05181 
L 361.890628 104.914232 
L 363.388175 106.407929 
L 363.575368 106.027568 
L 363.762562 106.188268 
L 364.511335 104.446007 
L 364.698528 104.643702 
L 364.885722 104.462193 
L 365.072915 105.170889 
L 365.260109 105.204417 
L 365.821689 105.990573 
L 366.008882 105.974387 
L 366.570462 105.428702 
L 366.757655 105.751258 
L 367.132042 104.529247 
L 367.319235 105.594026 
L 367.693622 105.214822 
L 368.068009 105.34315 
L 368.255202 105.390551 
L 368.629589 106.012539 
L 368.816782 106.216015 
L 369.003975 105.584777 
L 369.191169 106.328158 
L 369.378362 105.455293 
L 370.127135 104.716537 
L 370.501522 104.655263 
L 370.688716 104.259873 
L 370.875909 105.195168 
L 371.063102 105.283032 
L 371.250296 106.365153 
L 371.437489 106.051847 
L 371.624682 105.963982 
L 371.811876 106.006758 
L 372.373456 104.622892 
L 372.560649 104.753533 
L 372.747842 105.172045 
L 372.935036 105.306154 
L 373.309422 104.772031 
L 373.496616 105.3998 
L 373.683809 105.074932 
L 373.871002 105.600963 
L 374.058196 105.211353 
L 374.245389 105.26569 
L 374.619776 106.009071 
L 374.806969 106.061096 
L 374.994162 106.313128 
L 375.181356 106.376714 
L 375.555742 105.852995 
L 375.742936 106.174395 
L 375.930129 106.182487 
L 376.304516 105.044873 
L 376.491709 105.479571 
L 376.866096 104.595145 
L 377.053289 105.198636 
L 377.240483 106.192892 
L 377.427676 105.602119 
L 377.614869 105.834498 
L 377.802063 105.339682 
L 377.989256 105.740853 
L 378.176449 105.111928 
L 378.550836 105.575529 
L 378.738029 104.955852 
L 378.925223 105.594026 
L 379.112416 105.257598 
L 379.299609 105.951265 
L 379.486803 104.869144 
L 379.673996 105.309623 
L 379.861189 104.748908 
L 380.235576 105.354711 
L 380.422769 105.281876 
L 380.609963 105.847215 
L 380.797156 105.632178 
L 381.171543 106.168614 
L 381.358736 105.678423 
L 381.54593 106.068032 
L 381.733123 105.710794 
L 381.920316 105.866869 
L 382.10751 105.639115 
L 382.294703 105.818312 
L 382.481896 106.329314 
L 382.856283 108.380257 
L 383.979443 117.475391 
L 384.166636 119.618823 
L 384.166636 119.618823 
" style="fill:none;stroke:#1f77b4;stroke-linecap:square;stroke-width:1.5;"/>
   </g>
   <g id="patch_3">
    <path d="M 55.53 223.0056 
L 55.53 56.9376 
" style="fill:none;stroke:#000000;stroke-linecap:square;stroke-linejoin:miter;stroke-width:0.8;"/>
   </g>
   <g id="patch_4">
    <path d="M 399.816 223.0056 
L 399.816 56.9376 
" style="fill:none;stroke:#000000;stroke-linecap:square;stroke-linejoin:miter;stroke-width:0.8;"/>
   </g>
   <g id="patch_5">
    <path d="M 55.53 223.0056 
L 399.816 223.0056 
" style="fill:none;stroke:#000000;stroke-linecap:square;stroke-linejoin:miter;stroke-width:0.8;"/>
   </g>
   <g id="patch_6">
    <path d="M 55.53 56.9376 
L 399.816 56.9376 
" style="fill:none;stroke:#000000;stroke-linecap:square;stroke-linejoin:miter;stroke-width:0.8;"/>
   </g>
  </g>
  <g id="axes_2">
   <g id="patch_7">
    <path d="M 55.53 422.2872 
L 399.816 422.2872 
L 399.816 256.2192 
L 55.53 256.2192 
z
" style="fill:#ffffff;"/>
   </g>
   <g id="matplotlib.axis_3">
    <g id="xtick_6">
     <g id="line2d_12">
      <g>
       <use style="stroke:#000000;stroke-width:0.8;" x="71.179364" xlink:href="#ma7760b0a44" y="422.2872"/>
      </g>
     </g>
     <g id="text_12">
      <!-- 0 -->
      <g transform="translate(67.998114 436.885638)scale(0.1 -0.1)">
       <use xlink:href="#DejaVuSans-30"/>
      </g>
     </g>
    </g>
    <g id="xtick_7">
     <g id="line2d_13">
      <g>
       <use style="stroke:#000000;stroke-width:0.8;" x="146.056702" xlink:href="#ma7760b0a44" y="422.2872"/>
      </g>
     </g>
     <g id="text_13">
      <!-- 200 -->
      <g transform="translate(136.512952 436.885638)scale(0.1 -0.1)">
       <use xlink:href="#DejaVuSans-32"/>
       <use x="63.623047" xlink:href="#DejaVuSans-30"/>
       <use x="127.246094" xlink:href="#DejaVuSans-30"/>
      </g>
     </g>
    </g>
    <g id="xtick_8">
     <g id="line2d_14">
      <g>
       <use style="stroke:#000000;stroke-width:0.8;" x="220.93404" xlink:href="#ma7760b0a44" y="422.2872"/>
      </g>
     </g>
     <g id="text_14">
      <!-- 400 -->
      <g transform="translate(211.39029 436.885638)scale(0.1 -0.1)">
       <use xlink:href="#DejaVuSans-34"/>
       <use x="63.623047" xlink:href="#DejaVuSans-30"/>
       <use x="127.246094" xlink:href="#DejaVuSans-30"/>
      </g>
     </g>
    </g>
    <g id="xtick_9">
     <g id="line2d_15">
      <g>
       <use style="stroke:#000000;stroke-width:0.8;" x="295.811378" xlink:href="#ma7760b0a44" y="422.2872"/>
      </g>
     </g>
     <g id="text_15">
      <!-- 600 -->
      <g transform="translate(286.267628 436.885638)scale(0.1 -0.1)">
       <use xlink:href="#DejaVuSans-36"/>
       <use x="63.623047" xlink:href="#DejaVuSans-30"/>
       <use x="127.246094" xlink:href="#DejaVuSans-30"/>
      </g>
     </g>
    </g>
    <g id="xtick_10">
     <g id="line2d_16">
      <g>
       <use style="stroke:#000000;stroke-width:0.8;" x="370.688716" xlink:href="#ma7760b0a44" y="422.2872"/>
      </g>
     </g>
     <g id="text_16">
      <!-- 800 -->
      <g transform="translate(361.144966 436.885638)scale(0.1 -0.1)">
       <use xlink:href="#DejaVuSans-38"/>
       <use x="63.623047" xlink:href="#DejaVuSans-30"/>
       <use x="127.246094" xlink:href="#DejaVuSans-30"/>
      </g>
     </g>
    </g>
    <g id="text_17">
     <!-- Tiempo [s] -->
     <defs>
      <path d="M 30.609375 48.390625 
Q 23.390625 48.390625 19.1875 42.75 
Q 14.984375 37.109375 14.984375 27.296875 
Q 14.984375 17.484375 19.15625 11.84375 
Q 23.34375 6.203125 30.609375 6.203125 
Q 37.796875 6.203125 41.984375 11.859375 
Q 46.1875 17.53125 46.1875 27.296875 
Q 46.1875 37.015625 41.984375 42.703125 
Q 37.796875 48.390625 30.609375 48.390625 
z
M 30.609375 56 
Q 42.328125 56 49.015625 48.375 
Q 55.71875 40.765625 55.71875 27.296875 
Q 55.71875 13.875 49.015625 6.21875 
Q 42.328125 -1.421875 30.609375 -1.421875 
Q 18.84375 -1.421875 12.171875 6.21875 
Q 5.515625 13.875 5.515625 27.296875 
Q 5.515625 40.765625 12.171875 48.375 
Q 18.84375 56 30.609375 56 
z
" id="DejaVuSans-6f"/>
     </defs>
     <g transform="translate(200.956594 450.563763)scale(0.1 -0.1)">
      <use xlink:href="#DejaVuSans-54"/>
      <use x="61.037109" xlink:href="#DejaVuSans-69"/>
      <use x="88.820312" xlink:href="#DejaVuSans-65"/>
      <use x="150.34375" xlink:href="#DejaVuSans-6d"/>
      <use x="247.755859" xlink:href="#DejaVuSans-70"/>
      <use x="311.232422" xlink:href="#DejaVuSans-6f"/>
      <use x="372.414062" xlink:href="#DejaVuSans-20"/>
      <use x="404.201172" xlink:href="#DejaVuSans-5b"/>
      <use x="443.214844" xlink:href="#DejaVuSans-73"/>
      <use x="495.314453" xlink:href="#DejaVuSans-5d"/>
     </g>
    </g>
   </g>
   <g id="matplotlib.axis_4">
    <g id="ytick_6">
     <g id="line2d_17">
      <g>
       <use style="stroke:#000000;stroke-width:0.8;" x="55.53" xlink:href="#mb349ba1922" y="414.739032"/>
      </g>
     </g>
     <g id="text_18">
      <!-- 0.0 -->
      <defs>
       <path d="M 10.6875 12.40625 
L 21 12.40625 
L 21 0 
L 10.6875 0 
z
" id="DejaVuSans-2e"/>
      </defs>
      <g transform="translate(32.626875 418.538251)scale(0.1 -0.1)">
       <use xlink:href="#DejaVuSans-30"/>
       <use x="63.623047" xlink:href="#DejaVuSans-2e"/>
       <use x="95.410156" xlink:href="#DejaVuSans-30"/>
      </g>
     </g>
    </g>
    <g id="ytick_7">
     <g id="line2d_18">
      <g>
       <use style="stroke:#000000;stroke-width:0.8;" x="55.53" xlink:href="#mb349ba1922" y="384.51455"/>
      </g>
     </g>
     <g id="text_19">
      <!-- 0.2 -->
      <g transform="translate(32.626875 388.313769)scale(0.1 -0.1)">
       <use xlink:href="#DejaVuSans-30"/>
       <use x="63.623047" xlink:href="#DejaVuSans-2e"/>
       <use x="95.410156" xlink:href="#DejaVuSans-32"/>
      </g>
     </g>
    </g>
    <g id="ytick_8">
     <g id="line2d_19">
      <g>
       <use style="stroke:#000000;stroke-width:0.8;" x="55.53" xlink:href="#mb349ba1922" y="354.290069"/>
      </g>
     </g>
     <g id="text_20">
      <!-- 0.4 -->
      <g transform="translate(32.626875 358.089287)scale(0.1 -0.1)">
       <use xlink:href="#DejaVuSans-30"/>
       <use x="63.623047" xlink:href="#DejaVuSans-2e"/>
       <use x="95.410156" xlink:href="#DejaVuSans-34"/>
      </g>
     </g>
    </g>
    <g id="ytick_9">
     <g id="line2d_20">
      <g>
       <use style="stroke:#000000;stroke-width:0.8;" x="55.53" xlink:href="#mb349ba1922" y="324.065587"/>
      </g>
     </g>
     <g id="text_21">
      <!-- 0.6 -->
      <g transform="translate(32.626875 327.864806)scale(0.1 -0.1)">
       <use xlink:href="#DejaVuSans-30"/>
       <use x="63.623047" xlink:href="#DejaVuSans-2e"/>
       <use x="95.410156" xlink:href="#DejaVuSans-36"/>
      </g>
     </g>
    </g>
    <g id="ytick_10">
     <g id="line2d_21">
      <g>
       <use style="stroke:#000000;stroke-width:0.8;" x="55.53" xlink:href="#mb349ba1922" y="293.841105"/>
      </g>
     </g>
     <g id="text_22">
      <!-- 0.8 -->
      <g transform="translate(32.626875 297.640324)scale(0.1 -0.1)">
       <use xlink:href="#DejaVuSans-30"/>
       <use x="63.623047" xlink:href="#DejaVuSans-2e"/>
       <use x="95.410156" xlink:href="#DejaVuSans-38"/>
      </g>
     </g>
    </g>
    <g id="ytick_11">
     <g id="line2d_22">
      <g>
       <use style="stroke:#000000;stroke-width:0.8;" x="55.53" xlink:href="#mb349ba1922" y="263.616623"/>
      </g>
     </g>
     <g id="text_23">
      <!-- 1.0 -->
      <defs>
       <path d="M 12.40625 8.296875 
L 28.515625 8.296875 
L 28.515625 63.921875 
L 10.984375 60.40625 
L 10.984375 69.390625 
L 28.421875 72.90625 
L 38.28125 72.90625 
L 38.28125 8.296875 
L 54.390625 8.296875 
L 54.390625 0 
L 12.40625 0 
z
" id="DejaVuSans-31"/>
      </defs>
      <g transform="translate(32.626875 267.415842)scale(0.1 -0.1)">
       <use xlink:href="#DejaVuSans-31"/>
       <use x="63.623047" xlink:href="#DejaVuSans-2e"/>
       <use x="95.410156" xlink:href="#DejaVuSans-30"/>
      </g>
     </g>
    </g>
    <g id="text_24">
     <!-- Duty cycle -->
     <defs>
      <path d="M 19.671875 64.796875 
L 19.671875 8.109375 
L 31.59375 8.109375 
Q 46.6875 8.109375 53.6875 14.9375 
Q 60.6875 21.78125 60.6875 36.53125 
Q 60.6875 51.171875 53.6875 57.984375 
Q 46.6875 64.796875 31.59375 64.796875 
z
M 9.8125 72.90625 
L 30.078125 72.90625 
Q 51.265625 72.90625 61.171875 64.09375 
Q 71.09375 55.28125 71.09375 36.53125 
Q 71.09375 17.671875 61.125 8.828125 
Q 51.171875 0 30.078125 0 
L 9.8125 0 
z
" id="DejaVuSans-44"/>
      <path d="M 32.171875 -5.078125 
Q 28.375 -14.84375 24.75 -17.8125 
Q 21.140625 -20.796875 15.09375 -20.796875 
L 7.90625 -20.796875 
L 7.90625 -13.28125 
L 13.1875 -13.28125 
Q 16.890625 -13.28125 18.9375 -11.515625 
Q 21 -9.765625 23.484375 -3.21875 
L 25.09375 0.875 
L 2.984375 54.6875 
L 12.5 54.6875 
L 29.59375 11.921875 
L 46.6875 54.6875 
L 56.203125 54.6875 
z
" id="DejaVuSans-79"/>
      <path d="M 48.78125 52.59375 
L 48.78125 44.1875 
Q 44.96875 46.296875 41.140625 47.34375 
Q 37.3125 48.390625 33.40625 48.390625 
Q 24.65625 48.390625 19.8125 42.84375 
Q 14.984375 37.3125 14.984375 27.296875 
Q 14.984375 17.28125 19.8125 11.734375 
Q 24.65625 6.203125 33.40625 6.203125 
Q 37.3125 6.203125 41.140625 7.25 
Q 44.96875 8.296875 48.78125 10.40625 
L 48.78125 2.09375 
Q 45.015625 0.34375 40.984375 -0.53125 
Q 36.96875 -1.421875 32.421875 -1.421875 
Q 20.0625 -1.421875 12.78125 6.34375 
Q 5.515625 14.109375 5.515625 27.296875 
Q 5.515625 40.671875 12.859375 48.328125 
Q 20.21875 56 33.015625 56 
Q 37.15625 56 41.109375 55.140625 
Q 45.0625 54.296875 48.78125 52.59375 
z
" id="DejaVuSans-63"/>
     </defs>
     <g transform="translate(26.547187 365.703981)rotate(-90)scale(0.1 -0.1)">
      <use xlink:href="#DejaVuSans-44"/>
      <use x="77.001953" xlink:href="#DejaVuSans-75"/>
      <use x="140.380859" xlink:href="#DejaVuSans-74"/>
      <use x="179.589844" xlink:href="#DejaVuSans-79"/>
      <use x="238.769531" xlink:href="#DejaVuSans-20"/>
      <use x="270.556641" xlink:href="#DejaVuSans-63"/>
      <use x="325.537109" xlink:href="#DejaVuSans-79"/>
      <use x="384.716797" xlink:href="#DejaVuSans-63"/>
      <use x="439.697266" xlink:href="#DejaVuSans-6c"/>
      <use x="467.480469" xlink:href="#DejaVuSans-65"/>
     </g>
    </g>
   </g>
   <g id="line2d_23">
    <path clip-path="url(#pc087e139fa)" d="M 71.179364 263.767745 
L 86.529218 263.767745 
L 86.716411 302.725308 
L 87.090798 414.738655 
L 88.026765 414.738655 
L 88.401151 374.593101 
L 88.775538 309.693081 
L 88.962731 289.62418 
L 89.149925 289.28299 
L 89.524311 305.431344 
L 89.711505 322.551499 
L 89.898698 356.810549 
L 90.085891 350.873861 
L 90.273085 353.092783 
L 90.460278 360.86938 
L 90.647472 373.921328 
L 90.834665 359.510465 
L 91.021858 364.570818 
L 91.209052 333.387321 
L 91.396245 327.45635 
L 91.583438 328.308074 
L 91.770632 339.461543 
L 91.957825 323.648193 
L 92.145018 325.712288 
L 92.332212 338.298421 
L 92.519405 325.145849 
L 92.706598 323.970325 
L 92.893792 327.733405 
L 93.268178 347.894284 
L 93.455372 343.642459 
L 93.642565 347.829239 
L 93.829758 346.12193 
L 94.016952 375.620216 
L 94.204145 340.497484 
L 94.391338 345.30939 
L 94.578532 332.490525 
L 94.765725 344.38665 
L 94.952918 337.383337 
L 95.140112 325.681622 
L 95.327305 335.47848 
L 95.514498 323.066925 
L 95.701692 353.031692 
L 96.263272 328.722919 
L 96.450465 359.693182 
L 96.824852 334.753073 
L 97.199239 343.191711 
L 97.386432 337.686923 
L 97.573625 346.73635 
L 97.760819 342.019611 
L 97.948012 350.772488 
L 98.135205 336.161103 
L 98.322399 345.828243 
L 98.509592 341.645131 
L 98.696785 342.828876 
L 98.883979 353.19796 
L 99.071172 340.434184 
L 99.258365 356.262486 
L 99.632752 338.478396 
L 99.819945 348.520293 
L 100.194332 334.880941 
L 100.381525 350.515613 
L 100.568719 337.77172 
L 100.755912 263.767745 
L 100.943105 386.564946 
L 101.130299 363.818265 
L 101.317492 375.416376 
L 101.504686 374.478534 
L 101.691879 380.513559 
L 102.253459 336.701545 
L 102.440652 333.410692 
L 102.627846 320.495006 
L 102.815039 335.185428 
L 103.002232 338.865095 
L 103.189426 327.927032 
L 103.751006 372.247735 
L 103.938199 360.921734 
L 104.125392 375.393263 
L 104.499779 354.348607 
L 104.686972 359.251496 
L 105.061359 323.525946 
L 105.248552 339.792374 
L 105.435746 338.13704 
L 105.622939 328.16351 
L 105.997326 352.787354 
L 106.184519 351.77778 
L 106.371712 351.718574 
L 106.558906 358.37092 
L 106.746099 360.013359 
L 106.933293 358.338396 
L 107.120486 342.229355 
L 107.494873 357.43382 
L 107.869259 333.661527 
L 108.056453 359.15979 
L 108.243646 355.853069 
L 108.430839 343.917741 
L 108.618033 359.89247 
L 108.992419 343.531436 
L 109.366806 354.764737 
L 109.553999 353.112831 
L 109.741193 359.312575 
L 109.928386 347.616204 
L 110.302773 355.870933 
L 110.677159 345.780128 
L 110.864353 355.074414 
L 111.238739 345.720379 
L 111.425933 354.380953 
L 111.613126 340.678073 
L 111.800319 363.427756 
L 111.987513 346.519679 
L 112.174706 354.666343 
L 112.3619 376.726407 
L 112.736286 333.400286 
L 112.92348 350.163325 
L 113.110673 337.922337 
L 113.297866 363.378088 
L 113.48506 372.508641 
L 113.672253 369.421991 
L 113.859446 343.301947 
L 114.233833 350.994631 
L 114.421026 348.43666 
L 114.60822 353.289102 
L 114.795413 348.373996 
L 114.982606 355.98684 
L 115.1698 337.929961 
L 115.356993 349.942035 
L 115.544186 353.775598 
L 116.105766 345.440929 
L 116.29296 346.229333 
L 116.480153 352.133094 
L 116.667346 336.591512 
L 116.85454 352.316782 
L 117.041733 356.923277 
L 117.228926 346.660289 
L 117.41612 356.70728 
L 117.603313 359.681234 
L 117.790507 354.422924 
L 117.9777 365.977536 
L 118.164893 335.053082 
L 118.352087 349.846111 
L 118.726473 337.927606 
L 118.913667 339.155104 
L 119.10086 359.87285 
L 119.288053 339.127105 
L 119.475247 366.571503 
L 119.66244 353.432293 
L 119.849633 366.050337 
L 120.036827 337.68603 
L 120.22402 353.987927 
L 120.411213 341.154949 
L 120.7856 350.813129 
L 120.972793 343.649737 
L 121.159987 351.571836 
L 121.34718 348.253849 
L 121.534373 347.658496 
L 121.721567 363.80515 
L 121.90876 362.550044 
L 122.095953 364.370544 
L 122.47034 334.076832 
L 122.657533 343.289471 
L 122.844727 329.1274 
L 123.03192 350.983992 
L 123.219114 349.895358 
L 123.406307 350.537936 
L 123.5935 356.890273 
L 123.780694 344.119561 
L 123.967887 359.38947 
L 124.342274 348.568046 
L 124.529467 347.838931 
L 124.71666 352.490623 
L 124.903854 352.625269 
L 125.091047 349.223487 
L 125.27824 341.94413 
L 125.465434 350.278669 
L 125.652627 333.753953 
L 125.83982 349.943601 
L 126.027014 339.550082 
L 126.214207 352.745291 
L 126.4014 353.795963 
L 126.588594 341.819146 
L 126.775787 353.214274 
L 126.96298 341.663837 
L 127.150174 348.842095 
L 127.337367 351.500199 
L 127.52456 341.030178 
L 127.711754 352.873915 
L 127.898947 341.542886 
L 128.08614 346.331368 
L 128.273334 359.051371 
L 128.460527 351.258978 
L 128.647721 351.646107 
L 128.834914 337.904194 
L 129.022107 367.745944 
L 129.209301 323.72619 
L 129.396494 358.272139 
L 129.583687 327.13276 
L 129.958074 338.284523 
L 130.145267 338.970944 
L 130.332461 358.798245 
L 130.519654 348.006847 
L 130.706847 344.302074 
L 130.894041 344.954985 
L 131.081234 348.6427 
L 131.268427 338.943631 
L 131.455621 346.990951 
L 131.642814 337.220978 
L 131.830007 341.200933 
L 132.017201 359.896985 
L 132.204394 352.738172 
L 132.391587 376.654059 
L 132.578781 346.150732 
L 132.765974 351.666569 
L 132.953167 344.933487 
L 133.140361 352.299046 
L 133.327554 337.464896 
L 133.514747 338.747335 
L 133.701941 356.712719 
L 133.889134 329.504459 
L 134.263521 340.605107 
L 134.450714 345.060494 
L 134.637908 368.215297 
L 134.825101 358.358649 
L 135.012294 368.104888 
L 135.199488 414.421856 
L 135.386681 319.069556 
L 135.573874 341.152732 
L 135.761068 327.180675 
L 135.948261 338.75526 
L 136.135454 329.964126 
L 136.509841 346.551478 
L 136.697034 363.72262 
L 136.884228 352.38253 
L 137.071421 353.343893 
L 137.258614 373.909865 
L 137.445808 337.294961 
L 137.633001 360.10992 
L 138.007388 335.57452 
L 138.194581 343.979519 
L 138.381774 335.145722 
L 138.568968 350.440248 
L 138.756161 337.850667 
L 138.943355 389.719607 
L 139.130548 339.002012 
L 139.317741 354.069541 
L 139.504935 331.877155 
L 139.692128 358.89814 
L 139.879321 341.523416 
L 140.066515 345.180548 
L 140.253708 338.496143 
L 140.628095 346.562664 
L 140.815288 354.238648 
L 141.002481 349.299732 
L 141.189675 367.948887 
L 141.376868 351.119481 
L 141.564061 351.514191 
L 141.751255 352.189139 
L 141.938448 347.245945 
L 142.125641 329.542582 
L 142.312835 339.670784 
L 142.500028 327.86662 
L 142.874415 358.890267 
L 143.061608 342.468545 
L 143.248801 354.177814 
L 143.435995 350.618182 
L 143.623188 364.241912 
L 143.997575 345.616278 
L 144.184768 347.773172 
L 144.371962 338.970492 
L 144.559155 337.132615 
L 144.746348 322.349268 
L 144.933542 334.003723 
L 145.120735 355.114742 
L 145.307928 356.139111 
L 145.495122 365.762663 
L 145.682315 359.966299 
L 145.869508 361.615186 
L 146.056702 352.964318 
L 146.243895 407.934591 
L 146.431088 331.171451 
L 146.618282 340.675427 
L 146.805475 328.954136 
L 146.992668 327.927475 
L 147.179862 349.411928 
L 147.367055 331.170988 
L 147.554248 351.616657 
L 147.741442 333.271016 
L 147.928635 359.635398 
L 148.115828 351.984345 
L 148.490215 357.977714 
L 148.677408 369.900305 
L 148.864602 362.673476 
L 149.051795 341.729085 
L 149.238988 353.955379 
L 149.426182 355.634283 
L 149.613375 354.12214 
L 149.800569 335.274782 
L 149.987762 338.523419 
L 150.174955 329.546734 
L 150.549342 357.142305 
L 150.736535 339.670898 
L 150.923729 351.634961 
L 151.110922 354.601471 
L 151.485309 347.487658 
L 151.672502 355.905346 
L 151.859695 344.509362 
L 152.234082 367.722821 
L 152.608469 356.243992 
L 152.795662 363.222377 
L 152.982855 358.172279 
L 153.170049 373.687949 
L 153.357242 341.581662 
L 153.544435 349.034632 
L 153.731629 332.829085 
L 153.918822 343.242734 
L 154.106015 341.940315 
L 154.293209 345.300763 
L 154.667595 369.523058 
L 154.854789 332.499646 
L 155.041982 362.440019 
L 155.229176 373.718153 
L 155.416369 358.868266 
L 155.603562 368.689742 
L 155.977949 334.773312 
L 156.165142 336.833247 
L 156.352336 337.45055 
L 156.539529 345.091969 
L 156.726722 347.015502 
L 156.913916 359.338919 
L 157.101109 342.92902 
L 157.288302 367.000303 
L 157.475496 353.508052 
L 157.662689 360.232046 
L 157.849882 340.136116 
L 158.037076 353.992595 
L 158.224269 359.131857 
L 158.598656 339.24704 
L 158.785849 345.814579 
L 158.973042 325.60643 
L 159.534622 371.031518 
L 159.721816 360.605543 
L 159.909009 342.66049 
L 160.096202 351.003158 
L 160.283396 343.393926 
L 160.470589 341.300812 
L 160.844976 348.112843 
L 161.032169 337.441028 
L 161.219363 340.101786 
L 161.406556 333.55607 
L 161.593749 365.331039 
L 161.780943 346.166628 
L 161.968136 373.309137 
L 162.155329 353.477767 
L 162.342523 356.250746 
L 162.529716 341.964576 
L 162.716909 346.374385 
L 162.904103 355.677772 
L 163.091296 328.648715 
L 163.278489 342.145363 
L 163.465683 341.725895 
L 163.652876 358.638919 
L 163.840069 337.267778 
L 164.027263 353.312908 
L 164.214456 332.136378 
L 164.401649 351.778304 
L 164.588843 357.374314 
L 164.776036 358.380273 
L 164.963229 345.22708 
L 165.150423 345.055766 
L 165.712003 372.762556 
L 166.08639 335.601495 
L 166.273583 338.216938 
L 166.460776 343.01183 
L 166.64797 342.87803 
L 167.20955 323.706994 
L 167.396743 304.942927 
L 167.583936 303.009657 
L 167.77113 303.209798 
L 168.145516 312.808604 
L 168.33271 311.539233 
L 168.519903 309.101263 
L 168.707096 323.388972 
L 169.081483 289.65632 
L 169.268676 309.517583 
L 169.45587 295.328327 
L 169.830256 310.939423 
L 170.391836 281.303152 
L 170.57903 298.547643 
L 170.953416 285.734319 
L 171.14061 297.566487 
L 171.327803 270.985587 
L 171.514997 314.761678 
L 171.889383 294.514365 
L 172.076577 297.197754 
L 172.450963 313.338924 
L 172.638157 281.894534 
L 172.82535 275.02078 
L 173.012543 263.767745 
L 173.199737 279.428091 
L 173.38693 273.100266 
L 173.574123 308.905382 
L 173.761317 313.996187 
L 173.94851 313.853299 
L 174.322897 311.918858 
L 174.51009 291.595468 
L 174.697283 295.696063 
L 175.07167 263.767745 
L 175.258863 271.580339 
L 175.446057 265.582566 
L 175.63325 303.315071 
L 175.820443 315.841485 
L 176.007637 316.110561 
L 176.382023 298.408286 
L 176.569217 307.731209 
L 176.75641 263.767745 
L 176.943604 307.074473 
L 177.130797 273.860626 
L 177.31799 270.249271 
L 177.505184 272.722943 
L 177.692377 277.058005 
L 177.87957 290.310373 
L 178.066764 285.205745 
L 178.253957 275.937711 
L 178.44115 276.657505 
L 178.628344 296.962142 
L 178.815537 304.344671 
L 179.00273 296.896562 
L 179.189924 297.24706 
L 179.377117 281.187001 
L 179.751504 267.990898 
L 179.938697 284.714523 
L 180.12589 263.767745 
L 180.313084 263.767745 
L 180.500277 284.87718 
L 180.68747 275.272199 
L 181.061857 316.850251 
L 181.24905 291.422139 
L 181.436244 288.202526 
L 181.623437 302.645656 
L 181.81063 278.718721 
L 181.997824 281.272431 
L 182.372211 265.202898 
L 182.559404 270.636472 
L 182.746597 263.767745 
L 183.120984 286.436971 
L 183.495371 293.400759 
L 183.682564 289.38712 
L 183.869757 287.928771 
L 184.056951 288.407475 
L 184.244144 292.932632 
L 184.431337 268.298343 
L 184.618531 269.000033 
L 184.805724 268.348917 
L 184.992917 276.050312 
L 185.180111 271.403152 
L 185.367304 272.578602 
L 185.741691 293.67759 
L 185.928884 278.809688 
L 186.116077 280.224138 
L 186.490464 277.88068 
L 186.677657 288.495426 
L 186.864851 270.674612 
L 187.052044 292.059751 
L 187.239237 289.489762 
L 187.426431 291.719786 
L 187.800818 263.767745 
L 187.988011 277.49803 
L 188.175204 263.767745 
L 188.362398 291.535427 
L 188.549591 276.960933 
L 188.736784 277.193699 
L 188.923978 280.432318 
L 189.111171 274.651209 
L 189.298364 290.218432 
L 189.485558 286.352435 
L 189.672751 263.767745 
L 189.859944 270.558915 
L 190.047138 264.322805 
L 190.234331 283.637823 
L 190.421524 272.885234 
L 190.608718 283.446491 
L 190.795911 277.438532 
L 190.983104 359.537275 
L 191.170298 263.767745 
L 191.357491 280.249926 
L 191.544684 263.767745 
L 192.106264 263.767745 
L 192.480651 295.776952 
L 192.667844 274.143443 
L 192.855038 293.605223 
L 193.042231 292.427101 
L 193.229425 306.409463 
L 193.416618 282.726681 
L 193.603811 301.082431 
L 193.791005 263.767745 
L 193.978198 267.210632 
L 194.165391 263.767745 
L 194.352585 263.767745 
L 194.914165 294.18442 
L 195.101358 292.99426 
L 195.288551 301.150452 
L 195.475745 278.042859 
L 195.850131 271.745839 
L 196.037325 263.767745 
L 196.224518 265.340968 
L 196.411711 263.767745 
L 196.598905 263.767745 
L 196.786098 272.741405 
L 196.973291 269.85752 
L 197.160485 280.458957 
L 197.347678 263.767745 
L 197.534871 277.501557 
L 197.722065 263.767745 
L 197.909258 299.493251 
L 198.096452 285.743008 
L 198.283645 282.089737 
L 198.470838 297.949494 
L 198.658032 263.767745 
L 198.845225 282.000146 
L 199.032418 267.841046 
L 199.219612 267.305688 
L 199.406805 274.917424 
L 199.593998 275.517971 
L 199.781192 287.842206 
L 199.968385 279.97001 
L 200.155578 295.871575 
L 200.717158 270.986618 
L 200.904352 276.936781 
L 201.091545 272.374961 
L 201.278738 263.767745 
L 201.465932 286.060161 
L 201.653125 285.951141 
L 201.840318 281.624858 
L 202.027512 286.093962 
L 202.214705 286.055217 
L 202.401898 291.599263 
L 202.589092 278.494438 
L 202.776285 275.022948 
L 202.963478 284.793222 
L 203.150672 263.767745 
L 203.337865 263.767745 
L 203.525059 284.645005 
L 203.712252 280.589399 
L 203.899445 289.758575 
L 204.086639 289.332812 
L 204.273832 279.538846 
L 204.461025 281.368703 
L 204.648219 266.810159 
L 204.835412 278.137342 
L 205.022605 268.788132 
L 205.209799 278.521134 
L 205.584185 267.867599 
L 205.958572 286.454002 
L 206.145765 307.448963 
L 206.332959 273.583609 
L 206.520152 279.467489 
L 206.707345 281.461704 
L 207.081732 263.767745 
L 207.268925 274.606039 
L 207.456119 269.716838 
L 207.643312 293.715219 
L 207.830505 277.998516 
L 208.017699 279.711429 
L 208.204892 279.747474 
L 208.392085 270.913375 
L 208.579279 272.863929 
L 208.766472 285.238905 
L 208.953666 280.299493 
L 209.140859 298.006878 
L 209.328052 263.767745 
L 209.515246 272.425224 
L 209.702439 269.822211 
L 209.889632 270.989003 
L 210.076826 270.844743 
L 210.264019 286.242172 
L 210.451212 281.016421 
L 210.638406 289.671688 
L 210.825599 280.516397 
L 211.012792 296.453665 
L 211.199986 292.721964 
L 211.387179 286.297508 
L 211.574372 271.574074 
L 211.761566 286.642766 
L 211.948759 267.17523 
L 212.135952 263.767745 
L 212.323146 271.228029 
L 212.510339 268.928739 
L 212.697532 293.019157 
L 212.884726 294.549841 
L 213.071919 308.083799 
L 213.259112 285.606464 
L 213.446306 278.458526 
L 213.633499 291.184879 
L 214.007886 267.965539 
L 214.195079 263.767745 
L 214.382273 269.079046 
L 214.569466 267.844408 
L 214.756659 285.047708 
L 214.943853 285.610844 
L 215.131046 280.996264 
L 215.318239 300.615053 
L 215.505433 281.473524 
L 215.692626 286.992935 
L 215.879819 285.532619 
L 216.067013 268.338044 
L 216.254206 280.141698 
L 216.441399 267.154712 
L 216.628593 279.287547 
L 216.815786 271.635611 
L 217.002979 277.89198 
L 217.377366 267.584561 
L 217.564559 302.71137 
L 217.751753 274.834909 
L 217.938946 285.807825 
L 218.313333 273.636535 
L 218.500526 289.99613 
L 218.687719 292.475398 
L 218.874913 263.767745 
L 219.062106 330.396645 
L 219.249299 281.480666 
L 219.623686 263.767745 
L 219.81088 263.767745 
L 219.998073 281.18148 
L 220.185266 263.767745 
L 220.37246 281.196413 
L 220.559653 271.220031 
L 220.746846 281.336896 
L 220.93404 298.895298 
L 221.121233 282.113187 
L 221.308426 288.482886 
L 221.49562 279.417965 
L 221.682813 280.627874 
L 221.870006 277.428648 
L 222.0572 344.300822 
L 222.244393 263.767745 
L 222.61878 270.830181 
L 222.805973 263.767745 
L 222.993166 263.767745 
L 223.18036 281.005905 
L 223.367553 282.034298 
L 223.554746 287.648987 
L 223.74194 296.658665 
L 223.929133 284.337427 
L 224.30352 296.730942 
L 224.490713 295.12447 
L 224.677906 290.891575 
L 225.052293 273.037568 
L 225.239487 284.303689 
L 225.42668 265.624453 
L 225.801067 295.592345 
L 225.98826 284.686817 
L 226.175453 284.903978 
L 226.362647 296.458466 
L 226.54984 282.458743 
L 226.737033 297.985642 
L 226.924227 278.899091 
L 227.11142 282.609471 
L 227.298613 272.456264 
L 227.485807 283.450855 
L 227.673 273.386562 
L 227.860193 293.964124 
L 228.047387 281.727758 
L 228.23458 303.652914 
L 228.421773 304.948516 
L 228.79616 274.751786 
L 228.983353 286.291249 
L 229.35774 269.624466 
L 229.732127 296.050837 
L 229.91932 273.181839 
L 230.106513 310.263265 
L 230.293707 273.726733 
L 230.4809 263.767745 
L 230.855287 265.145315 
L 231.04248 269.520294 
L 231.60406 319.751723 
L 231.791254 307.62835 
L 231.978447 369.877377 
L 232.16564 302.692708 
L 232.914414 263.767745 
L 233.2888 263.767745 
L 233.663187 293.691856 
L 233.85038 277.604141 
L 234.224767 315.455691 
L 234.41196 294.851388 
L 234.599154 294.520272 
L 234.786347 303.73718 
L 234.97354 292.274523 
L 235.160734 290.859794 
L 235.347927 290.79579 
L 235.722314 269.484631 
L 235.909507 271.711484 
L 236.096701 271.138101 
L 236.283894 267.70405 
L 236.471087 286.39215 
L 236.658281 285.512394 
L 236.845474 308.943098 
L 237.032667 312.820606 
L 237.219861 310.809978 
L 237.407054 291.222259 
L 237.594247 308.823283 
L 237.781441 273.913432 
L 237.968634 279.087347 
L 238.155827 269.32168 
L 238.343021 286.385956 
L 238.530214 267.747304 
L 238.717407 279.137719 
L 238.904601 283.502538 
L 239.091794 295.304968 
L 239.278987 291.434282 
L 239.466181 320.151039 
L 239.653374 289.527042 
L 240.027761 292.431013 
L 240.214954 263.767745 
L 240.402147 318.576361 
L 240.589341 265.078459 
L 240.776534 271.789359 
L 240.963727 283.180528 
L 241.150921 266.464874 
L 241.338114 268.235023 
L 241.525308 301.85064 
L 241.712501 312.025722 
L 242.086888 305.010264 
L 242.274081 313.697982 
L 242.461274 311.764008 
L 242.648468 290.139808 
L 242.835661 292.617538 
L 243.022854 267.707762 
L 243.210048 284.487232 
L 243.584434 268.363021 
L 243.771628 305.847517 
L 244.146014 290.977063 
L 244.333208 304.006593 
L 244.520401 287.784905 
L 244.707594 302.984437 
L 244.894788 290.084623 
L 245.081981 298.689538 
L 245.269174 287.86022 
L 245.456368 298.719497 
L 245.643561 280.095596 
L 245.830754 287.467982 
L 246.017948 308.616401 
L 246.205141 277.834353 
L 246.392334 282.009834 
L 246.579528 301.369471 
L 246.766721 272.961605 
L 246.953915 270.130554 
L 247.141108 291.422512 
L 247.328301 285.060923 
L 247.515495 304.315529 
L 247.702688 300.538594 
L 247.889881 290.940424 
L 248.077075 293.400442 
L 248.264268 305.482828 
L 248.451461 278.668541 
L 248.638655 295.753663 
L 248.825848 279.415156 
L 249.013041 302.297393 
L 249.387428 287.646209 
L 249.574621 295.065273 
L 249.761815 297.792185 
L 249.949008 285.59227 
L 250.136201 290.333858 
L 250.323395 305.351574 
L 250.510588 301.23389 
L 250.697781 285.612917 
L 250.884975 295.782327 
L 251.072168 282.653251 
L 251.259361 280.664199 
L 251.633748 318.859109 
L 251.820941 291.151085 
L 252.008135 291.02733 
L 252.195328 286.639822 
L 252.382522 312.853208 
L 252.569715 277.639987 
L 252.756908 282.768751 
L 252.944102 265.571026 
L 253.131295 309.520875 
L 253.318488 282.969673 
L 254.067262 315.888996 
L 254.441648 285.858892 
L 254.628842 298.73821 
L 255.003228 276.031313 
L 255.190422 295.784401 
L 255.377615 291.593494 
L 255.564808 293.340533 
L 255.752002 293.439744 
L 255.939195 309.117601 
L 256.126388 302.791331 
L 256.313582 288.837508 
L 256.500775 317.543975 
L 256.687968 279.947769 
L 257.249548 303.629614 
L 257.436742 287.168338 
L 257.811129 280.227109 
L 257.998322 282.907704 
L 258.185515 300.215551 
L 258.372709 303.891457 
L 258.559902 314.818929 
L 258.747095 304.263425 
L 258.934289 285.876411 
L 259.121482 305.224216 
L 259.495869 283.843276 
L 259.683062 286.130492 
L 260.057449 295.92011 
L 260.244642 297.201956 
L 260.431835 302.481234 
L 260.619029 283.218456 
L 260.806222 320.829988 
L 260.993415 289.35884 
L 261.367802 306.245729 
L 261.554995 292.045657 
L 261.742189 294.570635 
L 262.116575 291.525746 
L 262.303769 296.318613 
L 262.490962 294.788219 
L 262.678156 295.537527 
L 262.865349 293.667427 
L 263.239736 308.405096 
L 263.426929 286.57279 
L 263.614122 309.699397 
L 263.801316 297.821971 
L 263.988509 309.157273 
L 264.175702 291.81304 
L 264.362896 295.619809 
L 264.550089 280.560154 
L 264.737282 293.658059 
L 265.111669 263.767745 
L 265.298862 354.615809 
L 265.486056 310.657273 
L 265.673249 295.504954 
L 265.860442 316.864424 
L 266.047636 317.057248 
L 266.234829 307.271534 
L 266.422022 309.103701 
L 266.609216 287.43845 
L 266.796409 304.460105 
L 266.983602 295.557377 
L 267.170796 294.755225 
L 267.357989 271.363463 
L 267.545182 303.057487 
L 267.732376 288.339852 
L 267.919569 295.118858 
L 268.106763 309.93296 
L 268.293956 304.234768 
L 268.481149 315.030387 
L 268.668343 300.804055 
L 269.042729 313.515384 
L 269.229923 322.011687 
L 269.417116 281.607058 
L 269.604309 304.703138 
L 269.791503 301.044841 
L 269.978696 292.774074 
L 270.165889 302.56248 
L 270.353083 301.673652 
L 270.540276 305.366548 
L 270.727469 291.024115 
L 270.914663 313.988655 
L 271.101856 280.569229 
L 271.289049 297.296598 
L 271.476243 300.190724 
L 271.663436 288.175438 
L 271.850629 312.059579 
L 272.037823 300.752717 
L 272.225016 325.345186 
L 272.599403 297.726098 
L 272.786596 333.258114 
L 272.973789 282.811111 
L 273.348176 307.603226 
L 273.53537 270.816403 
L 273.722563 321.259992 
L 273.909756 298.927906 
L 274.09695 318.616427 
L 274.471336 290.650279 
L 274.65853 301.224858 
L 274.845723 302.212165 
L 275.032916 299.323905 
L 275.22011 287.933963 
L 275.78169 313.371295 
L 275.968883 308.409319 
L 276.156076 313.540594 
L 276.34327 314.015698 
L 276.530463 285.996717 
L 276.717656 302.380682 
L 276.90485 336.33396 
L 277.092043 298.208699 
L 277.279236 313.758446 
L 277.46643 298.741067 
L 277.653623 306.0256 
L 277.840816 294.453145 
L 278.02801 297.816261 
L 278.215203 307.159081 
L 278.58959 298.687796 
L 278.776783 303.448298 
L 278.963977 321.587013 
L 279.15117 305.63623 
L 279.338363 314.17074 
L 279.71275 295.69155 
L 279.899943 307.008935 
L 280.27433 286.96686 
L 280.461523 295.160368 
L 280.83591 289.606347 
L 281.023103 310.389223 
L 281.210297 314.957976 
L 281.39749 306.800709 
L 281.584683 314.340894 
L 281.771877 313.606568 
L 281.95907 313.474014 
L 282.146263 325.025192 
L 282.333457 301.371243 
L 282.52065 303.5497 
L 282.707843 318.195333 
L 282.895037 304.552072 
L 283.08223 302.432542 
L 283.269423 297.759558 
L 283.456617 287.319521 
L 283.64381 312.313815 
L 283.831003 311.671612 
L 284.018197 306.450101 
L 284.20539 307.234778 
L 284.392584 285.351162 
L 284.579777 301.6663 
L 284.76697 301.732266 
L 284.954164 319.672121 
L 285.141357 304.747285 
L 285.515744 328.302134 
L 285.702937 318.718101 
L 285.89013 294.870017 
L 286.264517 322.351471 
L 286.638904 287.397485 
L 286.826097 309.756304 
L 287.01329 291.110632 
L 287.200484 307.057202 
L 287.387677 310.961394 
L 287.57487 291.652615 
L 287.762064 301.710696 
L 287.949257 318.439008 
L 288.13645 310.042693 
L 288.323644 312.66261 
L 288.510837 320.176466 
L 288.69803 307.012721 
L 288.885224 316.056567 
L 289.072417 296.116294 
L 289.25961 304.632291 
L 289.446804 298.482079 
L 289.821191 315.625303 
L 290.008384 309.901486 
L 290.195577 300.37122 
L 290.382771 302.367653 
L 290.569964 315.531926 
L 290.757157 314.334544 
L 290.944351 319.146602 
L 291.131544 292.417753 
L 291.318737 414.738655 
L 291.505931 278.621749 
L 291.693124 292.93264 
L 291.880317 293.800924 
L 292.067511 293.986072 
L 292.254704 281.787067 
L 292.441897 296.051912 
L 292.816284 304.47528 
L 293.190671 325.356409 
L 293.377864 330.734474 
L 293.752251 317.813137 
L 293.939444 323.458836 
L 294.313831 305.876827 
L 294.501024 307.534921 
L 294.688217 343.469155 
L 294.875411 268.700238 
L 295.062604 301.930491 
L 295.249798 314.091286 
L 295.436991 302.297048 
L 295.624184 303.857379 
L 295.811378 306.64761 
L 295.998571 327.169541 
L 296.185764 333.24682 
L 296.372958 314.953785 
L 296.560151 320.930518 
L 296.934538 293.492098 
L 297.308924 294.366424 
L 297.496118 306.546809 
L 297.683311 309.838153 
L 297.870504 303.428573 
L 298.057698 304.765526 
L 298.244891 305.24737 
L 298.432084 311.769012 
L 298.619278 327.432932 
L 298.806471 318.007242 
L 298.993664 332.489139 
L 299.180858 314.1136 
L 299.368051 334.67003 
L 299.555244 303.267014 
L 299.742438 317.529751 
L 299.929631 308.565737 
L 300.116824 287.833268 
L 300.304018 298.635749 
L 300.491211 301.818387 
L 300.678405 309.4947 
L 300.865598 303.871624 
L 301.052791 323.616391 
L 301.239985 330.335976 
L 301.427178 315.979467 
L 301.614371 339.755595 
L 301.801565 305.756426 
L 301.988758 331.450165 
L 302.175951 310.931059 
L 302.363145 310.191791 
L 302.550338 296.94657 
L 302.737531 296.452946 
L 302.924725 314.452562 
L 303.299111 295.241782 
L 303.673498 321.601737 
L 303.860691 322.585654 
L 304.047885 315.27012 
L 304.235078 333.214658 
L 304.609465 314.230915 
L 304.796658 312.56913 
L 304.983851 323.548597 
L 305.171045 315.133535 
L 305.358238 323.140557 
L 305.545431 320.780347 
L 305.732625 305.472057 
L 305.919818 306.133722 
L 306.107012 295.512216 
L 306.294205 316.776447 
L 306.481398 323.987107 
L 306.668592 319.64266 
L 306.855785 326.12755 
L 307.042978 319.41 
L 307.230172 305.916234 
L 307.604558 326.883077 
L 307.791752 325.43357 
L 307.978945 304.308107 
L 308.166138 316.384458 
L 308.353332 319.784547 
L 308.727718 309.959705 
L 308.914912 319.512489 
L 309.102105 337.767486 
L 309.289298 263.767745 
L 309.476492 335.261847 
L 309.850878 314.504917 
L 310.225265 339.070746 
L 310.599652 321.039979 
L 310.786845 327.890097 
L 310.974038 315.889244 
L 311.161232 311.27467 
L 311.348425 317.738539 
L 311.535619 313.708831 
L 311.722812 332.172292 
L 311.910005 330.999107 
L 312.284392 310.640585 
L 312.471585 306.865746 
L 312.658779 324.119521 
L 312.845972 294.41503 
L 313.033165 317.803763 
L 313.220359 324.397323 
L 313.407552 318.883666 
L 313.594745 337.372664 
L 313.781939 330.443444 
L 313.969132 313.465436 
L 314.156325 313.293891 
L 314.343519 301.116094 
L 314.530712 314.828508 
L 314.717905 336.865386 
L 314.905099 311.259468 
L 315.092292 310.015699 
L 315.279485 304.345274 
L 315.466679 347.378645 
L 315.653872 310.163863 
L 315.841065 337.947686 
L 316.028259 308.723792 
L 316.215452 320.106858 
L 316.402645 324.561683 
L 316.589839 336.656049 
L 316.777032 325.903505 
L 316.964226 328.749392 
L 317.151419 318.157883 
L 317.338612 328.695589 
L 317.712999 303.520065 
L 317.900192 303.495614 
L 318.087386 308.289626 
L 318.274579 302.482269 
L 318.461772 314.004871 
L 318.648966 311.847383 
L 318.836159 315.742135 
L 319.023352 330.706502 
L 319.397739 317.502176 
L 319.772126 335.967343 
L 319.959319 328.194024 
L 320.146512 331.992894 
L 320.333706 307.25748 
L 320.520899 302.670803 
L 320.708092 307.589698 
L 320.895286 263.767745 
L 321.082479 334.584983 
L 321.269672 320.644216 
L 321.456866 343.606122 
L 321.644059 321.747809 
L 321.831253 328.485722 
L 322.018446 317.694858 
L 322.205639 345.556688 
L 322.392833 316.978037 
L 322.580026 316.501834 
L 322.767219 335.601466 
L 322.954413 331.808669 
L 323.515993 303.904381 
L 323.703186 312.999438 
L 323.890379 304.46871 
L 324.077573 314.210581 
L 324.264766 310.480321 
L 324.451959 325.520236 
L 324.639153 323.233176 
L 324.826346 306.125564 
L 325.013539 322.360325 
L 325.200733 314.398647 
L 325.387926 319.632615 
L 325.575119 317.587144 
L 325.762313 325.802519 
L 325.949506 315.617094 
L 326.136699 317.136024 
L 326.511086 327.6554 
L 326.698279 322.237557 
L 326.885473 320.43593 
L 327.072666 325.580599 
L 327.25986 303.583846 
L 327.447053 329.018695 
L 327.634246 317.169565 
L 327.82144 319.147222 
L 328.38302 302.839448 
L 328.570213 324.972407 
L 328.757406 308.911814 
L 328.9446 309.681378 
L 329.131793 327.585789 
L 329.318986 315.212277 
L 329.50618 325.792413 
L 329.693373 324.231755 
L 329.880566 318.025349 
L 330.254953 347.913943 
L 330.442146 300.035527 
L 330.62934 315.330135 
L 330.816533 313.521094 
L 331.003726 316.065245 
L 331.19092 320.366984 
L 331.378113 311.431282 
L 331.565306 325.948384 
L 331.7525 320.983487 
L 331.939693 309.699975 
L 332.126886 307.210218 
L 332.31408 316.47553 
L 332.501273 316.717961 
L 332.688467 330.570533 
L 332.87566 317.618029 
L 333.062853 316.538644 
L 333.250047 311.705081 
L 333.43724 316.134915 
L 333.624433 311.497565 
L 333.811627 310.430809 
L 333.99882 308.610383 
L 334.186013 329.245853 
L 334.373207 305.878469 
L 334.5604 303.718522 
L 334.934787 334.62107 
L 335.12198 331.953044 
L 335.309173 321.372975 
L 335.68356 335.820783 
L 335.870753 315.841423 
L 336.057947 321.533204 
L 336.24514 333.405256 
L 336.432333 304.598537 
L 336.80672 301.952935 
L 336.993913 302.574941 
L 337.181107 300.455536 
L 337.3683 330.806098 
L 337.555493 304.682122 
L 337.742687 333.252136 
L 337.92988 342.907107 
L 338.117074 327.870102 
L 338.304267 339.697738 
L 338.49146 318.500862 
L 338.678654 337.023834 
L 338.865847 306.115215 
L 339.240234 319.618861 
L 339.427427 310.890351 
L 339.61462 323.352214 
L 339.801814 315.855331 
L 339.989007 316.744992 
L 340.1762 317.012372 
L 340.363394 322.201802 
L 340.550587 333.448393 
L 340.73778 327.431143 
L 341.112167 335.98695 
L 341.29936 327.680151 
L 341.486554 310.143441 
L 341.673747 313.749418 
L 341.86094 307.684459 
L 342.048134 335.894385 
L 342.235327 309.460655 
L 342.42252 304.2679 
L 342.609714 326.091741 
L 342.796907 334.784513 
L 342.9841 322.644325 
L 343.171294 362.218472 
L 343.358487 316.599199 
L 343.545681 324.680211 
L 343.732874 317.858015 
L 343.920067 299.705574 
L 344.107261 319.798024 
L 344.294454 310.004155 
L 344.481647 325.763265 
L 344.668841 321.049771 
L 344.856034 321.933324 
L 345.043227 322.022889 
L 345.230421 334.181033 
L 345.417614 321.390364 
L 345.604807 321.464407 
L 345.792001 306.393735 
L 345.979194 329.884398 
L 346.166387 325.008735 
L 346.353581 324.38499 
L 346.540774 322.772625 
L 346.727967 353.589083 
L 346.915161 320.972348 
L 347.102354 336.916446 
L 347.289547 295.382023 
L 347.476741 329.077181 
L 347.663934 304.117847 
L 348.038321 323.42922 
L 348.225514 330.500903 
L 348.412707 304.026165 
L 348.599901 330.104163 
L 348.787094 305.280578 
L 348.974288 334.828337 
L 349.161481 309.210526 
L 349.723061 327.257489 
L 349.910254 326.828606 
L 350.097448 318.789149 
L 350.284641 305.489294 
L 350.659028 344.666756 
L 350.846221 324.504154 
L 351.220608 331.7029 
L 351.407801 341.333399 
L 351.594994 307.004988 
L 351.782188 326.157506 
L 351.969381 303.721481 
L 352.156574 319.391472 
L 352.343768 323.373658 
L 352.530961 317.463727 
L 352.718154 317.775043 
L 352.905348 313.687649 
L 353.092541 333.209521 
L 353.279734 306.745987 
L 353.466928 337.152781 
L 353.654121 335.362496 
L 353.841314 323.333024 
L 354.028508 327.5457 
L 354.215701 327.392898 
L 354.402895 326.190326 
L 354.590088 333.853379 
L 354.777281 336.553963 
L 354.964475 327.99477 
L 355.151668 326.60188 
L 355.338861 327.90379 
L 355.526055 341.417229 
L 355.713248 338.202859 
L 355.900441 324.298115 
L 356.087635 329.601421 
L 356.274828 343.36584 
L 356.462021 333.572421 
L 356.649215 335.864462 
L 356.836408 333.855411 
L 357.023601 348.415382 
L 357.210795 329.371369 
L 357.397988 329.605019 
L 357.585181 324.154663 
L 357.772375 330.471638 
L 357.959568 329.249796 
L 358.146761 337.68647 
L 358.333955 334.965502 
L 358.521148 350.676634 
L 358.708341 336.868741 
L 358.895535 362.835711 
L 359.082728 337.450677 
L 359.269921 335.319363 
L 359.644308 345.286366 
L 359.831502 315.929414 
L 360.018695 345.566423 
L 360.393082 325.618773 
L 360.767468 334.859515 
L 360.954662 316.863969 
L 361.141855 351.636343 
L 361.329048 320.407099 
L 361.516242 355.358596 
L 361.703435 339.14044 
L 361.890628 346.057195 
L 362.077822 338.646156 
L 362.265015 338.497361 
L 362.639402 328.362694 
L 362.826595 325.880895 
L 363.013788 318.527098 
L 363.200982 318.267043 
L 363.388175 312.461422 
L 363.575368 327.207229 
L 363.762562 317.448633 
L 364.136948 347.109212 
L 364.324142 346.48048 
L 364.511335 360.58941 
L 364.698528 348.468524 
L 364.885722 356.9209 
L 365.072915 332.349786 
L 365.260109 339.957631 
L 365.447302 332.656915 
L 365.634495 330.774535 
L 365.821689 320.283747 
L 366.570462 338.28517 
L 366.757655 325.965242 
L 367.132042 362.234923 
L 367.319235 320.627351 
L 367.506429 341.868823 
L 367.693622 342.612078 
L 367.880815 337.33468 
L 368.068009 338.839453 
L 368.255202 337.475639 
L 368.442395 324.491612 
L 368.629589 323.383351 
L 368.816782 319.19032 
L 369.003975 341.771626 
L 369.191169 310.434994 
L 369.378362 347.22733 
L 369.565555 342.912709 
L 369.752749 345.555907 
L 369.939942 352.715481 
L 370.314329 353.907765 
L 370.501522 353.936179 
L 370.688716 366.713408 
L 370.875909 332.356886 
L 371.063102 340.948228 
L 371.250296 307.490289 
L 371.437489 330.440583 
L 371.624682 329.441032 
L 371.811876 326.992511 
L 372.186262 359.689594 
L 372.373456 357.793159 
L 372.560649 351.497244 
L 372.747842 339.911062 
L 372.935036 340.805195 
L 373.122229 352.680019 
L 373.309422 356.011576 
L 373.496616 333.53316 
L 373.683809 351.59039 
L 373.871002 331.009343 
L 374.058196 349.871065 
L 374.245389 343.580992 
L 374.619776 324.810186 
L 374.806969 327.874077 
L 374.994162 320.390293 
L 375.181356 321.292927 
L 375.368549 333.865539 
L 375.555742 334.201781 
L 375.742936 322.092332 
L 375.930129 325.636295 
L 376.117323 347.056765 
L 376.304516 354.112351 
L 376.491709 334.721586 
L 376.866096 364.153107 
L 377.240483 314.395927 
L 377.427676 345.20749 
L 377.614869 330.712309 
L 377.802063 349.35634 
L 377.989256 330.669397 
L 378.176449 355.658739 
L 378.550836 335.578581 
L 378.738029 359.012836 
L 378.925223 331.318094 
L 379.112416 349.829034 
L 379.299609 323.703309 
L 379.486803 366.676593 
L 379.673996 339.761384 
L 379.861189 363.132918 
L 380.048383 345.148619 
L 380.235576 341.705959 
L 380.422769 347.125523 
L 380.609963 328.276136 
L 380.797156 341.969928 
L 381.171543 324.769217 
L 381.358736 344.348838 
L 381.54593 326.015017 
L 381.733123 342.097876 
L 381.920316 332.833631 
L 382.10751 342.002971 
L 382.294703 333.572848 
L 382.66909 296.900734 
L 382.856283 270.221376 
L 383.043476 263.767745 
L 384.166636 263.767745 
L 384.166636 263.767745 
" style="fill:none;stroke:#1f77b4;stroke-linecap:square;stroke-width:1.5;"/>
   </g>
   <g id="patch_8">
    <path d="M 55.53 422.2872 
L 55.53 256.2192 
" style="fill:none;stroke:#000000;stroke-linecap:square;stroke-linejoin:miter;stroke-width:0.8;"/>
   </g>
   <g id="patch_9">
    <path d="M 399.816 422.2872 
L 399.816 256.2192 
" style="fill:none;stroke:#000000;stroke-linecap:square;stroke-linejoin:miter;stroke-width:0.8;"/>
   </g>
   <g id="patch_10">
    <path d="M 55.53 422.2872 
L 399.816 422.2872 
" style="fill:none;stroke:#000000;stroke-linecap:square;stroke-linejoin:miter;stroke-width:0.8;"/>
   </g>
   <g id="patch_11">
    <path d="M 55.53 256.2192 
L 399.816 256.2192 
" style="fill:none;stroke:#000000;stroke-linecap:square;stroke-linejoin:miter;stroke-width:0.8;"/>
   </g>
  </g>
 </g>
 <defs>
  <clipPath id="pb961e312f0">
   <rect height="166.068" width="344.286" x="55.53" y="56.9376"/>
  </clipPath>
  <clipPath id="pc087e139fa">
   <rect height="166.068" width="344.286" x="55.53" y="256.2192"/>
  </clipPath>
 </defs>
</svg>
